<svg width="112" height="26" viewBox="0 0 112 26" fill="none" xmlns="http://www.w3.org/2000/svg">
<g clip-path="url(#clip0_3594_99)">
<path d="M11.149 0.252455C10.867 0.353426 10.4057 0.706824 10.0982 1.03498C9.79062 1.36313 7.45835 6.10877 4.89542 11.5612C-0.102292 22.2641 -0.256068 22.769 0.769104 24.4097C1.0254 24.8641 1.61487 25.3942 2.02494 25.6214C3.66521 26.4544 4.12654 26.2777 11.1233 21.936C14.7627 19.6894 17.7613 17.9224 17.8126 17.9728C17.8895 18.0233 18.684 19.6641 19.6066 21.6078L21.2725 25.1165L23.7073 25.1923C25.04 25.2175 26.1421 25.1923 26.1421 25.1165C26.1421 25.0408 25.9627 24.6117 25.732 24.1573C25.5014 23.7282 24.4762 21.5826 23.451 19.4117L21.5801 15.4233L23.733 14.136C24.9119 13.4292 25.8858 12.7476 25.8858 12.6466C25.8858 12.5457 25.3989 11.6369 24.835 10.6272L23.7586 8.83498L22.8359 9.39032C22.3233 9.69323 21.5032 10.1981 21.0162 10.5262C20.5293 10.8544 19.9911 11.1068 19.8373 11.1068C19.6835 11.1068 18.4789 8.80974 17.1462 6.03304C15.1984 1.89323 14.6089 0.85828 13.9682 0.479639C13.1737 -0.0252149 12.0204 -0.100943 11.149 0.252455ZM14.1732 10.0466L15.8648 13.6563L14.1476 14.7418C9.76499 17.5437 6.2794 19.6389 6.20251 19.5631C6.12563 19.4874 7.3302 16.8117 8.84233 13.5806C11.9178 7.0175 12.3023 6.23498 12.4048 6.36119C12.4561 6.38644 13.2506 8.05245 14.1732 10.0466Z" fill="white"/>
<path d="M27.6797 12.6214V25.2427H32.5493V0H27.6797V12.6214Z" fill="white"/>
<path d="M35.3682 12.596V25.2426H39.9814V15.3979H46.5169C46.5169 15.4232 49.413 20.3202 49.413 20.3202L52.3348 25.2426H55.0002C57.6656 25.2426 57.6913 25.2426 57.3837 24.6872C57.2299 24.3843 55.8203 22.062 54.2826 19.4872C52.7448 16.9377 51.5146 14.8173 51.5659 14.7668C51.6171 14.7416 52.1553 14.4387 52.7961 14.1358C54.3595 13.3785 55.2821 12.495 56.0766 10.9804C56.6405 9.92024 56.743 9.39014 56.7686 7.54743C56.7686 5.62898 56.6917 5.22509 55.9997 3.88723C55.1796 2.29694 53.6675 1.06005 51.8222 0.454221C51.2071 0.277522 48.2341 0.126066 43.1338 0.0755803L35.3682 -0.0253906V12.596ZM49.9 4.26587C51.2071 4.99791 51.7709 6.0581 51.7709 7.77461C51.7709 9.49111 51.002 10.5261 49.5924 11.2329C48.6954 11.6872 48.0547 11.7377 44.3384 11.7377H40.1096L40.0327 7.95131C40.0071 5.88141 40.0327 4.03869 40.1096 3.83675C40.2121 3.53383 41.0066 3.48335 44.5435 3.58432C48.4904 3.66005 48.9004 3.73577 49.9 4.26587Z" fill="white"/>
<path d="M58.1787 2.01942V4.03884H67.149V25.2427H72.0185V4.03884H80.9888V0H58.1787V2.01942Z" fill="white"/>
<path d="M83.0391 12.6214V25.2427H87.4217L87.3448 14.8175L87.2679 4.36699L87.9599 6.41165C88.3443 7.54757 90.0871 12.1922 91.8555 16.7864L95.0336 25.1165H99.57L102.21 18.301C103.645 14.5398 105.388 9.94563 106.105 8.07767L107.361 4.6699V14.9437C107.387 14.9437 107.387 25.2427 107.387 25.2427H111.744V0H104.696L101.159 9.41553C99.2368 14.565 97.6478 18.9573 97.6478 19.1087C97.6478 19.2602 97.5452 19.4369 97.3915 19.4369C97.2377 19.4369 97.1352 19.2854 97.1352 19.1087C97.1608 18.9573 95.5718 14.565 93.624 9.41553L90.0871 0H86.5759H83.0391V12.6214Z" fill="white"/>
</g>
<defs>
<clipPath id="clip0_3594_99">
<rect width="112" height="26" fill="white"/>
</clipPath>
</defs>
</svg>
