<svg width="85" height="34" viewBox="0 0 85 34" fill="none" xmlns="http://www.w3.org/2000/svg">
<path d="M13.7028 0L0 31.434H6.53023L8.77834 26.0881H20.34L17.9849 20.5283H11.1335L16.165 8.2327L25.9068 31.434H32.437L18.7343 0H13.7028Z" fill="white"/>
<path d="M79.005 4.49072V20.5285L66.0516 4.49072H60.9131V31.4341H66.801V14.8618L80.2897 31.4341H85V4.49072H79.005Z" fill="white"/>
<path d="M44.3195 3.84912C36.5046 3.84912 30.1885 10.1573 30.1885 17.9623C30.1885 25.7674 36.5046 32.0755 44.3195 32.0755C52.1343 32.0755 58.4504 25.7674 58.4504 17.9623C58.4504 10.1573 52.1343 3.84912 44.3195 3.84912ZM44.3195 26.0881C39.8232 26.0881 36.1834 22.4529 36.1834 17.9623C36.1834 13.4718 39.8232 9.83654 44.3195 9.83654C48.8157 9.83654 52.4555 13.4718 52.4555 17.9623C52.4555 22.4529 48.8157 26.0881 44.3195 26.0881Z" fill="white"/>
</svg>
