<svg width="165" height="23" viewBox="0 0 165 23" fill="none" xmlns="http://www.w3.org/2000/svg">
<path fill-rule="evenodd" clip-rule="evenodd" d="M11.6567 0.281738C5.4114 0.281738 0.325195 5.33422 0.325195 11.5C0.325195 17.6657 5.4287 22.7182 11.6567 22.7182C17.8847 22.7182 19.0784 20.6972 21.1198 17.6657L18.0404 15.3022C16.7429 17.4431 14.3901 18.8646 11.674 18.8646C7.5393 18.8646 4.235 15.5933 4.235 11.5C4.235 7.4066 7.5393 4.13533 11.674 4.13533C15.8087 4.13533 16.7602 5.55688 18.0404 7.69776L21.1198 5.33422C19.0784 2.30273 15.6011 0.281738 11.6567 0.281738ZM24.8393 0.983948V22.3585H28.6107V0.983948H24.8393ZM33.5412 0.983948V22.3585H37.3126V7.7834C40.5996 12.5961 47.2774 22.3585 47.2774 22.3585H50.9796V0.983948H47.2082V15.5591C43.9212 10.7464 37.2434 0.983948 37.2434 0.983948H33.5412ZM55.9101 0.983948V22.3585H69.7155V18.6248H59.6988V11.911H68.6429V8.17732H59.6988V4.73478H69.975V1.00108H55.9274L55.9101 0.983948ZM74.1962 0.983948V22.3585H77.9676V7.61213L83.7977 15.542L89.6278 7.61213V22.3585H93.3992V0.983948H89.8181C89.8181 0.983948 86.4273 5.60826 83.7977 9.18782C81.1681 5.60826 77.7773 0.983948 77.7773 0.983948H74.1962ZM104.264 0.983948L95.9942 22.3585H100.042L102.291 16.5353H109.73L111.979 22.3585H116.028L107.758 0.983948H104.264ZM118.467 0.983948V22.3585H122.238V11.8083H124.141L131.805 22.3585H136.459L128.795 11.7911C129.435 11.774 130.456 11.6541 131.598 11.0033C132.878 10.2668 134.141 8.58837 134.141 6.3961C134.141 4.20384 132.895 2.52538 131.598 1.78892C130.317 1.05246 129.176 0.983948 128.57 0.983948H118.467ZM139.14 0.983948V22.3585H142.912V14.4287L146.631 10.969L154.814 22.3585H159.451L149.417 8.38284L157.375 0.983948H151.856L142.912 9.29058V0.983948H139.14ZM158.499 0.983948V1.66903H159.364V3.74141H160.229V1.66903H161.094V0.983948H158.499ZM161.561 0.983948V3.72428H162.27V1.63478L162.807 3.72428H163.447L163.983 1.63478V3.72428H164.675V0.983948H163.551L163.118 2.64527L162.686 0.983948H161.561ZM122.256 4.71765H128.587C129.816 4.71765 130.369 5.36848 130.369 6.37898C130.369 7.38947 129.816 8.0403 128.587 8.0403H122.256V4.70052V4.71765ZM106.011 6.92704L108.277 12.8016H103.745L106.011 6.92704Z" fill="white"/>
</svg>
