<svg width="156" height="23" viewBox="0 0 156 23" fill="none" xmlns="http://www.w3.org/2000/svg">
<path d="M11.1821 22.7212C9.73257 22.7212 8.35204 22.4424 7.04053 21.9545C4.41752 20.9091 2.34673 18.8182 1.31133 16.1C0.69009 14.6364 0.413984 13.0333 0.48301 11.4303C0.48301 9.82727 0.759116 8.22424 1.38036 6.69091C2.41575 4.04242 4.48655 1.88182 7.04053 0.836364C8.35204 0.348485 9.73257 0 11.1131 0C12.4246 0 13.7361 0.209091 14.9096 0.627273C15.945 0.975758 16.9113 1.53333 17.7396 2.3C18.4989 2.92727 19.1202 3.76364 19.6034 4.6C20.0865 5.43636 20.4317 6.27273 20.6388 7.17879L16.7733 8.43333C16.6352 7.87576 16.4281 7.38788 16.152 6.9C15.8759 6.34242 15.4618 5.92424 15.0476 5.50606C14.5644 5.08788 13.9432 4.73939 13.3219 4.46061C11.8034 3.90303 10.1467 3.90303 8.62814 4.46061C7.86885 4.73939 7.17859 5.22727 6.55735 5.78485C5.93611 6.41212 5.3839 7.17879 5.10779 8.08485C4.69363 9.1303 4.55558 10.1758 4.55558 11.2909C4.55558 12.3364 4.69363 13.3818 5.10779 14.3576C5.45292 15.1939 5.93611 15.9606 6.55735 16.5879C7.17859 17.2152 7.86885 17.6333 8.62814 17.9818C9.38743 18.3303 10.2158 18.4697 11.0441 18.4697C11.8724 18.4697 12.6317 18.3303 13.391 18.0515C14.0122 17.7727 14.6335 17.4242 15.1166 17.0061C15.5998 16.5879 15.945 16.1 16.2901 15.6121C16.5662 15.1242 16.7733 14.6364 16.9113 14.0788L20.7078 15.2636C20.5007 16.1697 20.1556 17.0061 19.6724 17.8424C19.1892 18.7485 18.4989 19.5152 17.7396 20.2121C16.9113 20.9788 15.945 21.5364 14.9096 21.9545C13.6671 22.4424 12.3556 22.6515 11.0441 22.6515L11.1821 22.7212ZM38.1715 22.7212V13.7303H28.991V22.7212H24.9184V1.04545H28.991V9.75758H38.1715V1.04545H42.3131V22.6515H38.1715V22.7212ZM59.3627 17.7727H50.5963L48.8016 22.7212H44.3149L52.5981 1.04545H57.4989L65.7131 22.6515H61.1573L59.3627 17.703V17.7727ZM51.9768 13.9394H57.9821L55.014 5.78485L52.0458 13.9394H51.9768ZM82.7627 22.7212L72.9609 7.38788V22.7212H68.7503V1.04545H73.9963L82.9697 15.3333V1.04545H87.1804V22.6515H82.7627V22.7212ZM91.2529 22.7212V1.11515H98.9839C100.433 1.11515 101.883 1.32424 103.264 1.88182C104.506 2.3697 105.679 3.06667 106.646 3.97273C107.612 4.94848 108.372 6.06364 108.855 7.38788C109.407 8.85151 109.683 10.3848 109.683 11.9879C109.683 13.5212 109.407 15.1242 108.855 16.5879C108.372 17.8424 107.612 19.0273 106.646 20.003C105.679 20.9091 104.506 21.6758 103.264 22.0939C101.883 22.5818 100.433 22.8606 98.9839 22.7909H91.322L91.2529 22.7212ZM98.7768 18.8182C99.6051 18.8182 100.433 18.6788 101.262 18.4C102.021 18.1212 102.711 17.703 103.333 17.1455C103.954 16.5182 104.437 15.8212 104.713 14.9848C105.058 14.0091 105.265 12.9636 105.196 11.9182C105.196 10.8727 105.058 9.82727 104.713 8.85151C104.437 8.01515 103.954 7.31818 103.333 6.69091C102.78 6.13333 102.09 5.71515 101.262 5.43636C100.433 5.15758 99.6051 5.01818 98.7768 5.01818H95.3945V18.8182H98.7078H98.7768ZM112.72 11.4303C112.72 9.82727 112.996 8.22424 113.618 6.69091C114.17 5.36667 114.998 4.11212 115.964 3.13636C116.931 2.16061 118.104 1.39394 119.347 0.906061C121.97 -0.139394 124.869 -0.139394 127.492 0.906061C128.734 1.39394 129.908 2.16061 130.943 3.13636C131.979 4.18182 132.738 5.36667 133.29 6.69091C133.911 8.22424 134.187 9.82727 134.187 11.4303C134.187 13.0333 133.911 14.6364 133.29 16.1697C132.738 17.4939 131.979 18.7485 130.943 19.7242C129.977 20.7 128.803 21.4667 127.492 21.9545C124.869 23 121.97 23 119.347 21.9545C118.104 21.4667 116.931 20.7 115.964 19.7242C114.929 18.6788 114.17 17.4939 113.618 16.1697C112.996 14.7061 112.72 13.103 112.72 11.4303ZM116.931 11.3606C116.931 12.4758 117.069 13.5212 117.483 14.5667C118.104 16.2394 119.416 17.5636 121.072 18.1212C121.832 18.4 122.66 18.5394 123.419 18.5394C124.248 18.5394 125.007 18.4 125.766 18.1212C127.423 17.4939 128.734 16.2394 129.356 14.5667C129.77 13.5212 129.908 12.4758 129.908 11.3606C129.908 10.2455 129.77 9.2 129.356 8.15454C128.734 6.48182 127.423 5.15758 125.766 4.5303C125.007 4.25151 124.179 4.11212 123.419 4.11212C122.591 4.11212 121.832 4.25151 121.072 4.5303C119.416 5.15758 118.173 6.48182 117.483 8.08485C117.069 9.1303 116.931 10.1758 116.931 11.2909V11.3606ZM151.168 22.7212L141.366 7.38788V22.7212H137.156V1.04545H142.402L151.375 15.3333V1.04545H155.586V22.6515H151.168V22.7212Z" fill="white"/>
</svg>
