<svg width="122" height="54" viewBox="0 0 122 54" fill="none" xmlns="http://www.w3.org/2000/svg">
<path fill-rule="evenodd" clip-rule="evenodd" d="M95.2266 25.303C93.0969 23.143 90.4348 22.063 87.4685 22.063C84.5021 22.063 81.9161 23.143 79.8625 25.303C77.7328 27.463 76.668 30.163 76.668 33.1716C76.668 36.1801 77.7328 38.8801 79.8625 41.0401C81.9922 43.2001 84.5021 44.3573 87.4685 44.3573C90.4348 44.3573 93.0208 43.2001 95.2266 41.0401C97.4323 38.8801 98.4211 36.2573 98.4211 33.1716C98.4211 30.0858 97.3562 27.463 95.2266 25.303ZM91.5757 37.3373C90.4348 38.4944 89.1418 39.0344 87.5445 39.0344C85.9473 39.0344 84.6543 38.4944 83.5134 37.3373C82.3725 36.1801 81.84 34.7916 81.84 33.2487C81.84 31.7058 82.4485 30.163 83.5134 29.083C84.6543 27.9258 85.9473 27.3858 87.5445 27.3858C89.1418 27.3858 90.5109 27.9258 91.6518 29.083C92.7166 30.2401 93.249 31.5516 93.3251 33.2487C93.3251 34.7916 92.7166 36.1801 91.6518 37.3373H91.5757Z" fill="white"/>
<path fill-rule="evenodd" clip-rule="evenodd" d="M18.7868 16.5859C14.9838 16.5859 11.9414 17.8974 9.27933 20.5974C6.61724 23.2974 5.32422 26.5374 5.32422 30.3174C5.32422 34.0974 6.61724 37.4145 9.27933 40.1145C11.8654 42.7374 14.9838 44.0488 18.7868 44.0488C22.5898 44.0488 24.5674 43.1231 27.0013 41.2717C29.3591 39.3431 30.8803 36.9516 31.717 34.0202H26.2407C25.5561 35.4088 24.5674 36.6431 23.2743 37.5688C21.9053 38.4174 20.3841 38.8802 18.7868 38.8802C16.505 38.8802 14.5275 38.0317 12.9302 36.4117C11.2569 34.7145 10.4963 32.7088 10.4963 30.3945C10.4963 28.0802 11.2569 26.0745 12.9302 24.3774C14.5275 22.7574 16.505 21.9088 18.7868 21.9088C21.0686 21.9088 21.8292 22.3717 23.2743 23.2974C24.5674 24.1459 25.5561 25.3802 26.2407 26.8459H31.717C30.8803 23.9145 29.3591 21.4459 27.0013 19.5945C24.5674 17.6659 21.8292 16.6631 18.7868 16.7402V16.5859Z" fill="white"/>
<path fill-rule="evenodd" clip-rule="evenodd" d="M57.9578 23.3744C56.1324 22.3716 54.1548 21.9858 51.873 21.9858C48.3743 21.9858 45.8643 22.9116 44.4952 24.763C43.5825 25.9201 43.1262 27.463 42.974 29.3916H48.2222C48.2982 28.4658 48.6025 27.8487 48.9828 27.463C49.5152 26.7687 50.4279 26.383 51.7209 26.4601C52.8618 26.4601 53.6985 26.6144 54.307 27.0001C54.9154 27.3087 55.1436 27.9258 55.2197 28.7744C55.2197 29.4687 54.8394 30.0858 54.0027 30.3944L49.9716 31.0887C48.1461 31.3201 46.6249 31.783 45.484 32.4773C43.5065 33.6344 42.5938 35.563 42.5938 38.263C42.5938 40.1144 43.1262 41.6573 44.3431 42.8144C45.408 43.7401 46.8531 44.203 48.6025 44.2801C51.4928 44.2801 53.6985 43.5087 55.2957 42.1201V44.2801H60.5439V28.6973C60.5439 26.1516 59.6312 24.3773 57.9578 23.4516V23.3744ZM55.1436 35.563C55.1436 37.4144 54.6112 38.6487 53.6985 39.4201C52.7097 40.1144 51.6449 40.5001 50.4279 40.5001C49.211 40.5001 49.0588 40.2687 48.6025 39.883C48.0701 39.4201 47.8419 38.7258 47.8419 37.8001C47.8419 36.8744 48.2222 35.9487 49.0588 35.4087C49.5913 35.1001 50.4279 34.8687 51.4928 34.7144L54.0788 34.0201L55.0676 33.4801V35.6401L55.1436 35.563Z" fill="white"/>
<path fill-rule="evenodd" clip-rule="evenodd" d="M39.5509 16.5859H34.3027V44.2031H39.5509V16.5859Z" fill="white"/>
<path fill-rule="evenodd" clip-rule="evenodd" d="M72.789 22.7573C71.4199 23.2973 70.1269 24.3001 69.0621 25.7659V23.0659H64.1182V44.203H69.2902V34.0973C69.2902 32.4001 69.5184 31.1659 69.9748 30.3944C70.3551 29.5459 70.9635 28.9287 71.8002 28.3887C72.7129 27.7716 73.6256 27.463 74.6905 27.463H76.2877C76.2877 27.5401 76.2877 22.1401 76.2877 22.1401H74.9187C74.9187 22.2173 72.9411 22.8344 72.9411 22.8344L72.789 22.7573Z" fill="white"/>
<path fill-rule="evenodd" clip-rule="evenodd" d="M99.3339 22.9114L111.884 10.1057L108.613 6.71143L95.9873 19.5171L99.3339 22.9114Z" fill="white"/>
<path fill-rule="evenodd" clip-rule="evenodd" d="M90.4355 17.8198V4.08838H85.7959V17.8198H90.4355Z" fill="white"/>
<path fill-rule="evenodd" clip-rule="evenodd" d="M101.616 28.1572V32.9401H115.383V28.1572H101.616Z" fill="white"/>
</svg>
