<svg width="27" height="29" viewBox="0 0 27 29" fill="none" xmlns="http://www.w3.org/2000/svg">
<path fill-rule="evenodd" clip-rule="evenodd" d="M13.7868 0.585938C9.98382 0.585938 6.94143 1.89737 4.27933 4.59737C1.61724 7.29737 0.324219 10.5374 0.324219 14.3174C0.324219 18.0974 1.61724 21.4145 4.27933 24.1145C6.86537 26.7374 9.98382 28.0488 13.7868 28.0488C17.5898 28.0488 19.5674 27.1231 22.0013 25.2717C24.3591 23.3431 25.8803 20.9516 26.717 18.0202H21.2407C20.5561 19.4088 19.5674 20.6431 18.2743 21.5688C16.9053 22.4174 15.3841 22.8802 13.7868 22.8802C11.505 22.8802 9.52746 22.0317 7.9302 20.4117C6.25689 18.7145 5.49629 16.7088 5.49629 14.3945C5.49629 12.0802 6.25689 10.0745 7.9302 8.37737C9.52746 6.75737 11.505 5.90879 13.7868 5.90879C16.0686 5.90879 16.8292 6.37165 18.2743 7.29737C19.5674 8.14594 20.5561 9.38022 21.2407 10.8459H26.717C25.8803 7.91451 24.3591 5.44594 22.0013 3.59451C19.5674 1.66594 16.8292 0.663081 13.7868 0.740224V0.585938Z" fill="white"/>
</svg>
