<svg width="105" height="35" viewBox="0 0 105 35" fill="none" xmlns="http://www.w3.org/2000/svg">
<path d="M3.13457 14.1302C6.12634 8.58091 11.3378 2.50086 17.5144 0.474173C18.769 0.136392 20.4579 -0.201389 21.5678 0.66719C22.5811 1.39101 22.6776 2.64562 22.4846 3.80373C22.1951 5.15485 21.2782 6.84375 19.7341 7.08503C19.4446 7.08503 19.2033 6.98852 19.0585 6.7955C18.6725 6.40946 18.6725 5.83041 18.769 5.34787C19.0103 4.28627 20.0236 3.12817 21.1335 2.9834C21.3265 2.83864 21.23 2.64562 21.1817 2.4526C21.037 2.21133 20.8439 2.01831 20.5544 1.97006C19.2998 1.8253 18.383 2.59737 17.4661 3.22467C13.8953 6.11994 11.2896 9.78727 9.06986 13.5029C7.28445 16.8324 5.7403 20.2585 5.30602 24.1188C5.06474 26.9176 5.98158 29.6681 8.49081 31.0192C11.1931 32.4668 14.7156 31.5018 17.4179 30.7297L19.9271 29.9576L24.7043 28.51C29.2402 27.1589 34.9342 26.8693 39.3736 28.6547C42.0759 29.7646 44.8264 31.3087 46.5635 33.9627C46.5635 34.011 46.5635 34.1075 46.467 34.1075C42.6549 33.0459 37.6847 32.0326 33.9209 33.8662H33.7279C32.5698 31.9843 30.6396 30.971 28.6611 30.5849C22.2433 29.9576 16.9836 32.9976 11 33.7697C7.96001 34.0592 4.67871 33.9627 2.55551 31.5983C-0.822294 28.2687 -0.388005 22.3334 1.20439 18.2801C1.73519 16.8324 2.3625 15.4813 3.08631 14.1302H3.13457Z" fill="white"/>
<path d="M11.965 16.1088C13.5574 13.2135 15.9702 9.64266 19.348 8.58106C20.2648 8.38805 21.2299 8.48455 21.9054 9.06361C23.3531 10.5112 22.774 12.9722 22.2915 14.7094C22.2915 14.8059 22.388 14.9024 22.4845 14.9506C23.7874 14.9506 24.8007 14.3233 25.7658 13.4065C27.7442 11.1868 29.9157 8.24328 33.1487 8.58106C33.776 8.67757 34.3551 9.01535 34.6929 9.59441C35.5132 11.2351 34.6929 13.0205 33.583 14.3233C33.1487 14.7576 32.6179 15.0472 31.9906 14.8541C31.7493 14.7576 31.5563 14.5164 31.4598 14.2751C31.2185 13.117 31.8941 12.0554 32.8109 11.4763C33.0522 11.2351 33.8725 11.3798 33.6795 10.8008C33.5348 10.5595 33.2452 10.5595 33.004 10.5112C31.4116 11.1868 30.3982 12.7792 29.4814 14.1303C28.3233 15.964 27.4065 17.8459 26.7791 19.9208C26.6344 20.6447 26.3931 21.6098 26.7791 22.2853C27.1169 22.7196 27.5995 22.9126 28.1785 22.7679C29.7227 22.1406 31.122 20.8859 32.3284 19.5831C35.0789 16.3018 36.5265 12.2484 40.1939 9.54615C41.352 8.77408 42.9444 8.14677 44.2955 8.87059C44.5368 8.9671 44.6815 9.25662 44.9711 9.16012C45.2123 8.91884 45.3571 8.48455 45.7914 8.58106C46.8047 8.58106 47.9628 8.58106 49.0244 8.62932V8.72583C49.0727 8.72583 48.7831 9.44964 48.7831 9.44964L43.0891 21.0307C43.0409 21.1755 43.0409 21.3202 43.0891 21.465C43.1856 21.6098 43.3787 21.6098 43.5234 21.5615C44.3437 21.079 44.9711 20.2104 45.5501 19.4866C46.0326 18.811 46.5152 18.0872 46.853 17.3151C46.9977 17.0738 47.1908 16.8326 47.4803 16.8808C47.8181 16.8808 48.2041 16.7843 48.4454 17.0256C48.0593 17.9907 47.5285 18.8593 46.9977 19.7761C45.4536 22.1406 43.4269 24.9393 40.5799 25.6149C40.0974 25.6631 39.5183 25.7114 39.1805 25.3736C38.6497 24.9393 38.6015 24.312 38.4567 23.6847C38.4085 23.6364 38.3119 23.5882 38.2154 23.6364C37.0091 24.7463 35.7545 25.8079 34.0656 25.6149C33.5348 25.5184 33.0522 25.0841 32.8109 24.6015C32.3767 23.7329 32.5697 22.6713 32.5697 21.7063C32.5697 21.6098 32.3767 21.658 32.3284 21.7063C30.4947 23.5399 28.4681 25.1806 26.0071 25.6149C24.849 25.7596 23.8839 25.4219 23.1118 24.6015C21.2781 22.1888 22.7258 19.0523 23.6909 16.6878C23.6909 16.5913 23.6909 16.4465 23.5944 16.3983C22.9188 16.4465 22.2915 16.543 21.6642 16.6395L21.4229 16.8808C19.927 19.6313 18.3346 22.5748 15.6324 24.6498C14.5225 25.4701 12.8819 26.0009 11.579 25.2771C10.2279 24.3603 10.0831 22.6713 10.2761 21.1272C10.6139 19.39 11.2412 17.7494 11.965 16.2053V16.1088ZM16.2114 16.0122C15.4394 17.6046 14.619 19.197 14.619 21.0307C14.7155 21.3685 14.9086 21.8028 15.2946 21.8993C15.7289 21.9958 16.0667 21.8028 16.3562 21.5615C17.9003 20.2586 18.9619 18.5215 19.8305 16.8326C19.8788 16.6878 20.0235 16.4465 19.927 16.3018C19.0102 15.9157 18.1416 15.2884 17.4178 14.5164H17.273C17.1283 14.5164 17.08 14.6611 16.9835 14.7576L16.2114 16.0122ZM18.5759 12.7792C18.6241 13.5995 19.3962 14.3233 20.12 14.6129C20.3131 14.6611 20.6026 14.8059 20.7473 14.6129C21.0369 14.0821 21.1816 13.503 21.3264 12.924C21.4712 12.1519 21.5677 11.1385 20.8439 10.656C20.6026 10.5112 20.2165 10.5112 19.9753 10.656C19.1549 11.0903 18.5276 11.9106 18.5759 12.8757V12.7792ZM37.3469 19.2453C37.1538 19.9208 36.8161 20.6929 37.0573 21.465C37.1056 21.6098 37.2986 21.7063 37.4434 21.7545C38.0707 21.7545 38.505 21.2237 38.891 20.7412C40.7247 18.2319 42.124 15.4814 43.3787 12.7309C43.5717 12.1519 43.9095 11.6211 43.9095 10.9455C43.9095 10.8008 43.7647 10.7043 43.6682 10.656C43.3787 10.5112 43.1374 10.7043 42.8961 10.849C40.4351 12.7309 39.1323 15.4332 37.8777 18.0389L37.3951 19.2935L37.3469 19.2453Z" fill="white"/>
<path d="M49.1693 12.1514C49.7001 11.0898 50.1826 9.93169 50.8582 8.91835C51.1477 8.62882 51.582 8.62882 51.9198 8.58057H54.6703L54.7668 8.72533C54.2842 9.83518 53.8017 10.8968 53.2226 11.9584C53.0779 12.2479 52.7884 12.4892 52.4506 12.5374C51.3407 12.5374 50.1826 12.6339 49.121 12.5374C49.0245 12.4409 49.121 12.2962 49.121 12.1514H49.1693Z" fill="white"/>
<path d="M51.92 17.6528C53.802 13.7442 56.1182 9.93212 59.3512 6.60257C62.4878 3.46603 65.9138 0.908545 70.0155 0.136474C71.1253 -0.00828888 72.3799 0.0882195 73.2485 0.86029C73.3933 1.00505 73.5863 1.14982 73.8275 1.05331C76.7711 -0.104797 80.8727 -0.539087 83.8645 0.956799C85.6016 1.77712 87.194 2.88698 88.8347 3.90032C89.0277 3.99683 88.9312 4.2381 88.8347 4.33461C87.8696 5.3962 87.0975 6.4578 86.2289 7.56765C86.1324 7.66416 85.9877 7.61591 85.8911 7.56765L81.5483 4.57588C79.5216 3.1765 77.1571 2.21141 74.5514 2.6457C74.2618 2.79047 74.4066 3.1765 74.3584 3.41777C74.4066 6.12002 73.4415 8.48449 72.1386 10.6559C71.077 12.1518 69.8707 13.7442 68.0853 14.2268C67.3132 14.3715 66.5411 14.1303 66.1068 13.5512C64.804 11.5728 65.9621 9.16005 66.9272 7.42289C68.037 5.49271 69.6777 3.7073 71.5113 2.35618C71.5113 2.30792 71.6561 2.21141 71.5596 2.1149C71.3666 1.92189 71.077 2.06665 70.8358 2.1149C67.8923 3.07999 65.5278 5.73399 63.3563 8.19496C59.4477 12.9721 56.5042 18.1836 54.8153 23.9259C54.2845 26.0491 53.609 29.3786 55.7804 30.8745C57.7106 31.8879 59.5442 30.585 60.9919 29.3304C63.2116 27.1107 64.6592 24.5049 65.2865 21.6097C65.383 20.7411 65.6243 19.5347 64.804 18.9557C64.0802 18.6179 63.5011 19.2452 63.0186 19.7278C61.9087 21.0789 61.4262 22.7195 61.2331 24.4567C60.7506 24.891 60.1233 25.1323 59.5925 25.5183C58.5792 26.1939 57.6141 27.1107 56.7937 28.0758C56.6972 28.0758 56.6972 27.9793 56.649 27.931C56.5525 24.698 57.6623 21.9475 59.4477 19.4865C60.8471 17.8458 62.6808 16.4465 64.8522 16.9773C65.8173 17.2185 66.4446 18.2319 66.6376 19.1487C66.9754 22.1887 65.7208 24.7945 64.3697 27.2555C62.15 30.7298 58.6757 34.2041 54.2845 33.7698C52.5956 33.6733 51.0032 32.5152 50.3277 30.9228C48.687 27.5932 49.7969 23.3468 50.955 20.1138L51.9683 17.6528H51.92ZM66.8789 11.9588C66.8789 12.3448 67.0719 12.7309 67.458 12.8756C68.1818 13.0687 68.8091 12.5379 69.3399 12.1036C71.3183 9.98037 72.5729 7.5194 72.8625 4.72064C72.8625 4.28635 73.0072 3.75555 72.766 3.41777C72.6212 3.41777 72.4282 3.41777 72.2834 3.56254C70.9323 4.47937 69.6777 5.78224 68.7608 7.08511C67.7957 8.581 66.9272 10.0769 66.8789 11.9588Z" fill="white"/>
<path d="M69.6773 21.3687C71.2697 19.2455 73.3929 16.9293 76.0951 16.7845C76.7707 16.7845 77.3497 17.074 77.784 17.6531C78.9421 19.342 77.977 21.5134 77.5427 23.2506C77.5427 23.3954 77.591 23.4919 77.7358 23.5401C78.2666 23.6366 78.9421 23.5401 79.4247 23.2988L79.6177 23.0576C81.5479 17.5566 84.4431 12.4416 87.8209 7.56791C89.9441 4.76915 92.6946 1.82563 95.8312 0.47451C96.6032 0.233238 97.6648 -0.104543 98.3886 0.47451C99.209 1.15007 98.9677 2.25992 98.7747 3.1285C98.6782 3.90057 97.8096 3.99708 97.2788 4.14185C97.2788 4.14185 97.2305 4.14185 97.1823 4.14185C97.1823 3.6593 97.4718 3.22501 97.5683 2.69421C97.5683 2.45294 97.6166 2.21167 97.5683 1.9704C97.4236 1.72913 97.134 1.82563 96.941 1.87389C95.8794 2.40469 95.0108 3.36977 94.1905 4.28661C91.1505 7.85743 88.9308 11.766 86.8558 15.7712C86.1803 17.1705 85.5047 18.5217 84.9257 19.9693C84.9257 20.0658 84.9257 20.1141 85.0222 20.1623C85.5047 20.1623 85.7942 19.6798 86.132 19.4385C88.8343 16.9775 91.0057 14.1788 93.0324 11.3318C93.4667 11.1387 93.9492 11.1387 94.48 11.0905H94.5765C94.5765 11.5248 94.1905 11.8143 94.0457 12.1521C91.7778 15.3851 89.2203 18.5217 86.132 21.3204L83.8641 23.1541C83.3815 23.5884 83.3815 24.2157 83.1403 24.7465C82.706 26.1941 82.2717 27.6417 82.2234 29.1859C82.2234 29.4272 82.3199 29.7167 82.5612 29.8614C83.1403 30.1027 83.6228 29.5719 84.0571 29.1859C87.0971 25.6633 88.4482 21.3687 92.1638 18.1839C93.3702 17.2188 95.0108 16.3985 96.555 17.1223C96.8445 17.2188 97.0375 17.6048 97.3753 17.4118C97.6166 17.267 97.6166 16.881 97.9544 16.881C99.0642 16.881 100.222 16.881 101.284 16.881C101.38 16.9775 101.284 17.1223 101.284 17.2188L100.512 18.7629L95.8312 28.1725C95.6381 28.6068 95.3486 29.0411 95.3486 29.5237C95.3969 29.7167 95.6381 29.7649 95.8312 29.7167C96.6997 29.2341 97.327 28.4138 97.9061 27.6417C98.4851 26.8214 98.9194 26.0011 99.4985 25.1808C99.788 25.036 100.174 25.0843 100.512 25.1808C100.705 25.3738 100.464 25.6151 100.415 25.8081C99.0642 28.6551 97.134 31.7434 94.1423 33.2875C93.4667 33.6253 92.5016 33.9631 91.7295 33.5288C91.1022 33.0945 91.1987 32.3707 90.9092 31.7434C90.861 31.6469 90.7162 31.6951 90.6679 31.7434C89.4133 32.8532 88.1105 34.1078 86.3733 33.6253C85.3117 33.1427 85.1669 31.8881 85.0704 30.8265C85.0222 30.8265 85.0704 30.6818 84.9739 30.6818H84.8292C83.6228 32.1777 82.0787 34.0113 80.052 33.8183C79.2799 33.7701 78.6043 32.998 78.3631 32.3224C77.6392 30.0545 78.3631 27.5935 78.8939 25.422C78.8939 25.2773 78.7491 25.1808 78.6526 25.1808H76.9637L76.6742 25.5185C75.4195 27.9795 74.0202 30.344 71.8487 32.4189C70.6906 33.4323 69.2912 34.2526 67.7471 33.8183C66.4442 33.2393 66.1064 31.8399 66.1064 30.537C66.396 27.2075 67.8919 24.3604 69.7255 21.6582L69.6773 21.3687ZM70.1598 28.8481C70.1598 29.3306 70.4011 29.8132 70.8836 29.958C71.2214 30.0545 71.5592 29.958 71.8487 29.8132C73.4411 28.6068 74.4062 26.8214 75.2748 25.1325C75.3713 24.9877 75.4195 24.6982 75.2265 24.6017C74.4062 24.1674 73.5859 23.5401 72.9103 22.8163C72.8138 22.7198 72.669 22.7198 72.5725 22.8163C71.9935 23.6366 71.5592 24.5052 71.1732 25.3738C70.6906 26.4836 70.1598 27.5935 70.1598 28.9446V28.8481ZM74.1649 21.0791C74.2132 21.9477 74.8887 22.7198 75.6608 23.0093C75.8056 23.0576 76.0951 23.1541 76.1916 22.9611C76.6742 21.8995 77.1085 20.6449 76.8672 19.3902C76.7707 19.1007 76.5294 18.8112 76.2399 18.7147C75.9503 18.6182 75.6126 18.7147 75.3713 18.8594C74.5992 19.3902 74.2132 20.2106 74.1649 21.1274V21.0791ZM89.4133 28.5103C89.4133 28.8964 89.2686 29.4272 89.6063 29.7167C89.7511 29.8614 90.0406 29.9097 90.2336 29.8132C91.054 29.3789 91.5848 28.5103 92.0673 27.7865C93.7562 25.1808 94.9626 22.4303 96.1207 19.5833C96.1207 19.342 96.2172 19.0042 95.9759 18.8112C95.3004 18.4734 94.7696 19.2455 94.287 19.5833C92.0673 21.7547 90.9092 24.457 89.7994 27.1109L89.4133 28.4621V28.5103Z" fill="white"/>
<path d="M92.6476 7.85694L94.1435 5.92676L94.3847 5.73374C98.6311 5.63723 102.009 3.128 105.001 0.13623C105.001 0.522266 104.808 0.908301 104.663 1.29434C102.684 5.92676 97.9073 9.98013 92.7441 10.0766H91.5377C91.2965 9.98013 91.4895 9.78711 91.5377 9.6906L92.7441 7.90519L92.6476 7.85694Z" fill="white"/>
</svg>
