<svg width="161" height="30" viewBox="0 0 161 30" fill="none" xmlns="http://www.w3.org/2000/svg">
<path d="M160.779 22.7832H139.097V22.0606H160.779V22.7832ZM149.971 18.7228L152.031 16.7661L152.841 17.5654L150.638 19.3814C150.489 19.5988 150.347 19.9633 150.198 20.1807H148.578C148.837 19.5413 149.336 19.0169 149.971 18.7292V18.7228ZM143.063 6.39454C142.992 6.39454 141.372 6.82935 141.372 6.82935C140.996 6.97642 140.627 7.14907 140.27 7.3345C139.901 7.55191 139.538 7.91638 139.538 8.13379L141.009 8.49827C141.21 8.26168 141.43 8.04427 141.67 7.84605L142.039 7.69898L143.212 6.46487C143.283 6.39454 143.283 6.3178 143.031 6.39454H143.07H143.063ZM152.984 10.3079C152.09 9.34232 151.254 8.32562 150.483 7.26416C151.033 5.90857 151.241 4.43788 151.072 2.98637C150.774 2.44924 150.431 1.94409 150.042 1.46452C149.893 1.24711 149.232 0.524554 148.94 0.524554C148.649 0.524554 148.791 0.524554 148.791 0.594892L148.863 1.39418C147.91 1.97606 146.802 2.69862 145.849 3.42757C145.83 3.72171 145.849 4.01585 145.921 4.2972C146.076 4.41869 146.251 4.521 146.433 4.58494C147.087 4.43148 147.748 4.30999 148.416 4.22047L147.165 6.03646L145.694 7.05315L143.931 6.47127C143.782 6.47127 143.711 6.47127 143.64 6.54161L142.318 7.91638C142.227 7.98672 142.175 8.09542 142.169 8.20413L142.098 9.72598V10.2311C142.072 10.8258 142.253 11.4141 142.609 11.9L143.419 10.6659C143.251 10.3974 143.128 10.1032 143.05 9.79631V8.49187L143.86 7.90999L146.063 9.43184C146.4 10.0457 146.789 10.6276 147.236 11.1711C148.215 12.0151 149.277 12.7697 150.398 13.4219C150.496 13.991 150.638 14.5473 150.839 15.0908L153.483 17.7764L151.941 19.7331C151.338 20.0464 150.943 20.6539 150.91 21.3317H152.751L152.971 20.315L155.174 17.9235C155.323 17.7764 155.323 17.7061 155.245 17.559L154.656 15.5256C155.213 14.899 155.55 14.1125 155.608 13.2748C155.608 11.3182 153.625 10.8066 152.965 10.2631V10.3015L152.984 10.3079ZM156.295 13.4986C156.159 13.0254 155.991 12.5651 155.783 12.1238C155.783 12.1238 155.855 12.0535 156.075 12.1238C156.295 12.1942 157.397 12.9935 157.397 12.9935C157.987 13.7928 158.349 17.2713 158.349 18.5054C157.708 18.2368 157.112 17.8723 156.587 17.4183L156.295 13.505V13.4986ZM99.997 12.7057C99.997 11.4013 99.5564 10.3846 98.4548 10.3846C97.3532 10.3846 96.8348 11.4013 96.8348 12.7057V21.3381H98.1567V22.7128H90.7306V21.3381H92.1238V9.44462H90.7306V8.10182H96.5367V10.3526H96.608C97.2754 8.81159 98.8047 7.81407 100.502 7.81407C102.395 7.69898 104.073 9.01621 104.397 10.8578C104.539 11.6507 104.611 12.45 104.617 13.2492V21.37H106.38V22.7448H99.9128L99.984 12.661M69.9363 12.6674C69.9363 11.3629 69.4956 10.3462 68.394 10.3462C67.2924 10.3462 66.774 11.3629 66.774 12.6674V21.2997H68.096V22.6745H60.6699V21.2997H62.0631V9.44462H60.6699V8.10182H66.476V10.3526H66.5472C67.2147 8.81159 68.744 7.81407 70.4417 7.81407C72.3339 7.69898 74.0122 9.01621 74.3362 10.8578C74.4788 11.6507 74.55 12.45 74.5565 13.2492V21.37H76.3191V22.7448H69.852L69.9233 12.661L69.9363 12.6674ZM112.782 9.40626V20.2127C112.737 20.6922 113.1 21.1143 113.586 21.1526C113.637 21.1526 113.689 21.1526 113.741 21.1526C114.039 21.1462 114.337 21.0951 114.622 21.0055V22.31C113.735 22.7576 112.75 22.9558 111.758 22.8919C109.477 22.8919 108.084 21.8048 108.084 19.4134V9.44462H106.542V8.50466C108.304 7.12988 110.365 5.5313 111.979 4.22686H112.86V8.10821H115.102V9.41265H112.789L112.782 9.40626ZM20.1051 0.51816C20.1051 0.51816 23.708 4.0734 25.3215 5.88299V7.25777C23.2349 5.37145 20.5068 4.30999 17.6751 4.28441C10.9877 4.28441 6.79516 9.29116 6.79516 15.4553C6.79516 21.6194 10.7609 26.5494 17.6751 26.5494C20.5911 26.575 23.384 25.4048 25.3928 23.3203V24.6247C23.3321 27.451 19.5154 29.267 14.7332 29.267C6.20548 29.3373 0.328125 23.25 0.328125 15.4873C0.386445 7.74374 6.79516 1.50928 14.6424 1.56043C14.6748 1.56043 14.7008 1.56043 14.7332 1.56043C16.554 1.56043 18.3684 1.86097 20.0986 2.43006V0.505371L20.1051 0.51816ZM88.5339 18.8698C87.7368 19.8034 86.538 20.315 85.3004 20.2446C83.9784 20.2446 81.8465 19.5221 81.7752 16.1139H89.7132C89.7132 15.8262 89.7845 15.3146 89.7845 15.0269C89.7845 10.8961 88.0932 7.84605 83.6091 7.84605C79.1249 7.84605 76.8504 11.2542 76.8504 15.4617C76.8504 19.6691 79.1314 23.007 83.6091 23.007C86.065 23.1349 88.3589 21.792 89.4152 19.5988L88.5339 18.8762V18.8698ZM81.6975 14.6624C81.6975 10.8194 81.9891 9.36789 83.3175 9.36789C84.6459 9.36789 84.9375 10.7427 85.0088 14.6624H81.704H81.6975ZM16.2106 15.3849C16.2106 10.8897 16.6512 8.93308 18.1935 8.93308C19.7357 8.93308 20.1764 10.8897 20.1764 15.3849C20.1764 19.8801 19.7357 21.8368 18.1935 21.8368C16.6512 21.8368 16.2106 19.8801 16.2106 15.3849ZM10.7026 15.4617C10.7026 19.8865 13.4242 23.5121 18.2 23.5121C22.9757 23.5121 25.6973 19.8865 25.6973 15.4617C25.6973 11.0368 22.9757 7.37287 18.2 7.37287C13.4242 7.37287 10.7026 10.9984 10.7026 15.4233M36.1301 12.6674C36.1301 11.3629 35.6895 10.3462 34.5879 10.3462C33.4863 10.3462 32.9679 11.3629 32.9679 12.6674V21.2997H34.2509V22.6745H26.8637V21.2997H28.2569V9.44462H26.8637V8.10182H32.6698V10.3526H32.7411C33.4085 8.81159 34.9378 7.81407 36.6356 7.81407C38.5277 7.69898 40.206 9.01621 40.53 10.8578C40.6726 11.6507 40.7439 12.45 40.7504 13.2492V21.37H42.5129V22.7448H36.0459V12.6993L36.1172 12.661L36.1301 12.6674ZM52.9587 4.1821C52.9587 5.48654 54.1316 6.35617 55.8228 6.35617C57.5141 6.35617 58.687 5.48654 58.687 4.1821C58.687 2.87766 57.5141 2.00804 55.8228 2.00804C54.1316 2.00804 52.9587 2.948 52.9587 4.1821ZM48.9152 9.40626V20.2127C48.8698 20.6922 49.2327 21.1143 49.7187 21.1526C49.7705 21.1526 49.8224 21.1526 49.8742 21.1526C50.1723 21.1462 50.4704 21.0951 50.7555 21.0055V22.31C49.8677 22.7576 48.8828 22.9558 47.8913 22.8919C45.6104 22.8919 44.2172 21.8048 44.2172 19.4134V9.44462H42.6749V8.50466C44.4375 7.12988 46.4981 5.5313 48.1116 4.22686H48.954V8.10821H50.7944V9.41265H48.9216L48.9152 9.40626ZM135.643 21.37H137.484V22.7448H130.945V4.0734H129.325V2.69862H135.682V21.4084L135.643 21.37ZM123.072 15.4936C122.781 15.2698 122.411 15.1611 122.042 15.2059C120.649 15.2059 120.351 16.5807 120.351 17.9619C120.351 19.343 120.791 20.4301 121.971 20.4301C122.385 20.4684 122.8 20.3086 123.072 19.9952V15.5V15.4936ZM123.221 21.0055C122.366 22.2972 120.895 23.0645 119.327 23.0389C116.903 23.0389 115.432 21.0055 115.432 18.5437C115.432 16.0819 117.564 13.7544 120.947 13.7544C121.666 13.7288 122.392 13.8247 123.079 14.0421V13.1022C123.195 11.7402 122.172 10.5381 120.791 10.4166C120.649 10.4038 120.506 10.4038 120.364 10.4166C119.016 10.4166 117.759 11.0688 116.981 12.1558L116.171 11.1391C117.428 9.11212 119.644 7.85244 122.048 7.80129C125.651 7.80129 127.783 9.90502 127.783 13.0958V21.3636H129.325V22.7384H123.299L123.228 20.9992L123.221 21.0055ZM52.1487 22.7512V21.3764H53.4706V9.44462H52.1487V8.10182H58.1751V21.3764H59.5683V22.7512H52.1422H52.1487Z" fill="white"/>
</svg>
