<svg width="85" height="32" viewBox="0 0 85 32" fill="none" xmlns="http://www.w3.org/2000/svg">
<g clip-path="url(#clip0_3594_223)">
<path d="M52.3972 15.7055C52.064 15.3321 51.7648 14.8181 51.6424 14.198C51.5166 13.5779 51.5676 12.855 51.7784 12.1937C52.3938 12.646 53.0092 13.1016 53.2948 13.8074C53.5838 14.5132 53.543 15.476 53.5022 16.4353C53.0976 16.3154 52.7304 16.0789 52.3972 15.7021V15.7055ZM51.4554 22.8558C50.551 24.3153 49.3712 25.7817 48.0316 26.2957C46.692 26.8096 45.196 26.3676 44.448 25.2336C43.7 24.0995 43.7 22.2734 43.904 20.7385C44.108 19.2036 44.5194 17.9667 45.145 16.9012C45.7672 15.8391 46.6002 14.9518 47.3448 14.246C48.086 13.5402 48.7388 13.0194 49.4358 12.574C49.6568 13.9308 49.8744 15.2875 50.5272 16.2605C51.18 17.237 52.2612 17.8297 53.3458 18.4258C52.9854 19.9436 52.3598 21.3929 51.4554 22.8524V22.8558ZM34.7036 17.0417C34.4078 16.6134 34.2276 15.9899 34.1868 15.267C34.146 14.544 34.2446 13.7252 34.4792 12.9543C34.8668 13.1599 35.1932 13.4751 35.4448 13.9342C35.6998 14.3967 35.88 15.0031 35.9548 15.6644C36.0296 16.3256 35.9922 17.0451 35.8494 17.7372C35.4142 17.6961 35.0028 17.4665 34.7036 17.0417ZM33.4116 23.7055C32.6296 24.7847 31.6436 25.6515 30.4638 25.9702C29.2874 26.2888 27.9206 26.0524 27.1998 24.98C26.479 23.9042 26.4008 21.989 26.581 20.5192C26.7612 19.046 27.1998 18.0147 27.6282 17.0931C28.0566 16.1715 28.4782 15.356 29.2194 14.5269C29.9606 13.6944 31.0248 12.8481 32.1842 12.18C31.9938 13.4545 32.0312 14.777 32.2828 15.8802C32.5004 16.843 32.9118 17.7509 33.483 18.5526C33.9658 19.2241 34.4656 19.6764 35.0436 20.0019C34.7648 21.3449 34.1902 22.6331 33.4082 23.7124L33.4116 23.7055ZM8.11557 7.73634C7.08196 9.15818 6.06877 10.6417 5.13377 12.1697C4.47417 12.18 3.74997 11.9436 3.38277 11.6147C3.01557 11.2858 3.00537 10.8644 3.08357 10.4978C3.16177 10.1312 3.33177 9.81942 3.48817 9.52135C3.64457 9.22327 3.78737 8.9389 3.67517 8.71621C3.56297 8.49351 3.19577 8.33248 2.80817 8.28794C2.42057 8.2434 2.00917 8.31535 1.63517 8.45925C1.26117 8.60314 0.921166 8.81557 0.628766 9.11021C0.336366 9.40486 0.0915658 9.77831 0.0201658 10.4087C-0.0512342 11.0391 0.0473659 11.9265 0.822566 12.646C1.59777 13.3655 3.04957 13.9205 4.43677 13.9924C3.55277 16.0207 2.95437 18.186 2.69937 20.1492C2.44097 22.1158 2.52257 23.8802 3.03937 25.6618C3.55617 27.4434 4.50817 29.2387 6.14357 30.2631C7.77896 31.2875 10.0978 31.5376 12.131 31.058C14.1642 30.5749 15.9118 29.3586 17.4894 28.1355C19.067 26.9124 20.4712 25.6824 21.7496 24.3256C21.7462 25.2096 21.906 26.0901 22.2596 27.0871C22.6132 28.0875 23.1606 29.2044 24.0004 30.0678C24.8402 30.9312 25.9758 31.5376 27.3698 31.6336C28.7638 31.7329 30.4162 31.3218 31.8884 30.3488C33.3606 29.3757 34.656 27.8443 35.6216 26.1894C36.5872 24.5346 37.2264 22.753 37.5766 21.6944C37.9268 20.6357 37.988 20.2931 37.9846 19.947C38.396 19.947 38.8108 19.9436 39.1916 19.8408C39.5724 19.738 39.9226 19.5359 40.2728 19.3372C39.654 21.1839 39.3242 23.1436 39.2936 24.8293C39.263 26.5183 39.535 27.9368 40.215 29.177C40.895 30.4173 41.9864 31.4794 43.5266 31.846C45.0634 32.2091 47.049 31.8768 48.5926 31.1505C50.1362 30.4241 51.2378 29.3072 52.1796 27.9573C53.1214 26.6074 53.9068 25.028 54.4814 23.3937C55.056 21.756 55.4198 20.0601 55.5626 18.347C57.1708 17.2438 58.779 16.1406 59.901 15.0614C61.0196 13.9822 61.652 12.9303 62.2844 11.8751C62.74 12.6288 62.8658 13.5368 62.3728 14.9723C61.8832 16.4044 60.7748 18.3642 59.7956 20.019C58.8198 21.6738 57.9732 23.0237 57.4156 24.6819C56.858 26.3402 56.5928 28.3102 57.164 29.7321C57.7352 31.1539 59.1394 32.031 60.8326 31.9316C62.5258 31.8323 64.5046 30.7496 66.4052 28.413C68.3058 26.0764 70.1248 22.4755 71.4984 19.9607C72.8686 17.446 73.7934 16.0173 74.5278 15.01C75.2656 14.0027 75.8164 13.4203 76.4284 12.9132C76.9282 15.7569 77.2342 18.6451 77.3328 20.6734C77.4314 22.7016 77.3192 23.8665 76.8398 24.6819C76.3638 25.4974 75.5206 25.9633 74.7386 25.8605C73.9566 25.7543 73.2358 25.0828 73.025 24.2434C72.8108 23.4074 73.1066 22.4104 73.0556 21.8965C73.0046 21.386 72.6068 21.3586 72.1784 21.7012C71.75 22.0438 71.2808 22.7462 70.8898 23.7124C70.4988 24.6819 70.1792 25.9119 70.3424 27.2687C70.5056 28.622 71.1516 30.0986 72.328 30.9243C73.5044 31.75 75.2112 31.9213 76.51 31.5445C77.8088 31.1676 78.6962 30.2357 79.3252 29.5094C79.9542 28.7864 80.3248 28.2657 80.6036 27.7004L84.1328 26.3025L85.0032 23.3115L80.9674 25.1685C80.9096 23.1539 80.692 21.1428 80.2942 19.2858C79.8964 17.4288 79.3218 15.7226 78.9648 14.4139C78.6078 13.1051 78.4752 12.1972 78.4174 11.2789C78.8798 10.6965 79.3184 10.0935 79.7842 9.46995C80.25 8.8464 80.7396 8.20229 80.7396 7.63698C80.7396 7.07167 80.2398 6.58858 79.2028 7.22927C78.1658 7.86995 76.5848 9.63441 75.1976 11.5119C73.8104 13.3894 72.6204 15.38 71.41 17.3398C70.1996 19.3029 68.9722 21.2353 68.1154 22.431C67.2586 23.6267 66.7758 24.0824 66.2726 24.5552C65.7694 25.028 65.2424 25.5179 64.712 25.5796C64.1816 25.6378 63.6478 25.2644 63.7566 24.2194C63.8654 23.171 64.6134 21.4511 65.1574 19.5154C65.7014 17.5796 66.0414 15.4246 66.0278 13.9548C66.0142 12.4849 65.6504 11.6969 65.2628 11.1179C64.8752 10.5389 64.4672 10.1655 63.9878 9.92563C64.151 9.21642 64.3414 8.51407 64.61 7.79801C64.8752 7.08195 65.2186 6.35218 65.2594 5.76631C65.3002 5.17702 65.0418 4.73163 64.5182 4.52606C63.9946 4.32049 63.2058 4.35818 62.7298 5.01257C62.2538 5.66696 62.0872 6.93462 61.8084 8.29822C61.5296 9.66182 61.1352 11.1179 60.3328 12.3513C59.5338 13.5847 58.3268 14.5989 57.4904 15.1984C56.654 15.798 56.1882 15.9864 55.6986 16.0413C55.5626 14.7085 55.141 13.3963 54.5562 12.3616C53.9714 11.3269 53.2234 10.5697 52.0878 10.1689C50.9522 9.76803 49.4256 9.73034 48.0418 10.0798C46.658 10.4293 45.4102 11.1625 44.448 12.0395C43.4858 12.9166 42.8058 13.9376 42.306 14.7359C41.8062 15.5376 41.49 16.1166 41.2282 16.7231C40.6094 17.076 39.9906 17.4288 39.45 17.631C38.9094 17.8365 38.447 17.8914 37.9846 17.9462C38.1988 16.2537 37.9846 14.4789 37.4304 13.0948C36.8762 11.7106 35.9854 10.7171 34.69 10.1723C33.3946 9.62756 31.7014 9.5282 30.151 10.0832C28.6006 10.6383 27.193 11.8408 26.1288 12.9749C25.0646 14.1089 24.3404 15.1676 23.6468 16.5894C22.9532 18.0113 22.2902 19.7963 21.8142 21.6258C20.5902 23.0031 19.0364 24.0927 17.2684 24.8053C15.5004 25.5213 13.5148 25.8605 12.114 25.3124C10.7166 24.7607 9.90396 23.3183 9.47217 21.8485C9.04377 20.3787 8.99616 18.8781 9.15596 17.4597C9.31576 16.0413 9.68296 14.7016 10.261 13.4614L14.7218 11.834C15.123 13.0297 15.7962 14.1569 16.4966 14.8935C17.2004 15.6301 17.9314 15.9727 18.846 15.9625C19.7606 15.9522 20.8588 15.589 21.8686 14.8627C22.8818 14.1363 23.8066 13.0468 24.49 11.81C25.1768 10.5629 25.6154 9.19244 25.7718 7.77402C25.9282 6.36246 25.7956 4.92006 25.3808 3.74147C24.966 2.56631 24.2656 1.65497 23.4326 1.03826C22.5996 0.424987 21.6374 0.106357 20.4066 0.0275563C19.1758 -0.0512445 17.6798 0.113209 16.1158 0.747042C14.5484 1.3843 12.913 2.49437 11.5632 3.72777C10.2168 4.96118 9.15596 6.31792 8.12236 7.73976L8.11557 7.73634ZM23.6298 7.51706C23.4768 8.42499 23.1844 9.28837 22.7424 10.0113C22.3038 10.7308 21.7156 11.3064 21.1104 11.5976C20.5052 11.8888 19.8796 11.8922 19.4104 11.738C18.9412 11.5839 18.6284 11.2687 18.3734 10.7513C18.115 10.234 17.9144 9.51792 18.013 8.72991C18.1116 7.9419 18.5128 7.08195 19.0942 6.40015C18.5502 6.22542 17.9382 6.26653 17.418 6.56803C16.8978 6.86953 16.4694 7.42798 16.0784 8.00015C15.6874 8.57231 15.3406 9.15818 14.9564 9.58987C14.5756 10.0216 14.1608 10.2957 13.4876 10.6074C12.8144 10.9192 11.8828 11.2721 10.9308 11.5462C11.6924 10.1278 12.5288 8.74704 13.3856 7.42113C14.2424 6.09522 15.1264 4.82756 16.2246 3.81342C17.3228 2.79929 18.6386 2.04554 19.8014 1.86396C20.9642 1.68237 21.9706 2.07638 22.6132 2.64854C23.2558 3.21728 23.5346 3.9676 23.6638 4.81385C23.7964 5.66353 23.7828 6.61257 23.6298 7.51706Z" fill="white"/>
</g>
<defs>
<clipPath id="clip0_3594_223">
<rect width="85" height="32" fill="white"/>
</clipPath>
</defs>
</svg>
