<svg width="121" height="34" viewBox="0 0 121 34" fill="none" xmlns="http://www.w3.org/2000/svg">
<path d="M64.6771 33.2993C62.8683 33.1236 61.5161 32.4036 60.9717 31.3149C60.7259 30.8232 60.6732 30.6475 60.6381 30.0329V29.5236L60.3395 31.0515C60.1815 31.8944 60.0234 32.7197 59.9883 32.8954L59.8829 33.2115H56.4937V33.0358C56.599 32.7724 57.0029 30.4193 57.0029 30.3841C57.0029 30.3841 56.4937 30.3841 55.8966 30.3841H54.7903L54.5268 31.789L54.2634 33.1939H52.5776C51.1727 33.1939 50.8917 33.1939 50.8917 33.0885C50.8917 33.0885 51.2078 31.35 51.5942 29.3305C51.9805 27.311 52.279 25.6602 52.279 25.6427C52.279 25.6427 51.2254 27.3285 49.9434 29.4007L47.6254 33.1763H46.1151C45.2898 33.1763 44.5873 33.1763 44.5873 33.1763C44.5873 33.1763 44.482 32.1754 44.4293 30.9812C44.3239 29.5412 44.2537 28.7861 44.2185 28.7685C44.2185 28.7685 44.0605 28.9793 43.9727 29.3129C43.8673 29.629 43.4283 30.63 42.9717 31.5432L42.1464 33.2115H39.161L39.0556 32.9656C38.9503 32.6495 37.2644 25.2036 37.2644 25.151H40.882L40.9873 27.0651C41.1454 29.6466 41.1805 29.9978 41.2332 29.9978C41.2332 29.9978 41.3561 29.7695 41.4615 29.4885C41.5668 29.2076 42.0585 28.1188 42.5678 27.0651L43.4985 25.151H46.2381L46.4137 27.4163C46.6068 29.8222 46.642 30.0505 46.7122 29.9451C46.7122 29.9451 46.8351 29.6466 46.9405 29.348C47.0459 29.0495 47.52 27.9958 47.9942 26.9773L48.8722 25.1334H50.6986C51.6995 25.1334 53.2449 25.1334 54.1229 25.1334H55.721L55.5103 26.2397C55.3873 26.8544 55.282 27.469 55.2468 27.5919V27.8378H57.4771L57.7405 26.4856L58.0039 25.1334H59.6898C60.6205 25.1334 61.3756 25.1334 61.3756 25.1334C61.3756 25.1334 61.2176 25.9412 61.042 26.9071C60.8664 27.8554 60.7083 28.6807 60.7083 28.7158C60.7083 28.7158 60.8137 28.6105 60.8664 28.3997C61.1298 27.7324 61.4459 27.2934 62.0429 26.7315C63.3249 25.5022 65.0634 24.9051 67.1181 24.9754C68.681 25.0807 69.7171 25.4144 70.56 26.2222C71.2098 26.8719 71.4205 27.3461 71.4732 28.3119V29.0495L71.842 27.1178C72.0351 26.0641 72.2283 25.1685 72.2459 25.151H75.7405L75.2664 27.6446C75.003 29.0144 74.7747 30.2436 74.7395 30.3841V30.63H76.2498C77.4264 30.63 77.7425 30.63 77.7249 30.7354C77.7249 30.8407 77.602 31.3676 77.4615 32.0349L77.2332 33.2466H74.002C71.4029 33.2466 70.7708 33.2466 70.7708 33.1412C70.7708 33.1412 70.9288 32.2632 71.1044 31.3149C71.28 30.349 71.4205 29.5412 71.403 29.4885C71.403 29.4885 71.403 29.4885 71.403 29.5939C71.403 29.6993 71.2625 29.9978 71.1044 30.3315C70.5951 31.35 69.7522 32.1227 68.5932 32.6671C67.4517 33.1939 65.9239 33.4749 64.6947 33.3519L64.6595 33.2817L64.6771 33.2993ZM66.7142 30.6124C67.9961 30.1383 68.3825 28.4524 67.3639 27.8554C66.5912 27.3988 65.4849 27.5568 64.7825 28.2241C64.2556 28.7334 64.0625 29.4885 64.3434 30.0505C64.6771 30.7354 65.7132 30.9812 66.7142 30.6124ZM71.4908 29.2251C71.4908 29.3305 71.4908 29.3305 71.4908 29.3305C71.4908 29.3305 71.4908 29.2251 71.4908 29.2076V29.2427V29.2251ZM60.7434 28.8915C60.7434 28.9968 60.7434 28.9968 60.7434 28.9968C60.7434 28.9968 60.7434 28.8915 60.7434 28.8739V28.909V28.8915ZM87.3132 33.2817C86.6634 33.1763 85.6625 32.9832 85.1532 32.79C84.6966 32.6144 84.7317 32.5968 84.6264 33.0358V33.2115H77.9883V33.0534C78.0937 32.8251 79.481 25.1861 79.481 25.151H86.0312L85.8381 26.1695C85.7327 26.7139 85.6449 27.2232 85.6098 27.2583C85.6098 27.3636 85.2234 27.3636 84.0995 27.3636H82.6069V27.6095C82.6069 27.75 82.5015 27.9256 82.5015 28.0134V28.1715H83.8712C84.9249 28.1715 85.241 28.1714 85.241 28.2768C85.241 28.3822 85.1356 28.7861 85.0654 29.2954L84.8898 30.2261H82.1503L82.0449 30.5597C81.922 31.1393 81.799 31.0866 83.5025 31.0866C85.2059 31.0866 85.0303 31.0866 85.0303 31.2095C85.0303 31.3149 84.9249 31.5958 84.9073 31.9295C84.802 32.2632 84.7844 32.5266 84.802 32.5441C84.802 32.5441 85.1181 32.1051 85.4693 31.5432C85.8381 30.9988 86.1366 30.5071 86.1717 30.4719C86.1717 30.4719 86.3474 30.4719 86.5405 30.6124C87.3308 31.1217 88.1912 31.3324 88.9288 31.1919C89.3854 31.0866 89.6839 30.5949 89.3678 30.4368C89.2625 30.4368 88.841 30.2963 88.3493 30.2085C87.0849 29.9802 86.4703 29.6817 86.119 29.1197C85.961 28.8739 85.9434 28.7334 85.9434 28.3471C85.9434 27.9432 85.9434 27.8027 86.1893 27.3812C86.7337 26.2749 87.9278 25.5022 89.561 25.1685C90.2986 25.0105 91.7561 25.0632 92.4586 25.2739C93.1786 25.4671 93.6878 25.7305 93.6352 25.8183C93.6352 25.8183 93.3191 26.3276 92.9854 26.8368C92.6517 27.3461 92.3883 27.7675 92.3708 27.7851C92.3708 27.7851 92.1776 27.6797 91.9669 27.6095C90.8781 27.0651 89.6312 27.1002 89.561 27.7149C89.561 27.9432 89.561 27.9783 90.6322 28.189C91.1064 28.2944 91.6508 28.4349 91.8439 28.5051C92.88 28.8915 93.3366 29.7695 93.0381 30.7705C92.9327 30.9461 92.9327 31.0866 92.9327 31.0866C92.9327 31.0866 93.7405 29.7695 94.7239 28.1715L96.4976 25.2563H98.4644H100.431L101.292 28.8915C101.766 30.8934 102.17 32.5617 102.187 32.6144C102.187 32.6144 102.539 31.069 102.925 29.0671C103.311 27.0651 103.627 25.3968 103.645 25.3441C103.645 25.2388 104.084 25.2388 105.436 25.2388C106.788 25.2388 107.192 25.2388 107.157 25.3617C107.157 25.4671 106.911 26.591 106.648 27.9607C106.384 29.3305 106.156 30.5246 106.139 30.5949V30.7529H107.649C109.089 30.7529 109.159 30.7529 109.124 30.8758C109.124 30.9812 109.001 31.5256 108.878 32.1754L108.65 33.3519H98.6752L98.5698 32.8427L98.4644 32.3334H95.7776L95.5142 32.8602L95.2508 33.3871H91.5278L91.8439 32.8778C92.0195 32.5968 92.2303 32.2456 92.3181 32.0876L92.4761 31.8241L92.0722 32.1929C91.3522 32.8602 90.2986 33.2817 89.0342 33.4397C88.3669 33.5451 87.9981 33.5451 87.2781 33.4397L87.3308 33.3344L87.3132 33.2817ZM98.3766 29.8397C98.3766 29.5939 98.2713 29.0319 98.2713 28.5754C98.2713 28.1188 98.1659 27.7675 98.1483 27.7675C98.043 27.7675 96.9893 30.068 96.9893 30.2261C96.9893 30.2261 97.2527 30.3315 97.6917 30.3315H98.3942V29.8573L98.3766 29.8397ZM0.702439 32.1929V31.1568H19.282C36.9132 31.1568 37.8615 31.1568 37.8966 31.2797C37.8966 31.4202 38.3356 33.1588 38.3356 33.1939H0.702439V32.1578V32.1929ZM109.3 33.1236C109.3 33.0183 109.668 31.2622 110.09 29.0671L110.845 25.0983H114.129C117.22 25.0983 117.413 25.0983 117.378 25.2212C117.378 25.3266 117.272 25.7656 117.167 26.31L116.991 27.2934H113.971V27.6095C113.971 27.7851 113.865 27.9607 113.865 28.0134C113.865 28.1188 114.059 28.1188 115.2 28.1188H116.57C116.57 28.1188 116.464 28.6105 116.394 29.1549L116.219 30.1383H113.479L113.374 30.5246C113.374 30.7354 113.268 30.9285 113.268 30.9636C113.268 30.9636 113.953 31.069 114.796 31.069C116.201 31.069 116.324 31.069 116.324 31.1919C116.324 31.2973 116.219 31.7363 116.131 32.2632L115.955 33.229H112.619C109.967 33.229 109.282 33.229 109.317 33.1236H109.3ZM0.702439 29.2251V28.2241H37.2117V28.3822C37.2117 28.4875 37.3171 28.8563 37.4049 29.2602C37.5103 29.6641 37.5805 30.0505 37.5981 30.1032C37.5981 30.2085 36.72 30.2261 19.1415 30.2261H0.667318V29.2251H0.702439ZM0.702439 26.2046V25.1158H36.4742L36.5795 25.3617C36.7024 25.8183 36.9834 27.1178 36.9834 27.2056C36.9834 27.2934 34.1385 27.311 18.8605 27.311H0.737561V26.2222H0.702439V26.2046ZM30.1873 22.8505C26.9034 22.5519 24.1639 21.3227 22.6712 19.4261C21.7054 18.2144 21.2488 16.8797 21.2663 15.2114C21.2663 11.5763 23.602 8.20462 27.4654 6.16754C29.0634 5.32461 30.9073 4.7451 33.0322 4.41144C34.121 4.23583 36.7376 4.23583 37.8088 4.41144C42.1464 5.07876 44.9912 7.18608 45.8166 10.3295C46.0625 11.2251 46.0625 12.7178 45.8166 13.7012C45.3776 15.6329 44.5698 17.1607 43.1825 18.5832C42.1288 19.6719 41.1278 20.3919 39.6703 21.1295C36.9307 22.4993 33.4361 23.1314 30.1522 22.8329H30.1873V22.8505ZM33.84 17.1783C34.3668 17.0729 35.3327 16.7744 35.842 16.4583C37.282 15.5627 38.0722 13.9471 37.7737 12.5246C37.6156 11.7695 37.2644 11.2427 36.6498 10.8388C35.3503 9.97828 33.1903 10.0134 31.5746 10.9441C30.9424 11.2954 30.1171 12.1383 29.8185 12.7353C28.9932 14.3861 29.3795 16.0719 30.7493 16.7744C31.6625 17.2485 32.4527 17.3714 33.84 17.2134V17.1783ZM50.2068 22.8856C48.2049 22.7451 45.799 22.2183 44.1834 21.6036C43.7971 21.4456 43.4634 21.3227 43.4459 21.3051C43.4459 21.3051 44.1834 20.1461 45.1317 18.7588C46.2205 17.1432 46.8703 16.2475 46.9054 16.2827C46.9054 16.2827 47.239 16.511 47.5551 16.7041C48.9951 17.6524 50.3825 18.109 51.8751 18.109C53.28 18.109 54.1932 17.6173 54.1932 16.8622C54.1932 16.3178 53.9122 16.1949 51.8576 15.8788C50.1893 15.6154 49.5922 15.4749 48.8371 15.1763C46.2205 14.1227 45.4478 12.0856 46.6946 9.46901C47.6781 7.43194 49.8381 5.79876 52.7356 4.92071C56.16 3.88461 60.1464 4.13047 63.0966 5.53535L63.7464 5.85145L62.2537 8.11681C61.4283 9.36364 60.7259 10.3822 60.7083 10.3997C60.7083 10.3997 60.3747 10.2768 60.0234 10.0836C58.8293 9.45145 57.6703 9.13535 56.4761 9.11779C55.2995 9.11779 54.562 9.41633 54.3688 9.99584C54.2634 10.2241 54.2634 10.2768 54.3688 10.4349C54.5444 10.7158 54.9132 10.8212 56.7395 11.19C58.5308 11.5412 59.3386 11.7695 60.1288 12.1558C61.1473 12.6651 61.9376 13.4202 62.2361 14.228C62.6927 15.4397 62.4468 17.0553 61.6215 18.4602C60.8664 19.7246 59.6722 20.7432 57.9688 21.551C56.0547 22.4817 53.719 22.9558 51.3483 22.9383C50.8566 22.9383 50.3122 22.9383 50.1542 22.9383L50.1893 22.9032L50.2068 22.8856ZM86.3298 22.8856C82.8176 22.5168 80.0605 20.8134 78.8137 18.2319C77.3737 15.2114 78.3747 11.3305 81.3776 8.41535C82.5191 7.30901 83.5903 6.55389 85.0127 5.85145C87.5415 4.62218 90.4391 4.09535 93.3366 4.37633C94.5308 4.48169 96.5854 4.86803 96.8313 5.02608C96.9366 5.02608 96.8313 5.81633 96.3747 8.41535C96.0761 10.2593 95.8478 11.7871 95.8478 11.8222C95.8478 11.8222 95.7073 11.7168 95.5317 11.629C94.7942 11.0144 93.9864 10.5753 93.0732 10.3119C92.5464 10.1539 92.3883 10.1363 91.4927 10.1363C90.4039 10.1363 89.8947 10.2417 89.0342 10.6105C87.0849 11.5061 85.961 13.3675 86.4351 14.948C86.8215 16.2124 88.2088 17.0905 90 17.1607C91.563 17.2661 93.2137 16.7568 94.6888 15.8085C94.882 15.6856 95.0752 15.5802 95.0752 15.5802C95.0752 15.5802 93.6 22.148 93.5298 22.2183C93.4244 22.3236 92.0898 22.5871 91.1942 22.6924C89.3678 22.9207 87.4888 22.991 86.2947 22.8505L86.3298 22.8856ZM104.997 22.8856C103.294 22.71 102.503 22.5695 101.415 22.2183C98.6225 21.3227 96.7083 19.6193 96.0059 17.4593C95.7074 16.5636 95.6371 15.9666 95.6898 14.9129C95.6898 13.9119 95.8654 13.2095 96.1991 12.2788C97.9376 7.39681 103.891 4.07778 110.459 4.30608C113.865 4.429 116.587 5.42998 118.396 7.23876C119.678 8.52071 120.31 9.9256 120.398 11.6641C120.521 14.228 119.467 16.8095 117.465 18.7939C115.341 20.9012 112.355 22.271 108.738 22.7802C108.018 22.8856 105.559 22.9558 104.98 22.9032L104.997 22.8856ZM108.738 17.0729C110.494 16.669 111.793 15.4573 112.18 13.8593C112.583 12.1207 111.565 10.628 109.739 10.2768C108 9.94315 106.209 10.47 105.015 11.6641C103.733 12.9636 103.434 14.8427 104.347 16.0368C105.138 17.0554 106.946 17.4944 108.755 17.0729H108.738ZM116.166 22.8505C115.621 22.7275 115.358 22.3588 115.411 21.8144C115.516 21.2349 116.096 20.7256 116.816 20.6729C117.676 20.5675 118.273 21.1822 118.045 21.8846C117.817 22.5695 116.921 23.0261 116.166 22.8505ZM117.272 22.4817C117.588 22.3061 117.782 21.9724 117.782 21.6388C117.782 21.1646 117.483 20.9363 116.886 20.9363C116.342 20.9363 116.008 21.1295 115.797 21.551C115.657 21.8495 115.639 21.9022 115.692 22.1305C115.797 22.3412 115.815 22.429 116.061 22.5344C116.394 22.6924 116.939 22.6573 117.255 22.429V22.4817H117.272ZM116.131 22.2183C116.131 22.1129 116.131 21.9022 116.236 21.6739L116.341 21.2349H116.781C117.307 21.2349 117.483 21.3402 117.413 21.5685C117.413 21.6739 117.29 21.7793 117.202 21.8144C117.097 21.8846 117.062 21.9724 117.097 22.0778C117.22 22.3236 117.22 22.3412 117.097 22.3412C116.974 22.3412 116.921 22.2358 116.868 22.0954C116.745 21.7968 116.5 21.7968 116.447 22.0954C116.447 22.3236 116.183 22.429 116.183 22.2183H116.148H116.131ZM117.114 21.5685C117.114 21.4632 117.22 21.4632 117.114 21.4456C117.114 21.4456 116.5 21.3402 116.5 21.4456V21.5685C116.5 21.6388 116.587 21.6739 116.763 21.6739C116.939 21.6739 117.097 21.6739 117.132 21.5685H117.114ZM63.3776 22.4993C63.3776 22.3939 64.2381 19.6368 65.239 16.3178C66.24 12.9988 67.0478 10.2768 67.0303 10.2593C67.0303 10.2593 66.0293 10.2593 64.8351 10.2593C63.641 10.3646 62.6576 10.3646 62.64 10.3646C62.64 10.3646 63.0088 9.02998 63.5005 7.43193L64.3786 4.53437H81.2547L81.0264 5.27193C80.9034 5.67583 80.4995 6.99291 80.1483 8.16949L79.4986 10.3295H75.0732L73.1942 16.511L71.3151 22.6749H63.3249V22.5168H63.36L63.3776 22.4993ZM10.4839 22.4993C7.09464 22.2007 4.37268 21.0593 2.44098 19.1275C1.38732 18.0563 0.755122 17.0378 0.333659 15.7383C0.0702442 14.9129 0 14.2983 0 13.2622C0 11.6993 0.35122 10.2944 1.10634 8.78413C1.7561 7.50218 2.42342 6.57145 3.5122 5.42998C7.07708 1.74218 12.6615 -0.312459 18.1581 0.0387606C19.4927 0.144126 20.4761 0.24949 21.5298 0.442661C22.4254 0.618271 23.2683 0.829004 23.3385 0.899248C23.3385 0.899248 22.0917 9.04754 22.039 9.10023C22.039 9.10023 21.7932 8.94218 21.5122 8.73145C19.0537 6.86998 16.2966 6.48364 13.5922 7.60754C11.4146 8.50315 9.93952 10.6105 10.2205 12.349C10.4663 13.8066 11.6605 14.9305 13.4517 15.3695C14.2595 15.5627 15.7873 15.5802 16.7707 15.3695C18.0527 15.1236 19.6507 14.4914 20.7044 13.8066C20.9327 13.6485 21.1083 13.5607 21.1083 13.6134C21.1083 13.6134 20.6868 15.4573 20.1776 17.6173C19.6683 19.7773 19.2468 21.5685 19.2468 21.6036C19.2468 21.7441 17.4556 22.1129 15.8927 22.271C14.0137 22.4641 11.5727 22.5695 10.4488 22.4641L10.4839 22.4993Z" fill="white"/>
</svg>
