<svg width="165" height="31" viewBox="0 0 165 31" fill="none" xmlns="http://www.w3.org/2000/svg">
<g clip-path="url(#clip0_3594_225)">
<path d="M5.37922 4.45215H14.0591C21.924 4.45215 27.3847 7.69779 26.0399 15.7287C24.9396 22.2615 19.316 26.381 12.4699 26.381H1.6709L5.37922 4.45215ZM11.2881 19.8065H11.8178C14.6297 19.8065 17.034 18.5998 17.523 15.687C18.0527 12.6079 16.3819 11.3179 13.2441 11.3179H12.7144L11.2881 19.8065Z" fill="white"/>
<path d="M31.9083 26.381H22.9023L34.7608 4.45215H44.1743L48.8199 26.381H39.8139L39.4879 23.6347H33.0493L31.9083 26.381ZM38.8767 18.4334L38.5507 14.5636C38.4691 13.6481 38.4692 12.6911 38.4692 11.734H38.1431L35.4536 18.4334H38.8767Z" fill="white"/>
<path d="M55.9919 4.45215L57.622 10.1944H57.8665C58.2332 9.48705 58.5592 8.82128 59.0075 8.11389L61.2895 4.45215H70.866L60.719 16.9354L59.1297 26.381H50.8166L52.4059 16.9354L46.334 4.45215H55.9512H55.9919Z" fill="white"/>
<path d="M71.2733 4.45215H89.1629L87.9811 11.5676L83.2948 11.3595L80.7682 26.381H72.2513L74.7779 11.3595L70.0508 11.5676L71.2733 4.45215Z" fill="white"/>
<path d="M113.002 15.4794C111.82 22.5116 105.3 26.7143 98.1282 26.7143C90.9561 26.7143 85.903 22.5116 87.0848 15.4794C88.2665 8.57198 94.8682 4.11963 101.959 4.11963C109.049 4.11963 114.143 8.61359 113.002 15.4794ZM95.6832 15.5626C95.2757 18.0592 96.7835 19.7653 99.3508 19.7653C101.918 19.7653 104.037 18.0592 104.445 15.5626C104.852 13.2324 103.507 11.2767 100.777 11.2767C98.0467 11.2767 96.0499 13.2324 95.6832 15.5626Z" fill="white"/>
<path d="M115.488 4.45226H123.679L129.261 16.6026H129.506C129.506 14.7717 129.424 12.8992 129.75 11.0268L130.851 4.45226H139.001L135.293 26.3811H127.142L121.6 14.8549H121.356C121.356 16.3529 121.356 17.8093 121.152 19.2241L119.929 26.3395H111.779L115.488 4.41064V4.45226Z" fill="white"/>
<path d="M144.665 26.381H135.659L147.518 4.45215H156.931L161.577 26.381H152.571L152.245 23.6347H145.806L144.665 26.381ZM151.634 18.4334L151.307 14.5636C151.226 13.6481 151.226 12.6911 151.226 11.734H150.9L148.21 18.4334H151.634Z" fill="white"/>
</g>
<defs>
<clipPath id="clip0_3594_225">
<rect width="165" height="31" fill="white"/>
</clipPath>
</defs>
</svg>
