<svg width="103" height="90" viewBox="0 0 103 90" fill="none" xmlns="http://www.w3.org/2000/svg">
<path d="M15.0275 49.5074C18.0794 48.8255 18.8458 44.9795 18.8458 42.5655C18.8458 40.1515 18.8458 42.47 18.8458 42.4291C18.8458 42.3745 18.8458 42.3336 18.8458 42.2791C18.8458 39.8787 18.0931 36.36 15.0275 37.0965L14.918 37.1238V49.5347L15.0275 49.5074Z" fill="white"/>
<path d="M29.5202 33.4962L28.8223 33.6598V38.7742C29.0139 38.7606 29.2465 38.706 29.4381 38.6651C31.0394 38.2969 31.8195 37.0285 31.8195 35.5283C31.8195 34.0144 31.1489 33.1416 29.5202 33.5098V33.4962Z" fill="white"/>
<path d="M96.3901 17.171C94.8162 17.021 90.4368 17.2392 89.3419 16.7891C88.2607 16.3391 86.8237 15.2889 86.3036 14.5388C85.7835 13.7887 83.5801 11.3747 81.9378 10.7882C80.2818 10.1745 77.9552 10.1063 77.0383 10.1063C76.1213 10.1063 73.7947 10.1063 72.8914 9.73806C71.9882 9.36982 70.7154 6.45119 69.511 6.88762C69.511 6.88762 67.3897 7.02401 66.0348 9.96991C64.6799 12.9022 65.0494 13.3386 59.6298 14.5524C54.1965 15.7526 48.5442 15.3025 46.2176 16.5845C43.891 17.8666 41.4002 22.2172 35.1458 22.4354C28.8913 22.6673 26.7837 22.0672 19.8449 26.4179C15.1644 29.3638 13.3031 31.9141 12.3314 33.7144L12.0029 34.3554L14.8085 33.7144C20.6935 32.3642 22.6642 36.2921 22.6642 41.5565C22.6642 46.8209 20.6798 51.6762 14.8085 53.0264L11.0586 53.8857V36.183L10.7986 36.6876C9.70369 38.7061 7.81504 42.593 7.50026 46.2345C7.13074 50.5852 8.70462 57.5817 8.93728 59.9002C9.16994 62.2187 9.99109 65.0828 9.92266 66.7331C9.85423 68.3969 9.10151 72.6658 9.92266 73.5659C10.7438 74.4797 15.7255 77.0301 19.1196 75.2298C22.5 73.4159 20.844 72.2975 20.2418 71.7656C19.6396 71.2474 18.5858 69.8017 18.1342 69.2153C17.6826 68.6015 17.8331 67.9332 18.0658 67.4832C18.2984 67.0331 19.1196 63.9508 19.3522 63.4326C19.5849 62.9143 23.0474 57.7999 23.3485 56.8316C23.6496 55.8632 26.3594 56.1496 26.9616 56.6815C27.5775 57.1998 28.6313 60.5821 28.6997 62.0824C28.7818 63.5826 28.8503 67.715 30.1367 68.9834C31.4232 70.2518 36.5417 70.47 37.445 70.4836C38.9778 70.5109 40.538 69.4335 39.5526 68.4515C38.5672 67.4695 36.2406 65.151 35.8711 64.6191C35.4879 64.1008 36.2406 61.7687 36.9249 60.8685C37.6092 59.9684 38.0745 59.7365 38.5125 60.7185C38.9504 61.7005 41.0581 67.715 41.5097 71.3156C41.9476 74.9161 42.0298 79.9351 42.3308 80.8488C42.6319 81.749 46.9977 86.1133 49.3243 86.1133C51.6509 86.1133 59.0413 84.6949 55.4967 80.4124C51.952 76.1299 51.5688 77.562 51.432 73.8114C51.2814 70.0472 51.952 62.6961 52.1847 60.664C52.4174 58.6318 52.4858 58.3454 52.9374 59.3819C53.389 60.4321 54.2923 68.6152 54.9766 71.1655C55.6609 73.7159 56.0167 76.8528 58.7402 77.9166C61.45 78.9667 68.8541 80.276 70.647 78.8985C71.7418 78.0666 69.9627 76.73 68.1561 75.298C66.3496 73.866 63.4071 72.2157 63.3387 70.1972C63.2703 68.1651 64.762 60.4321 65.6653 58.2636C66.5686 56.0814 67.0886 53.5992 67.3213 50.2306C67.5539 46.8619 67.9235 41.3656 68.4435 41.0655C68.5804 40.9837 69.0868 40.7382 69.8395 40.3563V32.146L65.1863 22.1354L69.4015 21.1671L70.8249 25.0404C71.0849 25.7632 71.4681 26.8952 71.7008 27.7135C72.0429 26.1451 72.2482 25.5859 72.5493 24.6176L73.8905 20.1305L78.2016 19.1349L73.6852 31.2595V38.3515C74.6296 37.8469 75.6149 37.3013 76.6003 36.7285L79.5291 34.9282C83.8401 32.1187 85.2635 31.6005 86.1531 30.9322C87.0563 30.2503 89.9988 30.4821 92.4896 28.9682C94.9805 27.468 94.8984 26.186 94.8984 26.186C94.8984 26.186 96.3491 25.0677 96.7186 23.5674C97.0881 22.0672 98.2925 21.3171 98.2925 19.5168C98.2925 17.7165 97.9914 17.3347 96.3764 17.2256L96.3901 17.171ZM32.2307 49.0031L28.8229 40.8882V49.7941L24.9771 50.6806V31.3413L29.1377 30.3866C30.561 30.0593 32.1349 29.8138 33.3529 30.3457C34.8994 31.0004 35.6521 32.7188 35.6521 34.5191C35.6521 36.3194 34.7762 38.4879 32.8876 40.0836L36.268 48.0893L32.217 49.0167L32.2307 49.0031ZM42.5088 46.6436L38.663 47.5301V28.1909L42.5088 27.3044V46.6436ZM56.0989 39.8653V43.5204L44.6985 46.139L51.3362 28.8864L45.2459 30.2912V26.6633L56.92 23.9766L50.4603 41.1474L56.0989 39.8517V39.8653ZM66.7191 37.4513V41.0792L58.8634 42.8931V23.5538L62.7091 22.6673V38.3924L66.7191 37.465V37.4513Z" fill="white"/>
</svg>
