<svg width="123" height="71" viewBox="0 0 123 71" fill="none" xmlns="http://www.w3.org/2000/svg">
<path d="M26.4291 10.3452H28.1776C29.9262 10.485 31.6546 10.9643 33.1217 11.9629C34.8703 13.1013 36.1164 14.9387 36.6389 16.9559C37.282 19.4524 37.0208 22.1486 36.0963 24.5452C35.7948 25.404 35.4933 26.2428 35.1918 27.0816C36.5987 26.7221 37.9855 26.0631 38.9904 24.9846C40.0757 23.8861 40.6384 22.3883 41.0002 20.9103C43.5727 20.9103 46.1453 20.9103 48.6977 20.9103C47.3713 24.4054 46.3865 28.1202 46.4668 31.8949C46.4869 36.2487 48.0948 40.3829 48.5168 44.6769C48.8384 47.5928 48.7379 50.5885 47.9139 53.4046C47.1502 56.0409 45.7433 58.4974 43.8139 60.4746C41.8845 62.4718 39.4727 63.9897 36.8801 64.9883C33.5639 66.2864 29.9664 66.7657 26.409 66.6859C22.1683 66.606 17.8874 65.6473 14.2497 63.4305C11.1144 61.5331 8.52175 58.6572 7.21537 55.222C5.909 51.8068 6.00949 47.8524 7.57714 44.5371C8.78302 41.9407 10.9737 39.8437 13.5463 38.6054C16.7418 37.0875 20.3796 36.6881 23.8565 37.0476C24.3389 35.7894 24.8213 34.5312 25.3237 33.2729C22.3894 32.0147 19.7164 29.9576 18.1889 27.1216C15.8374 22.8676 16.36 17.1157 19.7365 13.5407C21.4448 11.6634 23.9168 10.5449 26.4291 10.3452ZM24.4997 19.2527C23.9168 20.5508 23.8565 22.0887 24.4997 23.3669C25.183 24.7849 26.2683 26.103 27.7355 26.7421C28.0369 26.0631 28.2781 25.3641 28.5595 24.685C28.9816 23.5866 29.484 22.5081 29.6046 21.3297C29.7453 20.3511 29.6046 19.2726 28.9615 18.4937C28.2982 17.6949 27.1325 17.3953 26.1477 17.7148C25.4041 17.9545 24.8414 18.5537 24.5198 19.2527M32.5188 34.1717C31.936 35.7494 31.3129 37.3272 30.7502 38.925C32.5188 39.7438 34.3477 40.6026 35.7345 42.0206C34.8703 44.2375 33.986 46.4344 33.0816 48.6313C31.7149 47.2732 30.107 46.1348 28.2982 45.4358C27.3134 48.0122 26.3688 50.6085 25.4041 53.1849C22.8918 53.1849 20.3796 53.1849 17.8673 53.1849C18.9928 50.1891 20.0982 47.2133 21.2237 44.2175C18.7516 44.1376 16.2796 45.3958 14.933 47.4729C14.3703 48.3517 14.0286 49.3902 14.1693 50.4487C14.31 52.6656 15.4556 54.7427 17.1639 56.1207C19.4953 58.038 22.5703 58.8369 25.5448 59.0566C27.9967 59.2164 30.5291 59.0766 32.8605 58.2977C34.9708 57.6186 36.9404 56.3604 38.307 54.6029C40.1159 52.3461 40.8193 49.3503 40.5982 46.5143C40.3972 44.3373 39.8747 42.2003 39.4727 40.0634C39.0105 37.6468 38.6286 35.1902 38.6286 32.7137C36.659 33.4726 34.609 33.9719 32.4987 34.1916" fill="white"/>
<path d="M44.8387 18.1145C48.7176 15.1786 50.6872 13.5409 51.9333 11.384C53.7019 8.32829 52.6367 5.75192 50.3857 4.73335C48.2955 3.79467 45.8034 4.67344 44.8186 6.73054C43.8539 4.69341 41.3617 3.79467 39.2514 4.73335C37.0205 5.75192 35.9353 8.32829 37.7039 11.384C38.95 13.5409 40.9196 15.1786 44.7985 18.1145" fill="white"/>
<path d="M55.1494 26.4426V26.4027C55.1494 23.327 57.5612 20.8105 60.8372 20.8105C64.1131 20.8105 63.9725 21.3298 65.0979 22.2885L63.5906 24.0859C62.7465 23.3869 62.0028 22.9875 60.7568 22.9875C59.5107 22.9875 57.6416 24.5053 57.6416 26.3428V26.3827C57.6416 28.3599 59.0082 29.7979 60.9377 29.7979C62.8671 29.7979 62.5857 29.5782 63.1886 29.1588V27.621H60.7769V25.5639H65.4999V30.2572C64.3744 31.1959 62.847 31.9748 60.8573 31.9748C57.4808 31.9748 55.1494 29.6181 55.1494 26.4226" fill="white"/>
<path d="M67.1475 27.7211V27.6812C67.1475 25.3245 68.8357 23.3872 71.2676 23.3872C73.6994 23.3872 75.3274 25.5242 75.3274 27.8809C75.3274 30.2376 75.3274 28.2803 75.2872 28.5H69.4989C69.7401 29.5585 70.4837 30.1177 71.5288 30.1177C72.5739 30.1177 72.8955 29.8781 73.5386 29.2789L74.8852 30.4572C74.1014 31.4159 72.996 31.9951 71.4886 31.9951C68.9965 31.9951 67.1475 30.2575 67.1475 27.7211ZM73.0161 27.0421C72.8754 26.0035 72.2524 25.2845 71.2676 25.2845C70.2828 25.2845 69.6597 25.9835 69.4587 27.0421H73.0161Z" fill="white"/>
<path d="M77.0762 23.547H79.4276V24.7254C79.9703 24.0264 80.6737 23.4072 81.8595 23.4072C83.6482 23.4072 84.6933 24.5856 84.6933 26.4829V31.8354H82.3419V27.2219C82.3419 26.1034 81.8193 25.5442 80.9149 25.5442C80.0105 25.5442 79.4477 26.1234 79.4477 27.2219V31.8354H77.0963V23.567L77.0762 23.547Z" fill="white"/>
<path d="M86.3408 27.7211V27.6812C86.3408 25.3245 88.0291 23.3872 90.4609 23.3872C92.8928 23.3872 94.5207 25.5242 94.5207 27.8809C94.5207 30.2376 94.5207 28.2803 94.4805 28.5H88.6923C88.9335 29.5585 89.6771 30.1177 90.7222 30.1177C91.7673 30.1177 92.0889 29.8781 92.732 29.2789L94.0786 30.4572C93.2947 31.4159 92.1894 31.9951 90.682 31.9951C88.1898 31.9951 86.3408 30.2575 86.3408 27.7211ZM92.2094 27.0421C92.0688 26.0035 91.4457 25.2845 90.4609 25.2845C89.4761 25.2845 88.8531 25.9835 88.6521 27.0421H92.2094Z" fill="white"/>
<path d="M96.25 23.547H98.6015V25.2046C99.0838 24.0662 99.8676 23.3273 101.254 23.3872V25.8437H101.134C99.5662 25.8437 98.6015 26.7824 98.6015 28.7596V31.8153H96.25V23.547Z" fill="white"/>
<path d="M101.856 29.4388V29.3988C101.856 27.6014 103.243 26.7625 105.213 26.7625C107.182 26.7625 106.66 26.9024 107.243 27.1021V26.9623C107.243 25.9836 106.64 25.4444 105.454 25.4444C104.268 25.4444 103.927 25.6042 103.163 25.8838L102.58 24.0863C103.504 23.6869 104.389 23.4272 105.816 23.4272C107.243 23.4272 108.027 23.7668 108.629 24.346C109.253 24.9651 109.534 25.8638 109.534 26.9822V31.7755H107.243V30.8768C106.66 31.5159 105.876 31.9153 104.73 31.9153C103.585 31.9153 101.877 31.0166 101.877 29.3789M107.283 28.8995V28.4801C106.881 28.3004 106.358 28.1806 105.776 28.1806C104.771 28.1806 104.148 28.58 104.148 29.3189V29.3589C104.148 29.998 104.67 30.3575 105.434 30.3575C106.539 30.3575 107.283 29.7583 107.283 28.8995Z" fill="white"/>
<path d="M113.996 20.5513H111.645V31.8154H113.996V20.5513Z" fill="white"/>
<path d="M55.6318 35.9092H58.2245L61.0784 40.4628L63.9323 35.9092H66.5049V46.694H64.1333V39.6439L61.0784 44.2574H61.0181L57.9833 39.7038V46.694H55.6318V35.9092Z" fill="white"/>
<path d="M68.916 35.4302H71.4082V37.5073H68.916V35.4302ZM68.9763 38.426H71.3278V46.6943H68.9763V38.426Z" fill="white"/>
<path d="M76.0107 35.4302H73.6592V46.6943H76.0107V35.4302Z" fill="white"/>
<path d="M80.6933 35.4302H78.3418V46.6943H80.6933V35.4302Z" fill="white"/>
<path d="M82.2609 45.5958L83.2658 44.058C84.1702 44.6971 85.1148 45.0366 85.8986 45.0366C86.6825 45.0366 86.8834 44.797 86.8834 44.4175V44.3776C86.8834 43.8583 86.0795 43.6985 85.155 43.4189C83.9893 43.0794 82.6629 42.5401 82.6629 40.9424V40.9024C82.6629 39.2248 84.0295 38.2861 85.6977 38.2861C87.3658 38.2861 87.9084 38.6456 88.7928 39.2448L87.8883 40.8625C87.0643 40.3832 86.2403 40.0836 85.6374 40.0836C85.0344 40.0836 84.7732 40.3233 84.7732 40.6628V40.7027C84.7732 41.1621 85.557 41.3818 86.4614 41.6814C87.6271 42.0608 88.9736 42.62 88.9736 44.1379V44.1778C88.9736 46.0152 87.5869 46.8541 85.7982 46.8541C84.0094 46.8541 83.3261 46.4746 82.2207 45.5958" fill="white"/>
</svg>
