<svg width="150" height="40" viewBox="0 0 150 40" fill="none" xmlns="http://www.w3.org/2000/svg">
<g clip-path="url(#clip0_3594_801)">
<path d="M80.7656 20.0238L60.5996 0V40L80.7656 20.0238ZM40.4336 20.0238L60.5996 0H20.2676L40.4336 20.0238Z" fill="white"/>
<path d="M0.0537109 20.0238L20.2677 40V0L0.0537109 20.0238ZM40.4337 20.0238L20.2677 40H60.5997L40.4337 20.0238Z" fill="white"/>
<path d="M98.4659 21.2005H91.1579V28.3447H87.5039V11.6077H91.1579V18.4724H98.4659V11.6077H102.12V28.3387H98.4659V21.1946V21.2005ZM110.946 28.6715C107.292 28.6715 104.304 27.2154 104.256 23.2213H107.91C107.958 25.0103 109.002 26.0861 110.994 26.0861C112.986 26.0861 114.174 25.3313 114.174 23.6909C114.174 22.0504 113.034 21.997 111.138 21.4323L109.902 21.1054C107.244 20.3506 104.586 19.3164 104.586 16.309C104.586 13.3016 108.096 11.3283 111.276 11.3283C114.456 11.3283 117.396 12.4576 117.444 16.1723H113.79C113.646 14.6686 112.746 13.777 111.036 13.777C109.326 13.777 108.33 14.4843 108.33 15.988C108.33 17.4918 109.47 17.5869 111.84 18.3357L113.262 18.7577C116.154 19.6493 118.008 20.6359 118.008 23.4591C117.96 27.2213 114.258 28.6775 110.94 28.6775L110.946 28.6715ZM120.054 11.6552H125.94C127.032 11.6077 128.172 11.6552 129.264 11.8454C131.304 12.3149 132.87 13.6344 132.87 15.887C132.87 18.1396 131.496 19.1322 129.504 19.6493C131.784 20.0713 133.488 21.2005 133.488 23.6909C133.488 27.5007 129.69 28.3447 126.75 28.3447H120.108L120.06 11.6611L120.054 11.6552ZM125.94 18.6151C127.554 18.6151 129.216 18.2882 129.216 16.3565C129.216 14.4249 127.698 14.1455 126.18 14.1455H123.618V18.6091H125.946H125.94V18.6151ZM126.27 25.8543C127.98 25.8543 129.636 25.4799 129.636 23.4115C129.636 21.3432 128.214 20.9687 126.456 20.9687H123.564V25.8543H126.27ZM142.974 28.6715C137.52 28.6715 135.096 25.2421 135.096 20.1188C135.096 14.9955 137.802 11.2808 143.16 11.2808C148.518 11.2808 149.802 12.7845 149.898 16.5467H146.1C145.908 14.8528 144.774 14.0088 143.16 14.0088C139.836 14.0088 138.84 17.5334 138.84 20.2139C138.84 22.8944 139.836 25.997 143.016 25.997C146.196 25.997 145.908 25.1054 146.148 23.4115H149.946C149.568 27.2629 146.484 28.6775 142.968 28.6775H142.974V28.6715Z" fill="white"/>
</g>
<defs>
<clipPath id="clip0_3594_801">
<rect width="150" height="40" fill="white"/>
</clipPath>
</defs>
</svg>
