<svg width="77" height="29" viewBox="0 0 77 29" fill="none" xmlns="http://www.w3.org/2000/svg">
<g clip-path="url(#clip0_3594_713)">
<path d="M0.311523 0.403809H5.84012V5.81493H0.311523V0.403809Z" fill="white"/>
<path d="M5.70377 28.596V9.10697H0.467773V28.593H5.70069L5.70377 28.596ZM40.4862 28.789V24.0139C39.7193 24.0139 39.0694 23.9747 38.5982 23.8994C38.0469 23.821 37.6341 23.6311 37.36 23.3598C37.0859 23.0885 36.9073 22.7056 36.8087 22.2052C36.7286 21.7229 36.6917 21.0898 36.6917 20.3181V13.5022H40.4893V9.11299H36.6917V1.50125H31.4372V20.3543C31.4372 21.952 31.5758 23.2995 31.8499 24.3787C32.124 25.4368 32.5983 26.305 33.2482 26.9591C33.8981 27.6133 34.7636 28.0745 35.8046 28.3639C36.8672 28.6533 38.2039 28.789 39.7994 28.789H40.4893H40.4862ZM70.5501 28.596V0H65.2956V28.596H70.5501ZM26.3798 11.0152C24.923 9.47474 22.8779 8.70301 20.2814 8.70301C17.685 8.70301 17.8821 8.95322 16.838 9.45364C15.8154 9.95405 14.9284 10.6474 14.2415 11.5337L13.9459 11.8984V9.10697H8.77145V28.593H13.9859V18.2139V18.5787C14.0444 16.7489 14.4972 15.4014 15.3627 14.5362C16.2867 13.6107 17.4078 13.1495 18.6891 13.1495C19.9703 13.1495 21.3656 13.6107 22.1325 14.497C22.8809 15.3833 23.2721 16.6343 23.2721 18.232V28.5719H28.5635V17.5176C28.582 14.7442 27.8367 12.5496 26.3798 11.0091V11.0152ZM62.5821 18.8138C62.5821 17.409 62.3265 16.0977 61.8337 14.8678C61.3224 13.6559 60.614 12.5767 59.7301 11.6512C58.8245 10.7258 57.7435 10.0143 56.4837 9.49584C55.224 8.97734 53.8288 8.72412 52.3134 8.72412C50.7981 8.72412 49.5199 8.99241 48.2601 9.51393C47.0004 10.0535 45.8978 10.765 44.9738 11.6693C44.0498 12.5737 43.3013 13.6529 42.7716 14.8859C42.2203 16.1188 41.9646 17.4482 41.9646 18.853C41.9646 20.2578 42.2203 21.5872 42.7315 22.8202C43.2428 24.0531 43.9697 25.1323 44.8752 26.0367C45.7807 26.9411 46.9019 27.6736 48.2016 28.1921C49.5014 28.7317 50.9367 29 52.4705 29C56.918 29 59.6715 27.0164 61.3255 25.1685L57.5494 22.3559C56.7609 23.2814 54.8729 24.5324 52.5136 24.5324C50.1543 24.5324 49.8186 24.2038 48.8946 23.5316C47.9706 22.8774 47.3392 21.952 47.0066 20.8155L46.9481 20.6437H62.5883V18.8138H62.5821ZM46.9789 17.0232C46.9789 15.5973 48.6513 13.1133 52.2518 13.0952C55.8523 13.0952 57.5433 15.5792 57.5433 17.0051L46.9789 17.0232ZM76.5315 26.0548C76.4329 25.8227 76.2943 25.6297 76.1187 25.4579C75.9432 25.2861 75.7461 25.1504 75.5089 25.0539C75.2717 24.9575 75.0161 24.9002 74.7605 24.9002C74.5048 24.9002 74.2492 24.9575 74.012 25.0539C73.7749 25.1504 73.5777 25.2861 73.4022 25.4579C73.2266 25.6297 73.088 25.8227 72.9895 26.0548C72.8909 26.2869 72.8324 26.5371 72.8324 26.7873C72.8324 27.0375 72.8909 27.2877 72.9895 27.5199C73.088 27.752 73.2266 27.9449 73.4022 28.1167C73.5777 28.2886 73.7749 28.4242 74.012 28.5207C74.2492 28.6172 74.5048 28.6744 74.7605 28.6744C75.0161 28.6744 75.2717 28.6172 75.5089 28.5207C75.7461 28.4242 75.9432 28.2886 76.1187 28.1167C76.2943 27.9449 76.4329 27.752 76.5315 27.5199C76.63 27.2877 76.6885 27.0375 76.6885 26.7873C76.6885 26.5371 76.63 26.2869 76.5315 26.0548ZM76.2142 27.4023C76.1341 27.5952 76.0171 27.767 75.8785 27.9027C75.7399 28.0384 75.5643 28.1529 75.3672 28.2313C75.1701 28.3097 74.973 28.3458 74.7389 28.3458C74.5048 28.3458 74.3046 28.3067 74.1106 28.2313C73.9165 28.1559 73.7379 28.0384 73.5993 27.9027C73.4607 27.767 73.3437 27.5952 73.2636 27.4023C73.1835 27.2094 73.1465 27.0164 73.1465 26.7873C73.1465 26.5582 73.1866 26.3623 73.2636 26.1723C73.3406 25.9824 73.4607 25.8076 73.5993 25.6719C73.7379 25.5363 73.9135 25.4217 74.1106 25.3433C74.3077 25.265 74.5048 25.2288 74.7389 25.2288C74.973 25.2288 75.1732 25.268 75.3672 25.3433C75.5613 25.4187 75.7399 25.5363 75.8785 25.6719C76.0171 25.8076 76.1341 25.9794 76.2142 26.1723C76.2943 26.3653 76.3313 26.5582 76.3313 26.7873C76.3497 27.0194 76.2912 27.2124 76.2142 27.4023ZM75.1147 26.9411C75.2717 26.923 75.3888 26.8627 75.4873 26.7692C75.5859 26.6758 75.6444 26.5371 75.6444 26.3442C75.6444 26.1512 75.5859 25.9794 75.4473 25.8619C75.3303 25.7473 75.1116 25.69 74.8559 25.69H73.9905V27.8665H74.4032V26.9802H74.6989L75.2502 27.8665H75.6845L75.1147 26.9411ZM74.896 26.6306H74.4032V26.0156H74.896C74.9545 26.0156 75.013 26.0337 75.0715 26.0548C75.1301 26.0759 75.1701 26.1121 75.1886 26.1512C75.2071 26.1904 75.2286 26.2477 75.2286 26.3231C75.2286 26.3984 75.2101 26.4587 75.1886 26.4949C75.1485 26.5341 75.1085 26.5733 75.0715 26.5914C75.013 26.6095 74.9545 26.6306 74.896 26.6306Z" fill="white"/>
</g>
<defs>
<clipPath id="clip0_3594_713">
<rect width="77" height="29" fill="white"/>
</clipPath>
</defs>
</svg>
