<svg width="68" height="68" viewBox="0 0 68 68" fill="none" xmlns="http://www.w3.org/2000/svg">
<g clip-path="url(#clip0_3594_718)">
<path d="M4.06744 2.63281H17.4604V47.8066H6.17882L2.72433 3.94385C2.72433 3.94385 2.54453 2.63281 4.06744 2.63281Z" fill="white"/>
<path d="M7.97999 67.9213C7.12999 67.9213 6.39714 67.5133 5.87951 66.9557C5.36188 66.3954 5.03224 65.6828 4.97503 64.9756L0.158358 3.78918C0.150185 3.69398 0.147461 3.59606 0.147461 3.49814C0.147461 2.55158 0.520698 1.69206 1.14185 1.07462C1.75756 0.457181 2.62663 0.0791016 3.59105 0.0791016H64.554C65.5212 0.0791016 66.3875 0.457181 67.006 1.07462C67.6244 1.69206 68.0004 2.55158 68.0004 3.49814C68.0004 3.59334 67.9976 3.68854 67.9895 3.78646L63.1728 64.9756C63.1156 65.6828 62.7859 66.3954 62.2683 66.9557C61.7507 67.5133 61.0205 67.9213 60.1678 67.9213V67.0945C60.7454 67.0945 61.263 66.8197 61.6608 66.3927C62.0585 65.9684 62.3119 65.3999 62.3473 64.913L67.164 3.7239C67.1694 3.64774 67.1721 3.5743 67.1721 3.50086C67.1667 2.04566 66.0497 0.911422 64.5568 0.908702H3.59105C2.09538 0.914142 0.97839 2.04838 0.972942 3.50086C0.972942 3.5743 0.975666 3.64774 0.981115 3.7239L5.79778 64.913C5.8332 65.4026 6.08656 65.9711 6.48432 66.3927C6.88208 66.8197 7.3997 67.0945 7.97727 67.0945H60.1651V67.9213H7.97999Z" fill="white"/>
<path d="M64.077 2.63309H50.5996V47.8069H61.9656L65.4201 3.94141C65.4201 3.94141 65.5999 2.63037 64.077 2.63037V2.63309Z" fill="white"/>
<path d="M67.4311 63.4302C67.3466 63.4547 67.2921 63.5907 67.2921 63.5907L66.9352 64.3523L66.5538 63.5907C66.5538 63.5907 66.4775 63.4383 66.4149 63.4302H66.2187V65.3423H66.4748V63.9878L66.799 64.6515C66.8644 64.7875 66.9734 64.7875 67.0415 64.6569L67.3548 64.0531V65.3423H67.6354V63.4302H67.4338H67.4311ZM64.9873 65.3451H65.2761V63.5227H64.9873V65.3451Z" fill="white"/>
<path d="M64.4769 63.6399C64.4769 63.6698 64.5015 63.6943 64.5314 63.6943H65.7056C65.7356 63.6943 65.7601 63.6698 65.7601 63.6399V63.4305H64.4769V63.6399ZM35.1111 63.5719C33.2067 63.7487 30.2535 63.5855 30.2535 63.5855C29.9266 63.5773 30.0628 63.1639 30.0628 63.1639L32.0816 53.8805C32.2668 53.0537 31.4059 52.7626 31.4059 52.7626C31.158 52.6783 31.2098 52.4389 31.2098 52.4389C31.4032 51.2965 31.5966 51.3401 31.5966 51.3401H42.1399C42.5104 51.3401 42.4287 51.6338 42.4287 51.6338C42.4287 51.6338 42.0255 53.5922 41.7176 54.6993C41.655 54.9821 41.3471 54.9631 41.3471 54.9631H40.4971C40.1184 54.9713 40.1402 54.585 40.1402 54.585V54.1879C40.1402 53.3093 39.1023 53.3529 39.1023 53.3529H36.4051L35.6941 56.557C35.6941 56.557 35.645 56.6522 35.7704 56.6522H39.4864C39.9168 56.6413 39.8106 57.0466 39.8106 57.0466C39.5518 58.1645 39.4156 58.6351 39.3583 58.7983C39.3583 58.7983 39.3502 58.8935 39.1676 58.8935C38.6882 58.9044 37.1434 58.9343 35.1737 58.8935L34.7978 60.5799C34.7978 60.5799 34.7133 60.8981 34.716 61.3061C34.716 61.3061 34.7024 61.7957 35.1601 62.0596C35.1846 62.0759 35.3808 62.1956 35.4325 62.2418C35.4925 62.2908 35.487 62.3397 35.487 62.3397C35.5034 62.813 35.3072 63.3053 35.2255 63.4876C35.2064 63.5365 35.1628 63.5692 35.1083 63.5692L35.1111 63.5719ZM22.2603 51.3781C22.2603 51.3781 21.8543 51.3401 21.462 51.3401H16.9096C16.5936 51.3401 16.5337 51.4761 16.5337 51.4761C16.4383 51.6229 16.3702 51.8895 16.2776 52.4389C16.2776 52.4389 16.2367 52.6783 16.4737 52.7626C16.4737 52.7626 17.3346 53.0537 17.1494 53.8805L15.8771 59.9353C15.4739 62.1657 14.4441 62.1983 14.4441 62.1983C14.1199 62.2337 14.0654 62.5029 14.0654 62.5029L13.891 63.1612C13.7984 63.474 13.9673 63.5202 13.9673 63.5202C13.9673 63.5202 14.2152 63.6399 15.4739 63.6399L17.272 63.6481C18.7567 63.6481 19.8628 63.6073 19.8628 63.6073C20.2769 63.5964 20.3587 63.3815 20.3587 63.3815C20.4404 63.2346 20.5303 62.6117 20.5221 62.3289C20.5221 62.3289 20.5276 62.2772 20.4676 62.2309C20.4159 62.1847 20.217 62.065 20.1925 62.0487C19.7375 61.8121 19.7566 61.5346 19.7566 61.5346C19.7539 61.2028 19.841 60.8084 19.841 60.8084L21.4293 53.5759C21.5301 53.021 22.0859 52.817 22.0859 52.817C22.4455 52.7137 22.5136 52.3845 22.5136 52.3845L22.6689 51.6991C22.6689 51.6991 22.7752 51.4189 22.2657 51.3781H22.2603Z" fill="white"/>
<path d="M30.5178 51.7943L30.3735 52.4036C30.3162 52.7137 29.9321 52.7436 29.9321 52.7436C29.0058 52.9068 28.638 53.2169 28.638 53.2169C28.638 53.2169 24.9928 56.13 24.3308 56.7393C24.3308 56.7393 24.2082 56.829 24.2927 56.946C24.2927 56.946 26.9816 60.735 27.8807 61.7169C27.8807 61.7169 28.2376 62.1494 28.8396 62.2228C28.8396 62.2228 29.4199 62.2609 29.3164 62.6498C29.3164 62.6498 29.2183 63.115 29.1012 63.4332C29.0467 63.5774 28.9513 63.5801 28.9513 63.5801C28.4146 63.6426 25.7884 63.5964 25.7884 63.5964C23.7478 63.5964 22.5409 61.7277 22.5409 61.7277C22.5409 61.7277 21.3749 60.2508 20.2852 57.8109L20.5658 57.033C20.5658 57.033 23.914 54.3239 25.0174 53.3012C25.0174 53.3012 25.4315 52.9993 24.9193 52.7898C24.5733 52.6157 24.6932 52.2839 24.6932 52.2839C24.7477 51.9439 24.8539 51.5658 24.8539 51.5658C24.892 51.3754 25.189 51.389 25.189 51.389C25.189 51.389 26.167 51.3455 26.7119 51.3455H28.2239C29.2347 51.3455 30.1719 51.4026 30.1719 51.4026C30.1719 51.4026 30.6241 51.389 30.5151 51.7998L30.5178 51.7943ZM52.8331 62.9409C53.0646 62.114 53.111 61.4013 53.111 61.4013C53.16 60.9716 52.6424 61.1484 52.6424 61.1484C52.6424 61.1484 51.1385 61.5319 50.185 61.5319C45.3629 61.5319 45.8778 57.5226 45.8778 57.5226C46.1148 55.1073 47.5642 53.1652 50.2231 53.1108C51.3156 53.089 51.9749 53.7581 52.0485 54.8353C52.0485 54.8353 52.043 55.1861 52.419 55.1861H53.1164C53.5223 55.1861 53.5877 54.7401 53.5877 54.7401C53.8057 53.8316 54.1571 52.0962 54.1571 52.0962C54.2579 51.6474 53.8629 51.555 53.8629 51.555C53.1273 51.302 51.8686 51.1497 50.4057 51.1497C44.63 51.1497 42.0446 54.0791 41.6441 57.5172C41.2409 60.9743 43.494 63.7786 48.4632 63.7786C53.4324 63.7786 51.4219 63.6073 52.4271 63.2999C52.4271 63.2999 52.7513 63.2319 52.8358 62.9381L52.8331 62.9409ZM45.4773 18.4199C45.4773 18.4199 45.3111 18.3601 45.401 18.137L45.8996 16.5023C46.3137 15.3137 46.1993 14.7262 46.1993 14.7262C46.1993 14.7262 45.5209 14.3617 45.4719 13.3988C45.4719 13.3988 44.6627 3.13623 33.7789 3.13623C22.8951 3.13623 27.2541 4.82807 27.2541 4.82807C27.2541 4.82807 26.9816 4.95047 26.9135 5.34759C26.9135 5.34759 26.8536 5.68487 26.5376 6.06023C26.3605 6.28055 26.0336 6.53079 26.0336 6.53079C25.6985 6.77015 25.0228 7.11831 23.865 7.19719C23.865 7.19719 23.5271 7.19719 23.7533 7.55079C23.7533 7.55079 24.132 8.21719 24.8866 8.63607C24.8866 8.63607 25.1999 8.78839 24.6959 8.82919C24.6959 8.82919 24.1837 8.87815 23.6252 8.90263C22.6771 8.94071 22.4265 9.43303 22.3611 9.70231C22.3611 9.70231 22.3148 9.88727 22.3911 10.0586C22.511 10.3306 22.7997 10.725 22.7997 10.725C22.7997 10.725 23.1049 11.1494 23.0831 11.6525C23.0667 12.0578 22.6118 12.4332 22.6118 12.4332C22.6118 12.4332 21.8353 12.9908 21.8353 13.5294C21.8353 13.5294 21.8244 13.8231 21.8871 14.1522C21.8871 14.1522 22.2712 16.1324 22.8597 18.1506C22.8597 18.1506 22.9332 18.341 22.7725 18.341C22.7725 18.341 22.0451 18.4036 22.0451 19.5705C22.0451 20.7374 22.3284 21.4065 22.3284 21.4065C22.3284 21.4065 23.1076 23.947 23.2329 24.5263C23.2683 24.6569 23.2765 24.7738 23.2901 24.869C23.3691 25.4838 23.7206 27.4748 24.9547 27.4095C24.9547 27.4095 25.3334 27.3769 25.3334 27.6108C25.3334 27.6108 25.4342 29.2917 26.0363 30.5239C26.0363 30.5239 26.1997 30.785 26.2406 31.3726C26.2406 31.3726 26.4068 33.4914 29.3545 35.8769L31.3978 37.4245C31.3978 37.4245 29.834 37.5061 29.1502 37.5742C29.1502 37.5742 28.8151 37.5742 28.7933 38.0529C28.7933 38.0529 28.6844 39.0239 28.7797 40.0249C28.7797 40.0249 28.7852 40.5036 29.3545 40.5036C29.3545 40.5036 31.2344 40.4764 32.8799 40.422C32.8799 40.422 33.1087 40.3948 32.9888 40.6831C32.9888 40.6831 31.7819 44.0233 30.1773 47.173C30.1773 47.173 29.9321 47.5647 30.2536 47.5892C30.2536 47.5892 30.9674 47.6626 31.7411 48.125C31.7411 48.125 31.9727 48.2311 32.0844 47.9917C32.0844 47.9917 33.3348 45.3316 34.0486 43.074C34.0486 43.074 34.1985 43.7567 34.035 48.5412C34.035 48.5412 33.9914 48.9574 34.381 48.8458C34.381 48.8458 35.0021 48.6527 35.7159 48.6745C36.0864 48.6853 36.0892 48.3181 36.0892 48.3181C36.4025 43.7431 35.3291 40.5199 35.3291 40.5199C35.3291 40.5199 35.2446 40.3676 35.5062 40.3567C36.8956 40.2887 38.7863 40.4682 38.7863 40.4682C39.2167 40.5226 39.1868 40.1038 39.1868 40.1038C39.244 39.4183 39.2004 37.8815 39.2004 37.8815C39.2549 37.2532 36.8928 37.3974 36.8928 37.3974C36.6994 37.4028 36.8792 37.294 36.8792 37.294C36.8792 37.294 38.552 36.3175 40.113 34.7127C40.113 34.7127 41.3826 33.7362 42.1236 31.514C42.1236 31.514 42.8428 29.6046 42.8428 27.6706C42.8428 27.6706 42.8265 27.3388 43.2815 27.366C43.2815 27.366 44.2023 27.4884 44.5619 26.2454C44.5619 26.2454 45.2485 24.3169 45.8778 21.6159C45.8778 21.6159 46.1775 20.362 46.1911 19.6004C46.2074 18.7246 45.4855 18.4172 45.4855 18.4172L45.4773 18.4199ZM24.557 24.257C24.1565 24.3033 23.9903 23.6396 23.9903 23.6396L23.4127 21.5153C23.4127 21.5153 23.2138 20.7673 23.1757 20.3212C23.0994 19.3801 23.756 19.3855 23.756 19.3855C24.3744 19.3855 24.3989 20.0818 24.3989 20.0818C24.3989 20.0818 24.4071 20.2559 24.3254 20.4137C24.3254 20.4137 24.2437 20.5578 24.2464 20.8516C24.2518 21.1889 24.527 22.6686 24.527 22.6686C24.6795 23.354 24.6959 23.8354 24.6959 23.8354C24.7068 24.2761 24.5542 24.2625 24.5542 24.2625L24.557 24.257ZM24.6904 16.8423C24.6904 16.8423 24.6686 17.6175 24.5134 17.7862C24.5134 17.7862 24.2954 18.0364 24.0938 18.0364C23.8922 18.0364 23.9685 17.9439 23.9685 17.9439C23.9685 17.9439 23.1512 15.2103 23.1512 14.31C23.1512 13.4097 23.9058 12.6562 23.9058 12.6562C23.9058 12.6562 24.5188 12.153 23.9794 10.9181L23.7914 10.4775C23.7914 10.4775 23.647 10.23 23.9794 10.2164C23.9794 10.2164 25.8565 10.0178 27.2323 9.32695C27.2323 9.32695 28.1558 8.79383 29.1529 8.79383C29.1529 8.79383 29.7496 8.77751 29.7332 8.96791C29.7278 9.04407 29.5725 9.08759 29.5725 9.08759C29.5725 9.08759 27.7145 9.71591 26.8127 11.6009C26.8127 11.6009 26.6111 12.0089 26.3005 12.3298C26.2433 12.3842 26.1017 12.493 26.1017 12.493C25.9082 12.6399 25.772 12.8031 25.772 12.8031C25.6031 13.0071 25.3743 13.3553 25.2271 13.8748C25.2271 13.8748 24.6932 15.583 24.6932 16.8505L24.6904 16.8423ZM26.1398 18.3329C26.1398 18.4716 26.0145 18.5831 25.8592 18.5831C25.7039 18.5831 25.7557 18.5668 25.7557 18.5668C25.7557 18.5668 25.5595 18.4906 25.4451 18.4825C25.4451 18.4825 25.189 18.4417 25.189 18.3302V18.3247C25.189 18.2132 25.4451 18.1724 25.4451 18.1724C25.5595 18.1642 25.7557 18.0881 25.7557 18.0881C25.7557 18.0881 25.7965 18.0718 25.8592 18.0718C26.0145 18.0718 26.1398 18.1833 26.1398 18.322V18.3302V18.3329ZM26.2052 23.1119C26.2052 23.1119 26.0744 22.5842 26.3687 22.6305C26.3687 22.6305 26.5539 22.6468 26.7501 22.7366C26.7501 22.7366 27.3494 23.0249 27.5483 23.0249C27.5837 23.033 27.8098 23.0004 27.867 22.6196C27.867 22.6196 27.897 22.4673 27.6491 22.3503C27.6491 22.3503 26.5185 21.858 26.5185 21.1535C26.5185 21.1535 26.5239 20.8924 26.7446 20.8924C26.7446 20.8924 26.8563 20.8734 26.9816 20.993C26.9816 20.993 27.344 21.3358 27.5619 21.3358C27.6518 21.3439 27.8044 21.3167 28.006 21.061C28.006 21.061 28.4746 20.4382 29.3246 20.4382C30.1746 20.4382 30.2291 20.5633 30.2291 20.5633C30.2291 20.5633 30.7658 20.6204 31.3461 20.5252C31.3461 20.5252 31.9209 20.3892 31.5885 20.7238C31.5885 20.7238 31.3951 20.9033 31.3951 20.993C31.3951 21.1481 31.5068 21.2814 31.5068 21.2814C31.5068 21.2814 31.9372 21.9913 30.6704 22.4401C30.6704 22.4401 30.1746 22.6278 29.6324 22.6278C29.6324 22.6278 29.3763 22.6142 29.3763 22.8399V23.0276C29.3763 23.0276 29.3518 23.2398 29.6896 23.2398H30.4525C30.6187 23.2398 30.5287 23.3594 30.5287 23.3594C30.5287 23.3594 30.3026 23.7457 30.1855 24.1074C30.1092 24.374 29.9239 24.4447 29.9239 24.4447C29.9239 24.4447 29.2483 24.7004 28.5427 25.1682C28.5427 25.1682 28.1422 25.462 27.6545 25.462C26.6928 25.462 26.2052 23.1174 26.2052 23.1174V23.1119ZM27.9815 18.817C27.9624 18.8415 27.6682 19.0374 27.3249 19.2522C26.9816 19.4671 26.6738 19.6548 26.6356 19.6684C26.5975 19.682 26.5376 19.6902 26.4994 19.6874C26.4613 19.6874 26.4122 19.6684 26.3877 19.6521C26.3632 19.6358 26.336 19.5922 26.3223 19.5569C26.3087 19.5215 26.2978 19.4644 26.2978 19.429C26.2978 19.3937 26.3114 19.3175 26.3305 19.2577C26.3496 19.2006 26.4041 19.0999 26.4531 19.0346C26.5021 18.9694 26.5893 18.8796 26.6493 18.8334C26.7092 18.7871 26.8236 18.7273 26.9108 18.6974C26.998 18.6674 27.1342 18.6375 27.2132 18.6294C27.2922 18.6212 27.4557 18.613 27.5701 18.6103C27.6845 18.6076 27.8071 18.6103 27.8398 18.6103C27.8725 18.6158 27.9243 18.6348 27.9515 18.6566C27.9787 18.6783 28.0087 18.7109 28.0114 18.73C28.0142 18.749 28.0005 18.7871 27.9815 18.8116V18.817ZM28.3384 19.3311C28.4719 19.255 28.6925 19.1326 28.8287 19.0591C28.965 18.9857 29.1448 18.8986 29.2265 18.866C29.311 18.8334 29.3954 18.8034 29.4826 18.779C29.5425 18.7626 29.6352 18.7436 29.6951 18.7354C29.755 18.7273 29.8422 18.7218 29.8967 18.7246C29.9512 18.7273 30.0384 18.7327 30.0928 18.7382C30.1473 18.7436 30.2509 18.7735 30.319 18.8007C30.3871 18.8279 30.477 18.8796 30.5206 18.915C30.5614 18.9503 30.6214 19.0074 30.6541 19.0401C30.6868 19.0727 30.7276 19.1298 30.7467 19.1625C30.7658 19.1951 30.7821 19.2386 30.7848 19.255C30.7848 19.2713 30.7848 19.3012 30.7767 19.3202C30.7712 19.3393 30.7494 19.3583 30.7276 19.3665C30.7058 19.3746 30.6486 19.3774 30.6023 19.3801C30.556 19.3801 30.4307 19.3801 30.3244 19.3774C30.2182 19.3746 30.0683 19.3719 29.9866 19.3774C29.9049 19.3774 29.7632 19.3964 29.6706 19.4154C29.5779 19.4345 29.4472 19.4644 29.3791 19.4862C29.311 19.5052 29.1584 19.565 29.0385 19.614C28.9187 19.663 28.7443 19.7364 28.6517 19.7745C28.559 19.8126 28.431 19.8642 28.3656 19.8887C28.3002 19.9132 28.213 19.9431 28.1667 19.9513C28.1204 19.9594 28.0523 19.973 28.0114 19.9758C27.9706 19.9785 27.9106 19.9785 27.8698 19.9758C27.8316 19.973 27.7771 19.9567 27.7526 19.9431C27.7281 19.9295 27.7009 19.8996 27.6927 19.8778C27.6845 19.8561 27.6791 19.8262 27.6818 19.8126C27.6818 19.799 27.6954 19.7745 27.709 19.7582C27.7227 19.7418 27.8126 19.6738 27.9134 19.6058C28.0523 19.5134 28.194 19.4236 28.3384 19.3393V19.3311ZM31.7057 24.325C31.7057 24.325 31.7738 24.4855 31.7792 24.6052C31.7928 24.869 31.5994 24.8663 31.5994 24.8663C30.9973 24.8881 31.011 24.0014 31.011 24.0014C31.0082 23.2153 31.4414 23.2207 31.4414 23.2207C31.4414 23.2207 31.6812 23.2017 31.7901 23.441C31.7901 23.441 31.6539 23.6396 31.6539 23.9714C31.6539 24.3033 31.7029 24.3223 31.7029 24.3223L31.7057 24.325ZM30.4906 33.5404C29.0031 33.5404 27.7336 31.4813 27.7336 31.4813C27.7336 31.4813 26.5376 29.7677 26.5376 28.3452C26.5376 28.3452 26.5103 27.551 27.1778 27.0967C27.1778 27.0967 27.4884 26.8873 27.7254 26.8873C27.7254 26.8873 28.0714 26.8329 28.0904 27.4258C28.0904 27.4258 28.3002 30.3797 29.1666 31.4813C29.1666 31.4813 29.3464 31.7098 29.5589 31.1985C29.5589 31.1985 29.6924 30.8966 29.8504 30.6708C29.8504 30.6708 30.0057 30.426 30.1065 30.7905C30.4007 31.8486 30.8094 33.0236 30.8094 33.0236C31.0219 33.5676 30.4906 33.5431 30.4906 33.5431V33.5404ZM31.1036 27.8121C29.8395 27.8121 29.3409 27.4122 29.3409 27.4122C29.3409 27.4122 29.0821 27.2599 29.4717 27.0559C29.4717 27.0559 30.477 26.5065 30.9211 26.2127C30.9211 26.2127 31.4959 25.8346 31.8528 25.8346C32.2097 25.8346 32.5747 26.1148 32.5747 26.1148C32.5747 26.1148 33.2994 26.5799 33.9369 26.5799C34.5744 26.5799 35.073 26.2562 35.073 26.2562C35.073 26.2562 35.4081 25.8836 35.7786 25.783C35.9339 25.7422 36.2553 25.5354 36.2553 25.5354C36.6586 25.3478 36.8329 25.6442 36.8329 25.6442L37.3614 26.2562C37.9853 26.9825 38.5465 27.1212 38.5465 27.1212C38.898 27.2409 38.6065 27.4394 38.6065 27.4394C38.6065 27.4394 38.1488 27.8012 36.4542 27.8012C34.7597 27.8012 34.2802 27.3551 34.2802 27.3551C33.8988 27.2082 33.5228 27.3878 33.5228 27.3878C33.5228 27.3878 32.5747 27.8094 31.1009 27.8094L31.1036 27.8121ZM40.2983 20.0791C40.2983 20.0791 40.3473 20.1145 40.3228 20.1662C40.3228 20.1662 40.3037 20.2423 40.1294 20.2423C39.6799 20.2423 38.8462 19.5678 38.8462 19.5678C38.8462 19.5678 38.6337 19.3991 38.255 19.3991C37.8763 19.3991 37.8491 19.4372 37.8491 19.4372C37.6312 19.4834 37.3696 19.4834 37.3696 19.4834C37.0073 19.4834 37.247 19.2903 37.247 19.2903C37.247 19.2903 37.811 18.8306 38.3858 18.8415C38.7999 18.8497 39.1568 19.1924 39.1568 19.1924C39.1568 19.1924 39.9087 19.8343 40.2956 20.0791H40.2983ZM39.6799 18.613H40.2002C40.2002 18.613 41.0911 18.5287 41.0911 19.2414C41.0911 19.2414 41.1183 19.6194 40.7669 19.6194C40.4154 19.6194 39.5491 18.8442 39.5491 18.8442C39.2903 18.594 39.6799 18.613 39.6799 18.613ZM36.1246 28.6063C36.1164 28.6253 36.081 28.6526 36.0456 28.6689C36.0102 28.6852 35.8467 28.7314 35.6778 28.7695C35.5116 28.8103 35.2283 28.8647 35.0512 28.8892C34.8741 28.9164 34.6153 28.9463 34.4736 28.9572L33.9614 28.9953C33.8198 29.0062 33.6154 29.0143 33.5119 29.0143C33.4084 29.0143 33.2368 29.0062 33.1305 28.9953C33.0243 28.9844 32.8771 28.9463 32.8036 28.9082C32.7273 28.8702 32.6211 28.8049 32.5666 28.7641C32.5121 28.7233 32.4521 28.6689 32.4331 28.6471C32.414 28.6253 32.3949 28.5873 32.3922 28.5628C32.3895 28.5383 32.3977 28.5138 32.414 28.5057C32.4304 28.4975 32.4576 28.4866 32.4767 28.4839C32.4957 28.4812 32.6211 28.4676 32.7545 28.4567C32.888 28.4458 33.1387 28.4295 33.3076 28.4186C33.4765 28.4078 33.8307 28.3996 34.0949 28.3996C34.3592 28.3996 34.7515 28.4078 34.9694 28.4186C35.1874 28.4295 35.4844 28.4486 35.6287 28.4622C35.7731 28.4758 35.9339 28.4948 35.9856 28.5057C36.0374 28.5166 36.0919 28.5356 36.1082 28.5492C36.1246 28.5628 36.13 28.5873 36.1219 28.6063H36.1246ZM42.8374 25.9462C42.6385 25.8102 42.5105 25.9734 42.5105 25.9734C42.3089 26.1937 42.001 26.7431 42.001 26.7431C41.8866 26.909 41.8703 27.2572 41.8703 27.2572C41.8348 28.3044 41.5978 33.5214 37.1925 35.001C37.1925 35.001 36.7675 35.1561 36.4978 34.8378C36.3616 34.6801 36.1818 34.6284 36.1818 34.6284C36.1436 34.7535 36.1382 35.3111 36.1382 35.3111C36.1382 35.8741 35.8603 36.1788 35.8603 36.1788C35.0893 36.9485 34.9776 37.8407 34.9776 37.8407C34.9776 37.8407 34.9504 38.1997 34.6071 38.0121C34.6071 38.0121 34.1194 37.7645 33.5828 37.1607C33.5828 37.1607 32.3295 35.8252 32.3295 34.6474C32.3295 33.4697 32.6483 33.1351 32.6483 33.1351C32.8608 32.5149 32.7518 31.7126 32.7518 31.7126C32.7518 31.7126 32.6483 31.261 32.8608 31.261C32.8608 31.261 33.0025 31.2311 33.1659 31.5575C33.2504 31.7397 33.3866 31.9138 33.3866 31.9138C33.3866 31.9138 33.64 32.281 33.64 31.4025C33.64 30.5239 33.2313 30.5756 33.2313 30.5756C33.2313 30.5756 32.6592 30.4396 32.6755 30.241C32.6755 30.241 32.602 29.8602 33.7898 29.8602H33.8961C33.8961 29.8602 34.4355 29.8874 34.9177 29.8874C34.9177 29.8874 35.8848 29.931 36.8547 29.5964C36.8547 29.5964 37.1953 29.4686 37.435 29.4577C37.435 29.4577 38.1815 29.4332 38.2251 30.1948C38.2251 30.1948 38.2469 30.4314 38.2496 30.5674V30.6191C38.2496 30.6191 38.2278 31.5276 38.5084 31.5276C38.789 31.5276 38.9579 30.7687 38.9579 30.7687C38.9579 30.7687 39.1023 29.8494 39.4401 29.4414C39.4401 29.4414 40.1212 28.7722 40.1212 27.5836V27.1158C40.1212 27.1158 40.1103 26.7594 40.0122 26.482C39.9496 26.2453 39.7044 26.1338 39.7044 26.1338C39.5382 26.055 39.165 25.8673 39.0151 25.6878C39.0151 25.6878 38.2578 24.8473 37.9635 24.3414C37.9635 24.3414 37.5494 23.6614 36.6231 23.4002C36.6231 23.4002 36.0619 23.2534 36.3289 23.8926C36.3289 23.8926 36.5795 24.4529 36.1055 24.7385C36.1055 24.7385 35.3345 25.2879 34.4164 25.2879C33.4983 25.2879 32.6483 24.4066 32.6483 24.4066C32.6483 24.4066 32.1688 23.7974 32.5802 22.8862C32.5802 22.8862 33.027 21.9396 33.0787 21.5153C33.0787 21.5153 33.1877 20.6911 33.294 20.1553C33.294 20.1553 33.3703 19.5406 33.8225 19.5378C34.4436 19.5378 34.4709 19.9322 34.4709 19.9322C34.4709 19.9322 34.6044 20.7265 34.9803 21.0991C34.9803 21.0991 35.1029 21.2188 35.28 21.2215C35.28 21.2215 35.4544 21.2242 35.626 21.0529C35.626 21.0529 35.8549 20.857 35.7295 20.6204C35.7295 20.6204 35.5416 20.2695 35.6533 20.2124C35.6533 20.2124 35.735 20.1716 35.8876 20.2586C35.8876 20.2586 36.6422 20.6666 37.6284 20.6666C37.6284 20.6666 38.0997 20.6802 38.8026 20.5116C38.8026 20.5116 39.4674 20.3702 39.609 20.8054C39.609 20.8054 39.7207 21.1508 40.1267 21.1671C40.1267 21.1671 40.6797 21.1644 40.6879 21.4201C40.7015 21.9532 40.1621 22.2497 40.1621 22.2497C40.1621 22.2497 39.9904 22.4129 39.1377 22.6305C39.1377 22.6305 38.8408 22.7039 38.8462 22.8998C38.8462 22.8998 38.8353 23.2642 39.2876 23.2642C40.143 23.2615 40.6252 22.8562 40.6252 22.8562C40.6252 22.8562 41.3853 22.4102 41.7558 20.4708L41.922 19.6956C41.922 19.6956 41.9765 19.2359 42.3933 19.1162L42.9191 18.9694C42.9191 18.9694 43.2733 18.8796 43.2706 19.274C43.2706 19.274 43.3087 20.3239 43.2515 21.0719C43.2515 21.0719 43.1861 21.6486 43.5021 21.45C43.5021 21.45 44.1206 21.0991 44.0661 20.6122C44.0661 20.6122 44.0116 20.3266 44.0116 20.1145C44.0116 20.1145 43.9898 19.3202 44.5646 19.3393C44.5646 19.3393 45.3792 19.2822 45.036 20.6748C45.036 20.6748 44.551 22.8182 43.9816 24.7766C43.9816 24.7766 43.573 26.4004 42.8428 25.9462H42.8374ZM42.7993 18.3519C42.7993 18.4634 42.5432 18.4988 42.5432 18.4988C42.4287 18.5042 42.2326 18.575 42.2326 18.575C42.2326 18.575 42.1917 18.5886 42.1291 18.5886C41.9738 18.5831 41.8485 18.4689 41.8485 18.3302V18.322C41.8485 18.1833 41.9738 18.0745 42.1291 18.0799C42.189 18.0799 42.2326 18.099 42.2326 18.099C42.2326 18.099 42.4287 18.1806 42.5432 18.1914C42.5432 18.1914 42.7993 18.2404 42.7993 18.3519ZM44.0661 16.2194C44.0661 16.2194 44.0116 16.6465 43.859 16.6465C43.7065 16.6465 43.6792 16.4153 43.6792 16.4153C42.9437 13.5484 42.0283 12.0986 42.0283 12.0986C41.715 11.6036 41.7231 12.2809 41.7231 12.2809L41.7013 14.125C41.7013 14.125 42.9518 15.689 42.9518 17.4434V17.5006C42.9518 17.5631 42.9436 17.6284 42.9328 17.691C42.9191 17.759 42.8238 17.7318 42.8238 17.7318C42.7311 17.7154 42.6358 17.7018 42.6358 17.7018C40.4863 17.37 37.2933 17.5849 37.2933 17.5849C35.9911 17.6094 34.9122 18.594 34.9122 18.594C34.6916 18.8007 34.3973 18.7082 34.3973 18.7082C34.3973 18.7082 34.0977 18.6321 33.9206 18.6321C33.7435 18.6321 33.4629 18.7028 33.4629 18.7028C33.2994 18.7545 33.1686 18.7599 33.1686 18.7599C32.9316 18.7599 32.4685 18.3492 32.4685 18.3492C31.534 17.5604 30.4579 17.6012 30.4579 17.6012L25.7094 17.5631C25.7094 17.5631 25.6249 16.3772 26.3959 16.1406C26.3959 16.1406 26.8808 15.991 26.9489 15.5422C26.9489 15.5422 27.0579 14.7071 27.5211 13.222C27.5211 13.222 28.3711 9.77847 31.3433 9.77847C34.3156 9.77847 33.768 10.366 33.768 10.366C33.768 10.366 34.0786 10.551 34.2802 10.3769L34.8387 9.86823C35.0103 9.70503 34.8414 9.54183 34.8414 9.54183C34.8414 9.54183 32.8826 7.21623 30.4252 7.21623L30.3598 7.19991C28.5781 7.19991 26.6847 8.01591 26.6847 8.01591C27.0279 7.01495 29.597 6.01671 29.597 6.01671C30.7549 5.55431 29.5779 5.49719 29.5779 5.49719C28.6353 5.44551 29.3545 5.08919 29.3545 5.08919C29.3545 5.08919 31.0763 4.16983 33.8497 4.16983C38.1597 4.16983 41.3145 7.08023 41.3145 7.08023C45.1449 10.3742 44.0606 16.2167 44.0606 16.2167L44.0661 16.2194Z" fill="white"/>
</g>
<defs>
<clipPath id="clip0_3594_718">
<rect width="68" height="68" fill="white"/>
</clipPath>
</defs>
</svg>
