<svg width="212" height="30" viewBox="0 0 212 30" fill="none" xmlns="http://www.w3.org/2000/svg">
<path fill-rule="evenodd" clip-rule="evenodd" d="M9.35352 5.96814H21.6071V8.54488H18.9105V21.2161H27.4414V16.16H29.8497V23.6777H9.4892L9.51464 21.3843H12.5335V8.68656H9.45528L9.362 5.97699L9.35352 5.96814ZM44.8593 15.7615L42.0694 9.23555L39.3134 15.7615H44.8593ZM105.228 15.7615L102.438 9.23555L99.6825 15.7615H105.228ZM68.4422 5.87074H77.2444L87.573 20.3572V8.55373H84.7153V5.87959H92.7967V8.58915H90.329V23.5626H82.3409L73.8778 11.5024V21.1098H76.4727V23.6246H68.6118V21.1541H71.2406V8.69541H68.4337V5.86188L68.4422 5.87074ZM178.284 6.10982H187.094L197.423 20.5962V8.80167H194.565V6.12752H202.647V8.83709H200.179V23.8105H192.191L183.719 11.7503V21.3577H186.314V23.8725H178.453V21.402H181.082V8.94335H178.275V6.10982H178.284ZM136.511 6.34889V12.5472H134.043C134.043 12.5472 133.094 7.94275 129.167 8.111C125.241 8.27924 123.477 11.5555 123.554 14.7432C123.63 17.9221 125.318 21.4817 129.244 21.4817C133.17 21.4817 134.739 18.4091 134.739 18.4091L136.884 20.1889C136.884 20.1889 134.45 24.4569 127.717 24.4569C120.984 24.4569 116.202 20.49 116.202 14.7964C116.202 9.10273 121.459 5.428 126.59 5.428C131.72 5.428 133.357 7.10155 133.357 7.10155C133.357 7.10155 133.586 5.93272 136.503 6.3666L136.511 6.34889ZM139.098 5.95043H151.461V8.59801H148.604V21.1541H151.461V23.6334H139.148V21.1187H142.006V8.55373H139.098V5.95043ZM160.136 14.8229C160.136 22.3583 165.012 21.8536 165.012 21.8536C165.012 21.8536 169.905 22.1016 169.905 14.9026C169.905 7.70368 165.174 8.35893 165.174 8.35893C165.174 8.35893 160.136 7.27865 160.136 14.8141V14.8229ZM94.8065 21.1718L101.285 5.78219H107.535L113.853 21.0744H116.931V23.6334H104.457V21.1541H107.314L106.221 18.0726H98.7497L97.3674 21.2249H99.9962V23.6334H92.1098V21.1718H94.8065ZM165.174 5.44571C165.174 5.44571 177.079 5.44571 177.079 15.2391C177.079 25.0325 164.86 24.4038 164.86 24.4038C164.86 24.4038 152.928 25.369 152.928 14.8229C152.928 4.27687 165.182 5.44571 165.182 5.44571H165.174ZM34.4374 21.1718L40.9161 5.78219H47.1658L53.4834 21.0744H56.5617V23.6334H44.0876V21.1541H46.9454L45.8514 18.0726H38.3806L36.9983 21.2249H39.6271V23.6334H31.7407V21.1718H34.4374Z" fill="white"/>
</svg>
