<svg width="69" height="72" viewBox="0 0 69 72" fill="none" xmlns="http://www.w3.org/2000/svg">
<path fill-rule="evenodd" clip-rule="evenodd" d="M61.1588 10.2845C61.1396 10.2559 61.1156 10.2368 61.0917 10.2177C61.0917 10.2082 61.0917 10.1986 61.0869 10.1843C61.0869 10.1843 61.0869 10.1843 61.0869 10.1796C61.0869 10.1748 61.0773 10.17 61.0773 10.1653C61.0677 10.1462 61.063 10.1319 61.0534 10.1128C60.8282 9.77888 55.2623 1.9082 34.0952 1.9082C12.9282 1.9082 8.00409 9.46405 7.54904 10.1605C7.45324 10.1939 7.40055 10.2845 7.40055 10.2845C5.54203 12.9319 2.41895 18.7133 2.41895 27.7049C2.41895 36.6966 6.11683 44.7724 14.3748 48.369C22.81 52.042 32.2367 51.6652 34.2773 51.6652C36.3178 51.6652 45.7445 52.0468 54.1797 48.369C62.4377 44.7724 66.1356 35.3991 66.1356 27.7049C66.1356 20.0108 63.0173 12.9319 61.154 10.2845H61.1588ZM34.0904 6.57337C49.7346 6.57337 54.242 13.4137 54.8503 14.4917C53.763 15.1166 52.532 15.7415 51.162 16.3187L49.6292 16.9579C46.5492 18.2363 43.2489 19.6053 40.3654 21.7089H40.3606C37.8793 23.5216 35.7047 25.878 34.2294 29.1932C31.0392 22.019 24.5631 19.3334 18.8295 16.9579L17.2967 16.3187C15.8645 15.7129 14.5808 15.0546 13.4551 14.4011C14.1497 13.1895 18.6666 6.57337 34.0857 6.57337H34.0904ZM53.3606 41.2282C47.6893 46.7758 38.0614 47.2051 34.2773 47.1288C30.4932 47.2051 20.8652 46.7758 15.1939 41.2282C9.3884 35.547 10.3991 24.5233 10.7057 22.0953C12.3582 23.2687 14.5903 23.8936 17.1434 24.6091C20.1372 25.4439 23.5285 26.3884 26.6516 28.4825C31.4512 31.6927 33.9372 37.8748 33.9611 37.9368C33.9611 37.9368 34.1815 38.576 34.4976 37.9368C34.5215 37.8748 37.0123 31.6927 41.8119 28.4825C44.935 26.3932 48.3263 25.4439 51.3201 24.6091C53.9163 23.8841 56.1819 23.2544 57.8441 22.0381C58.1411 24.3372 59.2188 35.4993 53.3606 41.2282Z" fill="white"/>
<path fill-rule="evenodd" clip-rule="evenodd" d="M33.214 67.888L36.6245 65.0975H40.3799V67.888H33.2188H33.214ZM38.4735 58.4575L35.063 61.248H31.3076V58.4575H38.4687H38.4735Z" fill="white"/>
<path fill-rule="evenodd" clip-rule="evenodd" d="M58.1078 58.4579H51.785V60.9861H56.8097C58.2515 60.9861 58.0503 61.9353 58.0503 61.9353H54.0363C53.5381 61.9353 51.9622 61.8733 51.1958 63.104C51.2006 62.9513 51.2054 62.7939 51.2054 62.627C51.2054 58.3434 47.9434 58.4579 47.9434 58.4579H39.4507L30.8144 65.2744V61.0767C30.8144 58.3434 27.9835 58.4627 27.9835 58.4627H21.6607V60.9908H26.6854C28.1272 60.9908 27.926 61.9401 27.926 61.9401H23.912C23.4234 61.9401 21.8906 61.8781 21.1098 63.0467V61.9687C21.1098 58.2289 17.6993 58.4627 17.6993 58.4627H7.07031V67.8932H10.2748V61.2484H12.5549V67.8932H15.6157V61.2484H16.6359C18.1352 61.2484 17.9484 62.4839 17.9484 62.4839V67.8884H21.105V66.6339C21.8954 67.8693 23.4138 67.8884 23.4138 67.8884H32.2226L40.8877 60.9288V67.8598H47.7039C49.0068 67.8598 50.2091 67.2015 50.8078 65.4366C51.1479 67.8598 53.5381 67.8884 53.5381 67.8884H60.9291V61.0719C60.9291 58.3386 58.0982 58.4579 58.0982 58.4531L58.1078 58.4579ZM27.8829 65.2887H24.5203C24.5203 65.2887 23.8257 65.3459 23.8257 64.6686C23.8257 63.9912 24.3862 64.0485 24.5778 64.0485H27.8829V65.2839V65.2887ZM46.8465 65.1027H43.9725V61.1053H46.8752C46.8752 61.1053 48.2596 61.2198 48.2596 62.9895C48.2596 64.7592 47.6081 65.1027 46.8465 65.1027ZM57.9785 65.2887H54.6159C54.6159 65.2887 53.9213 65.3459 53.9213 64.6686C53.9213 63.9912 54.4818 64.0485 54.6734 64.0485H57.9785V65.2839V65.2887Z" fill="white"/>
<path d="M63.0457 58.4814C62.3176 58.4814 61.7236 59.0729 61.7236 59.798C61.7236 60.5231 62.3176 61.1145 63.0457 61.1145C63.7738 61.1145 64.3677 60.5278 64.3677 59.798C64.3677 59.0682 63.7738 58.4814 63.0457 58.4814ZM63.0457 60.8808C62.4469 60.8808 61.9583 60.3943 61.9583 59.798C61.9583 59.2017 62.4469 58.7152 63.0457 58.7152C63.6444 58.7152 64.133 59.2017 64.133 59.798C64.133 60.3943 63.6444 60.8808 63.0457 60.8808Z" fill="white"/>
<path fill-rule="evenodd" clip-rule="evenodd" d="M63.6587 60.3277L63.6443 60.0558C63.6348 59.8459 63.5485 59.8077 63.4623 59.7743C63.5581 59.7171 63.6731 59.636 63.6731 59.4118C63.6731 59.0922 63.424 59.0063 63.1749 59.0063H62.4756V60.5137H62.6816V59.865H63.1797C63.424 59.865 63.448 60.0128 63.448 60.1369C63.448 60.2609 63.4527 60.4231 63.4815 60.5137H63.7306V60.4803C63.6683 60.4469 63.6587 60.4135 63.6539 60.3277H63.6587ZM63.1558 59.6885H62.6816V59.1733H63.1941C63.2947 59.1733 63.4671 59.1924 63.4671 59.4261C63.4671 59.6599 63.309 59.6885 63.1558 59.6885Z" fill="white"/>
</svg>
