<svg width="104" height="56" viewBox="0 0 104 56" fill="none" xmlns="http://www.w3.org/2000/svg">
<path fill-rule="evenodd" clip-rule="evenodd" d="M98.725 14.6726C97.8472 14.6726 97.1608 15.2841 97.1608 16.1724C97.1608 17.0608 97.8514 17.6682 98.725 17.6682C99.5986 17.6682 100.289 17.0567 100.289 16.1724C100.289 15.2882 99.6028 14.6726 98.725 14.6726ZM98.725 17.2468C98.0968 17.2468 97.6309 16.7922 97.6309 16.1766C97.6309 15.5609 98.0927 15.1023 98.725 15.1023C99.3573 15.1023 99.8191 15.5692 99.8191 16.1766C99.8191 16.784 99.3448 17.2468 98.725 17.2468ZM57.6908 11.8009C56.8546 12.9991 56.4844 14.5651 57.5992 15.2138C58.7141 15.8626 59.9205 15.2138 60.661 14.3833C61.4056 13.5528 61.7759 11.8009 61.0312 11.0654C60.2866 10.3258 58.6184 10.2349 57.6908 11.8009Z" fill="white"/>
<path fill-rule="evenodd" clip-rule="evenodd" d="M98.292 4.6485L95.3218 7.97057C95.0112 8.27909 94.9183 8.18681 95.043 7.69373L95.692 5.75586L91.2325 6.95412C91.2325 6.95412 89.3771 12.1232 88.6325 13.7842C87.3304 16.4617 84.8635 19.3706 83.1538 20.1515C81.4357 20.9366 80.8325 19.5978 80.8325 18.4905C87.1474 15.813 87.2389 11.4786 87.0558 10.6439C86.8686 9.44567 85.7246 8.35071 82.3218 10.0903C79.0728 11.7513 76.7973 16.3666 76.5643 18.7673C75.8197 20.7961 73.9643 22.829 73.4984 22.829C73.0325 22.829 72.5707 23.0149 73.1282 21.1679L79.2558 4.28076L74.7048 5.75586C74.7048 5.75586 69.692 18.7673 68.5771 21.5357C67.4622 24.3041 65.8856 25.6428 65.0494 25.7792C64.4712 25.8742 64.4005 25.6883 64.8622 24.209L71.2686 6.85908L66.5304 8.42922C66.5304 8.42922 61.1432 21.6266 60.0325 24.7627C58.9176 27.8989 57.4325 28.0848 56.9666 28.1757C56.5006 28.2666 56.0389 27.9898 56.5963 26.3287L59.7538 17.9326L55.2027 19.3168C55.2027 19.3168 53.0686 24.7627 51.8622 27.4402C50.6558 30.1177 48.892 31.7333 47.4526 31.7333C46.0133 31.7333 46.8037 30.8119 47.2654 29.1508L52.9314 15.2138C54.6037 10.8753 51.725 6.99957 50.6101 6.07815L42.5314 12.4909C42.4398 10.553 40.859 8.29286 40.1186 7.55325L30.6462 15.1188C29.9973 13.09 28.7909 11.2431 27.1186 9.58202C22.3845 5.98312 16.1403 5.75999 8.82288 9.39609C1.01456 13.276 1.11024 20.4779 1.85072 21.953C4.54224 29.6136 12.8082 27.4898 14.7592 26.6593C20.8869 24.1677 20.8869 18.0773 20.5166 16.1394L12.8082 20.2011C13.7358 22.4158 11.972 24.3537 10.5784 24.9073C9.1848 25.461 5.09968 25.5519 3.89328 21.3993C2.68688 17.2467 5.65712 13.2801 10.8571 10.9704C16.0571 8.6606 20.9784 9.77209 23.6741 12.7223C26.3698 15.6725 25.5294 20.3829 23.1166 25.7337C20.7038 31.0846 11.6933 45.8521 10.9528 47.0545L19.4018 44.2861C21.1656 41.4268 28.2251 27.9526 29.6187 24.1677C30.4466 21.9158 30.8251 19.1846 30.7336 17.1558L34.8645 13.8338C36.0709 15.1271 35.6549 17.8004 35.189 19.0937C33.8869 25.461 27.1102 39.9517 25.9038 41.9805L33.4251 39.398C34.4485 38.4766 40.0187 24.5396 40.8549 21.4944C41.5496 18.9615 42.34 16.879 42.34 14.7552L46.2878 11.5695C47.773 12.4 46.7995 16.3212 46.2421 17.6145C46.2421 17.6145 42.7144 26.1056 41.4123 29.4277C40.1102 32.7497 40.7634 35.9809 43.4549 36.1627C47.54 35.9768 50.5602 31.7787 51.3963 30.8573C51.7666 31.6878 52.7733 33.0266 54.1835 32.6093C55.9016 32.101 57.9899 30.2086 59.2005 29.1012C59.7579 29.6549 60.3154 30.6714 61.8005 30.2086C64.0302 29.6549 66.6302 26.8865 67.4664 26.056C68.1154 27.1634 68.3941 27.7171 70.8069 26.8865C73.2197 26.056 75.6824 22.9199 76.7058 21.6266C76.7058 22.4571 78.7941 24.2008 80.8366 23.5645C83.0664 22.8703 86.0824 19.5978 87.0101 18.4905L86.3611 20.8911L90.492 19.6928C90.492 19.6928 92.6261 13.9701 94.0197 11.3877C95.2927 9.02421 95.9707 10.1894 96.341 10.6481C96.7112 11.1108 97.0856 11.4786 98.2005 11.3877C100.522 11.2017 101.824 8.80522 102.473 7.60283C98.9451 7.60283 98.8494 5.9418 98.292 4.6485ZM83.8111 11.8835C84.8344 11.2348 84.9467 11.8091 84.7429 12.3917C84.4642 13.1768 83.6738 14.9825 81.9515 15.9989C81.4856 16.1848 81.4856 15.908 81.4856 15.6766C81.8101 14.5197 82.7877 12.5322 83.8111 11.8835ZM99.6523 20.1019H99.6482L9.11824 51.926L9.10992 51.9467L9.30128 52.2194L9.3512 52.2028C28.3125 45.1579 52.74 39.9517 65.8107 43.2242C72.0216 35.2124 90.101 24.2958 99.7439 20.4738L99.6565 20.1019H99.6523ZM98.9909 16.2799C99.2114 16.2675 99.3861 16.1559 99.3861 15.8543C99.3861 15.5527 99.1282 15.3667 98.6997 15.3667H98.0798V16.9906H98.4917V16.3005H98.5624L98.9368 16.9906H99.411L98.9909 16.284V16.2799ZM98.7246 16.0196H98.4917V15.6436H98.6872C98.8079 15.6436 98.9493 15.6601 98.9493 15.813C98.9493 15.9782 98.8702 16.0154 98.7246 16.0154V16.0196Z" fill="white"/>
</svg>
