<svg width="17" height="17" viewBox="0 0 17 17" fill="none" xmlns="http://www.w3.org/2000/svg">
<path d="M7.63792 0.505203C6.08238 0.717304 4.96349 1.12098 3.8173 1.88728C2.67111 2.65358 2.05709 3.44725 1.65456 4.05618C-0.187528 6.85455 -0.214816 10.3303 1.59316 13.1218C2.06391 13.847 3.10094 14.9007 3.81048 15.3796C7.02389 17.5349 11.1925 17.1996 13.9761 14.5654C16.2752 12.3829 17.1076 9.05082 16.1047 6.04719C15.1768 3.28988 12.7753 1.17572 9.93029 0.628359C9.41178 0.525729 8.01998 0.450467 7.63792 0.505203ZM8.94785 4.05618C10.1009 4.54196 10.7354 6.20456 10.7422 8.74293C10.7422 11.0624 10.2032 12.6155 9.21392 13.1423C8.81822 13.3476 8.02681 13.3476 7.6311 13.1423C7.11941 12.8686 6.71005 12.2665 6.44398 11.3908C6.25294 10.775 6.17107 10.1934 6.12332 9.15344C5.99369 6.17719 6.96249 3.96039 8.40886 3.95355C8.56578 3.95355 8.8114 4.00145 8.94785 4.05618Z" fill="white"/>
</svg>
