<svg width="171" height="51" viewBox="0 0 171 51" fill="none" xmlns="http://www.w3.org/2000/svg">
<path d="M95.1746 6.39041C94.1308 6.77356 93.4008 7.63564 93.1961 8.71668C93.1552 8.93562 93.1279 10.7077 93.1279 13.1776V17.276L92.7936 16.8723C91.5314 15.3465 89.7712 14.5118 88.0587 14.6213C85.7322 14.7718 84.0812 16.2155 83.1601 18.8907C82.7644 20.0538 82.6553 20.8338 82.6553 22.5717C82.6621 23.94 82.6826 24.2411 82.819 24.8637C83.4603 27.881 84.8248 29.7899 86.8102 30.4331C87.663 30.7136 88.0792 30.782 89.0343 30.7752C89.7644 30.7752 90.0646 30.741 90.4875 30.6246C91.8316 30.2483 93.0528 29.3247 93.4349 28.3942L93.544 28.1342L93.776 28.5242C94.2399 29.2836 94.7516 29.7626 95.5976 30.2004C96.3413 30.5904 97.0304 30.7615 97.9036 30.7752C98.7087 30.782 99.2545 30.6383 99.8412 30.2689C100.189 30.0431 100.769 29.5299 100.769 29.441C100.769 29.352 100.68 29.3384 100.564 29.2768C100.264 29.1194 99.7321 28.5584 99.5274 28.1752C99.1317 27.45 99.1317 27.4021 99.1317 17.7139C99.1317 8.02564 99.1522 8.47721 98.7155 7.71775C98.4494 7.23881 97.9036 6.75987 97.3578 6.50672C96.9758 6.32883 96.8189 6.29462 96.2321 6.27409C95.6795 6.25357 95.4816 6.27409 95.1746 6.39041ZM91.2448 18.8701C92.2614 19.4654 92.7799 20.998 92.698 23.1464C92.6503 24.289 92.5343 24.8979 92.2341 25.5274C91.8316 26.3689 91.2585 26.7726 90.4603 26.7795C89.5733 26.7795 89.0207 26.41 88.5909 25.5205C88.0451 24.3916 87.9291 22.3322 88.318 20.7859C88.5636 19.8417 89.1913 18.9728 89.8053 18.747C90.2283 18.5896 90.8628 18.6444 91.2448 18.8701Z" fill="white"/>
<path d="M119.326 6.32215C119.101 6.37689 118.514 6.65057 118.439 6.73951C118.418 6.76004 118.289 6.86267 118.152 6.9653C117.845 7.19793 117.47 7.74528 117.286 8.24475C117.143 8.61421 117.143 8.68947 117.143 17.6251C117.143 26.5607 117.156 26.7044 117.245 27.1696C117.607 29.0785 119.21 30.4811 121.338 30.748C122.437 30.8916 123.324 30.659 124.183 30.0022C124.525 29.7422 124.818 29.4548 124.77 29.4206C124.757 29.4138 124.641 29.3385 124.511 29.2564C124.17 29.0512 123.665 28.5106 123.481 28.1617C123.112 27.4365 123.126 27.7649 123.085 17.7482C123.044 9.2163 123.037 8.45685 122.928 8.18317C122.642 7.47845 122.103 6.90372 121.379 6.5411C120.915 6.31531 120.82 6.28794 120.22 6.27426C119.858 6.26742 119.455 6.28794 119.326 6.32215Z" fill="white"/>
<path d="M24.3902 7.60833C24.1309 7.67675 23.7625 7.7999 23.5783 7.88201C23.1689 8.06674 22.5617 8.52515 22.3707 8.79883L22.2343 8.9904L22.4389 9.1683C22.7187 9.40092 23.2372 10.1946 23.4418 10.7077C23.9331 11.9256 24.1173 13.3077 24.0627 15.3397C23.9535 19.1165 22.8824 23.078 21.3405 25.3838C20.631 26.4511 19.7781 27.2653 19.0208 27.6005C18.8366 27.6758 18.6934 27.7579 18.6934 27.7784C18.6934 27.9084 19.2187 28.921 19.478 29.2768C20.4126 30.5973 21.6885 31.0831 23.2303 30.7136C23.6602 30.6042 24.5471 30.1184 24.9769 29.7352C26.0344 28.8253 26.5802 27.9632 27.0851 26.4648C27.7196 24.5353 28.2449 21.997 28.4837 19.5954C28.5451 19.0139 28.6065 18.3639 28.6338 18.1586C28.6747 17.7139 28.5997 17.6318 29.4934 19.0207C30.8443 21.0938 31.7449 22.4759 32.2975 23.3243C32.6182 23.8101 33.1435 24.638 33.4778 25.1511C33.8053 25.6711 34.0986 26.0885 34.1191 26.0748C34.1669 26.0611 34.6444 25.418 36.4729 22.948C36.9573 22.2912 37.5508 21.4838 37.7965 21.1554C38.0421 20.827 38.697 19.9375 39.2565 19.1849C39.8159 18.4255 40.2799 17.8165 40.2867 17.8302C40.3003 17.8439 40.2799 18.2818 40.2526 18.8086C40.2185 19.3355 40.1912 20.4712 40.1912 21.3401C40.1707 29.9063 42.5313 35.1883 46.9728 36.5361C47.539 36.7072 47.6823 36.7277 48.7807 36.7277C50.0293 36.7346 50.2339 36.7004 51.1072 36.3856C52.5263 35.8588 53.8294 34.6341 54.6004 33.0946L54.7846 32.7389L54.5935 32.7047C54.4912 32.691 54.2592 32.6499 54.0682 32.6294C52.0283 32.3762 49.7632 31.001 48.2554 29.0921C46.5498 26.9369 45.4104 23.5775 44.9942 19.4586C44.8578 18.1039 44.8578 15.2097 45.001 13.9577C45.2398 11.7546 45.8402 10.1056 46.7067 9.21619L47.1501 8.76462L46.9932 8.60041C46.5975 8.17621 45.7379 7.75201 44.9396 7.58096C44.3256 7.45096 43.118 7.45781 42.6132 7.5878C41.2077 7.95727 40.2935 8.70988 38.9222 10.6325C38.5128 11.214 37.9602 11.9803 37.6941 12.343C35.7156 15.0729 34.9378 16.1539 34.7604 16.4208C34.583 16.6876 34.5285 16.7218 34.5012 16.7218C34.4739 16.7218 34.1942 16.3318 33.8871 15.8461C33.5733 15.3671 32.6591 13.9577 31.8608 12.7193C30.0733 9.95512 29.7459 9.48303 29.1932 8.92883C28.5246 8.26516 27.9857 7.92306 27.1533 7.64254C26.6553 7.47833 24.9837 7.45781 24.3902 7.60833Z" fill="white"/>
<path d="M127.398 8.80566C126.736 9.05197 126.204 9.76353 126.163 10.4683C126.108 11.2688 126.463 11.9119 127.179 12.3087L127.548 12.514L132.248 12.5345C137.515 12.5551 137.393 12.5619 137.952 12.0761C138.853 11.2961 138.866 9.98247 137.979 9.20249C137.406 8.70303 137.604 8.71671 132.33 8.72355C128.899 8.72355 127.555 8.75092 127.398 8.80566Z" fill="white"/>
<path d="M66.6014 14.0876C66.0966 14.1971 65.6394 14.4023 65.2574 14.6897C64.9163 14.9497 64.541 15.2986 64.541 15.3602C64.541 15.4218 64.7116 15.5107 64.9163 15.6475C65.3665 15.9486 65.7895 16.496 65.9942 17.0365C66.1443 17.4401 66.1443 17.4744 66.1784 22.9821C66.2057 26.6836 66.2398 28.5925 66.2944 28.7294C66.5946 29.5778 67.1268 30.2141 67.7885 30.5151C68.2866 30.7341 69.1735 30.8093 69.733 30.6793C70.5858 30.4741 71.2885 29.9062 71.6637 29.1057L71.8752 28.661L71.9094 24.6242C71.9435 20.9227 71.9571 20.5601 72.0663 20.2453C72.3392 19.5201 72.7758 18.9248 73.2125 18.6991C73.5263 18.5417 74.0857 18.528 74.3586 18.6717C74.577 18.7812 74.884 19.1233 75 19.3833C75.0545 19.5064 75.0955 20.7722 75.1159 23.5637L75.1569 27.5663L75.3274 28.0178C75.7846 29.2152 76.5691 30.0088 77.6949 30.433C78.9843 30.912 80.2533 30.912 81.2153 30.433C81.6656 30.2141 82.4843 29.5778 82.4843 29.4478C82.4843 29.3178 82.3478 29.311 82.1841 29.2152C81.8225 29.0031 81.3859 28.5173 81.188 28.1068C80.8742 27.4568 80.84 26.9505 80.8537 22.9479C80.8673 20.2522 80.8469 19.0617 80.7855 18.658C80.4171 16.1812 79.4414 14.9223 77.688 14.6623C75.7709 14.3749 73.6491 15.4697 72.1959 17.4949C71.9366 17.8507 71.8411 17.8575 71.8411 17.5017C71.8411 17.1459 71.616 16.5096 71.384 16.106C70.7359 14.9839 69.5283 14.2449 68.0205 14.0602C67.3041 13.9713 67.1404 13.9713 66.6014 14.0876Z" fill="white"/>
<path d="M154.291 14.32C154.087 14.6279 153.664 14.929 153.302 15.0316C153.152 15.0795 151.085 15.1205 147.673 15.1411L142.284 15.1821L141.895 15.3737C141.39 15.62 140.865 16.1947 140.708 16.6668C140.353 17.7342 140.81 18.8015 141.833 19.3078L142.215 19.4925L144.842 19.5336C146.289 19.561 147.626 19.5815 147.81 19.5883H148.151C148.151 19.5952 147.776 19.8141 147.776 19.8141C143.287 22.373 141.697 23.8509 140.483 26.574C140.196 27.2171 139.889 28.1613 139.787 28.7155C139.705 29.1534 139.677 30.4465 139.746 30.515C139.814 30.5834 139.964 30.426 140.189 30.2755C141.103 29.646 142.632 29.126 144.112 28.9276C145.872 28.695 147.278 29.0097 148.99 30.0223C150.075 30.6655 150.716 30.8844 151.535 30.8844C152.804 30.8844 153.896 30.1729 154.503 28.9413C155.131 27.6619 155.062 26.0814 154.332 25.144L154.209 24.9798L153.977 25.1509C153.664 25.3903 153.091 25.6708 152.606 25.8282C151.726 26.1087 151.112 26.1635 148.908 26.1635H146.8L147.1 25.965C147.469 25.7119 148.69 24.7335 149.823 23.7756C150.293 23.3719 150.921 22.852 151.221 22.6056C151.521 22.3593 151.781 22.1472 151.801 22.1267C151.822 22.1062 152.054 21.9078 152.313 21.6888C153.534 20.642 154.714 19.2326 155.11 18.3363C155.724 16.9405 155.608 15.3121 154.817 14.3611C154.551 14.0327 154.496 14.0327 154.291 14.32Z" fill="white"/>
<path d="M55.6379 14.5052C54.0824 14.7173 52.9635 15.121 51.8173 15.8873C50.6711 16.6536 50.0571 17.4472 49.6546 18.0562C47.8125 20.8545 47.7852 24.3303 49.5932 27.1218C50.0639 27.847 51.1009 28.9007 51.8105 29.3796C55.0239 31.5349 59.1925 31.1996 61.9761 28.5654C64.2752 26.3829 65.1076 23.0508 64.1047 20.0472C63.1768 17.2899 60.7753 15.1757 57.9303 14.6284C57.4118 14.5257 56.02 14.4505 55.6379 14.5052ZM56.9478 18.0562C58.1009 18.542 58.7354 20.2046 58.7422 22.7429C58.7422 25.0624 58.2032 26.6155 57.2139 27.1423C56.8182 27.3476 56.0268 27.3476 55.6311 27.1423C55.1194 26.8686 54.7101 26.2665 54.444 25.3908C54.2529 24.775 54.1711 24.1934 54.1233 23.1534C53.9937 20.1772 54.9625 17.9604 56.4089 17.9536C56.5658 17.9536 56.8114 18.0014 56.9478 18.0562Z" fill="white"/>
<path d="M106.807 14.7375C105.313 15.0591 104.112 15.709 103.102 16.7422C102.509 17.3443 102.297 17.6111 101.942 18.2064C100.482 20.6284 100.298 24.0494 101.499 26.4715C102.509 28.4967 104.358 29.9745 106.616 30.5493C108.41 31.0008 110.505 30.8024 112.026 30.0293C113.145 29.4546 114.073 28.4351 114.55 27.2446C114.741 26.7588 114.98 25.8215 114.912 25.8215C114.844 25.8215 114.782 25.8967 114.666 25.9857C113.486 26.8751 110.641 27.2378 109.024 26.7041C107.939 26.3483 107.018 25.5341 106.616 24.5762L106.513 24.3368L107.96 24.2889C111.276 24.1794 112.933 23.8441 114.107 23.0368C115.096 22.3594 115.547 21.5179 115.622 20.2111C115.724 18.4595 114.987 17.0501 113.425 16.0033C112.565 15.4354 111.828 15.1275 110.593 14.8264C109.584 14.587 107.714 14.5391 106.807 14.7375ZM109.277 17.9737C109.549 18.1174 109.884 18.4664 110.02 18.7606C110.184 19.1095 110.129 20.0058 109.918 20.4437C109.454 21.3947 108.608 21.7779 106.964 21.7847C106.138 21.7847 106.166 21.8052 106.268 21.2168C106.554 19.5611 106.909 18.8085 107.707 18.1379C108.083 17.8164 108.826 17.7411 109.277 17.9737Z" fill="white"/>
<path d="M130.788 14.7375C130.004 14.9017 129.103 15.2507 128.4 15.6612C127.698 16.0717 126.538 17.2006 126.074 17.9191C124.518 20.3137 124.225 23.6116 125.337 26.1841C126.142 28.0452 127.745 29.5504 129.71 30.2893C130.638 30.6451 131.368 30.7683 132.46 30.7683C135.305 30.7751 137.222 29.7556 138.334 27.6483C138.546 27.2378 138.948 25.9105 138.88 25.842C138.866 25.8215 138.709 25.9173 138.539 26.0473C137.959 26.4989 136.874 26.7999 135.448 26.9231C133.586 27.0804 132.317 26.6904 131.3 25.6505C130.993 25.3426 130.515 24.5763 130.515 24.3984C130.515 24.2205 131.109 24.3163 132.003 24.2889C136.697 24.1384 138.682 23.3447 139.391 21.3332C139.569 20.82 139.637 19.7185 139.528 19.089C139.139 16.8585 137.024 15.2096 133.893 14.7033C133.047 14.5665 131.525 14.5802 130.788 14.7375ZM133.354 18.0559C133.94 18.398 134.213 19.0753 134.063 19.8211C133.79 21.2169 132.746 21.8395 130.788 21.7711L130.208 21.7505L130.222 21.3879C130.263 20.4848 130.795 19.0001 131.259 18.5211C131.546 18.2201 131.873 17.9875 132.119 17.8917C132.439 17.7754 133.006 17.8506 133.354 18.0559Z" fill="white"/>
<path d="M12.062 26.0266C10.2062 26.3619 8.7394 27.6276 8.08444 29.4476C7.92752 29.8786 7.89341 30.1112 7.85929 30.8502C7.832 31.6096 7.85247 31.8354 7.97528 32.3212C8.35052 33.8401 9.59904 35.318 11.1546 36.098C13.6926 37.3706 17.1311 37.22 20.058 35.7011C21.3816 35.0169 22.862 33.717 24.1447 32.1159C24.3698 31.8354 24.5609 31.5754 24.5609 31.5481C24.5609 31.5207 24.4585 31.5754 24.3289 31.6712C23.5579 32.2596 21.7227 32.5675 20.6379 32.287C19.403 31.9723 18.5639 31.2265 17.7724 29.7555C17.0015 28.3255 16.558 27.7371 15.7734 27.1076C15.2072 26.6629 14.4976 26.2934 13.8631 26.1292C13.3378 25.9992 12.4918 25.9445 12.062 26.0266Z" fill="white"/>
<path d="M160.384 26.0268C159.197 26.2389 158.31 26.7247 157.423 27.6347C156.966 28.1068 156.543 28.7225 156.032 29.6873C155.465 30.7409 154.967 31.343 154.306 31.7809C153.732 32.1572 153.18 32.3283 152.395 32.3693C151.29 32.4309 150.055 32.1435 149.448 31.6714C148.513 30.9599 150.621 33.3751 151.87 34.4493C153.275 35.6603 154.899 36.4129 156.919 36.8097C157.867 36.9945 159.723 36.9808 160.603 36.7824C163.182 36.2145 165.017 34.7024 165.733 32.554C165.87 32.1435 165.89 31.9451 165.89 31.0899C165.89 30.2346 165.877 30.0636 165.672 29.482C165.365 28.5994 165.031 28.0589 164.355 27.3952C163.721 26.7657 163.107 26.4031 162.24 26.1568C161.722 26.0063 160.835 25.9447 160.384 26.0268Z" fill="white"/>
<path d="M62.7677 33.2043C62.488 33.2932 62.1946 33.4643 62.065 33.6079C61.9421 33.7379 61.949 33.7448 62.1605 33.8953C62.2764 33.9842 62.4402 34.1963 62.5221 34.3674C62.6653 34.6753 62.6653 34.7779 62.6994 39.0336L62.7336 43.3851L62.9178 43.6246C63.1429 43.9188 63.6068 44.1582 63.9548 44.1582C64.3027 44.1582 64.9645 43.7614 65.1487 43.303C65.2101 43.1456 65.2238 42.0099 65.2101 38.8557C65.1897 34.6958 65.1897 34.6069 65.0464 34.3058C64.8485 33.8885 64.5142 33.5669 64.0776 33.3685C63.6819 33.1974 63.0406 33.1153 62.7677 33.2043Z" fill="white"/>
<path d="M141.95 33.2451C141.806 33.293 141.602 33.423 141.492 33.5256C141.076 33.9225 141.09 33.7583 141.09 38.3287C141.09 42.8991 141.104 42.5433 141.206 42.8512C141.438 43.5765 142.127 44.0828 142.987 44.1444C143.498 44.1786 143.785 44.0896 144.133 43.7954L144.351 43.6107L144.058 43.3233C143.833 43.0975 143.751 42.947 143.689 42.6665C143.642 42.4202 143.614 40.9902 143.614 38.1987C143.614 35.4072 143.601 34.0661 143.519 33.9019C143.369 33.6214 142.973 33.2998 142.68 33.2177C142.352 33.122 142.277 33.1288 141.95 33.2451Z" fill="white"/>
<path d="M114.578 34.2302C114.155 34.4218 113.916 34.7844 113.882 35.2565C113.841 35.8654 114.1 36.3033 114.639 36.5291C115.547 36.9054 116.502 36.1596 116.372 35.1744C116.331 34.8802 116.113 34.5313 115.827 34.3055C115.554 34.0865 114.946 34.0523 114.578 34.2302Z" fill="white"/>
<path d="M75.3414 35.2771C75.2254 35.3182 74.9935 35.4824 74.8297 35.6534L74.5363 35.9545L74.5022 36.6524L74.4681 37.3502L74.1747 37.3913C73.7995 37.4392 73.6494 37.5897 73.6494 37.925C73.6494 38.2602 73.8268 38.4655 74.1884 38.4928L74.4681 38.5134L74.5022 40.4633C74.5432 42.7007 74.5636 42.7896 75.164 43.3917C75.7644 43.9938 76.1874 44.1169 76.7878 44.1169C77.3882 44.1169 77.511 44.0348 77.9408 43.7201C78.1318 43.5764 78.664 42.947 78.664 42.8649C78.664 42.7828 78.4866 42.7828 78.2751 42.7349C77.7975 42.6391 77.4359 42.4064 77.2244 42.0575C77.0675 41.8044 77.0607 41.7633 77.0607 40.1554V38.5134L77.7156 38.4792C78.5071 38.4381 78.5958 38.3834 78.5958 37.9318C78.5958 37.4802 78.4934 37.3913 77.7088 37.3708L77.0607 37.3502L77.0266 36.7003C76.9925 36.0092 76.9447 35.8861 76.6377 35.5919C76.2693 35.2361 75.8122 35.1266 75.3414 35.2771Z" fill="white"/>
<path d="M109.468 35.3389C109.318 35.4141 109.106 35.592 108.99 35.7289C108.799 35.9547 108.785 36.0162 108.751 36.6594L108.717 37.3504L108.424 37.3915C108.049 37.4394 107.898 37.5899 107.898 37.9251C107.898 38.2604 108.076 38.4656 108.437 38.493L108.717 38.5135L108.751 40.4635L108.785 42.4135L108.976 42.8035C109.202 43.2619 109.631 43.6655 110.17 43.9324C110.477 44.0829 110.648 44.1171 111.03 44.1171C111.569 44.124 111.876 43.994 112.306 43.5971C112.565 43.3577 112.954 42.8719 112.906 42.8308C112.893 42.824 112.708 42.7761 112.504 42.7282C112.026 42.6256 111.637 42.3519 111.453 42.0029C111.317 41.7498 111.31 41.6198 111.31 40.1214V38.5135L111.978 38.4793C112.742 38.4383 112.845 38.3767 112.845 37.9251C112.845 37.4736 112.702 37.3915 111.958 37.3709L111.31 37.3504L111.276 36.7004C111.241 36.0094 111.194 35.8862 110.887 35.592C110.471 35.1952 109.938 35.0994 109.468 35.3389Z" fill="white"/>
<path d="M105.476 36.6799C105.422 36.7004 105.251 36.7962 105.108 36.8988C104.828 37.0835 104.501 37.6583 104.569 37.8362C104.637 38.0209 104.473 37.9251 104.119 37.583C103.58 37.063 103.122 36.8714 102.406 36.8714C101.69 36.8714 101.765 36.8988 101.451 37.0562C100.769 37.3846 100.346 37.9251 100.039 38.8556C99.8818 39.3346 99.8613 39.5193 99.8545 40.3266C99.8545 41.004 99.8818 41.3666 99.9705 41.695C100.264 42.7897 100.789 43.515 101.54 43.8571C101.922 44.035 102.038 44.0555 102.679 44.0555C103.32 44.0555 103.784 43.9529 104.33 43.4808C104.589 43.255 104.61 43.255 104.678 43.3781C104.814 43.6381 105.251 43.9939 105.538 44.0829C105.933 44.1992 106.309 44.1239 106.657 43.8571C107.236 43.4124 107.216 43.5355 107.216 40.3472V37.5351L107.011 37.2409C106.752 36.8714 106.309 36.632 105.892 36.6388C105.722 36.6388 105.531 36.6593 105.476 36.6799ZM103.771 38.8077C104.351 39.2251 104.548 40.9219 104.119 41.7634C103.812 42.3587 103.129 42.4819 102.699 42.0166C102.399 41.6882 102.304 41.3119 102.304 40.4635C102.304 39.6151 102.317 39.7109 102.508 39.3346C102.85 38.6572 103.293 38.4656 103.771 38.8077Z" fill="white"/>
<path d="M138.088 36.7072C137.706 36.8646 137.269 37.4188 137.269 37.7609C137.269 38.103 137.249 37.9319 137.221 37.9319C137.194 37.9319 137.017 37.7745 136.812 37.583C136.266 37.063 135.802 36.8714 135.086 36.8714C134.369 36.8714 134.451 36.8988 134.117 37.063C132.718 37.754 132.111 40.0666 132.793 42.0918C133.1 42.995 133.551 43.5423 134.267 43.8776C134.595 44.0349 134.731 44.0555 135.359 44.0555C135.986 44.0555 136.457 43.9528 136.996 43.4876L137.289 43.2413L137.399 43.4055C137.917 44.1923 138.79 44.3634 139.425 43.8023C139.937 43.3508 139.93 43.3918 139.93 40.3813C139.93 37.3709 139.93 37.6856 139.78 37.3846C139.555 36.9398 139.07 36.6319 138.606 36.6388C138.415 36.6388 138.183 36.673 138.088 36.7072ZM136.45 38.8077C136.546 38.8761 136.71 39.1156 136.826 39.3345C137.017 39.7108 137.03 39.7998 137.03 40.4634C137.03 41.6334 136.73 42.2218 136.096 42.2902C135.502 42.3587 135.127 41.9003 135.004 40.9629C134.792 39.3893 135.591 38.2056 136.45 38.8077Z" fill="white"/>
<path d="M67.2365 36.9327C66.9841 37.049 66.6907 37.3569 66.5952 37.6101C66.4724 37.9248 66.4929 43.0768 66.6157 43.3573C66.834 43.8705 67.4958 44.2331 68.0348 44.1304C68.3213 44.0757 68.7102 43.7952 68.8876 43.5078C68.9967 43.3299 69.0172 43.0973 69.0445 41.5579C69.0786 39.8542 69.0854 39.8063 69.256 39.4711C69.5835 38.8348 70.1634 38.7116 70.4226 39.2316C70.5318 39.4437 70.5454 39.6969 70.5454 41.3595V43.2478L70.7501 43.5489C71.2891 44.3768 72.333 44.3357 72.9197 43.4736C73.0698 43.2547 73.0698 43.2136 73.0698 41.2089C73.0698 39.2042 73.0016 38.3216 72.6809 37.8016C72.5581 37.6101 72.3739 37.439 72.1829 37.3295C71.91 37.1859 71.8076 37.1722 71.2959 37.1927C70.4909 37.2337 69.9178 37.5416 69.3788 38.219C69.2423 38.3969 69.1127 38.52 69.0854 38.4995C69.065 38.4721 69.0445 38.2874 69.0445 38.0821C69.0445 37.3501 68.5328 36.8369 67.8164 36.8369C67.6118 36.8438 67.3525 36.8848 67.2365 36.9327Z" fill="white"/>
<path d="M81.6728 36.9126C81.1338 37.0083 80.3902 37.3915 80.0013 37.7746C79.1621 38.6094 78.8141 39.5536 78.8824 40.8262C78.9574 42.1603 79.6329 43.1798 80.8336 43.7819C82.0003 44.3635 83.5422 44.2129 84.4632 43.4261C84.7566 43.173 85.2137 42.3314 85.2137 42.044C85.2137 41.7567 85.1864 41.9003 85.1591 41.9414C84.9954 42.1877 84.2176 42.393 83.3921 42.393C82.5665 42.393 82.4574 42.3109 82.0685 42.0303C81.857 41.8798 81.4613 41.3872 81.4613 41.2709C81.4613 41.1546 81.7615 41.2162 82.1299 41.2162C82.8736 41.2162 83.9242 41.0725 84.4086 40.9083C85.1727 40.6414 85.6026 39.9641 85.5412 39.1294C85.4798 38.4109 85.1386 37.8704 84.4632 37.4394C83.7946 37.0083 82.4983 36.762 81.6728 36.9126ZM82.7644 38.4109C83.1192 38.6025 83.1806 39.2936 82.8872 39.6699C82.6621 39.9641 82.4028 40.053 81.8365 40.053H81.3112L81.359 39.7588C81.5022 38.9172 81.9184 38.3425 82.3892 38.3425C82.8599 38.3425 82.6893 38.3767 82.7644 38.4109Z" fill="white"/>
<path d="M87.021 36.9329C86.7413 37.0561 86.3933 37.4598 86.3046 37.7745C86.25 37.9524 86.2364 38.8897 86.25 40.6823C86.2705 43.6517 86.2364 43.4533 86.8095 43.9117C87.0415 44.1033 87.1165 44.1238 87.5327 44.1238C87.9489 44.1238 88.0239 44.1033 88.2627 43.9117C88.788 43.4807 88.788 43.467 88.829 41.3186C88.8562 39.6424 88.8767 39.3755 88.9859 39.1771C89.136 38.9034 89.3952 38.7666 89.5385 38.8829C89.5931 38.9308 89.675 39.1224 89.7159 39.3208C89.866 39.9434 90.2822 40.2102 90.8621 40.0529C91.4966 39.8818 91.8991 39.2729 91.8991 38.4861C91.8923 37.7677 91.5239 37.2819 90.8552 37.104C90.248 36.9398 89.7364 37.1724 89.1701 37.8908C88.9449 38.1782 88.8562 38.2466 88.8426 38.1577C88.7266 37.5213 88.5151 37.1929 88.0717 36.974C87.7715 36.8166 87.3212 36.8029 87.021 36.9329Z" fill="white"/>
<path d="M93.0799 37.0216C92.923 37.1174 92.732 37.3159 92.6569 37.4527C92.5205 37.7058 92.5137 37.7948 92.5137 40.4632C92.5137 43.1315 92.5205 43.2205 92.6569 43.4736C92.732 43.6105 92.923 43.8089 93.0799 43.9047C93.6189 44.2536 94.1306 44.2331 94.5673 43.8362C95.0312 43.412 95.038 43.3847 95.038 41.64C95.038 39.8953 95.0858 39.6216 95.4064 39.1974C95.6179 38.9169 95.9045 38.8416 96.1842 38.9853C96.5117 39.1563 96.539 39.3548 96.539 41.38V43.241L96.7164 43.5147C96.9415 43.8636 97.2758 44.0894 97.6238 44.1373C98.1764 44.2125 98.845 43.7883 99.0019 43.2752C99.1247 42.8715 99.0428 38.8142 98.9064 38.349C98.7563 37.8427 98.4902 37.4869 98.1286 37.309C97.692 37.0969 96.8664 37.1448 96.3343 37.4116C95.9795 37.5964 95.1745 38.3353 95.1745 38.479C95.1745 38.6227 95.1472 38.5474 95.1131 38.5474C95.0789 38.5474 95.038 38.3148 95.0244 38.0343C95.0039 37.5622 94.9834 37.5074 94.7651 37.2748C94.4581 36.9532 94.1784 36.8369 93.7213 36.8369C93.2641 36.8369 93.2914 36.878 93.0799 37.0216Z" fill="white"/>
<path d="M119.974 36.9331C118.384 37.3231 117.211 38.8351 117.211 40.4977C117.218 42.6666 119.162 44.3908 121.291 44.1035C122.328 43.9666 123.399 43.2961 123.917 42.4614C124.204 42.0098 124.436 41.3325 124.484 40.7988C124.641 39.0541 123.46 37.3915 121.748 36.9399C121.277 36.8168 120.458 36.8168 119.974 36.9331ZM121.345 38.5957C121.782 39.0336 122 40.053 121.871 41.0861C121.775 41.8114 121.577 42.2698 121.277 42.4545C120.827 42.7282 120.383 42.564 120.117 42.0235C119.64 41.0246 119.79 39.1499 120.383 38.623C120.704 38.3425 121.079 38.3288 121.345 38.5957Z" fill="white"/>
<path d="M125.828 37.0082C125.671 37.104 125.473 37.2956 125.384 37.4392L125.228 37.6924V43.2344L125.391 43.4944C125.848 44.2333 126.824 44.3633 127.397 43.7544C127.527 43.6175 127.663 43.4054 127.711 43.2754C127.759 43.1317 127.786 42.4544 127.786 41.4623C127.786 39.9434 127.793 39.8681 127.95 39.5329C128.236 38.9239 128.625 38.7392 128.994 39.0539L129.185 39.2181L129.219 41.2365L129.253 43.2549L129.458 43.5559C129.887 44.1717 130.631 44.3222 131.218 43.9117C131.757 43.5286 131.777 43.467 131.798 41.4897C131.832 39.006 131.695 38.0755 131.218 37.5761C130.945 37.2887 130.638 37.1792 130.078 37.1792C129.519 37.1792 128.639 37.5487 128.059 38.2876L127.8 38.6092L127.772 38.1029C127.752 37.665 127.725 37.5692 127.54 37.3366C127.261 36.9945 126.947 36.844 126.49 36.844C126.21 36.8371 126.046 36.8782 125.828 37.0082Z" fill="white"/>
<path d="M114.619 37.487C114.489 37.5485 114.312 37.6649 114.223 37.747C113.868 38.0754 113.868 38.0959 113.868 40.7369C113.868 43.3779 113.855 43.5147 114.448 43.9253C114.892 44.24 115.519 44.1852 115.956 43.8021C116.399 43.4121 116.393 43.46 116.393 40.7574C116.393 38.0548 116.399 38.0412 115.901 37.6375C115.594 37.3912 114.994 37.3228 114.619 37.487Z" fill="white"/>
</svg>
