<svg width="163" height="57" viewBox="0 0 163 57" fill="none" xmlns="http://www.w3.org/2000/svg">
<path d="M26.1996 22.4278L18.6246 9.00122C18.2996 8.39778 18.1246 7.71891 18.1496 7.04004V18.6311C18.1496 20.2654 17.8246 21.8998 17.1746 23.4084C16.8496 24.1627 16.4246 24.8667 15.9746 25.5456C15.5246 26.2244 14.9746 26.853 14.3746 27.4313C13.7996 28.0096 13.1496 28.5376 12.4496 28.9902C11.7496 29.4428 11.0246 29.8199 10.2496 30.1468C9.47461 30.4485 8.67461 30.6999 7.84961 30.8508C7.02461 31.0017 6.19961 31.0771 5.34961 31.1022V39.3995C6.57461 39.3995 7.79961 39.299 9.02461 39.0727C10.2246 38.8715 11.4246 38.5698 12.5746 38.1675C13.7496 37.7401 14.8746 37.2372 15.9246 36.6086C16.9746 36.0052 17.9746 35.3263 18.9246 34.5469C19.8496 33.7926 20.7246 32.9377 21.4996 32.0325C22.2746 31.1274 22.9996 30.1468 23.6246 29.1159C24.2496 28.085 24.7746 26.9787 25.1996 25.8724C25.6496 24.7661 25.9746 23.6347 26.1996 22.4278Z" fill="white"/>
<path d="M46.7004 43.9756C46.7004 44.1013 46.6254 44.2522 46.5754 44.3779L46.7004 43.9756ZM46.4504 44.6796C46.4504 44.8053 46.3254 44.9059 46.2504 45.0316L46.4504 44.6796ZM44.6504 46.5654L44.8004 46.4648L44.5254 46.6156L44.6504 46.5654Z" fill="white"/>
<path d="M18.6246 9.00154L26.1996 22.4281L38.8996 44.9314L38.9746 45.0571C38.5996 44.4285 38.3746 43.6994 38.3746 42.9702V26.8533L26.0246 5.05404C25.5746 4.24945 24.8746 3.59572 24.0246 3.24372C23.1746 2.86656 22.1996 2.79113 21.2996 3.01743C20.6746 3.16829 20.0996 3.47001 19.6246 3.8723C19.1246 4.27459 18.7496 4.8026 18.4996 5.35576C18.2496 5.93405 18.1246 6.56264 18.1496 7.19122C18.1496 7.84495 18.3246 8.44839 18.6246 9.00154Z" fill="white"/>
<path d="M38.9752 45.0567C39.1252 45.3333 39.3002 45.5596 39.5252 45.7859L39.6252 45.8865C39.8502 46.1128 40.1252 46.3139 40.4002 46.4648L40.6502 46.5905C40.8752 46.7162 41.1252 46.7916 41.3502 46.8671L41.6252 46.9676C41.9502 47.0431 42.2752 47.0934 42.6002 47.0934C42.9252 47.0934 43.2252 47.0431 43.5252 46.9928L43.8002 46.9174C44.0252 46.8671 44.2752 46.7665 44.4752 46.6659L44.7502 46.4899L45.1252 46.2636L45.4252 46.0122L45.7002 45.7105L45.9752 45.3836L46.1752 45.0567C46.1752 44.931 46.3252 44.8305 46.3752 44.7047L46.5252 44.3276L46.6252 43.9504C46.6252 43.8247 46.6252 43.699 46.7002 43.5733V7.03998C46.7502 6.28568 46.6002 5.53138 46.2502 4.87765C45.8752 4.19878 45.3252 3.64563 44.6502 3.26848C43.9752 2.89133 43.2252 2.66504 42.4502 2.66504C41.6752 2.66504 40.9252 2.86619 40.2502 3.26848C39.6002 3.67077 39.0502 4.22393 38.7002 4.9028C38.3502 5.58167 38.1752 6.31083 38.2252 7.06513V42.9447C38.2752 43.699 38.5502 44.4282 38.9752 45.0567Z" fill="white"/>
<path d="M135.175 47.1942C135.175 47.6217 135.075 48.0491 134.9 48.4263C134.725 48.8034 134.45 49.1554 134.125 49.432C133.825 49.7337 133.45 49.96 133.05 50.1109C132.65 50.2617 132.2 50.312 131.775 50.2617V53.6058C131.775 53.6058 138.4 53.6058 138.675 47.5211V33.3654H135.2V47.1942H135.175ZM151.075 42.6433C150.75 43.0959 150.325 43.473 149.825 43.6993C149.325 43.9256 148.75 44.0513 148.2 44.001C147.725 44.0262 147.25 43.9256 146.8 43.7496C146.35 43.5736 145.95 43.297 145.625 42.945C145.225 42.5679 144.925 42.0901 144.75 41.5873C144.575 41.0844 144.5 40.5312 144.55 40.0032C144.5 39.0478 144.75 38.1175 145.325 37.3632C145.65 36.9106 146.075 36.5586 146.55 36.3323C147.05 36.106 147.6 35.9803 148.15 36.0054C148.65 35.9803 149.125 36.0557 149.6 36.2317C150.05 36.4077 150.475 36.6843 150.8 37.0363C151.175 37.4135 151.475 37.866 151.65 38.3689C151.825 38.8718 151.9 39.3998 151.875 39.9278C151.95 40.8832 151.7 41.8387 151.125 42.6181H151.075V42.6433ZM151.85 34.1951C150.8 33.3654 149.525 32.9128 148.175 32.8877C147.25 32.9128 146.325 33.0888 145.475 33.466C144.625 33.8431 143.85 34.3711 143.225 35.0248C142 36.3072 141.3 37.9918 141.25 39.7518C141.2 41.5118 141.775 43.2216 142.9 44.5793C143.525 45.3588 144.35 45.9622 145.275 46.3645C146.2 46.7668 147.2 46.9679 148.2 46.9428C149.55 46.9428 150.825 46.4651 151.875 45.6353V46.5405H155.35V33.3402H151.875V34.1951H151.85ZM136.975 26.7024C136.675 26.6772 136.4 26.7275 136.125 26.8281C135.85 26.9287 135.6 27.0795 135.4 27.2807C135 27.683 134.775 28.2361 134.775 28.7893C134.775 29.3424 135 29.8956 135.4 30.2979C135.825 30.7002 136.375 30.9013 136.95 30.9013C137.525 30.9013 138.075 30.675 138.5 30.2979C138.9 29.8956 139.125 29.3424 139.125 28.7893C139.125 28.2361 138.9 27.683 138.5 27.2807C138.075 26.9035 137.525 26.7024 136.975 26.7024ZM125.95 32.9379C124.8 32.9379 123.675 33.3402 122.8 34.0694V33.3402H119.3V46.6662H122.8V40.0535C122.65 38.9472 122.875 37.8409 123.425 36.8855C123.7 36.5586 124.05 36.3072 124.425 36.1563C124.825 36.0054 125.25 35.93 125.65 35.9803C126 35.9551 126.325 36.0054 126.65 36.1311C126.975 36.2569 127.25 36.4329 127.5 36.6843C128.05 37.5895 128.275 38.6203 128.15 39.6764V46.5908H131.625V39.5506C131.725 38.6958 131.65 37.8158 131.4 36.986C131.15 36.1563 130.725 35.3769 130.15 34.7231C129.6 34.17 128.95 33.7174 128.225 33.4157C127.5 33.1139 126.725 32.9631 125.925 32.9882V32.9379H125.95ZM111.775 42.6433C111.45 43.0959 111.025 43.4479 110.525 43.6993C110.025 43.9256 109.45 44.0513 108.9 44.001C108.425 44.0262 107.95 43.9256 107.5 43.7496C107.05 43.5736 106.675 43.297 106.35 42.945C105.95 42.5679 105.65 42.0901 105.475 41.5873C105.275 41.0844 105.225 40.5312 105.25 40.0032C105.2 39.0478 105.5 38.1175 106.05 37.3632C106.35 36.9106 106.775 36.5586 107.275 36.3323C107.775 36.106 108.325 35.9803 108.85 36.0054C109.325 35.9803 109.825 36.0557 110.275 36.2317C110.725 36.4077 111.125 36.6843 111.45 37.0363C111.825 37.4135 112.125 37.866 112.3 38.3689C112.475 38.8718 112.55 39.3998 112.5 39.9278C112.575 40.8832 112.325 41.8387 111.75 42.6181H111.775V42.6433ZM112.525 34.2203C111.5 33.3905 110.2 32.9379 108.85 32.9128C107.45 32.8374 106.05 33.1894 104.825 33.9185C103.625 34.6477 102.675 35.7037 102.1 36.986C101.525 38.2432 101.35 39.6512 101.6 41.0341C101.85 42.3918 102.525 43.649 103.525 44.6296C104.175 45.3839 104.975 45.9873 105.9 46.3896C106.825 46.7919 107.825 46.9931 108.825 46.9679C110.175 46.9679 111.45 46.5154 112.5 45.6605V46.5656H115.975V33.3402H112.5V34.2203H112.525ZM96.6996 34.2203V33.3151H93.1996V46.6411H96.6996V40.2798C96.5996 39.2238 96.7996 38.1678 97.2746 37.2123C97.4996 36.8855 97.8246 36.634 98.1996 36.4832C98.5746 36.3323 98.9746 36.2569 99.3746 36.3323H100.65V33.3654H99.3746C98.3996 33.3151 97.4496 33.642 96.6996 34.2705V34.2203ZM85.6746 42.6433C85.3496 43.0959 84.9246 43.4479 84.4246 43.6993C83.9246 43.9256 83.3496 44.0513 82.7996 44.001C82.3246 44.0262 81.8496 43.9256 81.3996 43.7496C80.9496 43.5736 80.5746 43.297 80.2496 42.945C79.8496 42.5679 79.5496 42.1153 79.3496 41.5873C79.1496 41.0844 79.0996 40.5312 79.1496 39.9781C79.0746 39.0226 79.3746 38.0923 79.9496 37.338C80.2746 36.9357 80.6746 36.634 81.1246 36.3826C81.5746 36.1563 82.0746 36.0054 82.5996 35.9803C83.0996 35.9551 83.6246 36.0306 84.0996 36.2066C84.5746 36.3826 85.0246 36.6592 85.3746 37.0112C85.7496 37.3883 86.0496 37.8409 86.2246 38.3438C86.3996 38.8466 86.4746 39.3746 86.4496 39.9027C86.4996 40.8581 86.2496 41.8135 85.6996 42.593V42.6433H85.6746ZM86.4496 34.1951C85.4246 33.3654 84.1246 32.9128 82.7746 32.8877C81.8246 32.8877 80.8996 33.0637 80.0246 33.4157C79.1496 33.7677 78.3496 34.2957 77.6996 34.9746C77.0246 35.6283 76.4996 36.4077 76.1496 37.2626C75.7996 38.1175 75.6496 39.0478 75.6746 39.9781C75.6496 41.6878 76.2996 43.3473 77.4996 44.6045C78.1246 45.3588 78.9496 45.9873 79.8496 46.3896C80.7746 46.7919 81.7746 46.9931 82.7746 46.9428C84.1246 46.9428 85.4246 46.4902 86.4496 45.6353V46.5405H89.9746V33.3402H86.4496V34.1951ZM69.7246 40.6067L59.1246 26.6772H55.9746V46.6914H59.5746V32.8122L70.1996 46.6914H73.3496V26.6772H69.6996V40.6067H69.7246Z" fill="white"/>
</svg>
