<svg width="152" height="45" viewBox="0 0 152 45" fill="none" xmlns="http://www.w3.org/2000/svg">
<path fill-rule="evenodd" clip-rule="evenodd" d="M145.367 34.1956V10.4364C145.367 8.52603 144.807 7.00269 143.701 5.90933C142.017 4.23856 139.682 4.26314 139.585 4.26314H12.6404C12.3608 4.25085 10.3483 4.23242 8.75531 5.69434C7.5758 6.78156 6.9374 8.36019 6.85836 10.3934V34.1956C6.79148 34.8835 6.60908 38.0469 8.4878 39.5887C9.55788 40.4671 10.9988 40.6083 12.7924 40.0125C12.7924 40.0125 12.8289 40.0002 12.8411 39.9941C13.4552 39.7423 74.7294 14.8774 139.378 39.9941C141.147 40.7251 142.594 40.6759 143.689 39.8405C145.653 38.3418 145.434 34.9388 145.361 34.1956H145.367ZM142.582 38.3602C142.047 38.7717 141.202 38.741 140.077 38.2742C124.981 32.4081 108.869 28.7594 92.179 27.4265C78.8334 26.3577 65.0865 26.7631 51.3275 28.6305C28.2539 31.757 12.8168 38.0039 12.1723 38.2619C11.0536 38.6366 10.1963 38.5936 9.64907 38.1452C8.40875 37.1317 8.68843 34.3614 8.69451 34.3307V10.4486C8.75531 8.94987 9.19307 7.80736 9.98955 7.07026C11.084 6.05675 12.5736 6.11203 12.5857 6.11203H139.609C139.627 6.11203 141.305 6.11203 142.43 7.23611C143.166 7.96707 143.537 9.04201 143.537 10.4302V34.3307C143.622 35.1169 143.634 37.5494 142.582 38.354V38.3602Z" fill="white"/>
<path fill-rule="evenodd" clip-rule="evenodd" d="M140.411 31.5479C139.639 31.5479 139.013 32.1621 139.013 32.9115C139.013 33.6609 139.639 34.2874 140.411 34.2874C141.183 34.2874 141.803 33.6732 141.803 32.9115C141.803 32.1498 141.183 31.5479 140.411 31.5479ZM140.411 34.0171C139.779 34.0171 139.28 33.5319 139.28 32.9053C139.28 32.2788 139.779 31.812 140.411 31.812C141.043 31.812 141.536 32.3034 141.536 32.9053C141.536 33.5073 141.031 34.0171 140.411 34.0171Z" fill="white"/>
<path d="M23.6818 8.51342L19.4015 8.47656L20.7026 9.54536L20.6175 20.1289L14.8598 8.6117L11.1084 8.58098L12.4946 9.74192L12.3001 33.3783L11.6799 34.9569L15.4434 33.4029L14.3126 32.5122L14.3612 16.2837L21.3106 31.2468L22.5327 31.081L22.709 9.56379L23.6818 8.51342Z" fill="white"/>
<path d="M33.8898 8.59963L33.8715 11.0689L35.7138 9.67457L37.5439 9.693L37.4101 25.8294L36.4373 27.1439L35.4827 26.5173L30.7403 8.75319L28.6549 7.94238L23.8578 28.9805L22.8789 30.9154L27.5119 29.8097L26.0405 28.5628L26.8856 24.6623L31.3544 23.6979L32.2482 27.4633L31.628 28.7839L41.8607 26.4006L40.3893 25.0677L40.517 9.72371L42.2619 9.73599L43.9096 10.9829L43.9279 8.69177L33.8898 8.60577V8.59963ZM27.3538 22.494L29.1291 14.2876L30.9167 21.8367L27.3538 22.494Z" fill="white"/>
<path fill-rule="evenodd" clip-rule="evenodd" d="M75.5988 21.8245L72.8932 21.7999H72.194C72.194 21.7938 72.2427 16.2348 72.2427 16.2348L74.9483 16.2594L76.2798 17.2729L76.298 14.7975L76.3102 13.569L74.9604 14.5579L72.954 14.5395H72.2548L72.2974 9.44737L75.6171 9.47808L77.2648 10.9031L77.283 9.14024V8.43386L67.7739 8.354L68.467 9.06653L69.075 9.68693L68.9716 22.2975L68.3576 22.8196L67.9806 22.5063L67.403 22.0211L64.3934 16.0874C67.324 15.6083 67.2206 12.2299 67.2206 12.2299C67.2267 11.4805 67.02 10.8847 66.6856 10.4117C65.4148 8.5997 62.3201 8.57513 62.3201 8.57513L52.1483 8.48914L53.3582 9.82206V20.4916C53.3339 23.5813 50.7985 23.6427 50.7985 23.6427C50.0689 23.7471 49.5217 23.612 49.1083 23.3479C47.8923 22.5739 47.8558 20.7066 47.8558 20.7066L47.947 9.68079L48.2328 9.41666L48.9988 8.71641L44.0254 8.67341L44.8036 9.56408L44.7124 21.1181C44.7124 21.1181 44.5057 23.2066 46.123 24.4351C46.9681 25.0739 48.3118 25.4793 50.4398 25.2275C50.4398 25.2275 55.3281 25.1783 55.0241 20.0616L55.1092 9.65621L55.5956 9.2201L56.082 8.78398L56.6475 9.23238L57.2129 9.68079V9.84049L57.1035 22.9916L56.0456 24.128L57.4744 24.0481L61.4081 23.827H61.4628L61.0312 23.4154L60.338 22.7582L60.3867 16.7385L61.6088 16.5972L62.0161 17.3405L65.3905 23.5076H65.6884L77.3499 23.3417L77.362 21.8061L77.3742 20.6083L75.6171 21.8307L75.5988 21.8245ZM64.2353 12.7336C64.2171 14.9695 61.7364 15.5223 60.3684 15.6513L60.4171 9.61322C64.6913 9.65007 64.2292 12.7336 64.2292 12.7336H64.2353Z" fill="white"/>
<path d="M92.3982 9.53339L93.4561 8.4216L89.7352 8.39089L90.7688 9.45968L87.9051 18.4892L85.0657 9.52725L86.1237 8.36018L80.5361 8.31104L81.6366 9.61325L86.2939 23.5322L87.6862 23.8331L92.3982 9.53339Z" fill="white"/>
<path d="M140.765 9.52112L141.938 8.29876L137.518 8.20048L138.673 9.50269L135.755 17.9425L132.8 9.50884L133.858 8.22505L119.485 8.1022L120.987 9.58255L120.841 26.929L119.844 27.6845L119.868 24.5088L118.111 26.198L115.034 25.5285L115.162 9.71154L116.336 8.36633L110.578 8.31719L111.788 9.56412L111.66 25.0862L110.778 25.9032L110.803 23.0776L109.222 24.472L106.085 24.0359L106.2 9.57026L107.197 8.45847L101.671 8.40933L102.881 9.59483V23.7042L102.121 24.4044L97.1349 8.13292L95.6818 7.77051L90.8482 22.3712L89.7295 23.5997L93.3957 23.9253L92.2466 22.3897L93.3288 19.1833L97.4207 19.472L98.588 23.44L97.7672 24.3737C97.7672 24.3737 98.2415 24.4843 99.0866 24.5703C108.553 25.5285 127.863 29.773 130.07 30.4671L130.101 26.9413L128.344 28.4523L124.221 27.2423L124.3 17.4818L127.498 17.5064L129.006 18.4585L129.037 14.6931L127.687 15.8602L124.313 15.8295L124.361 9.59483L129.31 9.63783L133.469 20.8418L133.396 30.1292L132.338 31.0015L137.676 32.9855L136.935 31.1612L137.026 20.2828L140.783 9.49655L140.765 9.52112ZM93.797 17.7705L95.4568 12.8504L96.9829 18.0531L93.797 17.7766V17.7705Z" fill="white"/>
<path fill-rule="evenodd" clip-rule="evenodd" d="M141.129 32.549C141.129 32.42 141.074 32.2848 140.959 32.2173C140.843 32.1497 140.709 32.1436 140.576 32.1436H139.895V33.6792H140.126V32.9728H140.399L140.843 33.6792H141.111L140.636 32.9728C140.916 32.9667 141.129 32.8499 141.129 32.549ZM140.375 32.7824H140.12V32.3217H140.521C140.715 32.3217 140.892 32.3463 140.892 32.5428C140.892 32.7394 140.594 32.7824 140.375 32.7824Z" fill="white"/>
</svg>
