<svg width="171" height="43" viewBox="0 0 171 43" fill="none" xmlns="http://www.w3.org/2000/svg">
<path fill-rule="evenodd" clip-rule="evenodd" d="M27.5175 22.162L34.6174 31.1823C38.2152 35.6924 46.2044 37.7804 51.9705 35.515L52.0184 35.5901C45.493 39.0699 36.7583 37.3027 31.2726 32.8676C27.4012 29.8654 25.1919 25.6009 21.9292 22.1415V29.2923C21.9292 29.9063 22.3259 30.343 22.3259 30.343H19.4736C19.4736 30.343 19.8567 29.9063 19.8567 29.2923V12.3911C22.5516 15.6253 24.8772 18.7367 27.5243 22.162H27.5175ZM159.194 28.4394C159.194 27.2658 160.145 26.3105 161.328 26.3105C162.505 26.3105 163.462 27.2658 163.462 28.4394C163.462 29.6129 162.505 30.5682 161.328 30.5682C160.152 30.5682 159.194 29.6129 159.194 28.4394ZM161.322 30.3499C162.382 30.3499 163.244 29.497 163.244 28.4394C163.244 27.3817 162.389 26.522 161.328 26.522C160.268 26.522 159.413 27.3817 159.413 28.4394C159.413 29.497 160.268 30.3499 161.328 30.3499H161.322Z" fill="white"/>
<path fill-rule="evenodd" clip-rule="evenodd" d="M160.392 27.1565H161.548C162.074 27.1565 162.348 27.4022 162.348 27.8047C162.348 28.2073 162.026 28.3847 161.951 28.412C162.095 28.4393 162.307 28.5485 162.307 28.9238C162.307 29.299 162.348 29.4628 162.437 29.5583H161.985C161.924 29.456 161.924 29.3195 161.924 29.2035C161.924 28.76 161.835 28.5621 161.445 28.5621H160.822V29.5515H160.398V27.1429L160.392 27.1565ZM160.816 28.2551H161.506C161.773 28.2551 161.917 28.1254 161.917 27.8662C161.917 27.6069 161.719 27.4977 161.5 27.4977H160.816V28.2483V28.2551ZM150.501 30.6159C149.4 30.6227 141.876 30.3771 141.889 21.8344C141.903 13.319 149.345 13.1962 150.501 13.203C151.657 13.203 159.099 13.3122 159.112 21.8344C159.126 30.3771 151.602 30.6227 150.501 30.6159ZM150.528 28.2619C151 28.2619 154.482 28.4188 154.448 21.5137C154.42 15.1067 151.055 15.2909 150.501 15.2978C149.947 15.2978 146.568 15.1067 146.541 21.5137C146.506 28.4257 149.988 28.2619 150.467 28.2619H150.528ZM139.728 14.1719V16.2871C138.846 15.9187 138.353 15.6526 137.423 15.4001C136.691 15.2432 133.558 14.4994 132.067 16.0688C131.431 16.7033 131.239 17.8769 132.498 18.7708C134.276 19.9171 136.814 20.4425 138.893 22.1346C140.261 23.2127 140.692 24.475 140.35 26.406C139.995 28.3779 137.84 29.9609 135.911 30.3635C133.1 30.9434 129.933 30.6705 127.43 29.6129L127.443 27.525C129.748 28.4871 133.332 29.7084 135.555 27.7638C136.164 27.2111 136.534 26.406 136.212 25.594C135.706 24.0793 131.581 23.1854 129.057 21.3022C126.561 19.7738 126.787 17.1469 127.662 15.7003C130.022 12.1795 136 13.1553 139.735 14.1651L139.728 14.1719ZM125.289 14.1719V16.2871C124.406 15.9187 123.914 15.6526 122.984 15.4001C122.252 15.2432 119.119 14.4994 117.621 16.0688C116.985 16.7033 116.793 17.8769 118.052 18.7708C119.83 19.9171 122.361 20.4425 124.447 22.1346C125.815 23.2127 126.253 24.475 125.904 26.406C125.549 28.3779 123.394 29.9609 121.465 30.3635C118.661 30.9434 115.487 30.6705 112.983 29.6129L112.997 27.525C115.302 28.4871 118.886 29.7084 121.109 27.7638C121.718 27.2111 122.088 26.406 121.766 25.594C121.26 24.0793 117.135 23.1854 114.611 21.3022C112.115 19.7738 112.334 17.1469 113.216 15.7003C115.569 12.1795 121.554 13.1553 125.289 14.1651V14.1719ZM66.1569 14.1719V16.2871C65.2745 15.9187 64.782 15.6526 63.8518 15.4001C63.1267 15.2432 59.994 14.4994 58.4961 16.0688C57.8599 16.7033 57.6684 17.8769 58.927 18.7708C60.7054 19.9171 63.243 20.4425 65.3224 22.1346C66.6904 23.2127 67.1281 24.475 66.7793 26.406C66.4236 28.3779 64.269 29.9609 62.3401 30.3635C59.5289 30.9434 56.362 30.6705 53.8586 29.6129L53.8722 27.525C56.1773 28.4871 59.7615 29.7084 61.9845 27.7638C62.5932 27.2111 62.9626 26.406 62.6411 25.594C62.1349 24.0793 58.0104 23.1854 55.4865 21.3022C52.9899 19.7738 53.2156 17.1469 54.0911 15.7003C56.4441 12.1795 62.4222 13.1553 66.1637 14.1651L66.1569 14.1719ZM29.2414 21.6502C31.8816 25.0686 34.2141 28.1868 36.909 31.4142V14.5131C36.9159 14.131 37.0527 13.7625 37.2921 13.4623H34.4466C34.4466 13.4623 34.8365 13.8922 34.8365 14.5131V21.6638C32.4083 19.0915 30.5684 16.0824 28.188 13.4691C27.8871 13.1075 25.8351 10.9036 25.2126 10.385C20.9445 6.21604 14.0224 4.51024 7.55176 7.28729L7.61332 7.40329C9.82264 6.64591 13.0238 6.66638 16.1565 7.9355C18.1743 8.67923 19.8569 9.71636 21.5259 11.7702C21.95 12.3365 29.2414 21.657 29.2414 21.657V21.6502ZM44.864 28.6304C47.1417 28.8555 49.9324 28.5007 52.1554 28.453V30.343H40.0965C40.0965 30.343 40.4795 29.9472 40.4795 29.2922V14.5199C40.4795 13.8649 40.0965 13.4691 40.0965 13.4691H52.1554V15.3592C49.9255 15.3046 47.1348 14.9566 44.8571 15.1818V20.7563C46.7244 20.8723 48.9269 20.8928 50.678 20.6608V22.6669C48.9611 22.5099 46.7107 22.469 44.8571 22.5713V23.2127V28.6304H44.864ZM104.071 28.6304C106.349 28.8555 109.133 28.5007 111.362 28.453V30.343H99.3035C99.3035 30.343 99.6865 29.9472 99.6865 29.2922V14.5199C99.6865 13.8649 99.3035 13.4691 99.3035 13.4691H111.362V15.3592C109.133 15.3046 106.342 14.9566 104.064 15.1818V20.7563C105.931 20.8723 108.134 20.8928 109.885 20.6608V22.6669C108.168 22.5099 105.918 22.469 104.064 22.5713V28.6304H104.071ZM87.6823 23.3696V29.2854C87.6823 29.9336 88.0654 30.343 88.0654 30.343H82.908C82.908 30.343 83.2842 29.9404 83.2911 29.2922V14.5199C83.2911 13.8649 82.908 13.4691 82.908 13.4691H91.6974C94.0846 13.5647 96.6085 14.8815 96.6906 17.7473C96.7111 20.0877 95.6715 21.4318 94.1188 22.1756C93.811 22.312 93.8383 22.2779 93.7357 22.353C94.8438 24.9253 95.8493 26.8086 97.1831 29.299C97.4567 29.9404 97.9971 30.3498 97.9971 30.3498H92.6755C92.6755 30.3498 92.9902 29.9404 92.6619 29.299C92.6619 29.299 90.774 24.8571 89.8848 23.3765H87.6823V23.3696ZM87.6618 15.598V21.2817C89.1119 21.2817 90.8766 21.4728 91.8889 20.3128C92.7439 19.1802 92.6003 17.6995 92.0257 16.6692C91.0134 14.9634 87.6618 15.6048 87.6618 15.6048V15.598ZM73.2294 29.2854C73.2294 29.6743 73.3662 30.0428 73.6125 30.343H68.4551C68.4551 30.343 68.8381 29.9404 68.8381 29.2922V14.5199C68.8381 13.8649 68.4551 13.4691 68.4551 13.4691H76.9777C79.1118 13.5442 80.7603 14.5199 81.4716 16.5805C82.0051 18.3955 81.9299 20.7427 80.6371 22.2097C78.9203 24.5091 73.2226 24.168 73.2226 24.168L73.2363 29.2922L73.2294 29.2854ZM73.2089 15.6116L73.1952 21.9436C74.6658 22.0459 76.41 22.2097 77.4223 21.0429C78.2773 19.9034 78.1337 17.7064 77.5591 16.6692C76.5468 14.9634 73.2021 15.6116 73.2021 15.6116H73.2089Z" fill="white"/>
</svg>
