<svg width="99" height="99" viewBox="0 0 99 99" fill="none" xmlns="http://www.w3.org/2000/svg">
<path fill-rule="evenodd" clip-rule="evenodd" d="M42.2968 37.1568C42.6928 37.1568 43.0135 36.8361 43.0135 36.4361C43.0254 36.0401 42.7126 35.7114 42.3166 35.6995C41.9206 35.6877 41.5919 36.0005 41.58 36.3965C41.58 36.4084 41.58 36.4203 41.58 36.4361C41.58 36.8321 41.9008 37.1568 42.2968 37.1568ZM50.9731 51.892C52.0384 51.892 52.7551 51.7494 53.3333 51.5356C53.9075 51.3217 54.351 51.0643 54.6718 50.803C54.9767 50.5535 55.1707 50.3001 55.4955 50.1337C55.7845 49.9872 56.1885 49.9516 56.6399 49.9516C57.2893 49.9516 58.0259 50.1535 58.5605 50.4466L58.6357 49.4487C58.2793 49.2744 57.0201 48.8309 55.9271 48.8309C54.8341 48.8309 54.2164 49.1675 53.757 49.5793C53.2224 50.0625 52.5492 50.6367 50.7276 50.6367C48.906 50.6367 49.0763 50.506 48.6011 50.506C48.1259 50.506 48.0942 50.5773 48.0942 50.5773C48.1813 50.8505 48.3675 51.6029 48.3675 51.6029C48.8031 51.6583 49.5673 51.892 50.9731 51.892ZM45.3697 48.9378C45.738 48.9378 46.8112 49.1002 48.0546 49.219C48.7595 49.2863 49.5119 49.3378 50.2247 49.3378C51.6186 49.3378 53.1432 48.6765 54.4936 47.9835L54.2283 47.0251C53.5986 47.3697 52.3987 47.7538 51.4008 47.9122C51.1553 47.9518 50.4385 47.9637 50.2366 47.928C49.9 47.8765 49.4961 47.7538 49.0605 47.6746C48.4506 47.5597 47.7853 47.532 47.3893 47.5162C46.9537 47.4964 46.1697 47.5716 45.7855 47.5954C44.3758 47.6785 43.4412 48.0112 42.5502 48.6131C42.0988 48.918 41.5246 49.417 41.0811 50.0189C41.3107 50.0347 41.9602 50.2169 41.9602 50.2169C42.9225 49.3972 44.3679 48.9339 45.3697 48.9339V48.9378Z" fill="white"/>
<path fill-rule="evenodd" clip-rule="evenodd" d="M28.3612 49.4008C29.0502 49.4008 29.3235 49.6226 29.7036 49.8523C29.969 50.0146 30.1788 50.1968 30.3768 50.375C30.8006 50.7551 30.6818 51.1036 30.3452 51.365C30.1749 51.4996 30.0284 51.6659 29.5967 51.9471C29.3869 52.0857 29.0305 52.3035 28.7849 52.4065C28.3533 52.5847 28.1632 52.6045 28.0088 52.6045C27.8543 52.6045 27.5969 52.5807 27.4544 52.4381L26.3574 53.1113C26.6861 53.3687 27.0623 53.4559 27.692 53.4559C28.3216 53.4559 28.971 53.3014 29.672 53.0282C30.5828 52.6678 31.6044 51.959 31.945 51.7689C32.638 51.3729 33.3429 51.1155 34.0913 51.1155C34.8398 51.1155 35.5011 51.5075 36.3366 51.9075C37.3227 52.3827 38.5305 52.846 39.6393 52.846C40.7481 52.846 41.049 52.747 41.8292 52.5886C43.2112 52.3075 44.7002 51.8402 46.1574 51.3452L45.6862 50.4938C45.3298 50.6245 44.1141 50.965 42.8073 51.2581C41.7222 51.4957 40.6253 51.7095 40.0551 51.7095C39.4848 51.7095 39.0413 51.6739 38.5503 51.5234C37.7187 51.2739 36.9663 51.0086 36.9663 50.3393C36.9663 49.6701 37.1643 49.5473 37.7266 49.3216C38.6334 48.9573 40.0472 48.9811 40.7916 48.9811C40.9302 48.8306 41.4926 48.1534 41.4926 48.1534C40.8946 48.0346 40.2887 47.9713 39.6828 47.9713C38.7522 47.9713 37.889 48.0901 37.1762 48.391C36.5148 48.6682 35.9921 49.0721 35.6159 49.6147C35.4654 49.8285 35.307 50.0344 35.0813 50.0344C34.7051 50.0344 34.0478 49.7255 33.3666 49.7255C32.6855 49.7255 32.8162 49.7889 32.5548 49.7889C31.8618 49.7889 30.959 49.286 30.1551 48.8583C29.6482 48.589 29.1294 48.3356 28.5236 48.3356C27.9177 48.3356 27.9296 48.3989 27.6246 48.5257C27.0386 48.7712 26.4406 49.1672 26.1396 49.4167L26.6782 49.7849C26.991 49.6226 27.5613 49.3969 28.3691 49.3969L28.3612 49.4008ZM76.9544 57.1189C74.3685 54.9369 71.8658 52.549 70.0996 50.5967C67.0504 47.2307 62.9003 40.8116 61.4826 37.1763C60.9599 35.8378 59.8788 36.2932 60.4332 37.6515C61.7717 40.9343 64.8605 45.7655 68.084 49.7453C67.3316 49.4127 66.401 48.9652 65.898 48.7435C65.7278 49.0246 65.304 49.579 64.8645 50.0344C64.3576 50.5611 63.8388 50.9848 63.6765 51.1353C63.3201 51.464 63.0627 51.4917 62.8211 51.1234C62.7142 50.9492 62.4806 50.6363 62.3618 50.0978L61.6767 49.2305C61.3084 48.7712 59.5898 46.415 59.0631 45.623C58.5364 44.8349 57.8553 43.9915 56.7504 43.9915C55.6456 43.9915 54.913 45.5042 54.8061 46.8862L55.7129 46.4902C55.9228 45.6349 56.3426 45.1874 56.7504 45.1874C57.1583 45.1874 57.3959 45.6071 57.3959 45.9239C57.2652 46.2922 57.0237 47.0565 56.9088 47.6465L57.8038 47.9515C57.8038 47.5159 57.986 46.7278 58.2354 46.3199C58.2354 46.3199 58.4849 46.5298 58.576 46.7001C58.6354 46.811 59.075 47.4842 59.5898 48.3831C60.0452 49.183 60.552 50.173 61.0193 50.9611C61.245 51.3412 61.5024 51.6818 61.6767 51.9471C61.9064 52.2995 62.1162 52.545 62.334 52.6718C62.54 52.7866 62.7617 52.7866 62.9399 52.7866C63.5181 52.7866 63.7834 52.5965 64.1754 52.2599C64.908 51.6263 65.5416 50.7472 66.195 49.9592L67.7394 50.6561C68.3374 50.9412 68.9393 51.2105 69.5452 51.4719C70.8599 52.9648 72.333 54.43 73.8774 55.82L74.9268 56.7466C75.212 56.9961 75.501 57.2376 75.7901 57.4792L76.9544 57.1109V57.1189Z" fill="white"/>
<path fill-rule="evenodd" clip-rule="evenodd" d="M82.7444 56.6715C80.1031 50.886 76.6183 43.7738 73.6404 39.4178L72.9434 38.4397C71.9494 37.0973 70.8723 35.9885 69.819 34.9074L68.9992 34.1035C66.9361 32.1037 64.6195 30.1039 62.8533 28.6823C61.297 27.4269 60.1882 24.5361 56.6242 24.5361C53.0602 24.5361 52.3118 26.7221 51.9514 28.0011C51.7138 28.8407 51.6109 29.1297 51.3852 29.4465L49.3418 31.878L51.7495 31.6839L50.5298 33.7115C51.2307 33.5649 55.4521 32.7175 56.3193 34.0797C57.3727 35.7311 56.6559 37.521 58.624 41.2711L59.4754 42.7561C60.4575 44.3322 61.6178 45.8845 62.6514 47.1081L61.6653 49.2386L62.3504 50.1059L63.8869 46.8705C63.1028 46.1696 60.7585 43.0175 59.7883 41.2632C57.5865 37.2755 58.4498 35.2242 57.1074 33.3947C55.8639 31.6998 52.2999 32.4997 52.2999 32.4997L53.6146 30.6583L51.3416 30.9355L52.391 29.6723C52.6167 29.3436 52.6682 29.1456 52.7593 28.8327C53.2068 27.2131 54.375 25.6093 56.5965 25.6093C58.8181 25.6093 60.0655 27.6804 61.9425 29.3317C63.8394 31.0028 67.8231 34.2183 71.4663 38.3724C74.4046 41.7225 78.1666 49.5119 81.0614 55.6617C77.9013 54.1213 72.5434 48.8228 70.3021 44.8549L69.2448 44.7321C71.6524 49.302 76.8202 54.6203 81.9326 57.515L82.7365 56.6795L82.7444 56.6715Z" fill="white"/>
<path fill-rule="evenodd" clip-rule="evenodd" d="M75.4222 37.5767C76.2656 36.9708 77.2636 36.4758 78.313 36.0798C78.9584 36.8639 80.487 37.5489 81.6948 37.7113L81.5008 38.9904C80.1583 38.3132 77.7863 37.6242 75.4182 37.5767L74.3569 38.4875C77.5685 38.5469 79.6118 39.1963 82.2571 40.3091L82.7838 36.9272C81.7344 36.7847 80.0791 36.4837 79.5089 35.6719C81.9284 34.9353 84.443 34.6581 85.9241 34.6779V30.512C85.2628 30.9001 84.4272 31.2605 83.6431 31.506C82.6808 31.799 81.8057 31.9297 81.5641 31.506C81.2988 31.0387 82.6254 30.2071 83.9916 29.4824L80.9147 26.9243C80.4474 27.5499 79.3901 29.3082 78.309 30.4685C77.5408 31.2921 76.7527 31.8307 76.3013 31.4941C76.0637 31.3159 76.0558 30.8011 76.2498 30.1517C76.626 28.9043 77.6081 27.1698 78.21 26.4055L73.953 26.0016C73.953 27.74 73.1372 29.6567 72.1314 31.2011C71.2642 32.5316 70.0049 33.5018 68.999 34.0958L69.8188 34.8997C71.0622 34.0325 72.2779 32.9751 73.2125 31.4664C73.9688 30.2546 74.6698 28.7894 74.9311 27.0708L76.4042 27.2411C75.7904 28.3657 75.0974 30.1081 75.046 31.2486C75.0816 32.0247 75.2321 32.1633 75.632 32.4603C76.3726 33.0147 77.2873 32.6425 78.1585 31.8941C79.1208 31.0743 80.0672 29.6963 81.0256 28.4528L82.269 29.4903C80.6929 30.4605 80.2454 31.502 80.7286 32.1911C80.9147 32.4603 81.3226 32.6583 81.8255 32.6742C82.3244 32.6861 82.9145 32.5395 83.56 32.3851C84.0154 32.2742 84.5064 32.1158 84.9578 31.9772V33.6325C81.374 33.8899 75.2598 35.3393 72.9432 38.4281L73.6402 39.4062C73.8421 39.0775 74.0837 38.7686 74.3609 38.4795L75.4222 37.5687V37.5767ZM28.5635 29.4389L29.0466 29.7992C30.3059 28.7736 31.779 26.9045 32.6106 25.1462L32.1829 24.8413C31.379 25.5779 29.4624 27.9816 28.5674 29.4389H28.5635Z" fill="white"/>
<path fill-rule="evenodd" clip-rule="evenodd" d="M27.8227 28.314C27.1178 25.8192 28.9276 24.3263 30.8204 24.4649C31.5293 23.0987 32.642 22.8255 33.8261 23.5343C34.927 24.1956 34.8359 25.8786 33.9172 26.6706C34.2458 28.1715 32.9113 30.3099 30.8442 30.203C31.0897 32.274 28.5514 33.4502 27.0109 32.0998C25.7318 30.9752 25.9972 29.106 27.8227 28.314ZM26.9476 27.9299C26.2902 28.0725 25.9496 28.4051 25.6566 29.114C25.8546 27.4943 24.7775 25.942 23.0034 26.0608C23.1776 23.166 20.3106 21.4434 17.7762 22.8532C16.2793 21.5702 14.6042 21.8315 13.5984 23.0235C12.6361 24.164 12.6678 26.0885 14.6122 27.1142C14.1211 29.114 15.9506 31.0979 18.1049 30.6386C18.2276 31.2524 18.6791 31.585 19.277 31.8305C18.3821 31.882 18.0138 32.773 18.0138 32.773C15.1586 32.0404 13.6855 33.9372 13.638 35.9291C11.555 36.5627 10.9729 39.1644 12.5688 40.6851C14.2162 42.2612 16.1843 41.6157 17.0436 40.004C18.885 40.7049 20.8531 39.5684 20.9046 37.5329C22.9559 37.727 23.7439 36.1073 23.5499 34.4045L22.9004 34.353C22.6193 35.937 21.8669 36.6182 20.1522 36.6182C20.077 38.1388 18.4534 39.4575 16.612 39.109C16.0972 40.3247 14.5805 40.7207 13.5469 39.703C12.5134 38.6853 12.8579 36.7726 14.6795 36.4281C14.6042 34.5629 16.4219 33.4066 19.0117 33.5333C19.7483 32.6225 20.3423 32.2344 21.4471 32.3414L21.459 31.8107C20.4254 31.6721 19.2572 30.69 19.1741 29.6367C16.9684 29.8109 15.4556 28.5477 15.5309 26.5637C14.1132 25.8984 14.3666 24.4412 14.826 23.8907C15.618 22.9364 16.7228 23.0116 17.6178 23.7838C20.1403 22.8176 22.1718 24.8094 22.1718 26.9874C22.1718 26.9874 23.3519 26.9637 24.0132 27.6527C24.8884 28.5675 24.8884 29.3634 25.0982 30.2505C25.2962 31.09 25.716 32.2028 26.7456 33.0066C28.5672 34.4243 31.3867 34.0402 31.6758 31.0464C34.0993 31.2603 35.6912 29.3595 34.8913 27.035C36.5862 25.8232 36.2496 23.3284 34.6537 22.3661C33.2796 21.4593 31.4342 21.8394 30.5274 23.2096C30.4442 23.3363 30.373 23.467 30.3096 23.6016C27.8267 23.0314 25.8031 25.5064 26.9634 27.926L26.9476 27.9299ZM38.1504 42.4314C38.3682 41.5602 37.2158 41.4296 37.0574 42.2334C36.8872 43.0928 35.8417 44.5619 34.8517 45.4806L35.2042 45.8608C36.507 44.8866 37.8692 43.5402 38.1464 42.4275L38.1504 42.4314ZM43.932 28.0091C44.3359 27.9933 44.6527 27.6527 44.6369 27.2488C44.621 26.8647 44.3161 26.5598 43.932 26.5439C43.5281 26.5439 43.2034 26.8726 43.2034 27.2765C43.2034 27.6804 43.5281 28.0091 43.932 28.0091ZM54.6992 28.6784C54.7111 28.1992 55.1071 27.819 55.5863 27.8309C56.0496 27.8428 56.4218 28.215 56.4337 28.6784C56.4337 29.1575 56.0496 29.5456 55.5665 29.5496C55.0873 29.5496 54.6992 29.1615 54.6992 28.6784ZM53.3251 44.2808C47.6821 43.8491 42.0589 44.2016 42.0589 44.2016L42.4549 43.168C47.8524 42.776 53.4043 43.168 53.4043 43.168L53.3251 44.2808Z" fill="white"/>
<path fill-rule="evenodd" clip-rule="evenodd" d="M19.2135 48.2093C19.2135 48.2093 19.5342 48.637 20.0332 49.1676C20.2035 49.4052 20.3856 49.5755 20.6232 49.7972C21.6568 50.807 23.1814 51.5634 24.7495 51.8644C25.197 51.9515 25.593 52.0148 26.0365 52.0148C26.7058 52.0148 27.3235 51.6545 27.7195 51.302L27.1057 50.5853C26.9077 50.6447 26.4959 50.6447 26.2227 50.6447C23.9457 50.6447 21.0588 49.1557 20.3935 47.4292C20.3262 47.2589 20.247 47.1678 20.3143 47.0094C20.3777 46.851 20.4648 46.5144 20.5084 46.2095C20.643 46.3639 20.9163 46.5936 21.2687 46.8193C22.1161 47.3618 23.7279 48.1142 24.0447 48.3162C24.706 48.1261 25.3435 47.8727 25.9534 47.5559C26.4286 47.3104 27.0741 47.0886 27.8225 47.0886C29.4857 47.0886 31.3984 48.035 33.1962 48.9221L34.4238 48.439C32.8279 47.3143 29.3629 45.7462 27.4344 45.7462C25.5059 45.7462 25.2287 46.5778 24.4684 46.5778C23.7081 46.5778 20.8529 45.271 20.8529 44.182C20.8529 43.093 22.5874 42.8672 25.3752 42.5227C24.8881 43.2395 24.4327 43.976 24.009 44.7324L24.7179 45.1284C29.0818 38.7964 33.6199 34.6859 37.4413 32.1832C38.8313 31.2724 39.1441 30.7417 39.6273 29.7438C40.8113 27.3242 41.928 25.4591 43.8684 25.4591C45.8088 25.4591 45.5158 25.9699 46.0227 26.5996L47.4245 27.0193L46.0029 27.9856L47.4562 28.5677C45.5593 29.1023 42.9655 30.9476 41.9161 33.6602C39.8965 33.7672 38.9184 35.4066 38.2611 36.7807C37.8136 37.7074 37.1047 38.0756 36.0712 38.7766L27.8067 44.5463L28.9432 44.7047L36.5781 39.5804C38.0868 38.5627 38.7996 37.8143 39.1639 37.0896C39.8688 35.6719 40.6331 34.6186 42.1339 34.6186C43.6348 34.6186 43.6546 34.9354 44.2882 35.5294L45.6306 35.965L44.1654 36.8599L45.393 37.6163C41.8845 38.7172 39.7144 41.2318 38.4551 46.0352L39.3817 46.2451C39.8451 44.6572 40.3084 43.1959 41.1281 41.905C43.1556 41.8812 45.2148 41.8099 47.2305 41.8099C52.6121 41.8099 57.083 42.0396 59.4906 42.7484L58.6392 41.2634C56.0613 40.8199 52.3191 40.5982 47.2305 40.5982C42.1419 40.5982 43.7971 40.6615 42.0825 40.6813C43.1913 39.5092 44.7832 38.5192 47.2384 37.7588L45.496 36.8005L47.4285 35.7234L44.7911 34.7413C44.3317 34.3255 43.7576 33.9493 43.0368 33.7632C43.8803 31.1654 46.7553 29.6488 49.5154 28.6033L47.5829 27.8113L49.5312 26.7461L46.5335 25.7878C45.7494 24.8651 44.997 24.4453 43.8407 24.4453C41.0568 24.4453 39.8886 26.8649 38.7877 29.0072C38.2056 30.1398 37.8413 30.615 36.8513 31.2605C34.7089 32.6623 31.9845 34.8047 29.3827 37.549C28.0245 36.5669 25.2445 33.6959 24.4921 32.1277C24.1951 32.496 23.8981 33.2999 23.8981 33.2999C24.1833 33.6008 27.4542 36.9114 28.6739 38.3132C28.5828 38.4162 28.4917 38.5152 28.4007 38.6221C27.1018 38.8795 23.7358 39.2042 22.5874 39.0498L21.9419 40.1942C22.7973 40.1111 26.1474 39.7151 27.5334 39.6319C27.1097 40.1507 26.6939 40.6774 26.2939 41.2159C21.9894 41.707 19.1145 42.59 19.1145 44.182C19.1145 45.7739 19.2214 44.7443 19.2214 45.0215C19.2214 45.6868 18.9719 45.9362 18.4967 46.2332C18.1878 46.4312 18.168 46.5619 18.3027 46.748C19.0155 47.9004 16.7979 48.4746 18.3462 50.5378L19.657 50.617C19.657 50.617 18.3779 49.8725 19.2214 48.2132L19.2135 48.2093ZM17.5186 25.3007L17.0909 25.7363C17.7047 26.6114 20.4173 29.0429 21.7914 29.9458L22.2983 29.3201C21.3954 28.2588 18.8293 25.9699 17.5186 25.3007ZM15.6455 37.5529L16.0455 37.9925C17.079 37.4935 19.0234 36.0521 20.0767 34.975L19.7877 34.5473C18.5521 35.0621 16.6434 36.4758 15.6455 37.5569V37.5529Z" fill="white"/>
<path fill-rule="evenodd" clip-rule="evenodd" d="M75.5685 55.4719C75.5685 54.7155 74.9586 54.1057 74.2023 54.1017H72.1787C71.4223 54.1017 70.8125 54.7155 70.8125 55.4719V76.6341C70.8125 77.3905 71.4223 78.0003 72.1747 78.0043H74.2023C74.9586 78.0043 75.5685 77.3905 75.5685 76.6341V55.4719ZM78.1464 56.0382V57.044C78.1464 57.4598 78.487 57.7964 78.9028 57.7964H92.8618C93.4993 57.7964 94.0141 57.2816 94.0141 56.6441V54.9413C94.0141 54.3037 93.4914 53.7295 92.8578 53.7889C92.8578 53.7889 79.3621 55.1115 78.9265 55.163C78.4236 55.2185 78.1425 55.6184 78.1425 56.0342L78.1464 56.0382ZM66.8446 78.0083C63.3717 78.0083 61.1857 75.3749 61.1857 72.4445V63.978H60.1878C59.6572 63.978 59.2295 63.5503 59.2295 63.0236V61.6059C59.2295 61.0753 59.6611 60.6516 60.1878 60.6516H61.1818V55.4481C61.1818 54.7116 61.7758 54.1136 62.5123 54.1136H64.4844C65.221 54.1136 65.8189 54.7155 65.815 55.4521V60.6555H68.8919C69.4225 60.6555 69.8542 61.0832 69.8542 61.6099V63.0276C69.8542 63.5543 69.4265 63.9819 68.8959 63.9819H65.815V71.8148C65.815 73.3513 66.7495 74.4007 68.4167 74.4007H68.6979C69.2721 74.4007 69.7393 74.8601 69.7393 75.4382V76.9787C69.7393 77.5529 69.276 78.0162 68.7018 78.0162C68.7018 78.0162 68.7018 78.0162 68.6979 78.0162H66.8406L66.8446 78.0083ZM34.3211 60.0378C28.7058 60.0378 25.5576 64.4334 25.5576 69.0626C25.5576 73.6919 28.9315 78.3409 34.3567 78.3409C39.7819 78.3409 41.7342 76.3847 42.4233 73.1691C42.5183 72.7375 42.2253 72.1673 41.6115 72.1633H38.9583C38.4751 72.1633 38.0831 72.393 37.8455 72.7415C37.0852 73.8542 35.9724 74.4482 34.329 74.4482C32.6856 74.4482 30.3928 72.6147 30.27 70.5872H41.556C42.5975 70.5872 43.0608 70.0249 43.0608 69.0626C43.0608 64.5482 40.3878 60.0417 34.3171 60.0417L34.3211 60.0378ZM34.3211 63.6612C36.3922 63.6612 38.1821 65.1343 38.3643 67.1301H30.3096C30.4918 65.1343 32.25 63.6612 34.3211 63.6612ZM85.7536 60.0378C80.1383 60.0378 76.9901 64.4334 76.9901 69.0626C76.9901 73.6919 80.364 78.3409 85.7892 78.3409C91.2144 78.3409 93.1667 76.3847 93.8557 73.1691C93.9508 72.7375 93.6577 72.1673 93.0479 72.1633H90.3947C89.9116 72.1633 89.5195 72.393 89.2819 72.7415C88.5216 73.8542 87.4089 74.4482 85.7655 74.4482C84.1221 74.4482 81.8292 72.6147 81.7065 70.5872H92.9964C94.0339 70.5872 94.5012 70.0249 94.5012 69.0626C94.5012 64.5482 91.8282 60.0417 85.7575 60.0417L85.7536 60.0378ZM85.7536 63.6612C87.8286 63.6612 89.6146 65.1343 89.7967 67.1301H81.7421C81.9243 65.1343 83.6825 63.6612 85.7536 63.6612Z" fill="white"/>
<path fill-rule="evenodd" clip-rule="evenodd" d="M57.3848 54.3429H20.8221C19.9905 54.3429 19.3213 55.0161 19.3213 55.8438L19.448 70.2027C19.448 70.2027 11.5676 55.9705 11.1597 55.2458C10.7756 54.5647 9.944 53.9351 8.7956 53.9351H5.78996C4.95836 53.9351 4.28516 54.6083 4.28516 55.4399V76.4991C4.28516 77.3307 4.95836 78.0039 5.78996 78.0039H7.71848C8.55008 78.0039 9.22328 77.3268 9.21932 76.4952L9.09656 61.7323C9.09656 61.7323 17.0522 76.1031 17.3928 76.6694C17.8521 77.4337 18.6283 78.0039 19.7529 78.0039H22.517C23.3486 78.0039 24.0218 77.3307 24.0218 76.4991V57.9069H57.3888C57.955 57.9069 58.4144 57.4515 58.4184 56.8853V55.3646C58.4184 54.7983 57.955 54.339 57.3888 54.339L57.3848 54.3429Z" fill="white"/>
<path fill-rule="evenodd" clip-rule="evenodd" d="M51.4683 63.4868C53.0602 63.4868 54.2482 64.065 54.6759 65.0589C54.8818 65.5381 55.2817 65.6292 55.8282 65.6292H58.0141C58.3745 65.6292 58.7903 65.3203 58.7903 64.8451C58.7903 62.3028 55.7609 60.0337 51.4683 60.0337C47.1756 60.0337 44.1145 62.1483 44.1145 65.5183C44.1145 68.8883 46.15 69.6288 48.6567 70.2822C49.7971 70.5792 51.7455 71.0623 52.6959 71.3118C53.7175 71.5811 54.6323 71.8939 54.6323 72.7691C54.6323 74.1511 53.175 74.6223 51.5831 74.6223C49.9912 74.6223 48.5735 73.9491 48.1419 72.872C47.8924 72.2503 47.4568 72.1592 46.7915 72.1592H44.5699C44.1819 72.1592 43.7344 72.4919 43.7344 72.9987V73.2878C43.7344 75.747 47.0331 78.3249 51.5871 78.3249C56.1411 78.3249 59.313 76.9825 59.313 72.6542C59.313 68.3259 57.634 68.4131 54.9055 67.7161C53.8363 67.4468 51.2742 66.7934 50.7159 66.6469C49.7219 66.3895 48.7913 66.0648 48.7913 65.2134C48.7913 63.9224 49.9872 63.4829 51.4762 63.4829L51.4683 63.4868Z" fill="white"/>
<path fill-rule="evenodd" clip-rule="evenodd" d="M75.5685 55.4719C75.5685 54.7155 74.9586 54.1057 74.2023 54.1017H72.1787C71.4223 54.1017 70.8125 54.7155 70.8125 55.4719V76.6341C70.8125 77.3905 71.4223 78.0003 72.1747 78.0043H74.2023C74.9586 78.0043 75.5685 77.3905 75.5685 76.6341V55.4719ZM78.1464 56.0382V57.044C78.1464 57.4598 78.487 57.7964 78.9028 57.7964H92.8618C93.4993 57.7964 94.0141 57.2816 94.0141 56.6441V54.9413C94.0141 54.3037 93.4914 53.7295 92.8578 53.7889C92.8578 53.7889 79.3621 55.1115 78.9265 55.163C78.4236 55.2185 78.1425 55.6184 78.1425 56.0342L78.1464 56.0382ZM66.8446 78.0083C63.3717 78.0083 61.1857 75.3749 61.1857 72.4445V63.978H60.1878C59.6572 63.978 59.2295 63.5503 59.2295 63.0236V61.6059C59.2295 61.0753 59.6611 60.6516 60.1878 60.6516H61.1818V55.4481C61.1818 54.7116 61.7758 54.1136 62.5123 54.1136H64.4844C65.221 54.1136 65.8189 54.7155 65.815 55.4521V60.6555H68.8919C69.4225 60.6555 69.8542 61.0832 69.8542 61.6099V63.0276C69.8542 63.5543 69.4265 63.9819 68.8959 63.9819H65.815V71.8148C65.815 73.3513 66.7495 74.4007 68.4167 74.4007H68.6979C69.2721 74.4007 69.7393 74.8601 69.7393 75.4382V76.9787C69.7393 77.5529 69.276 78.0162 68.7018 78.0162C68.7018 78.0162 68.7018 78.0162 68.6979 78.0162H66.8406L66.8446 78.0083ZM43.0648 69.0587C43.0648 64.5443 40.3918 60.0378 34.3211 60.0378C28.2504 60.0378 25.5576 64.4334 25.5576 69.0626C25.5576 73.6919 28.9315 78.3409 34.3567 78.3409C39.7819 78.3409 41.7342 76.3847 42.4233 73.1691C42.5183 72.7375 42.2253 72.1673 41.6115 72.1633H38.9583C38.4751 72.1633 38.0831 72.393 37.8455 72.7415C37.0852 73.8542 35.9724 74.4482 34.329 74.4482C32.6856 74.4482 30.3928 72.6147 30.27 70.5872H41.556C42.5975 70.5872 43.0608 70.0249 43.0608 69.0626L43.0648 69.0587ZM30.3096 67.1301C30.4918 65.1343 32.25 63.6612 34.3211 63.6612C36.3922 63.6612 38.1821 65.1343 38.3643 67.1301H30.3096ZM94.5012 69.0587C94.5012 64.5443 91.8282 60.0378 85.7575 60.0378C79.6869 60.0378 76.9941 64.4334 76.9941 69.0626C76.9941 73.6919 80.368 78.3409 85.7932 78.3409C91.2184 78.3409 93.1707 76.3847 93.8597 73.1691C93.9547 72.7375 93.6617 72.1673 93.0519 72.1633H90.3987C89.9155 72.1633 89.5235 72.393 89.2859 72.7415C88.5256 73.8542 87.4128 74.4482 85.7694 74.4482C84.126 74.4482 81.8332 72.6147 81.7104 70.5872H93.0004C94.0379 70.5872 94.5052 70.0249 94.5052 69.0626L94.5012 69.0587ZM81.7421 67.1301C81.9243 65.1343 83.6825 63.6612 85.7536 63.6612C87.8247 63.6612 89.6146 65.1343 89.7967 67.1301H81.7421Z" fill="white"/>
<path fill-rule="evenodd" clip-rule="evenodd" d="M57.3848 54.3429H20.8221C19.9905 54.3429 19.3213 55.0161 19.3213 55.8438L19.448 70.2027C19.448 70.2027 11.5676 55.9705 11.1597 55.2458C10.7756 54.5647 9.944 53.9351 8.7956 53.9351H5.78996C4.95836 53.9351 4.28516 54.6083 4.28516 55.4399V76.4991C4.28516 77.3307 4.95836 78.0039 5.78996 78.0039H7.71848C8.55008 78.0039 9.22328 77.3268 9.21932 76.4952L9.09656 61.7323C9.09656 61.7323 17.0522 76.1031 17.3928 76.6694C17.8521 77.4337 18.6283 78.0039 19.7529 78.0039H22.517C23.3486 78.0039 24.0218 77.3307 24.0218 76.4991V57.9069H57.3888C57.955 57.9069 58.4144 57.4515 58.4184 56.8853V55.3646C58.4184 54.7983 57.955 54.339 57.3888 54.339L57.3848 54.3429Z" fill="white"/>
<path fill-rule="evenodd" clip-rule="evenodd" d="M51.4683 63.4868C53.0602 63.4868 54.2482 64.065 54.6759 65.0589C54.8818 65.5381 55.2817 65.6292 55.8282 65.6292H58.0141C58.3745 65.6292 58.7903 65.3203 58.7903 64.8451C58.7903 62.3028 55.7609 60.0337 51.4683 60.0337C47.1756 60.0337 44.1145 62.1483 44.1145 65.5183C44.1145 68.8883 46.15 69.6288 48.6567 70.2822C49.7971 70.5792 51.7455 71.0623 52.6959 71.3118C53.7175 71.5811 54.6323 71.8939 54.6323 72.7691C54.6323 74.1511 53.175 74.6223 51.5831 74.6223C49.9912 74.6223 48.5735 73.9491 48.1419 72.872C47.8924 72.2503 47.4568 72.1592 46.7915 72.1592H44.5699C44.1819 72.1592 43.7344 72.4919 43.7344 72.9987V73.2878C43.7344 75.747 47.0331 78.3249 51.5871 78.3249C56.1411 78.3249 59.313 76.9825 59.313 72.6542C59.313 68.3259 57.634 68.4131 54.9055 67.7161C53.8363 67.4468 51.2742 66.7934 50.7159 66.6469C49.7219 66.3895 48.7913 66.0648 48.7913 65.2134C48.7913 63.9224 49.9872 63.4829 51.4762 63.4829L51.4683 63.4868ZM96.0697 77.1211H95.5747V74.8045H96.442C97.0399 74.8045 97.3924 74.9748 97.3924 75.5054C97.3924 76.036 97.1429 76.0875 96.834 76.1113L97.4241 77.125H96.838L96.3034 76.1509H96.0697V77.125V77.1211ZM96.5053 75.7549C96.7271 75.7549 96.8578 75.7074 96.8578 75.45C96.8578 75.1926 96.6004 75.1926 96.4143 75.1926H96.0658V75.7509H96.5053V75.7549ZM96.4261 78.1151C95.2817 78.1151 94.264 77.323 94.264 75.9608C94.264 74.5986 95.2857 73.8105 96.4261 73.8105C97.5666 73.8105 98.5843 74.6025 98.5843 75.9608C98.5843 77.3191 97.5627 78.1151 96.4261 78.1151ZM96.4261 74.3135C95.5708 74.3135 94.8817 74.9748 94.8817 75.9648C94.8817 76.9548 95.5708 77.624 96.4261 77.6161V77.624C97.2577 77.624 97.9626 76.9587 97.9626 75.9648C97.9626 74.9708 97.2577 74.3135 96.4261 74.3135Z" fill="white"/>
</svg>
