<svg width="134" height="24" viewBox="0 0 134 24" fill="none" xmlns="http://www.w3.org/2000/svg">
<g clip-path="url(#clip0_3594_133)">
<path d="M5.762 0.0784462C3.7386 0.195838 0.8442 0.404533 0.4288 0.469751L0 0.548011V23.348H7.102L7.1288 20.635L7.169 17.935L9.849 17.8567C11.6312 17.7915 12.8104 17.7002 13.3866 17.5567C18.1436 16.3697 20.636 13.2915 20.636 8.64801C20.636 4.00453 20.368 5.79149 19.698 4.4741C18.5724 2.25671 16.3748 0.926272 12.797 0.326272C11.6178 0.13062 7.5308 -0.0128581 5.762 0.0784462ZM10.586 4.55236C12.8238 5.21758 13.9494 7.20018 13.5608 9.78279C13.3732 11.048 12.9712 11.9089 12.2208 12.6132C11.3766 13.4219 10.4386 13.7219 8.6162 13.8002L7.102 13.8524V9.16975C7.102 6.58714 7.1422 4.43497 7.2092 4.38279C7.3432 4.23932 9.9964 4.38279 10.586 4.55236Z" fill="white"/>
<path d="M98.3558 0.0784462C96.3324 0.195838 93.4379 0.404533 93.0359 0.469751L92.5938 0.548011V23.348H99.6958L99.7226 20.635L99.7628 17.935L102.443 17.8567C105.578 17.7654 106.543 17.5697 108.526 16.6176C111.608 15.1437 113.23 12.3784 113.23 8.64801C113.216 3.90019 110.697 1.21323 105.391 0.326272C104.212 0.13062 100.125 -0.0128581 98.3558 0.0784462ZM102.671 4.44801C105.297 4.99584 106.583 6.99149 106.141 9.86105C105.739 12.5219 104.037 13.8263 100.955 13.8263H99.6958V9.15671C99.6958 6.58714 99.736 4.43497 99.7896 4.39584C99.9236 4.25236 101.893 4.29149 102.671 4.44801Z" fill="white"/>
<path d="M123.682 0.0912673C119.421 0.521702 116.942 1.9304 115.883 4.55214C115.642 5.16518 115.589 5.54344 115.589 6.91301C115.589 8.28257 115.642 8.66083 115.883 9.27388C116.781 11.4913 118.496 12.7174 122.811 14.2174C124.593 14.8304 125.277 15.1434 125.92 15.613C127.233 16.5913 126.912 18.4043 125.317 19.0043C124.352 19.3695 121.284 19.3304 119.341 18.9261C118.121 18.6782 116.031 18.0652 115.066 17.6739C114.838 17.5826 114.825 17.6217 114.905 18.1434C114.945 18.4565 115.12 19.6304 115.28 20.7391L115.575 22.7608L116.58 23.0347C118.255 23.5043 120.024 23.7521 122.208 23.8304C128.439 24.0521 132.473 22.2391 133.598 18.7043C134.174 16.8652 134.04 14.713 133.236 13.2913C132.781 12.4565 131.575 11.3739 130.449 10.7608C129.98 10.5 128.694 9.96518 127.608 9.57388C123.99 8.25648 123.387 7.95648 122.865 7.1217C122.369 6.32605 122.65 5.39996 123.535 4.95648C124.258 4.60431 125.719 4.39562 126.898 4.49996C128.466 4.6304 130.342 4.95648 131.374 5.28257C131.896 5.45214 132.339 5.56953 132.352 5.55648C132.365 5.55648 132.245 4.44779 132.097 3.11735L131.803 0.691267L130.53 0.469528C128.345 0.0782238 125.357 -0.0782979 123.682 0.0912673Z" fill="white"/>
<path d="M23.584 11.935V23.3481H30.686L30.7128 18.8741L30.753 14.4133L34.5452 14.3741L38.324 14.3481V23.3481H45.426V0.521973H38.324V9.65241H30.686V0.521973H23.584V11.935Z" fill="white"/>
<path d="M50.7861 11.935V23.3481H57.8881V0.521973H50.7861V11.935Z" fill="white"/>
<path d="M63.3818 11.935V23.3481H76.3128L76.7684 21.3655C77.023 20.2698 77.2508 19.2785 77.291 19.1481C77.3446 18.9263 77.157 18.9133 73.9142 18.9133H70.4838V0.521973H63.3818V11.935Z" fill="white"/>
<path d="M79.998 11.935V23.3481H87.1V0.521973H79.998V11.935Z" fill="white"/>
</g>
<defs>
<clipPath id="clip0_3594_133">
<rect width="134" height="24" fill="white"/>
</clipPath>
</defs>
</svg>
