<svg width="191" height="33" viewBox="0 0 191 33" fill="none" xmlns="http://www.w3.org/2000/svg">
<g clip-path="url(#clip0_3594_753)">
<path fill-rule="evenodd" clip-rule="evenodd" d="M170.897 2.54222C171.661 3.32444 171.661 4.54667 170.897 5.32889L160.01 16.5244L170.897 27.72C171.661 28.5022 171.661 29.7244 170.897 30.5067L168.462 33L153.707 17.8444C152.991 17.1111 152.991 15.9378 153.707 15.1556L168.462 0L170.897 2.54222ZM190.475 15.2533C191.143 15.9378 191.143 17.0622 190.475 17.7467L175.672 33L173.094 30.36C172.425 29.6756 172.425 28.5022 173.094 27.8178L184.076 16.5244L173.189 5.32889C172.473 4.54667 172.473 3.32444 173.189 2.59111L175.672 0.0488889L190.475 15.3022V15.2533ZM147.882 25.9111V26.0578H147.404V27.28H147.213V26.0578H146.736V25.9111H147.834H147.882ZM148.025 25.9111H148.312L148.693 27.0844L149.076 25.9111H149.314V27.3289H149.123V26.4978C149.123 26.4978 149.123 26.4 149.123 26.3511C149.123 26.3022 149.123 26.2044 149.123 26.1556L148.741 27.3289H148.55L148.168 26.1556C148.168 26.2533 148.168 26.3022 148.168 26.3511V26.4978V27.3289H147.977V25.9111H148.025ZM138.332 24.2489C141.436 24.2489 143.584 21.7067 143.584 18.3333C143.584 14.96 141.436 12.4667 138.332 12.4667C135.228 12.4667 133.127 15.1067 133.127 18.4311C133.127 21.7556 135.276 24.2978 138.332 24.2978V24.2489ZM139.239 27.6222C136.565 27.6222 134.273 26.2533 133.079 23.6622V27.3778H129.594V2.88444L133.079 2.15111V13.0044C134.273 10.3644 136.517 9.04444 139.239 9.04444C143.728 9.04444 147.309 12.6133 147.309 18.3333C147.309 24.0533 143.728 27.5733 139.239 27.5733V27.6222ZM111.496 19.8978V9.33778H114.982V20.1911C114.982 22.5378 116.462 24.1511 118.898 24.1511C121.333 24.1511 122.813 22.5378 122.813 20.1911V9.33778H126.299V19.8978C126.299 24.8356 123.338 27.5733 118.898 27.5733C114.457 27.5733 111.496 24.7867 111.496 19.8978ZM109.061 27.5733C105.48 27.72 103.474 25.7644 103.474 21.4622V2.88444L106.96 2.15111V21.4133C106.96 23.1244 107.867 23.9067 109.109 23.9067H110.016V27.4267C109.682 27.4756 109.348 27.5244 109.061 27.5244V27.5733ZM86.2365 18.2844C86.2365 12.5644 90.0565 9.04444 95.4045 9.04444C100.753 9.04444 100.132 9.87556 101.851 11.6356L99.702 14.3244C98.365 12.9556 96.7893 12.4178 95.4045 12.4178C92.2053 12.4178 89.9133 14.3733 89.9133 18.2844C89.9133 22.1956 92.1575 24.2 95.4045 24.2C98.6515 24.2 98.365 23.6133 99.7497 22.1956L101.898 24.8356C100.18 26.5956 97.983 27.5733 95.4045 27.5733C90.1043 27.5733 86.2365 24.0044 86.2365 18.3333V18.2844ZM65.513 25.6667L67.0888 22.3911C68.2348 23.2711 70.288 24.2 71.8638 24.2C73.4395 24.2 74.5855 23.2222 74.5855 22.1956C74.5855 20.9733 73.6305 20.5333 71.5772 19.8489C68.1393 18.7733 66.1815 17.5022 66.1815 14.2267C66.1815 10.9511 68.4258 9.04444 72.4368 9.04444C76.4478 9.04444 76.4478 9.72889 77.9758 10.8533L76.4 13.8356C75.4928 13.2489 73.9648 12.4178 72.2458 12.4178C70.5268 12.4178 69.8583 13.0044 69.8583 14.2267C69.8583 15.4489 70.5268 15.84 72.7233 16.5244C76.4478 17.6489 78.31 19.1156 78.31 22.0978C78.31 25.08 75.636 27.5733 71.9115 27.5733C68.187 27.5733 66.9455 26.6933 65.513 25.6667ZM62.9823 4.15556H66.7545L64.558 11.2444H61.6453L62.9823 4.15556ZM49.8988 27.28H46.413V16.3778C46.413 14.1289 45.267 12.4178 42.9273 12.4178C40.5875 12.4178 38.582 14.7156 38.582 17.6489V27.28H35.0963V9.33778H38.582V12.5156C39.6325 10.2667 41.5425 8.99555 43.7868 8.99555C46.031 8.99555 48.0365 10.2667 49.087 12.4178C50.5673 10.0711 52.525 8.99555 54.8648 8.99555C58.5415 8.99555 61.2155 11.8311 61.2155 16.3778V27.2311H57.7298V16.3289C57.7298 14.08 56.5838 12.3689 54.244 12.3689C51.9043 12.3689 49.8988 14.6667 49.8988 17.6V27.2311V27.28ZM23.0633 12.4178C19.9595 12.4178 17.8108 14.96 17.8108 18.3333C17.8108 21.7067 19.9595 24.2 23.0633 24.2C26.167 24.2 28.268 21.56 28.268 18.2356C28.268 14.9111 26.1193 12.3689 23.0633 12.3689V12.4178ZM28.3635 23.6133C27.1698 26.2533 24.9255 27.5733 22.2038 27.5733C17.7153 27.5733 14.134 24.0044 14.134 18.2844C14.134 12.5644 17.7153 9.04444 22.2038 9.04444C26.6923 9.04444 27.1698 10.4133 28.3635 13.0044V9.28889H31.8493V27.2311H28.3635V23.5644V23.6133ZM0 25.6667L1.57575 22.3911C2.72175 23.2711 4.775 24.2 6.35075 24.2C7.9265 24.2 9.0725 23.2222 9.0725 22.1956C9.0725 20.9733 8.1175 20.5333 6.06425 19.8489C2.62625 18.7733 0.6685 17.5022 0.6685 14.2267C0.6685 10.9511 2.91275 9.04444 6.92375 9.04444C10.9348 9.04444 10.9348 9.72889 12.4628 10.8533L10.887 13.8356C9.97975 13.2489 8.45175 12.4178 6.73275 12.4178C5.01375 12.4178 4.34525 13.0044 4.34525 14.2267C4.34525 15.4489 5.01375 15.84 7.21025 16.5244C10.9348 17.6489 12.797 19.1156 12.797 22.0978C12.797 25.08 10.123 27.5733 6.3985 27.5733C2.674 27.5733 1.38475 26.6933 0 25.6667Z" fill="white"/>
</g>
<defs>
<clipPath id="clip0_3594_753">
<rect width="191" height="33" fill="white"/>
</clipPath>
</defs>
</svg>
