<svg width="143" height="40" viewBox="0 0 143 40" fill="none" xmlns="http://www.w3.org/2000/svg">
<path d="M18.072 0.169596C16.5868 0.339032 14.405 0.834307 13.1564 1.29048C11.4215 1.92913 9.27911 3.14125 7.72819 4.35337C2.44455 8.53714 -0.315564 14.8845 0.236458 21.5577L0.381035 23.239L1.87938 24.6727C2.70741 25.4547 4.10061 26.7841 4.99436 27.6052C7.01844 29.4821 6.95273 29.4169 7.16302 29.7427C7.25502 29.8991 7.72819 31.2155 8.22763 32.6883C8.71394 34.1611 9.17396 35.3993 9.25282 35.4514C9.33168 35.5036 11.4478 35.5557 13.945 35.5557C18.2166 35.5557 18.5058 35.5688 18.7161 35.8034C18.8343 35.9337 19.1761 36.1422 19.4521 36.2726C19.9252 36.4811 20.0435 36.4941 20.5036 36.3377C20.8059 36.2465 21.1739 36.0249 21.3447 35.8555L21.647 35.5557L26.5495 35.5296L31.4389 35.4905L32.3852 32.6753C32.9109 31.1373 33.4235 29.7558 33.5286 29.6124C33.6864 29.4039 35.8682 27.2924 36.3545 26.8884C36.4333 26.8102 37.2614 26.0282 38.1814 25.1289C39.4563 23.9037 39.89 23.3824 39.982 23.0435C40.0346 22.7959 40.1266 21.7662 40.1792 20.7496C40.3764 16.24 39.1409 12.0692 36.4991 8.41984C33.0818 3.68866 28.1924 0.860375 22.2779 0.169596C20.3327 -0.0519747 20.0698 -0.0519747 18.072 0.169596ZM19.3732 5.08325C19.4258 6.17807 19.5178 8.15917 19.5835 9.48859C19.7412 12.2126 20.0567 19.0161 20.1881 22.2615C20.2933 24.6988 20.4773 25.7023 20.4904 23.9558C20.5036 23.3433 20.5956 21.2318 20.7007 19.2638C20.8059 17.2957 20.9504 14.298 21.0293 12.6166C21.1082 10.9353 21.2264 8.61534 21.2922 7.46839C21.371 6.32144 21.4236 4.93988 21.4236 4.4055C21.4236 3.87113 21.4762 3.34978 21.5419 3.24552C21.6339 3.10215 21.9362 3.14125 23.3425 3.48012C24.2626 3.70169 25.0643 3.92326 25.1169 3.98843C25.1695 4.04056 25.0512 5.18752 24.8277 6.55604C24.6174 7.91153 24.3283 9.82747 24.1837 10.7919C23.5397 15.0018 23.3557 16.1487 22.8036 19.7851C22.2122 23.5518 22.015 25.0637 22.1465 24.803C22.1991 24.6727 25.0117 14.0764 25.2352 13.138C25.2877 12.8904 25.4586 12.2387 25.6032 11.7043C25.9581 10.44 27.2198 5.60459 27.2987 5.21358C27.3381 5.05718 27.417 4.88774 27.4827 4.86168C27.6141 4.77044 28.9548 5.38302 29.6645 5.86526C29.9668 6.06077 30.2428 6.2302 30.2822 6.2302C30.3217 6.2302 30.5451 6.3866 30.7685 6.58211C31.0708 6.85581 31.1497 7.01222 31.084 7.24682C31.0051 7.58569 30.4268 9.07152 28.5867 13.7245C27.9033 15.4449 26.7861 18.2862 26.0895 20.0458C25.3929 21.8053 24.6437 23.6952 24.4334 24.2556C24.21 24.8161 24.0523 25.3113 24.0917 25.3374C24.118 25.3765 24.4203 24.8552 24.762 24.1905C25.0906 23.5257 25.6558 22.444 25.9975 21.8053C26.3524 21.1536 26.9438 20.0458 27.325 19.3289C27.7193 18.6121 28.245 17.6085 28.521 17.1132C28.7839 16.6049 29.3096 15.6404 29.6645 14.9627C31.3994 11.6913 32.004 10.5573 32.2143 10.1794C32.3457 9.9578 32.5692 9.52769 32.7269 9.22792C33.0029 8.69355 33.0161 8.68051 33.2789 8.92815C34.0544 9.61893 35.7499 12.2256 35.7499 12.747C35.7499 13.2683 35.4607 13.4247 35.119 13.907C34.7641 14.3762 34.0412 15.4058 33.5024 16.2009C32.9635 16.9829 32.4509 17.7128 32.372 17.804C32.28 17.8952 32.2012 18.0256 32.2012 18.0647C32.2012 18.1038 32.0697 18.2993 31.912 18.4818C31.7411 18.6642 31.268 19.3029 30.8605 19.9154C30.4531 20.528 29.7039 21.6098 29.2045 22.3267C27.2461 25.1028 26.4707 26.1976 26.2998 26.4713C26.0501 26.8754 29.0073 23.8255 31.6886 20.9451C35.4739 16.8656 36.7619 15.5362 36.8539 15.6274C37.0774 15.849 37.3534 17.8301 37.3665 19.3289C37.3797 21.4013 37.2614 22.4049 36.9459 22.7307C36.8145 22.8741 35.579 24.0601 34.1858 25.3895C32.7926 26.719 31.5703 27.9441 31.4783 28.1266C31.3206 28.4264 30.8343 29.8209 30.5188 30.8636C30.44 31.1113 30.2559 31.6456 30.1245 32.0367L29.8748 32.7535L25.6295 32.7926L21.3842 32.8187L21.0819 33.1445C20.6744 33.5746 20.0698 33.5746 19.6361 33.1445L19.3075 32.8187H15.3908C12.4072 32.8187 11.4346 32.7796 11.3426 32.6492C11.2638 32.571 10.8695 31.4892 10.462 30.2641C9.62083 27.7356 9.87056 28.0875 7.0973 25.5199C6.2167 24.6988 5.09951 23.6561 4.63949 23.226L3.78517 22.4179L3.65374 21.3361C3.5223 20.2022 3.60116 18.1298 3.8246 16.6571C4.0349 15.2494 4.0349 15.2625 4.57377 15.8359C5.38866 16.6831 8.06991 19.5505 8.31964 19.8372C8.63508 20.1891 9.42368 21.0494 11.2243 22.9653C12.0261 23.8255 12.749 24.5815 12.8147 24.6727C13.3273 25.2331 14.7205 26.6538 14.7205 26.6017C14.7205 26.5495 14.1684 25.7936 13.4981 24.8812C12.8278 23.9819 11.8026 22.5873 11.2375 21.8053C10.6723 21.0103 9.7917 19.8372 9.30539 19.1725C8.81909 18.5209 8.41164 17.9474 8.41164 17.9083C8.41164 17.8692 8.29335 17.6997 8.14877 17.5433C7.91219 17.2566 6.32184 15.1191 5.3098 13.6984L4.83664 13.0207L5.44124 11.8868C6.07212 10.7137 7.45218 8.70658 7.63618 8.70658C7.82019 8.70658 8.03048 9.25399 8.38535 9.90567C8.74023 10.5704 9.23967 11.4958 9.4894 11.965C9.73912 12.4342 10.2517 13.3726 10.6066 14.0503C10.9746 14.7281 11.4741 15.6665 11.7238 16.1357C11.9735 16.6049 12.5255 17.6215 12.9461 18.4166C13.3667 19.1986 13.8399 20.0849 13.9976 20.3716C14.1553 20.6584 14.7468 21.7532 15.2988 22.8089C16.2582 24.6597 16.8234 25.6632 16.8234 25.5199C16.8234 25.3765 13.0513 15.849 12.0918 13.529C11.8158 12.8513 11.2506 11.4436 10.8432 10.4009C10.4357 9.35826 9.96256 8.15917 9.77855 7.74209L9.44997 6.97311L9.80484 6.59514C10.002 6.39964 10.2517 6.2302 10.3437 6.2302C10.4357 6.2302 10.5146 6.17807 10.5146 6.1129C10.5146 5.98256 11.4215 5.42212 12.4861 4.90078C13.0513 4.62707 13.2484 4.58797 13.3667 4.70528C13.4456 4.79651 13.9056 6.41267 14.3919 8.31557C14.865 10.2185 15.6799 13.3856 16.1925 15.3537C16.692 17.3218 17.4017 20.0849 17.7566 21.4795C18.6241 24.8682 18.6766 25.0376 18.7161 24.9855C18.7423 24.9594 18.7161 24.6075 18.6635 24.2165C18.5978 23.8255 18.2823 21.6359 17.9406 19.355C17.612 17.0611 17.2571 14.6368 17.1388 13.9461C17.0337 13.2423 16.8891 12.2647 16.8234 11.7695C16.7577 11.2612 16.5211 9.61893 16.2977 8.12007C16.0611 6.60817 15.8508 4.99201 15.8114 4.50977C15.7457 3.66259 15.7456 3.63652 16.0611 3.55832C16.7577 3.37585 18.3612 3.12821 18.8081 3.11518H19.2812C19.2812 3.10215 19.3732 5.08325 19.3732 5.08325Z" fill="white"/>
<path d="M53.4283 7.67689C51.4042 7.9115 49.1698 8.60227 47.7503 9.43642C46.8434 9.95776 45.6737 10.9874 45.0165 11.8346C43.2159 14.1546 42.8873 17.1653 44.149 19.7069C44.8456 21.1275 46.8829 22.7176 49.2881 23.7342C50.7865 24.3598 52.666 24.8421 54.6769 25.1158C58.3308 25.6111 59.3165 25.9108 60 26.7189C60.4468 27.2403 60.4468 27.9701 60 28.4915C59.4085 29.1953 57.7656 29.6775 55.9912 29.6906C53.3888 29.6906 52.0219 28.8043 51.3385 26.6538C51.2728 26.4452 50.9573 26.4322 47.172 26.4322H43.0713L43.1633 27.2663C43.5576 31.1112 46.8434 34.4609 51.1019 35.3732C54.2563 36.0379 59.5794 35.8554 62.116 34.9952C65.8619 33.731 68.5957 30.3814 68.5957 27.0187C68.6089 24.1774 67.0711 21.6228 64.5739 20.3325C63.0624 19.5505 61.472 19.1334 56.6484 18.208C53.7043 17.6476 52.4294 17.0871 51.9694 16.1487C51.5751 15.3537 52.0482 14.4022 53.034 13.9982C53.77 13.6854 55.1763 13.4899 55.9518 13.5941C57.6079 13.8027 59.0142 15.0409 59.3428 16.5527L59.4085 16.9177H67.7283L67.6363 16.2269C67.3734 14.2719 66.3351 12.2908 64.7316 10.7137C63.8641 9.86653 63.4304 9.55372 62.4841 9.11058C61.0251 8.4198 60.8674 8.35464 60.46 8.2634C60.276 8.23733 59.5662 8.08093 58.8828 7.93756C57.4107 7.61172 54.9135 7.49442 53.4283 7.67689Z" fill="white"/>
<path d="M71.1055 21.8704V35.2949H78.9784L79.0178 29.3907L79.0572 23.4996L79.4121 22.887C80.0298 21.8573 81.3047 21.0884 82.4088 21.0884C83.5128 21.0884 85.0769 22.0268 85.6158 23.1737C85.8786 23.7342 85.8918 23.9948 85.9312 29.5341L85.9706 35.2949L89.9399 35.2689L93.9092 35.2298V28.1916C93.9092 20.4888 93.9487 20.8798 93.1075 19.2246C92.7395 18.5077 90.9651 16.6569 90.6365 16.6569C90.3079 16.6569 90.4262 16.6048 90.3999 16.5527C90.3211 16.3311 88.5204 15.7185 87.6136 15.5882C86.2204 15.3927 84.1174 15.5361 82.8688 15.9271C81.8042 16.2659 80.2533 17.0871 79.6355 17.6475C79.4515 17.83 79.2675 17.9212 79.2149 17.8691C79.1624 17.83 79.1229 15.6794 79.1229 13.1118V8.4458H71.1055V21.8704Z" fill="white"/>
<path d="M122.588 8.53704C122.536 8.57614 122.496 14.6237 122.496 21.9616V35.2949H130.645V8.4458H126.663C124.468 8.4458 122.628 8.4849 122.588 8.53704Z" fill="white"/>
<path d="M134.72 21.8704V35.2949H142.869V8.4458H134.72V21.8704Z" fill="white"/>
<path d="M106.409 15.6141C103.399 15.9921 100.954 17.1651 99.0615 19.1332C97.366 20.8927 96.3408 23.4212 96.3408 25.8585C96.3408 28.2958 97.2477 30.3551 98.6146 32.0364C101.664 35.7771 107.828 37.1847 113.414 35.4121C115.859 34.6431 118.277 32.7272 119.197 30.8373C119.907 29.3645 120.222 29.4949 115.977 29.4558L112.284 29.4297L111.837 29.9902C110.312 31.9713 107.421 32.2059 105.554 30.5245C104.818 29.8728 104.371 29.0778 104.266 28.2697L104.187 27.605H119.999V26.4581C119.999 25.0244 119.67 23.2388 119.197 22.0918C118.014 19.1853 115.648 17.0869 112.441 16.1224C110.904 15.6532 108.052 15.4056 106.409 15.6141ZM109.786 20.3323C110.128 20.4887 110.404 20.6581 110.404 20.7233C110.404 20.7885 110.483 20.8276 110.575 20.8276C111.009 20.8276 112.113 22.6262 112.113 23.317V23.6949H104.227V23.33C104.227 22.7565 104.845 21.6617 105.515 21.0752C106.816 19.9282 108.301 19.6806 109.786 20.3323Z" fill="white"/>
</svg>
