<svg width="69" height="76" viewBox="0 0 69 76" fill="none" xmlns="http://www.w3.org/2000/svg">
<g clip-path="url(#clip0_3594_776)">
<path d="M27.7468 74.03C28.3391 74.03 29.3589 73.8385 30.1618 72.5587C29.7039 71.5433 29.3772 69.4943 29.3314 68.7495C29.0963 64.9313 30.571 61.341 32.1891 61.2438C33.3737 61.1738 34.3232 62.2895 34.4301 64.0983C34.7201 68.8559 33.1294 70.8411 32.3356 72.5526C32.47 73.2183 33.5996 74.3462 34.6682 74.3462C35.7368 74.3462 35.5383 74.1486 35.6605 73.9905C35.5811 73.7169 35.5017 73.3612 35.5017 72.8475C35.5017 70.0902 37.2817 67.7676 38.8235 67.7676C40.3653 67.7676 40.7591 69.3819 40.7591 70.4459C40.7591 71.5098 39.6906 72.7289 38.109 73.7139C38.3869 73.9874 38.8998 74.1881 39.3364 74.1881C41.5926 74.1881 42.7711 71.4703 43.6474 68.9897C43.8061 68.5154 44.084 67.8466 44.6366 67.8466C45.5861 67.8466 45.983 74.0695 47.5614 74.0695C49.1399 74.0695 48.7888 72.6894 48.7888 71.6284C48.7888 70.5674 48.511 70.762 48.511 69.619C48.511 68.4759 49.1826 67.2994 50.0955 67.2994C51.0084 67.2994 50.8496 67.8466 50.8496 68.5154C50.8496 71.0356 49.03 75.7233 46.3433 75.7233C43.6565 75.7233 44.4809 72.2577 43.7695 72.2577C43.0581 72.2577 41.8674 75.7628 37.9564 75.7628C34.0454 75.7628 36.6497 75.4467 36.0971 74.8174C35.1475 75.4497 34.3537 75.7233 33.4439 75.7233C31.9815 75.7233 31.3495 74.2276 30.7572 74.2276C30.1649 74.2276 29.2551 75.7628 26.8798 75.7628C24.5044 75.7628 24.6663 73.2457 23.9946 73.2457C23.3229 73.2457 22.4925 75.7628 21.5033 75.7628C19.8393 75.7628 19.4882 71.3913 18.0227 71.3913C16.5572 71.3913 13.2538 75.8297 12.2707 75.7294C11.8738 75.6868 11.7089 75.3919 11.7517 74.9998C11.8066 74.4556 12.2768 72.9964 12.4691 72.3063C12.7897 71.1086 13.0828 69.7953 13.2477 69.3788C13.4095 68.9562 13.8491 68.6553 14.2033 68.6887C14.3804 68.7039 14.4353 69.0353 14.4903 69.3059C14.6887 70.2787 14.9696 71.2727 15.2841 71.2727C15.8398 71.2727 17.6747 67.7676 18.7402 67.7676C19.8057 67.7676 20.2057 73.2822 21.9826 73.2822C23.7595 73.2822 23.0145 72.5739 23.4084 71.7075C23.4481 70.2482 23.845 68.1659 25.0296 68.1659C26.2142 68.1659 26.2569 70.0142 25.6616 71.6315C25.6616 73.5588 26.9256 74.0331 27.759 74.0331M59.38 69.3059C58.8884 71.3305 57.4046 74.3066 55.1881 74.3066C52.9715 74.3066 53.7653 74.109 53.7653 73.5953C53.7653 73.0815 57.2489 72.966 57.2489 70.3273C57.2489 67.6886 56.3391 67.9652 54.9957 67.9652C53.6524 67.9652 51.4816 69.8956 51.4816 72.5739C51.4816 75.2521 52.9807 75.7628 54.4798 75.7628C57.0932 75.7628 58.6717 73.6348 59.5021 71.8625C59.899 73.045 60.1341 75.7628 61.1264 75.7628C62.1186 75.7628 61.798 75.5652 62.2743 74.5042C63.4559 71.8655 64.6038 68.8347 66.1884 68.8347C67.7729 68.8347 66.4265 69.8987 67.8493 69.8987C69.272 69.8987 68.9911 69.3484 68.9911 68.7131C68.9911 67.8071 68.1607 67.1019 66.8967 67.1019C63.1811 67.1019 62.3903 72.6529 61.798 72.6529C60.8088 72.6529 61.1264 68.2023 60.4119 68.2023C59.6975 68.2023 59.4685 68.9532 59.383 69.3059M33.1478 65.1593C33.0775 64.0588 32.8119 63.5633 32.2196 63.6028C31.4319 63.6514 31.0686 66.1169 31.2274 68.71C31.3312 70.4033 31.5815 70.6617 31.8197 70.6465C32.2563 70.6222 33.3004 67.5974 33.1478 65.1593ZM26.7179 62.8489C26.663 62.2196 26.1653 61.7879 25.4936 61.7879C24.822 61.7879 24.0373 62.5722 24.1106 63.5572C24.1594 64.2047 24.5441 64.7398 25.2983 64.7398C26.0524 64.7398 26.7973 63.7548 26.7179 62.8489ZM39.0189 70.8806C39.0189 70.2118 38.6617 69.6615 38.2281 69.6615C37.7946 69.6615 37.0405 70.0537 37.0405 71.3153C37.0405 72.5769 37.3946 72.7714 37.5534 72.9721C38.6983 72.6164 39.0158 71.671 39.0158 70.8836M54.4767 69.546C55.3071 69.546 55.5453 70.5249 55.3499 71.1177C55.1514 71.7074 54.4401 72.3793 53.3318 72.5769C53.0937 71.9841 52.9746 69.546 54.4767 69.546ZM8.94281 66.7492C8.82984 66.3905 8.50011 65.5879 8.41157 64.9921C8.21312 63.6758 8.90617 62.8094 9.53816 62.6118C10.2495 62.4142 10.5274 62.7698 10.8021 63.5967C11.1594 64.8553 11.199 66.509 11.08 68.8711C10.9243 72.0996 9.30307 75.9999 5.26993 75.9179C1.7894 75.8419 0.247587 73.5953 0.0888256 70.1722C0.0124982 68.558 0.128516 66.9438 0.800197 64.6607C1.15436 63.4386 1.47493 63.0039 2.58015 62.7699C3.45029 62.6118 3.37091 63.5177 3.17551 64.5847C2.74197 66.9468 2.54046 68.0868 2.70228 70.765C2.85798 73.5983 4.16471 74.7019 5.59051 74.7019C7.72462 74.7414 8.67414 72.9691 9.07104 70.4094C9.38551 68.3635 9.15042 67.3785 8.94891 66.7492M55.585 15.5222C55.8598 17.5073 58.8793 20.1825 59.6975 20.1186C60.244 20.073 60.4547 17.5286 60.4547 15.5222C60.4547 13.5158 60.5188 13.4732 59.9082 13.2634C58.9434 15.206 56.4063 15.6042 55.585 15.5222ZM55.7529 14.6436C57.9328 14.6436 59.9295 12.9108 59.9295 11.3847C59.9295 9.85865 59.5937 10.0897 58.7327 9.98633C58.8793 10.1748 58.9434 10.3207 58.9434 10.6551C58.9434 11.8042 57.1848 13.081 55.2736 13.081C53.3623 13.081 54.3698 13.5614 54.3698 13.8106C54.3698 14.3974 54.9377 14.6466 55.756 14.6466M55.2919 12.2846C54.9988 12.2846 54.5775 12.2846 54.3454 11.8255C54.1561 11.4486 54.2202 10.8436 53.863 10.57C54.2202 10.6734 54.5988 10.6734 54.8919 10.6734C55.8384 10.6734 56.7421 10.0258 57.4321 10.0258C58.1221 10.0258 58.0366 10.3207 58.0366 10.6095C58.0366 11.5306 56.1742 12.2815 55.2888 12.2815M8.35356 28.6641C9.06493 28.6641 8.91838 24.3169 10.0725 24.3169C11.2265 24.3169 10.4297 24.5874 10.4297 24.9249C10.4297 25.9068 9.94728 27.3478 9.94728 28.1412C9.94728 28.9346 10.0511 28.6641 10.2404 28.6641C10.7441 28.6641 11.6265 23.8791 12.4875 23.8791C13.3484 23.8791 12.8844 24.1497 12.8844 24.4233C12.8844 25.4265 11.6051 28.3084 11.6051 29.1231C11.6051 29.9378 11.6479 29.3511 11.7517 29.3511C12.2768 29.3511 13.3271 27.0954 13.6598 25.9676C13.8491 25.3809 14.0995 25.0678 14.3315 25.0678C14.5636 25.0678 14.7315 25.2988 14.7315 25.7791C14.7315 26.907 13.6812 29.5609 12.7592 31.3363C12.0448 32.7134 10.9334 34.6985 10.9334 35.805C10.9334 36.9116 11.0372 36.9542 11.8555 37.6655C10.5121 37.5834 9.9656 37.4558 9.46489 36.413C7.22086 40.8636 13.5988 40.4258 11.4158 44.3718C11.0159 43.6634 7.87117 42.9308 7.87117 38.7934C7.87117 34.6559 11.0189 33.1329 11.0189 31.6463C11.0189 30.1598 10.9151 31.1052 10.6403 30.8742C9.94728 30.2874 9.92591 29.8102 9.38245 29.8102C8.839 29.8102 8.50011 30.7282 9.00387 31.543C9.17179 31.8135 9.31834 31.9807 9.31834 32.233C9.31834 32.8167 8.39325 34.3854 7.74599 34.3854C7.09874 34.3854 6.59192 32.7772 6.59192 30.1871C6.59192 27.597 7.11706 25.5694 7.76737 25.5694C8.41768 25.5694 8.02077 25.694 8.02077 25.8612C8.02077 26.1318 7.93834 26.6759 7.93834 27.594C7.93834 28.5121 8.16732 28.661 8.35661 28.661" fill="white"/>
<path d="M13.7019 34.7869C14.5843 34.7869 15.317 34.1393 15.317 32.6984V30.5673C15.317 29.7526 15.3811 28.8345 15.9276 28.187C15.8635 28.4576 15.8635 28.7525 15.8635 29.023C15.8635 30.8197 16.871 32.0539 16.871 33.7867C16.871 35.5195 16.6817 34.7899 16.178 34.7899C15.6742 34.7899 15.7353 34.3491 15.6315 34.3491C15.5277 34.3491 15.4208 34.6197 15.4208 34.9145C15.4208 35.3523 15.7353 36.0424 16.6176 36.0424C17.5 36.0424 17.9824 35.3523 17.9824 34.5801C17.9824 32.7014 16.5138 30.6099 16.5138 28.6065C16.5138 26.6032 16.7428 27.1443 16.9321 26.6822C16.9321 30.8409 20.4767 33.8688 20.4767 35.6016C20.4767 37.3344 20.1836 36.3129 19.744 36.3129C19.3043 36.3129 19.0296 35.936 19.0296 35.6441C19.0296 35.3523 19.0082 35.4557 18.9471 35.4557C18.822 35.4557 18.4434 35.8721 18.4434 36.4163C18.4434 36.9605 19.0082 37.9424 20.0585 37.9424C21.1087 37.9424 21.9056 36.9392 21.9056 36.0393C21.9056 33.8445 17.6038 30.5248 17.6038 26.971C17.6038 23.4173 17.7076 25.3841 18.1503 24.6302C15.3811 26.4056 14.5201 28.7677 14.5201 30.8379C14.5201 32.9081 14.456 33.5313 13.534 33.5313C12.612 33.5313 12.9264 33.0936 12.7555 33.0936C12.5845 33.0936 12.5662 33.4705 12.5662 33.5739C12.5662 34.3461 13.134 34.7869 13.6989 34.7869M50.0674 13.9142C50.9925 13.9142 51.6855 13.4977 51.6855 13.2454C51.6855 12.9931 51.5603 13.0995 51.2855 13.0995C51.0108 13.0995 50.4673 13.0782 49.4384 12.911C48.5561 12.7651 47.8844 12.4307 47.631 12.4307C47.3776 12.4307 47.5058 12.4733 47.5058 12.5341C47.5058 13.0782 48.5133 13.9142 50.0704 13.9142M45.4938 11.2603C45.7594 11.0809 46.941 11.3637 48.4706 10.6128C48.6355 10.5185 48.8247 10.4699 49.0171 10.4669C49.7529 10.4669 49.5636 11.3029 50.2353 11.3029C50.907 11.3029 51.4321 10.8651 51.8321 10.8651C52.4579 10.8651 53.3617 12.8289 53.3617 13.7501C53.3617 14.6712 51.7496 15.4646 49.8384 15.4646C47.0509 15.4646 45.3686 13.0417 45.3686 11.4761C45.3686 9.91053 45.4328 11.3089 45.4969 11.2664M14.1446 42.6605C13.4516 42.8277 12.3402 43.9129 12.3402 45.6275C12.3402 47.3421 14.5446 50.8289 18.1747 50.8289C21.8048 50.8289 21.9941 48.7192 21.9941 47.2965C21.9941 44.1409 20.0432 41.9278 17.5061 41.9278C14.969 41.9278 14.8835 42.931 14.8835 44.4145C14.8835 45.8981 15.9337 47.8619 18.4281 47.8619C20.9225 47.8619 20.2936 47.0259 20.2936 46.0653C20.2936 45.1046 19.4326 43.8309 18.1747 43.8309C16.9168 43.8309 17.5244 44.0801 17.5244 44.4784C17.5244 44.8766 18.2174 45.4816 19.0784 45.4816C19.9394 45.4816 19.457 45.439 19.5394 45.3995C19.5822 45.4633 19.6036 45.5667 19.6036 45.6518C19.6036 46.1321 19.1395 46.427 18.4281 46.427C17.3595 46.427 16.3306 45.6336 16.3306 44.3781C16.3306 43.1225 16.9809 43.083 17.9243 43.083C19.7928 43.083 20.9042 44.7337 20.9042 46.3845C20.9042 48.0352 20.0859 48.7253 18.4067 48.7253C15.0483 48.7253 13.4119 45.7157 14.1477 42.6635M36.4689 50.7286C36.4689 51.1907 36.8444 51.5646 37.3085 51.5646C37.7695 51.5646 38.1481 51.1877 38.1481 50.7286C38.1481 50.2696 37.7725 49.8926 37.3085 49.8926C36.8444 49.8926 36.4719 50.2696 36.4689 50.7286ZM38.0962 54.9025C39.1006 54.9025 39.0518 54.8205 39.3663 54.8205C39.6807 54.8205 39.7021 55.0089 39.7021 55.1336C39.7021 55.5926 38.6732 56.1581 36.8474 56.1581C35.0217 56.1581 35.1255 55.5926 34.9362 54.9664C33.889 55.6352 32.2922 56.2401 30.7199 56.2401C26.4181 56.2401 25.3281 54.3797 23.9847 53.7747C22.9559 53.3157 21.3835 54.2155 19.1792 51.7683C19.4723 51.8321 19.8722 51.8534 20.1867 51.8534C22.1163 51.8534 23.1451 50.9141 23.1451 49.4093C23.1451 47.9045 23.1238 49.0141 23.1024 48.8286C23.6916 49.0566 25.035 50.0598 25.3495 51.8352C25.3922 52.0449 26.2532 52.2334 26.7966 52.2334C27.3401 52.2334 28.5186 51.9203 28.6651 50.6891C31.184 50.4793 32.8845 48.9958 33.2417 47.1141C34.1424 47.4059 35.1713 48.2237 35.4216 48.6401C35.7789 48.5155 36.1971 48.4517 36.6795 48.4517C37.1619 48.4517 38.1084 48.5763 39.009 48.8499C39.0518 48.5763 39.0945 48.2419 39.5128 48.2419C40.1417 48.2419 39.9738 48.932 40.1845 49.3272C40.2913 49.5369 40.8165 49.6616 40.8165 50.0811C40.8165 50.5006 40.4776 50.6253 40.27 50.6253C40.0624 50.6253 40.0807 50.604 40.0166 50.5827C39.5983 50.7286 39.5769 53.7352 37.8122 53.7352C36.0475 53.7352 35.3148 52.6712 34.7897 51.3336C34.6431 50.9353 34.3286 50.6861 34.0325 50.6861C33.7363 50.6861 33.5074 50.7499 33.1105 51.1877C31.9778 52.4189 30.0879 53.4829 27.7584 53.4829C25.4289 53.4829 26.4791 53.419 26.3295 53.419C26.1799 53.419 26.2471 53.4403 26.2471 53.4616C26.2471 53.6075 26.9615 54.1729 28.5125 54.1729C32.2037 54.1729 33.1074 52.1027 33.6966 52.1027C34.2859 52.1027 34.0325 52.1027 34.179 52.4371C35.04 54.4405 36.9177 54.9025 38.0931 54.9025M50.8215 41.5965C50.3818 41.5965 47.9424 44.8341 46.3731 44.8341C44.8038 44.8341 45.6801 44.1227 45.6801 43.5816C45.6801 43.0405 45.8663 43.08 46.541 42.9341C50.1498 42.1193 49.3499 39.4229 52.4335 39.4229C55.5171 39.4229 56.024 40.572 56.024 43.1651C56.024 45.7582 52.0824 49.3485 51.4932 49.3485C50.9039 49.3485 50.4856 48.6584 50.4856 48.1993C50.4856 47.7403 50.5498 47.8649 50.968 47.6977C52.98 46.9013 54.1341 45.0651 54.1341 44.1227C54.1341 43.1803 54.0303 43.7062 53.7555 43.7062C53.4807 43.7062 51.8717 47.1718 50.1712 47.1718C48.4706 47.1718 47.7989 46.1078 47.7989 45.6062C47.7989 44.7702 51.2001 43.2259 51.2001 42.0525C51.2001 40.879 50.9924 41.5934 50.8215 41.5934M53.0869 40.3014C52.7938 40.3014 52.4793 40.5325 52.4793 41.0979C52.4793 41.6633 52.9617 42.1193 53.2365 42.244C53.383 42.326 53.6151 42.4112 53.844 42.4112C54.4547 42.4112 54.937 42.244 54.937 41.7424C54.937 41.2408 53.9936 40.3014 53.0899 40.3014M13.8912 16.1061C13.8912 16.5681 14.2667 16.9421 14.7308 16.9421C15.1949 16.9421 15.5674 16.5651 15.5674 16.1061C15.5674 15.647 15.1918 15.2731 14.7308 15.2701C14.2667 15.2701 13.8912 15.644 13.8912 16.1061ZM12.8012 14.2273C12.8012 14.6864 13.1768 15.0603 13.6409 15.0633C14.1019 15.0633 14.4805 14.6864 14.4805 14.2273C14.4805 13.7683 14.1019 13.3913 13.6409 13.3913C13.1798 13.3913 12.8043 13.7653 12.8012 14.2273ZM12.0441 19.9517C11.5617 20.0763 10.5542 20.663 10.5542 21.7057C10.5542 22.7485 11.1404 22.94 11.8762 22.94C12.612 22.94 12.5265 22.8579 12.6944 22.7302C12.1082 22.1648 11.8975 21.5385 11.8975 20.9123C11.8975 20.2861 11.9616 20.2009 12.0441 19.9517ZM6.90572 20.2435C6.88435 20.3469 6.88435 20.4533 6.88435 20.5566C6.88435 21.5385 7.40948 22.0827 8.09948 22.0827C8.78948 22.0827 9.23218 21.7696 9.77868 21.0795C9.52833 21.1221 9.27492 21.1433 9.02151 21.1403C8.24603 21.1403 7.40643 20.9336 6.90267 20.2435M6.16992 22.104C6.16992 23.6909 6.65231 24.4448 7.51328 24.4448C8.37426 24.4448 9.08868 23.9645 10.1573 23.0433C9.33904 23.2318 8.7101 23.3565 8.14528 23.3565C7.58045 23.3565 6.80497 23.0646 6.17297 22.104M11.6044 13.747C11.7082 13.4126 11.7937 12.9961 11.7937 12.5371C11.7937 11.5339 11.3327 10.0078 9.90691 10.0078C8.48112 10.0078 8.49943 10.6553 8.49943 11.4305C8.49943 13.0813 10.1573 13.7501 11.6075 13.7501M9.82143 19.0123C9.12837 19.0123 8.37426 18.155 8.37426 17.3829C8.37426 16.6107 8.68873 16.4435 8.92076 16.4435C9.1528 16.4435 9.04594 16.5073 9.06731 16.6533C9.19249 17.6777 9.86417 18.2614 10.4962 18.5533C10.5603 18.5958 10.6 18.6171 10.6 18.6597C10.6 18.8056 10.2 19.0153 9.82143 19.0153M11.751 16.4617C11.8945 16.6593 12.2975 16.9025 12.2975 17.0485C12.2975 17.3403 12.1296 17.7173 11.7937 17.7173C11.0579 17.7173 10.4717 16.6107 10.4717 15.9814C10.4717 15.3521 10.7038 15.5437 11.0152 15.5437C11.3266 15.5437 11.2259 15.5649 11.3297 15.6257C11.5189 15.7291 11.5189 16.1486 11.751 16.4587M6.82023 19.0549C6.78054 19.1187 6.75612 19.2008 6.75612 19.2859C6.75612 19.4744 6.96678 19.6811 7.15302 19.6811C7.33926 19.6811 7.42474 19.6385 7.51023 19.6385C8.01399 19.6385 8.57882 19.9912 9.4001 19.9912C10.2214 19.9912 10.4504 19.8453 11.1617 19.4896C12.673 18.7357 13.2592 16.8782 13.2592 16.5651C13.2592 16.252 12.9386 16.2185 12.67 15.8537C12.4043 15.4889 12.5051 15.1667 12.3341 14.9965C12.1632 14.8262 11.9372 14.8931 11.5556 14.8505C11.4029 14.8353 11.2472 14.8293 11.0946 14.8293C10.4015 14.8293 9.58023 14.9144 8.66125 15.4981C6.8416 16.6533 7.10722 18.5685 6.81718 19.0488M13.7874 18.2189C13.3264 18.76 12.844 19.6811 12.844 20.6205C12.844 21.5598 13.537 22.6877 14.6087 22.6877C15.6803 22.6877 16.12 21.8121 16.12 20.9123C16.12 19.5139 14.8407 18.5289 13.7905 18.2158M9.29629 14.2061C9.29629 14.2061 8.68567 14.6651 7.93156 14.6651C7.17744 14.6651 6.31647 13.9963 6.31647 13.0569C6.31647 12.1176 6.65231 11.7406 7.4278 11.4062C7.40643 11.5309 7.40643 11.6373 7.40643 11.7619C7.40643 12.9536 8.07811 13.8504 9.29629 14.2061ZM46.2907 21.1433C46.2907 21.6237 46.6906 22.0219 47.1669 22.0219C47.6524 22.0219 48.0462 21.6267 48.0493 21.1433C48.0493 20.663 47.6493 20.2678 47.1669 20.2678C46.6845 20.2678 46.2907 20.663 46.2907 21.1433ZM46.3548 23.7729C46.3548 24.3141 46.7944 24.7549 47.3409 24.7549C47.8874 24.7549 48.3271 24.3171 48.3271 23.7729C48.3179 23.2318 47.8691 22.8001 47.3226 22.8093C46.7914 22.8184 46.367 23.244 46.3548 23.7729ZM43.3292 25.5513C43.3292 26.3478 43.9795 26.9923 44.7794 26.9923C45.5763 26.9923 46.2296 26.3448 46.2296 25.5513C46.2296 24.7579 45.5763 24.1104 44.7794 24.1104C43.9795 24.1104 43.3322 24.7579 43.3292 25.5513ZM44.1077 22.6056C44.1077 23.0677 44.4832 23.4416 44.9473 23.4416C45.4114 23.4416 45.7869 23.0677 45.7869 22.6056C45.7869 22.1435 45.4114 21.7726 44.9473 21.7696C44.4832 21.7696 44.1077 22.1435 44.1077 22.6056ZM41.3599 24.2776C41.3599 24.7366 41.7355 25.1105 42.1965 25.1136C42.6605 25.1136 43.0361 24.7397 43.0361 24.2776C43.0361 23.8155 42.6575 23.4416 42.1934 23.4416C41.7324 23.4446 41.3599 23.8185 41.3569 24.2776M43.5185 19.3893C43.5185 20.1189 44.126 20.7238 44.8618 20.7238C45.5976 20.7238 46.2052 20.1189 46.2052 19.3893C46.2052 18.6597 45.5976 18.0517 44.8618 18.0517C44.126 18.0517 43.5185 18.6566 43.5185 19.3893ZM45.0939 16.8174C45.0939 17.2552 45.4511 17.6109 45.8907 17.6109C46.3304 17.623 46.6998 17.2795 46.712 16.8387C46.7242 16.4009 46.3792 16.0331 45.9365 16.0209C45.9213 16.0209 45.906 16.0209 45.8907 16.0209C45.4511 16.0209 45.0939 16.3766 45.0939 16.8144M41.2989 18.8238C41.2989 19.2616 41.653 19.6173 42.0927 19.6173C42.5323 19.6173 42.8895 19.2616 42.8895 18.8238C42.8895 18.3861 42.5323 18.0304 42.0927 18.0304C41.653 18.0304 41.2989 18.3861 41.2989 18.8238ZM41.192 21.5385C41.1859 22.2377 41.7538 22.8093 42.456 22.8123C42.459 22.8123 42.4651 22.8123 42.4682 22.8123C43.1704 22.8184 43.7444 22.2529 43.7505 21.5537C43.7505 21.5477 43.7505 21.5416 43.7505 21.5385C43.7505 20.8302 43.1826 20.2648 42.4682 20.2648C41.766 20.2648 41.1951 20.8272 41.192 21.5264C41.192 21.5294 41.192 21.5355 41.192 21.5385ZM38.548 22.8761C38.548 23.5237 39.0945 24.0648 39.7448 24.0648C40.3951 24.0648 40.9417 23.5237 40.9417 22.8761C40.9417 22.2286 40.3951 21.6845 39.7448 21.6845C39.0945 21.6845 38.548 22.2286 38.548 22.8761ZM39.2594 19.9304C39.2594 20.3894 39.6349 20.7633 40.099 20.7664C40.5631 20.7664 40.9417 20.3894 40.9417 19.9304C40.9417 19.4713 40.5631 19.0944 40.099 19.0944C39.638 19.0944 39.2624 19.4683 39.2594 19.9304ZM46.6265 26.3661C46.6265 25.9496 47.0051 25.5939 47.4203 25.5939C47.8355 25.5939 48.2386 25.9496 48.2386 26.3661C48.2386 26.7825 47.8813 27.1808 47.4203 27.1808C46.9593 27.1808 46.6265 26.8464 46.6265 26.3661ZM47.1669 50.3942C47.2707 50.3942 47.399 50.455 47.399 50.832C47.399 51.2089 47.1883 51.896 46.4372 52.3763C45.9121 52.732 45.1977 53.0238 44.1474 53.0421C44.3153 52.5405 44.4405 52.0176 44.4405 51.519C44.4405 51.0205 44.4191 51.2272 44.3978 51.0387H44.6725C46.3304 51.0387 47.0448 50.3912 47.1669 50.3912M47.3348 48.324C47.5058 48.1811 47.5455 47.947 47.5455 47.719V47.2387C47.5455 46.6337 46.6265 46.2781 45.3656 46.2781C44.1047 46.2781 43.0147 46.9651 43.0147 47.26V48.2237C43.0147 48.6219 43.9398 49.0171 45.0725 49.0171C46.2052 49.0171 46.7944 48.7891 47.3379 48.327M48.4278 48.555C47.8813 48.9745 46.6051 49.9109 44.4832 49.9109C42.3613 49.9109 42.8437 49.5552 42.6758 49.5552C42.5079 49.5552 42.2362 49.7649 42.0041 50.0355C41.5065 50.6222 40.8531 51.7075 40.8531 52.8961C40.8531 54.0848 41.5034 54.5651 42.7155 54.5651C46.6418 54.5651 49.5789 52.1209 49.5789 50.1389C49.5789 48.1568 48.9072 48.552 48.4248 48.552M49.1636 30.9838C49.1636 31.5067 49.3316 32.1117 49.8567 32.1117C50.3818 32.1117 50.6749 31.4429 50.6749 30.7133C50.6749 29.9837 50.5284 29.2297 50.5284 28.8953C50.5284 28.5609 50.5925 28.6886 50.6749 28.6886C50.9894 28.7099 51.2855 29.5641 51.6214 29.5641C51.9572 29.5641 52.5617 28.8741 52.7938 28.8741C53.0258 28.8741 52.8762 28.9561 52.8762 28.9774C52.8762 29.2905 52.3938 29.9806 52.3938 30.2512C52.3938 30.5217 53.612 30.5217 53.612 30.7315C53.612 31.0446 52.3358 31.0446 51.7282 31.3182C51.139 31.5675 50.7818 31.8837 50.7818 32.3001C50.7818 32.7166 51.2001 32.8017 51.7893 32.8017C53.1907 32.8017 54.1768 32.0509 54.4913 32.0509C54.8058 32.0509 54.5951 32.0934 54.5951 32.1573C54.5951 32.367 53.8807 33.0541 53.8807 33.3672C53.8807 33.6803 55.1844 34.1393 55.163 34.3491C55.1416 34.4129 55.0561 34.4312 54.9096 34.4312C54.6775 34.4312 54.3203 34.3704 54.0486 34.3704C53.7769 34.3704 53.7341 34.3917 53.67 34.4737C53.5265 34.6409 53.7128 35.7475 53.4197 35.7475C53.1266 35.7475 52.4305 33.2821 50.8184 33.2821C49.2064 33.2821 50.4185 33.4705 50.4185 33.7837C50.4185 34.6197 51.2367 35.5803 52.0152 36.0393C52.3663 36.2673 52.9556 36.4984 52.9556 36.6261C52.9556 36.8753 51.6153 36.6473 51.6153 37.0638C51.6153 37.4803 51.7832 38.0062 51.7832 38.3376C51.7832 38.6689 51.7618 38.5656 51.6367 38.5656C51.3863 38.5656 50.7757 37.4165 50.4826 37.4165C50.1895 37.4165 49.6857 38.1065 49.4537 38.1065C49.2217 38.1065 49.3499 38.0427 49.3499 37.9819C49.3499 37.5016 50.1254 36.4133 50.1254 35.3493C50.1254 34.2853 50.0613 33.7624 49.4537 33.7624C48.8461 33.7624 48.382 34.5558 48.1317 35.3493C47.9851 35.8083 48.089 37.5837 47.7531 37.5837C47.4173 37.5837 47.5211 36.392 47.0997 36.392C46.6784 36.392 46.1197 36.9574 45.8877 36.9574C45.6556 36.9574 45.8052 36.9361 45.8052 36.8936C45.8052 36.6443 46.4128 35.8296 46.4128 35.6624C46.4128 35.3493 45.0267 35.3097 45.0267 35.0574C45.0267 34.8051 45.5732 34.8051 46.077 34.723C47.1455 34.5345 48.7179 33.7624 48.7179 32.6771C48.7179 31.5918 47.5394 30.9413 46.77 30.4397C46.3701 30.1904 45.9304 29.9806 45.9304 29.8134C45.9304 29.6462 46.4342 29.6462 46.6448 29.6462C46.9593 29.6462 47.2707 29.6249 47.2707 29.3757C47.2707 29.1264 47.228 28.8102 47.228 28.5184C47.228 28.2265 47.2494 28.1414 47.3348 28.1414C47.6493 28.1414 48.089 29.1659 48.2996 29.1659C48.6355 29.1659 49.0965 28.3299 49.414 28.3299C49.7315 28.3299 49.5605 28.3937 49.5605 28.5822C49.5605 29.3544 49.1606 30.2329 49.1606 30.9838M39.1556 24.8613C39.3876 26.6366 41.7813 25.7398 41.7813 27.8891C41.7813 30.0384 41.6988 28.6643 41.6988 29.0595C41.6988 29.4547 41.7416 29.9168 42.0927 29.9168C42.4438 29.9168 42.5323 29.6645 42.5323 29.3301C42.5323 28.9957 42.4468 28.5761 42.4468 28.3481C42.4468 27.6155 42.972 27.4483 43.2864 27.4483C44.0863 27.4483 44.6939 28.263 45.8907 28.263C45.619 29.6006 42.8437 29.2449 42.8437 30.7072C42.8437 32.1694 43.5795 31.604 44.0619 31.604C44.5443 31.604 44.6512 31.5401 44.6512 31.1662C44.6512 30.7923 44.6084 30.7285 44.6084 30.5795C44.6084 30.4883 44.6817 30.4123 44.7733 30.4123C44.7733 30.4123 44.7763 30.4123 44.7794 30.4123C45.2404 30.4123 47.5058 32.1269 47.5058 32.6497C47.5058 33.1726 45.1152 33.6104 44.4222 33.6104C43.7291 33.6104 44.1688 33.4645 44.1688 33.3824C44.1688 33.2365 44.526 32.7957 44.526 32.5464C44.526 32.2971 44.2115 32.2333 43.3719 32.2333C42.5323 32.2333 42.6789 32.2758 42.6789 32.5889C42.6789 33.1513 43.604 33.8414 43.604 34.3643C43.604 34.8872 43.3505 35.0331 42.6789 35.0331C42.0072 35.0331 41.2561 34.5953 41.2561 33.8627C41.2561 33.1301 41.8606 32.6923 41.8606 32.3397C41.8606 31.987 41.7812 32.0661 41.5278 32.0661C40.7493 32.0661 40.5417 34.112 37.7909 34.343C38.2336 33.9478 38.6091 33.507 38.6091 32.6102C38.6091 31.7134 38.5053 31.8137 38.5053 31.3365C38.5053 30.8592 38.7984 30.3971 39.2197 30.3971C39.9952 30.3971 40.3738 31.4824 40.8775 31.4824C41.3813 31.4824 41.4454 31.2331 41.4454 30.8561C41.4454 29.2693 38.3801 29.4973 38.3801 27.2629C38.3801 25.0285 38.5877 25.904 39.1556 24.8613Z" fill="white"/>
<path d="M43.1406 38.4407C43.1406 38.7325 43.3513 38.9636 43.6443 38.9636C43.9374 38.9636 44.1909 38.6687 44.1909 38.3343C44.1909 37.9999 43.7909 37.2885 43.4123 37.2885C43.0337 37.2885 43.3085 37.5408 43.2658 37.8114C43.2444 38.0181 43.1406 38.2704 43.1406 38.4376M42.0506 35.6621C44.255 36.0786 45.4518 37.7293 45.4518 39.2767C45.4518 40.824 44.7801 41.3226 43.6047 41.3226C42.4292 41.3226 41.7606 40.593 41.7606 39.4226C41.7606 38.2522 42.4475 37.626 42.4475 36.7292C42.4475 35.8324 42.3437 36.0178 42.0506 35.6652M39.2601 39.2159C39.4677 39.4226 39.5318 39.6324 39.5318 39.8421C39.5318 40.1552 39.3853 40.4896 39.3853 40.8453C39.3853 41.201 39.7639 41.7847 40.3073 41.7847C40.8508 41.7847 41.2965 41.3226 41.2965 40.7845C41.2965 39.9911 40.4752 39.2159 39.2601 39.2159ZM46.209 37.8783C46.3555 38.1063 46.4196 38.3373 46.4196 38.544C46.4196 39.1308 46.0197 39.6719 46.0197 40.2799C46.0197 40.8879 46.5448 41.5324 47.3386 41.5324C48.1324 41.5324 48.7888 40.8423 48.7888 40.0276C48.7888 39.2128 47.7813 37.9816 46.209 37.8752M39.7639 36.7687C40.7286 36.8933 40.9607 37.2277 40.9607 37.5013C40.9607 37.9604 40.5393 38.1063 40.1394 38.1063C39.7394 38.1063 39.5105 38.0455 39.1532 38.0455C38.796 38.0455 38.2312 38.1488 37.8526 38.5896C38.1243 38.6322 38.5243 38.8176 38.5243 39.2372C38.5243 40.4471 35.1445 39.4439 35.1445 42.5599C35.1445 45.6759 36.8665 46.0072 39.4677 46.0072C42.0689 46.0072 41.672 45.5695 41.672 45.0648C41.672 44.5602 40.9576 44.9402 40.9576 44.6058C40.9576 44.2714 41.208 44.1863 41.208 43.9583C41.208 43.7303 41.1255 43.6664 40.9576 43.6664C40.579 43.6664 39.8646 44.2714 38.4174 44.2714C36.9703 44.2714 36.1734 43.6239 36.1734 42.7484C36.1734 41.8728 36.2559 42.4565 36.3841 42.4565C36.5123 42.4565 36.6772 42.5416 36.8237 42.5416C36.9703 42.5416 36.9703 42.4565 36.9703 42.2285C36.9703 42.0005 36.9703 41.35 37.3672 41.35C37.7641 41.35 38.5212 42.8122 41.4186 42.8122C44.316 42.8122 44.2489 42.6237 44.9419 41.9975C44.9205 44.2957 43.1131 47.3236 39.3395 47.3236C35.5659 47.3236 33.3157 44.1893 33.3157 41.3074C33.3157 38.4255 35.9383 35.2092 39.5288 35.2092C43.1192 35.2092 41.2293 35.5223 41.2293 35.9175C41.2293 36.3127 39.8646 36.1272 39.7608 36.7748M26.1898 12.9108C27.5759 12.9108 28.2018 14.1024 28.2018 15.44C28.2018 16.7776 28.0339 16.881 27.7621 16.881C27.4904 16.881 27.5301 16.4007 27.4904 15.9599C27.4477 15.3975 27.3439 15.2698 27.1546 15.2698C26.7974 15.2698 26.5684 16.1058 26.5684 16.878C26.5684 17.6501 26.6508 17.9024 27.0294 17.9024C27.408 17.9024 27.4293 17.7991 27.5545 17.6714C27.4721 18.632 26.7577 19.468 25.7501 19.468C23.903 19.468 23.21 17.3157 23.0024 16.0602C21.891 17.2306 20.8621 18.0879 19.015 18.0879C17.1679 18.0879 16.5176 16.8354 16.5176 15.6437C16.5176 14.452 16.6428 14.37 17.0855 14.37C17.5282 14.37 17.1496 16.0815 18.1754 16.0815C19.2013 16.0815 18.8898 15.8717 19.1402 15.1847C19.2867 14.7652 19.3722 14.3274 19.3722 13.9504C19.3722 13.385 19.247 13.0324 18.8257 13.0324C18.4044 13.0324 18.0258 13.3029 17.8793 13.4488C18.383 11.944 19.6012 11.1719 20.9415 11.1719C22.2818 11.1719 23.4817 12.6341 23.4817 14.2636C23.4817 15.893 23.4603 14.7439 23.4176 14.9749C24.132 13.8045 25.1182 12.9077 26.1867 12.9077M24.5716 15.3762C24.5716 15.0205 24.4892 14.9384 24.4037 14.9384C24.1931 14.9384 23.9641 15.1908 23.6282 15.7532C23.671 16.5071 23.7962 16.8384 24.0068 16.8384C24.2175 16.8384 24.5716 16.1058 24.5716 15.3762ZM21.6987 16.2335C21.9277 16.2335 22.2238 15.9812 22.7703 15.3762C22.8131 15.1056 22.8131 14.8533 22.8131 14.5402C22.8131 14.2271 22.6451 13.6616 22.3948 13.6616C21.7628 13.6616 21.4483 15.3336 21.4483 15.7744C21.4483 16.2152 21.5735 16.2335 21.6987 16.2335ZM25.1182 18.094C25.6433 18.094 26.2295 16.0876 26.2295 14.8351C26.2295 13.5826 26.1867 14.2727 26.0616 14.2727C25.6219 14.2727 24.8861 16.3399 24.8861 17.4677C24.8861 18.5956 24.993 18.094 25.1182 18.094ZM19.9767 16.9448C20.6912 16.9448 21.5063 13.0992 21.5063 12.4517C21.5063 11.8042 21.4453 12.1568 21.2987 12.1568C20.6484 12.1568 19.7447 15.814 19.7447 16.6287C19.7447 17.4434 19.7874 16.9418 19.9767 16.9418" fill="white"/>
<path d="M22.2627 18.5319C21.359 18.5319 21.3193 19.6203 21.3193 21.8121C20.6476 20.3711 19.5363 18.8238 18.2357 18.8238C16.9351 18.8238 17.0206 19.4105 17.0206 20.4319C17.0206 21.4534 17.0419 20.9548 17.0847 21.1433C17.1885 20.7907 17.5243 20.6417 17.9456 20.6417C18.8494 20.6417 19.9393 21.3318 20.6537 22.2711C19.8355 22.1252 19.0387 21.9793 18.367 21.9793C17.6953 21.9793 17.5701 22.0219 17.2556 22.1678C16.6481 22.4383 15.8298 23.3382 15.8298 24.694C15.8298 26.0499 15.8512 25.1318 15.894 25.3841C16.6267 23.7547 18.5807 23.022 19.8386 23.022C21.0964 23.022 20.2782 23.0433 20.4248 23.0646C19.7744 23.6483 19.6279 24.6727 19.5852 25.3628C19.5638 25.6972 19.4386 25.7185 19.2066 25.7185C19.2066 26.4086 19.7531 27.4331 19.7531 27.9529C19.7531 28.4727 19.6462 28.3086 19.5424 28.3511C19.5424 29.2692 20.4644 29.938 20.4644 30.5247C20.4644 31.1115 20.4217 30.7953 20.3576 30.8591C20.4217 31.2361 21.4353 31.8684 21.5666 32.1846C21.7284 32.5707 21.9086 32.6345 22.0154 32.6345C22.3726 32.6345 22.9375 32.215 22.9375 31.8411C22.9375 31.4671 22.8337 31.5705 22.7512 31.5067C22.3513 31.2148 22.1406 30.5886 21.9727 30.1691C21.8261 30.1691 21.6338 30.1083 21.5697 29.862C21.4537 29.4303 21.4506 28.6247 21.2796 28.1414C21.0079 28.0806 20.8797 27.9742 20.8797 27.4118C20.8797 26.8494 21.0476 26.0742 21.0476 25.6972C20.9224 25.6972 20.7545 25.6151 20.7545 25.3628C20.7545 24.694 21.4262 24.1711 21.6155 23.3169C22.8123 24.1924 23.1054 25.0923 23.1054 25.8857C23.1054 26.6791 23.0413 26.7004 22.9588 27.0774C23.8412 26.6396 25.1632 25.9921 25.1632 24.6758C25.1632 23.3595 24.806 23.0463 22.4368 22.7119C23.1695 22.4414 24.0946 22.2955 24.8701 22.2955C26.2134 22.2955 26.9889 22.7119 27.1568 23.6513C27.4286 23.2348 27.6392 22.7515 27.6392 22.3167C27.6392 21.2923 26.7783 20.6235 25.6852 20.6235C24.5922 20.6235 23.2733 21.2923 22.0551 22.107C22.6016 20.9791 22.9771 20.3103 23.6488 20.3103C24.3205 20.3103 23.8595 20.3316 23.9633 20.3529C23.7099 19.4348 22.7665 18.535 22.2627 18.535M57.6176 33.5951C58.6679 33.5951 59.5075 34.954 59.5075 36.5409C59.5075 38.1278 58.7106 40.0703 57.2879 41.3228C57.2665 38.5047 53.8012 39.4015 53.8012 37.3556C53.8012 35.3097 54.4332 35.8934 55.1873 35.8934C55.9414 35.8934 56.3841 36.0819 56.7627 36.4588C56.3841 36.1031 56.1949 35.6015 56.1949 35.1212C56.1949 34.3247 56.6986 33.5951 57.6207 33.5951M42.0499 12.2209C41.8819 11.9503 41.256 11.8044 40.9629 11.8044C40.0379 11.8044 39.4089 12.4519 39.2837 13.0387C39.2013 12.8289 39.1372 12.5796 39.1372 12.3273C39.1372 11.4092 39.7661 10.2814 41.3018 10.2814C42.8376 10.2814 43.1642 10.9927 43.3566 10.9927C43.5489 10.9927 43.7749 10.783 43.9458 10.783C44.1168 10.783 44.1779 11.1387 44.1779 11.391C44.1779 12.2239 43.7993 13.6679 42.8559 14.1908C42.6879 13.8351 42.3521 13.4399 41.8087 13.1876C41.6804 13.1359 41.5949 13.0113 41.598 12.8745C41.598 12.6465 41.8087 12.3516 42.056 12.227M38.8807 13.747C39.4272 14.2699 39.9096 14.5009 40.4958 14.5009C41.082 14.5009 41.0026 14.4401 41.1492 14.4401C41.2957 14.4401 41.4637 14.5222 41.4637 14.6681C41.4637 14.8991 41.253 15.2731 41.0026 15.4828C41.256 15.5862 41.5278 15.6287 41.8209 15.6287C43.0116 15.6287 44.3794 14.8748 44.3794 12.9961C44.6328 13.3305 44.7793 14.0206 44.7793 14.3337C44.7793 16.6107 43.1001 17.4892 41.5491 17.4892C39.9982 17.4892 40.0348 17.1548 39.9096 17.1548C39.5127 17.1548 39.5341 17.9483 39.2593 17.93C38.7769 17.8479 38.3373 16.7809 38.3373 15.6531C38.3373 14.5252 38.5052 14.2729 38.8807 13.75M20.9194 0.459134C20.9194 0.334494 20.2904 0.206814 19.4295 0.206814C18.0647 0.206814 18.254 1.33465 17.2068 1.33465C16.1596 1.33465 16.3886 0.164254 15.0025 0.164254C13.6164 0.164254 13.3874 0.310174 13.3874 0.498654C13.3874 0.687134 14.3735 0.644574 14.3735 1.33465C14.3735 2.02473 12.2547 2.27401 12.2547 2.71481C12.2547 3.15561 12.4226 2.92153 12.6302 2.92153C13.0912 2.92153 13.827 2.71481 14.3521 2.71481C14.8773 2.71481 14.92 2.77561 14.92 3.04921C14.92 3.57209 13.7873 4.51145 13.7873 4.93097C13.7873 5.35049 13.8911 5.09817 13.998 5.09817C14.4163 5.09817 15.1307 4.03113 15.8024 4.03113C16.9137 4.03113 16.181 6.39322 16.7885 6.39322C17.3961 6.39322 17.1457 4.07369 18.0464 4.07369C18.9471 4.07369 19.3256 5.68185 19.8294 5.68185C20.3332 5.68185 20.0614 5.5785 20.0614 5.42953C20.0614 4.99178 19.4325 4.09193 19.4325 3.50825C19.4325 2.92457 19.6859 2.98537 20.0217 2.98537C20.5041 2.98537 21.1544 3.27721 21.5086 3.27721C21.8628 3.27721 21.762 3.23465 21.762 3.08873C21.762 2.58713 19.8966 2.04297 19.8966 1.39545C19.8966 0.747934 20.9255 0.747934 20.9255 0.456094M25.8532 2.59017C25.8532 2.96713 27.1752 3.78185 27.7827 3.78185C28.3903 3.78185 28.2437 3.30153 28.2437 2.79993C28.2437 2.29833 27.972 2.15241 27.4255 2.15241C26.879 2.15241 25.8532 2.34089 25.8532 2.59017ZM28.0361 6.72761C28.0361 5.47513 24.6319 3.19817 24.5953 2.21625C24.5922 2.12809 24.6411 2.03689 24.7174 1.95785C25.3006 1.34681 27.7217 0.899934 27.7217 0.377054C27.7217 -0.145826 27.2179 0.106494 26.9645 0.106494C25.0136 0.106494 22.1589 0.817854 22.1589 1.50489C22.1589 2.19193 24.7174 3.94905 24.7174 4.80633C24.7174 5.66361 24.5709 5.11945 24.3388 5.11945C23.6275 5.11945 22.0734 4.26217 21.3376 4.26217C20.6018 4.26217 20.8766 4.49321 20.8766 4.82761C20.8766 5.83081 22.0734 7.73082 22.0734 8.29626C22.0734 8.8617 22.0521 8.44218 21.9696 8.44218C21.591 8.44218 19.808 6.35369 19.1791 6.35369C18.5502 6.35369 18.9287 6.66681 18.9287 7.12585V7.83721C18.9287 8.31754 18.9074 8.60938 18.6784 8.60938C18.1319 8.60938 17.8785 7.08329 17.3564 7.08329C16.8343 7.08329 16.7061 9.79802 16.181 9.79802C15.6558 9.79802 16.0985 6.80969 15.5093 6.80969C14.92 6.80969 14.1232 8.79482 13.6621 8.79482C13.2011 8.79482 13.4545 8.62762 13.4545 8.4817C13.4545 7.87674 13.8087 6.89481 13.8087 6.31113C13.8087 5.72746 13.7263 5.85209 13.4729 5.85209C12.8225 5.85209 11.3937 6.89785 10.8502 6.89785C10.3068 6.89785 10.661 6.8553 10.661 6.77321C10.661 6.27162 12.9477 4.68473 12.9477 3.97337C12.9477 3.26201 9.79998 3.74233 9.79998 2.94889C9.79998 2.15545 12.0471 1.59001 12.0471 0.902974C12.0471 0.294974 9.38171 0.0244141 8.35281 0.0244141C7.32392 0.0244141 6.44463 0.170334 6.44463 0.526014C6.44463 1.07017 9.25653 1.23737 9.25653 1.71769C9.25653 2.19801 6.34082 3.41097 6.34082 4.11929C6.34082 4.82761 10.4533 4.16185 10.4533 4.80937C10.4533 5.45689 6.86595 8.59114 6.86595 9.61258C6.86595 10.634 7.03387 9.94698 7.26286 9.94698C8.35586 9.94698 11.1861 7.87978 11.9616 7.87978C12.7371 7.87978 12.2547 8.21418 12.2547 8.50601C12.2547 9.05018 12.0654 9.88618 12.0654 10.4911C12.0654 11.0961 12.1906 11.3059 12.6119 11.3059C13.3904 11.3059 14.1018 9.98954 14.6269 9.98954C15.1521 9.98954 14.9017 13.8534 15.9062 13.8534C16.9106 13.8534 17.1213 9.67338 17.6678 9.67338C18.2143 9.67338 18.657 10.8863 19.1577 10.8863C19.6584 10.8863 19.4936 8.77658 20.1652 8.77658C20.8369 8.77658 22.9955 11.2846 23.9419 11.2846C24.8884 11.2846 24.3388 11.0535 24.3388 10.7617C24.3388 9.65514 22.7879 7.15018 22.7879 6.35369C22.7879 5.55721 22.8489 6.08314 23.081 6.08314C23.8992 6.08314 26.2928 7.21097 27.4255 7.21097C28.5582 7.21097 28.0361 7.00121 28.0361 6.73065M8.87794 5.51465C8.87794 5.93113 7.28423 7.33257 6.7194 7.33257C6.15458 7.33257 6.44768 7.08329 6.44768 6.85225C6.44768 6.43577 6.63697 5.84905 6.86901 5.66057C7.14073 5.40825 7.76967 5.28665 8.25206 5.28665C8.73445 5.28665 8.881 5.34745 8.881 5.51465M24.2991 7.66698C24.2991 8.39657 26.9218 11.9716 27.4255 11.9716C27.9293 11.9716 28.1583 11.242 28.1583 10.6127C28.1583 9.98346 28.1155 10.2814 28.0331 10.1537C27.6545 9.63082 24.9891 7.54234 24.4029 7.54234C23.8167 7.54234 24.2961 7.60617 24.2961 7.66698M57.9962 1.33769C57.9962 1.62953 58.2282 1.85753 58.5213 1.85753C58.8083 1.86057 59.0434 1.63257 59.0464 1.34681C59.0464 1.34681 59.0464 1.34073 59.0464 1.33769C59.0464 1.04281 58.8144 0.814814 58.5213 0.814814C58.2343 0.811774 57.9992 1.03977 57.9962 1.32553C57.9962 1.32857 57.9962 1.33161 57.9962 1.33769ZM54.5767 5.95545C54.5767 4.47193 51.0137 4.09497 51.0137 3.76057C51.0137 3.42617 53.0044 3.02793 54.0333 3.00665C52.4609 1.00329 50.2169 1.21001 50.2169 0.854334C50.2169 0.498654 51.8961 0.228094 53.4471 0.228094C54.998 0.228094 55.9659 0.519934 55.9659 1.50185C55.9659 2.48377 55.5262 2.61145 55.5262 3.44745C55.5262 4.28345 55.7552 4.30473 56.3658 4.30473C56.9764 4.30473 57.1627 3.61465 57.1627 2.88201C57.1627 2.14937 57.0558 1.81801 57.0558 1.52313C57.0558 0.644574 57.6603 0.0608941 58.5213 0.0608941C59.3823 0.0608941 59.4037 0.374014 60.4539 0.374014C59.886 0.708414 59.6784 1.31641 59.6784 1.60825C59.6784 2.48681 60.2463 3.09177 60.2463 4.88841C60.2463 8.18682 57.1413 9.35721 53.3433 9.35721C49.5452 9.35721 51.1847 9.27514 50.0917 9.10794C49.9238 9.08666 49.8811 9.0441 49.8811 8.94074C49.8811 8.66714 51.371 8.52122 51.371 7.18665C51.371 5.85209 51.203 6.16217 51.203 5.97369C51.203 5.78521 51.2855 5.80649 51.371 5.80649C51.6854 5.80649 52.3174 7.01642 53.4868 7.01642C54.6561 7.01642 54.5767 6.91305 54.5767 5.95241M58.1214 3.84569C58.1214 5.70313 56.7627 7.12585 54.3019 7.52105C54.5767 7.54234 54.8271 7.54234 55.0805 7.54234C57.9534 7.54234 59.0037 6.24729 59.0037 5.16201C59.0037 4.07673 58.6679 4.01289 58.1214 3.84569ZM56.6772 30.774C57.0131 29.7283 57.4344 28.9987 58.1214 27.8708C57.4344 27.5182 55.6056 26.7643 55.6056 25.53C55.6056 24.2958 57.41 22.9612 57.7855 22.9612C58.161 22.9612 57.9962 23.1071 57.9962 23.3777C57.9962 24.1286 57.639 25.3415 57.639 25.9891C57.639 26.6366 58.0176 27.1382 58.3534 27.1382C58.6892 27.1382 59.6968 25.8857 59.6968 24.6515C59.6968 22.4353 57.7428 21.7665 57.1383 21.7665C56.5337 21.7665 55.5415 22.6846 53.1265 22.6846C48.6171 22.6846 47.5882 18.2371 47.5882 16.2915C47.5882 14.3459 47.6095 16.1881 47.6309 16.1881C47.7347 16.1881 48.1774 16.7323 49.6032 16.7323C51.029 16.7323 51.0107 16.5438 52.0823 16.5438C54.595 16.5438 55.7094 18.2796 57.2634 20.4927C58.2038 21.0764 60.4509 22.0188 60.4509 24.6727C60.4509 27.3267 57.9504 28.3086 57.3459 30.8135C58.3076 30.7102 58.8755 28.9956 59.8616 28.9956C60.8478 28.9956 60.5974 29.3939 60.5974 30.0201C60.5974 30.9382 60.0723 32.3183 59.0648 33.1756C59.0861 33.0905 59.0861 32.9871 59.0861 32.8625C59.0861 32.2788 58.8572 31.4428 58.1824 31.4428C57.1383 31.4428 56.7994 32.5707 56.2132 33.51C55.6056 31.379 54.7843 29.4577 53.3158 28.2873C51.8289 27.0956 49.2674 27.7431 49.2674 25.5726C49.2674 23.402 49.646 24.1529 49.646 23.4841C49.646 22.8153 49.6032 23.0463 49.478 22.8791C51.4931 23.6331 50.7787 24.9676 52.0182 26.3478C52.7906 27.2263 54.9309 28.0623 56.1704 31.6769C56.1918 31.5735 56.2132 31.2999 56.2132 31.1115C56.2132 28.0198 52.1037 24.9889 51.7465 23.7364C54.134 24.007 54.5553 24.5937 55.688 27.7279C55.9201 28.3755 56.6742 29.9836 56.6742 30.7771M56.1307 20.6417C56.1307 20.2039 55.0164 20.1614 54.9126 18.9302C54.8912 18.7417 54.8301 18.4073 54.5981 18.4073C54.2195 18.4073 54.5126 19.5564 54.0943 19.5564C53.1295 19.5564 52.8151 17.6747 52.4579 17.6747C52.1006 17.6747 52.2747 17.7385 52.2747 17.9878C52.2747 18.2371 52.3174 18.3647 52.3174 18.6353C52.3174 18.9059 52.2533 19.0943 52.003 19.0943C51.4351 19.0943 50.9313 17.778 50.4489 17.778C49.9665 17.778 50.2383 17.8419 50.2383 17.9452C50.2383 18.1975 50.6565 18.6566 50.6565 18.8846C50.6565 19.3862 49.2918 19.1126 49.2918 19.5321C49.2918 19.9516 49.4811 19.7814 49.7314 19.7814C50.1711 19.7814 50.8672 19.5929 51.2214 19.5929C51.5755 19.5929 51.7465 19.6355 51.7465 19.906C51.7465 20.1766 50.9893 20.5748 50.9893 20.8454C50.9893 21.1159 51.1145 21.0339 51.2214 21.0339C51.7892 21.0339 52.7906 20.0519 53.5051 20.0519C54.2195 20.0519 53.9447 20.1158 53.9447 20.3043C53.9447 20.5748 53.2333 21.0551 53.2333 21.4534C53.2333 21.8516 53.2975 21.6844 53.4226 21.6844C53.7982 21.6844 54.3019 20.7025 55.0164 20.7025C55.7308 20.7025 55.688 20.8089 55.8987 20.8089C56.1094 20.8089 56.1307 20.7025 56.1307 20.6417Z" fill="white"/>
<path d="M40.4995 8.12592C40.8354 8.12592 40.8995 8.94064 40.9636 9.42096C41.0063 9.67328 41.046 9.69152 41.1529 9.69152C41.4063 9.69152 41.8032 8.73088 42.0719 8.73088C42.4688 8.73088 43.5404 9.83744 45.3265 9.83744C47.8636 9.83744 50.2572 8.06208 50.2572 4.92784C50.2572 1.7936 48.1139 0.12464 45.1555 0.12464C42.197 0.12464 42.7191 0.81472 42.1726 0.81472C41.8429 0.836 41.3391 0 41.0888 0C40.8384 0 40.8781 0.20672 40.8781 0.5624C40.8781 0.91808 40.8781 1.52304 40.6247 1.52304C40.1179 1.52304 38.17 0.08208 38.17 0.60496C38.17 1.12784 39.4706 2.54752 39.4706 2.92448C39.4706 3.30144 38.1914 3.65712 38.1914 3.9064C38.1914 4.36544 39.5561 4.44752 39.5561 5.03424C39.5561 5.62096 38.1273 6.08 38.1273 6.51776C38.1273 6.95552 39.5561 6.62112 39.5561 7.05888C39.5561 7.49664 38.5058 8.95888 38.5058 9.37536C38.5058 9.79184 38.5272 9.48176 38.6097 9.48176C39.0066 9.48176 40.2034 8.12288 40.4965 8.12288M41.1101 4.69984C41.1101 4.4688 40.2889 4.03104 40.2889 3.78176C40.2889 3.53248 40.3316 3.71792 40.3957 3.71792C40.6278 3.71792 41.0247 3.80304 41.3422 3.80304C41.6597 3.80304 41.6566 2.63264 41.8643 2.63264C42.0719 2.63264 42.2612 3.7392 42.4962 3.7392C42.7313 3.7392 43.2717 3.42608 43.4824 3.42608C43.6931 3.42608 43.5648 3.44736 43.5648 3.48992C43.5648 3.63584 43.0397 4.19824 43.0397 4.36544C43.0397 4.53264 44.2151 4.78192 44.2151 4.95216C44.2151 5.1224 43.0183 5.14064 43.0183 5.32912C43.0183 5.5176 43.458 6.05872 43.458 6.2472C43.458 6.43568 43.4366 6.31104 43.3939 6.31104C43.2259 6.31104 42.5756 6.01616 42.3863 6.01616C42.197 6.01616 41.7818 6.87344 41.5925 6.87344C41.4032 6.87344 41.4887 6.79136 41.4887 6.68496L41.446 5.84896C41.446 5.76688 41.4063 5.68176 41.2994 5.68176C41.046 5.68176 40.5636 5.66048 40.4171 5.66048C40.2705 5.66048 40.2705 5.6392 40.2705 5.59968C40.2705 5.43248 41.1101 4.84576 41.1101 4.69984ZM45.1982 8.67008C43.7297 8.67008 42.7619 7.94048 42.7619 7.56352C42.7619 7.18656 42.887 7.2504 43.058 7.2504C43.519 7.2504 44.5266 7.95872 44.8624 7.95872C45.1982 7.95872 45.0089 7.91616 45.0089 7.79152C45.0089 7.41456 44.6517 6.78832 44.6517 6.4752C44.6517 6.16208 44.7158 6.32928 44.841 6.32928C45.4058 6.32928 46.2485 6.56032 46.6912 6.56032C47.1339 6.56032 46.8774 6.4752 46.8774 6.39312C46.8774 5.93408 45.5127 5.03424 45.5127 4.76368C45.5127 4.49312 47.2102 4.13744 47.2102 3.7392C47.2102 3.34096 44.9051 3.61152 44.9051 3.21632C44.9051 2.82112 45.3448 2.42288 45.3448 2.19184C45.3448 1.9608 45.2624 2.04592 45.1158 2.04592C44.9693 2.04592 43.919 2.44416 43.5007 2.44416C43.0824 2.44416 43.0366 2.4016 43.0366 2.10976C43.0366 1.62944 43.8549 1.10656 45.1372 1.10656C47.2133 1.10656 48.4528 2.52928 48.4528 4.9096C48.4528 7.28992 46.334 8.67008 45.2013 8.67008M30.9922 44.8126C30.9922 45.0011 30.9281 45.2109 30.7601 45.4176C30.5312 45.0011 29.8778 44.7883 29.5847 44.7914C27.4231 44.7914 28.2413 47.9043 25.9332 47.9043C23.6251 47.9043 24.8829 47.7797 24.5288 47.7797C24.1746 47.7797 24.2998 47.8435 24.2998 47.9682C24.2998 48.5123 25.0753 49.8499 27.2369 49.8499C29.3985 49.8499 31.4746 48.5336 31.4746 46.9011C31.4746 45.2686 31.4105 46.3387 31.2853 46.0469C31.3677 45.9222 31.5814 45.8371 31.7677 45.8371C32.1035 45.8371 32.2928 46.2141 32.6073 46.2141C32.9217 46.2141 33.1965 45.9618 33.1965 45.6274C33.1965 45.293 33.05 45.1683 32.7966 45.0406C32.9645 44.916 33.0897 44.7062 33.0897 44.4782C33.0897 44.1226 32.8393 43.7912 32.418 43.7912C31.9966 43.7912 32.1035 43.855 31.957 43.9979C31.9142 43.624 31.7066 43.2683 31.3066 43.2683C30.9067 43.2683 30.7601 43.4994 30.7601 43.855C30.7601 44.2107 30.9922 44.46 30.9922 44.8126Z" fill="white"/>
<path d="M25.3494 45.6093C24.7205 45.6093 23.774 44.9405 23.774 44.5636C23.774 44.1866 24.0702 44.0833 24.2992 44.0833C24.8243 44.0833 25.7677 44.7308 25.7677 45.2749C25.7677 45.8191 25.6639 45.6093 25.3494 45.6093ZM19.4936 40.9277C21.1728 41.3442 22.0124 42.241 22.1803 43.3081C22.3482 44.3295 22.5589 45.1655 22.9558 45.585C23.4809 46.1717 24.5068 46.6916 25.4105 46.6916C26.3142 46.6916 26.7722 46.4423 26.7722 45.7522C26.7722 45.0621 25.7433 43.3081 24.2351 43.3081C22.7268 43.3081 23.8992 43.3293 23.6916 43.3293C23.484 43.3293 23.2306 43.2868 23.0596 43.1409C22.7238 42.846 22.62 41.2804 21.991 40.341C21.298 39.2953 20.5439 39.0034 19.515 39.0034C18.4861 39.0034 17.9609 39.4017 17.9609 39.9853C17.9609 40.569 18.1502 40.5903 19.4936 40.9247" fill="white"/>
<path d="M30.0275 38.3801C30.0275 37.4408 28.0735 37.4195 28.0735 35.9998C28.0735 34.5801 28.3056 35.0392 28.7666 34.3917C28.9559 35.4769 29.3955 36.0424 30.342 36.3981C32.2074 37.0881 32.4608 38.1309 32.4608 39.2405C32.4608 41.1222 31.1389 43.46 27.7408 43.46C24.3427 43.46 23.0604 41.0371 23.0604 38.9881C23.0604 36.9392 23.2069 37.7965 23.5641 37.7965C23.9213 37.7965 23.9854 38.0457 24.2358 38.2981C25.1823 39.2374 26.2081 39.4897 27.698 39.4897C29.1879 39.4897 30.0275 38.9486 30.0275 38.3832M30.113 39.8819C29.3925 40.2102 29.1055 40.1525 29.1055 40.8851C29.1055 41.6177 29.0414 41.5083 29.0414 41.6968C29.0414 41.8853 29.0841 42.095 29.3772 42.095C30.1344 42.095 31.3312 40.8213 31.3312 39.7329C31.3312 38.6446 31.1633 39.3165 30.974 39.3165C30.7847 39.3165 30.6198 39.6509 30.113 39.8789M23.4176 29.3331C23.4176 27.9955 26.6081 27.2841 26.6081 25.6334C26.6081 23.9827 26.5043 24.8825 26.315 24.5269C27.4263 25.1318 28.2445 26.1593 28.2445 26.9923C28.2445 28.4333 26.7332 29.1021 26.7332 30.0019C26.7332 30.9017 28.3483 31.2118 28.3483 32.5099C28.3483 33.808 26.8157 34.8081 26.8157 36.1853C26.8157 37.5624 27.5728 38.1278 28.7269 38.2737C28.3483 38.3589 28.0125 38.4197 27.6583 38.4197C25.5395 38.4197 23.3565 36.6869 23.3565 34.6166C23.3565 32.5464 23.7962 32.6953 24.4678 32.0478C25.0571 32.5494 25.6433 32.8838 26.0188 32.8838C26.3943 32.8838 26.5012 32.7166 26.5012 32.4673C26.5012 31.6921 23.4145 30.9838 23.4145 29.3331M11.2479 39.6539C11.3365 40.3683 12.0051 40.9094 12.7592 40.8243C13.0309 40.7939 13.2843 40.7179 13.4523 40.6145C13.6202 41.2833 14.182 41.712 14.9452 41.6117C15.7177 41.5113 16.2428 40.9064 16.1604 40.1312C16.1451 39.964 16.1024 39.8029 16.0352 39.6509C16.0352 39.6509 16.139 39.6417 16.2153 39.6265C16.9725 39.4837 17.4823 38.8787 17.4213 38.1461C17.3389 37.3952 16.6611 36.8358 15.9527 36.924C15.681 36.9574 15.4276 37.0608 15.2597 37.2067C15.0704 36.5805 14.4781 36.0363 13.669 36.1701C12.9393 36.2886 12.457 36.9057 12.5302 37.687C12.5424 37.8147 12.573 37.9576 12.634 38.1035L12.4264 38.1339C11.8127 38.2251 11.1502 38.8392 11.2479 39.6509M15.1681 38.8331C15.2108 39.2709 14.8903 39.6569 14.4506 39.6995C14.0232 39.7421 13.6416 39.4381 13.5835 39.0155C13.5316 38.5808 13.8461 38.1856 14.2827 38.1339C14.7193 38.0822 15.1162 38.3953 15.1681 38.8301" fill="white"/>
</g>
<defs>
<clipPath id="clip0_3594_776">
<rect width="69" height="76" fill="white"/>
</clipPath>
</defs>
</svg>
