<svg width="127" height="47" viewBox="0 0 127 47" fill="none" xmlns="http://www.w3.org/2000/svg">
<path d="M6.59687 6.34693C6.75163 6.75144 20.5736 30.5019 20.622 30.4537C20.651 30.4152 23.7365 25.0988 27.4701 18.6363C31.2037 12.1738 34.3473 6.74181 34.4537 6.56845L34.6471 6.26025H27.9828L24.3169 12.6168C22.305 16.1129 20.622 18.9734 20.593 18.9734C20.564 18.9734 18.8809 16.1129 16.8691 12.6168L13.2032 6.26988H9.88552C8.05742 6.26025 6.57752 6.29878 6.59687 6.34693Z" fill="white"/>
<path d="M36.5625 18.4437V30.6271H42.9464V6.26025H36.5625V18.4437Z" fill="white"/>
<path d="M46.6211 8.95698V11.6537L50.1129 11.6344L53.6143 11.6055L54.9588 9.29407C55.6939 8.02275 56.3903 6.81886 56.4967 6.61661L56.6805 6.26025H46.6211V8.95698Z" fill="white"/>
<path d="M52.2313 18.3666C48.3817 25.0314 45.2187 30.5115 45.1994 30.55C45.1801 30.5982 46.7373 30.6271 48.6718 30.6271H52.1829L58.9053 19.0023C62.6002 12.6168 65.7728 7.12706 65.9469 6.81886L66.2661 6.26025H59.2245L52.2313 18.3666Z" fill="white"/>
<path d="M69.2549 8.95698V11.6537L72.795 11.6344L76.3352 11.6055L77.5732 9.46743C78.2503 8.29243 78.9467 7.09816 79.1208 6.7996L79.4207 6.26025H69.2549V8.95698Z" fill="white"/>
<path d="M74.9423 18.357C71.1024 25.0121 67.9394 30.5019 67.9201 30.5404C67.9008 30.5885 69.4677 30.6271 71.4022 30.6271H74.9133L81.6841 18.906C85.408 12.4627 88.5709 6.98259 88.7257 6.72255L88.9868 6.26025H81.9452L74.9423 18.357Z" fill="white"/>
<path d="M90.4375 6.29878C90.4375 6.32767 92.6622 10.1898 95.3705 14.8994L100.303 23.4519L100.245 27.0346L100.178 30.6271H106.881V23.423L111.504 15.4002C114.048 10.9795 116.273 7.11743 116.447 6.80923L116.756 6.26025H110.121L106.881 11.8463C105.101 14.9187 103.602 17.4228 103.563 17.4035C103.524 17.3939 102.035 14.8898 100.274 11.8463L97.0535 6.30841L93.7455 6.27952C91.9271 6.26988 90.4375 6.27952 90.4375 6.29878Z" fill="white"/>
<path d="M118.556 6.39485C118.082 6.56821 117.937 6.70305 117.705 7.13645C117.183 8.16698 117.898 9.34198 119.049 9.34198C120.2 9.34198 120.529 8.81227 120.597 7.90694C120.645 7.23276 120.384 6.79936 119.746 6.4719C119.253 6.23112 119.069 6.22149 118.556 6.39485ZM119.736 6.78973C120.046 6.94383 120.326 7.45428 120.326 7.86842C120.326 8.28256 120.026 8.6967 119.697 8.91821C119.349 9.13973 118.566 9.06268 118.247 8.76411C117.444 8.01289 117.956 6.64526 119.03 6.64526C120.104 6.64526 119.591 6.71268 119.736 6.78973Z" fill="white"/>
<path d="M118.488 7.84929C118.488 8.50421 118.508 8.57163 118.682 8.57163C118.856 8.57163 118.875 8.50421 118.875 8.33085C118.875 8.15749 118.933 8.09007 119.001 8.09007C119.069 8.09007 119.185 8.19601 119.243 8.33085C119.31 8.47531 119.436 8.57163 119.552 8.57163C119.736 8.57163 119.746 8.56199 119.591 8.33085C119.456 8.11896 119.456 8.08044 119.591 7.87818C119.91 7.42552 119.668 7.12695 118.962 7.12695H118.488V7.84929ZM119.204 7.37736C119.465 7.47367 119.397 7.80113 119.117 7.80113C118.836 7.80113 118.875 7.75298 118.875 7.56035C118.875 7.36773 118.943 7.28105 119.204 7.37736Z" fill="white"/>
<path d="M57.7059 25.4453C57.4834 25.8016 54.7461 30.5498 54.7461 30.5883C54.7461 30.6268 57.0772 30.6268 59.9209 30.6268H65.0957V25.2334H57.8413L57.7059 25.4453Z" fill="white"/>
<path d="M79.0245 27.8434C78.2023 29.2785 77.5156 30.492 77.4962 30.5402C77.4769 30.5883 79.5758 30.6268 82.6904 30.6268H87.9232V25.2334H80.5237C80.5237 25.243 79.0245 27.8434 79.0245 27.8434Z" fill="white"/>
<path d="M59.3315 34.7588C58.1998 35.0477 57.6097 36.1938 58.1417 37.0799C58.4222 37.5422 58.6254 37.6963 59.641 38.1778C60.6082 38.6305 60.8404 38.8713 60.8404 39.3914C60.8404 40.3352 59.4379 40.5182 58.3642 39.7284C58.1708 39.584 58.1417 39.5936 57.9096 39.9114L57.6484 40.2389L58.0837 40.5278C58.8962 41.0575 60.0666 41.1731 60.8694 40.7879C61.353 40.5567 61.7302 39.9981 61.7883 39.4106C61.8656 38.5149 61.266 37.8311 60.0085 37.3592C59.2734 37.0799 58.9059 36.7235 58.9059 36.2709C58.9059 35.8182 58.9736 35.8856 59.1767 35.7315C59.5346 35.4426 60.4631 35.4907 60.9177 35.8182L61.2369 36.0397L61.4497 35.77C61.5658 35.6159 61.6625 35.4522 61.6625 35.3944C61.6625 35.3366 61.4207 35.1825 61.1305 35.0284C60.5502 34.7491 59.8151 34.6336 59.3315 34.7588Z" fill="white"/>
<path d="M19.5381 37.8505V40.9325H20.5053V38.1395H23.6005V40.9325H24.5678V34.7686H23.6005V37.2727H20.5053V34.7686H19.5381V37.8505Z" fill="white"/>
<path d="M30.0908 34.9804C30.0425 35.1056 29.5008 36.4733 28.8818 38.0239C28.2627 39.5745 27.7598 40.8651 27.7598 40.894C27.7598 40.9229 27.9726 40.9325 28.224 40.9325H28.6883L28.9688 40.162L29.259 39.3915L30.6132 39.4108L31.9576 39.4397L32.2381 40.1813L32.5283 40.9325H32.9926C33.2537 40.9325 33.4665 40.9036 33.4665 40.8554C33.4665 40.8073 32.9346 39.43 32.2865 37.7831L31.0968 34.7686H30.6325C30.2456 34.7686 30.1585 34.8071 30.0908 34.9804ZM31.1451 37.2534C31.4063 37.9468 31.6288 38.544 31.6288 38.5729C31.6288 38.6018 31.1742 38.621 30.6132 38.621C30.0521 38.621 29.5975 38.5825 29.5975 38.5247C29.5975 38.4669 29.7813 37.9468 30.0135 37.3497C30.2456 36.7526 30.4681 36.1747 30.5068 36.0784C30.5358 35.9821 30.5841 35.9147 30.6132 35.9339C30.6325 35.9628 30.8743 36.5503 31.1451 37.2534Z" fill="white"/>
<path d="M36.7559 37.8406V40.9322H37.6264V38.7171H38.9805L39.706 39.8246L40.4217 40.9322H41.4954L40.7119 39.7669C40.2863 39.1312 39.9478 38.5919 39.9671 38.5822C41.0021 37.9466 41.2536 37.5806 41.2536 36.7427C41.2536 35.9048 40.9441 35.4232 40.3347 35.0765C39.9188 34.8261 39.822 34.8164 38.3325 34.7876L36.7559 34.749V37.8406ZM40.3347 36.6849C40.3347 37.2339 40.1025 37.648 39.706 37.8117C39.5029 37.8984 39.0386 37.9466 38.4969 37.9466H37.6264V35.6351H38.6517C38.6517 35.6351 39.4351 35.6255 39.6866 35.6736C39.9381 35.7218 40.3347 35.9433 40.3347 36.6849Z" fill="white"/>
<path d="M44.8809 37.8503V40.9515L46.3608 40.913C47.6472 40.8841 47.889 40.8552 48.2759 40.6625C48.9627 40.3255 49.485 39.8246 49.7848 39.2179C50.017 38.746 50.0556 38.5533 50.0556 37.8503C50.0556 37.1472 50.017 36.9546 49.7848 36.4826C49.4656 35.8373 49.011 35.4136 48.2662 35.0669C47.7923 34.8453 47.5892 34.8164 46.3124 34.7876L44.8809 34.749V37.8503ZM47.9374 35.8662C48.7595 36.2515 49.1561 36.916 49.1561 37.9177C49.1464 38.5533 48.9917 38.9771 48.5661 39.4201C48.1405 39.8921 47.6472 40.0751 46.709 40.1328L45.8481 40.1906V35.6351H46.6509C47.2796 35.6351 47.5408 35.6832 47.9374 35.8662Z" fill="white"/>
<path d="M65.3857 37.8505V40.9325H69.6416V40.162H66.2563V38.1395H69.158V37.369H66.2563V35.6354H69.5449V34.7686H65.3857V37.8505Z" fill="white"/>
<path d="M73.2207 37.8505V40.9325H77.1864V40.0657H74.0912V34.7686H73.2207V37.8505Z" fill="white"/>
<path d="M79.2178 35.202V35.6354H81.0555V40.9325H81.9261V35.6354H83.7639V34.7686H79.2178V35.202Z" fill="white"/>
<path d="M86.8594 35.202V35.6354L88.4941 35.6546L90.1287 35.6835L88.4457 37.9468C86.9852 39.9212 86.7724 40.2583 86.7627 40.5665V40.9325H91.4055V40.162H89.7128C88.7842 40.162 88.0201 40.1331 88.0201 40.0849C88.0298 40.0464 88.7842 38.9966 89.7128 37.7542C91.1927 35.7798 91.4055 35.4427 91.4055 35.1249V34.7686H86.8594V35.202Z" fill="white"/>
<path d="M94.9844 37.8505V40.9325H99.2403V40.162H95.9516V38.1395H98.7567V37.369H95.9516V35.6354H99.1436V34.7686H94.9844V37.8505Z" fill="white"/>
<path d="M102.818 37.8406V40.9322H103.689V38.7171H104.395C104.395 38.7267 105.091 38.7267 105.091 38.7267L105.807 39.8343L106.513 40.9322H107.548L106.784 39.7572L106.01 38.5726L106.281 38.4474C107.664 37.7443 107.713 35.7507 106.368 35.038C106.001 34.8453 105.797 34.8164 104.395 34.7876L102.818 34.749V37.8406ZM105.846 35.741C106.233 35.9337 106.397 36.2322 106.397 36.7427C106.397 37.6576 105.952 37.9466 104.559 37.9466H103.689V35.6351H104.666C105.198 35.6351 105.73 35.6832 105.846 35.741Z" fill="white"/>
</svg>
