<svg width="117" height="48" viewBox="0 0 117 48" fill="none" xmlns="http://www.w3.org/2000/svg">
<path d="M0.060625 7.86639C0.093125 7.98386 1.74656 15.0158 3.73719 23.4937C5.73188 31.9717 7.36906 38.9185 7.38125 38.9388C7.38938 38.955 11.1716 38.9672 15.7825 38.9672H24.1675L24.2325 38.7525C24.2691 38.6391 25.5488 34.3494 27.0722 29.2254C29.4569 21.2051 29.8509 19.9089 29.9159 19.9089C29.9809 19.9089 30.3791 21.2254 32.8003 29.4279L35.6075 38.9469L43.9438 38.959C51.8575 38.9672 52.28 38.9631 52.3003 38.8983C52.3125 38.8578 52.3572 38.6593 52.4059 38.4608C52.4547 38.2583 53.0316 35.8279 53.6897 33.0532C55.2944 26.3008 56.4197 21.5454 58.1747 14.076C58.9791 10.6451 59.6494 7.79753 59.6656 7.74488L59.6859 7.65576H47.8559L47.8356 7.74488C47.8234 7.79753 46.8931 12.1925 45.7678 17.511C44.6425 22.8294 43.7122 27.192 43.7 27.2082C43.6838 27.2203 43.6513 27.2203 43.6228 27.2082C43.5903 27.196 42.4366 23.3722 40.7506 17.677C39.1987 12.4436 37.8988 8.04867 37.8541 7.9069L37.7769 7.65576H23.0097L20.0684 17.438C17.6675 25.434 17.115 27.2203 17.0581 27.2203C17.0012 27.2203 16.9728 27.1312 16.9038 26.8031C16.855 26.5763 15.9125 22.1773 14.8116 17.033L12.8128 7.67601L6.41031 7.66386L0.0078125 7.65576L0.060625 7.86639Z" fill="white"/>
<path d="M114.481 35.2687C114.424 35.2809 114.245 35.3497 114.083 35.4226C112.974 35.933 112.661 37.4196 113.478 38.3432C114.213 39.1735 115.59 39.1938 116.342 38.3837C116.675 38.0232 116.837 37.6019 116.837 37.1037C116.837 36.3583 116.468 35.7669 115.789 35.4307C115.452 35.2647 115.432 35.2606 115.013 35.2525C114.778 35.2485 114.538 35.2566 114.481 35.2687ZM115.586 35.6738C116.114 35.9209 116.431 36.4029 116.463 37.0064C116.496 37.6262 116.252 38.1325 115.781 38.4404C115.476 38.6348 115.212 38.6996 114.814 38.6753C114.249 38.6429 113.782 38.3188 113.53 37.7923C113.413 37.5492 113.404 37.4966 113.404 37.1037C113.404 36.7107 113.417 36.65 113.514 36.4475C113.644 36.168 113.949 35.8318 114.176 35.7143C114.473 35.5644 114.652 35.5239 114.989 35.5361C115.253 35.5482 115.371 35.5725 115.586 35.6738Z" fill="white"/>
<path d="M114.196 37.0998V38.1975H114.517L114.529 37.7196L114.542 37.2456L114.696 37.2335C114.781 37.2254 114.875 37.2416 114.907 37.2659C114.936 37.2902 115.082 37.5089 115.232 37.752C115.414 38.049 115.557 38.1975 115.663 38.1975C115.748 38.1975 115.821 38.1854 115.821 38.1692C115.821 38.153 115.695 37.9464 115.537 37.7074C115.383 37.4644 115.253 37.2618 115.253 37.2537C115.253 37.2456 115.326 37.2173 115.411 37.1889C115.61 37.1322 115.781 36.9378 115.785 36.7677C115.797 36.3829 115.724 36.2127 115.496 36.1034C115.391 36.0548 115.208 36.0305 114.777 36.0183L114.196 35.998V37.0998ZM115.37 36.391C115.431 36.4477 115.456 36.5165 115.456 36.638C115.456 36.9054 115.366 36.958 114.903 36.9742L114.521 36.9905V36.2856L114.903 36.3018C115.208 36.3099 115.301 36.3302 115.37 36.391Z" fill="white"/>
<path d="M111.569 38.7282C111.536 38.6107 109.883 31.5788 107.892 23.1009C105.897 14.6229 104.26 7.67605 104.248 7.6558C104.24 7.63959 100.458 7.62744 95.8468 7.62744H87.4618L87.3968 7.84213C87.3602 7.95554 86.0805 12.2452 84.5571 17.3692C82.1724 25.3895 81.7784 26.6857 81.7134 26.6857C81.6484 26.6857 81.2502 25.3692 78.829 17.1667L76.0218 7.64769L67.6855 7.63554C59.7718 7.62744 59.3493 7.63149 59.329 7.6963C59.3168 7.73681 59.2721 7.93529 59.2234 8.13377C59.1746 8.3363 58.5977 10.7667 57.9396 13.5414C56.3349 20.2938 55.2096 25.0492 53.4546 32.5186C52.6502 35.9495 51.9799 38.7971 51.9637 38.8497L51.9434 38.9388H63.7734L63.7937 38.8497C63.8059 38.7971 64.7362 34.4021 65.8615 29.0836C66.9868 23.7652 67.9171 19.4026 67.9293 19.3864C67.9455 19.3743 67.978 19.3743 68.0065 19.3864C68.039 19.3986 69.1927 23.2224 70.8787 28.9176C72.4305 34.151 73.7305 38.5459 73.7752 38.6877L73.8524 38.9388H88.6196L91.5609 29.1566C93.9618 21.1606 94.5143 19.3743 94.5712 19.3743C94.628 19.3743 94.6565 19.4634 94.7255 19.7915C94.7743 20.0183 95.7168 24.4173 96.8177 29.5616L98.8165 38.9186L105.219 38.9307L111.621 38.9388L111.569 38.7282Z" fill="white"/>
</svg>
