<svg width="174" height="41" viewBox="0 0 174 41" fill="none" xmlns="http://www.w3.org/2000/svg">
<g clip-path="url(#clip0_3594_785)">
<path d="M152.821 13.8047C153.789 13.8047 154.589 13.3077 154.693 12.6589L155.647 1.93266C155.647 0.869697 154.394 0 152.821 0C151.248 0 149.995 0.869697 149.995 1.93266L150.949 12.6589C151.053 13.3008 151.854 13.8047 152.821 13.8047ZM146.975 17.1524C147.462 16.3241 147.427 15.3854 146.912 14.9712L138.024 8.7867C137.099 8.25522 135.714 8.89714 134.927 10.25C134.141 11.6029 134.28 13.1076 135.198 13.6391L145.04 18.1877C145.652 18.4155 146.495 17.9806 146.975 17.1455M158.668 17.1455C159.155 17.9737 159.99 18.4086 160.602 18.1877L170.444 13.6391C171.37 13.1076 171.502 11.596 170.722 10.25C169.929 8.89714 168.544 8.25522 167.618 8.7867L158.73 14.9712C158.222 15.3854 158.187 16.3172 158.668 17.1524M152.821 27.2022C153.789 27.2022 154.589 27.6992 154.693 28.3411L155.647 39.0673C155.647 40.1303 154.394 41 152.821 41C151.248 41 149.995 40.1303 149.995 39.0673L150.949 28.3411C151.053 27.6923 151.854 27.2022 152.821 27.2022ZM158.668 23.8476C159.155 23.0125 159.99 22.5845 160.602 22.8123L170.444 27.354C171.37 27.8855 171.502 29.3971 170.722 30.75C169.929 32.096 168.544 32.7379 167.618 32.2064L158.73 26.0288C158.222 25.6146 158.187 24.6759 158.668 23.8476ZM146.975 23.8476C147.462 24.6759 147.427 25.6146 146.912 26.0288L138.024 32.2064C137.099 32.7379 135.714 32.096 134.927 30.75C134.141 29.3971 134.28 27.8855 135.198 27.354L145.04 22.8123C145.652 22.5845 146.495 23.0125 146.975 23.8476Z" fill="white"/>
<path d="M96.7374 26.0147C96.7374 26.3461 96.7096 26.6843 96.6191 26.9811C96.2432 28.2166 94.9487 29.2658 93.334 29.2658C91.7192 29.2658 90.9119 28.5065 90.9119 26.8982C90.9119 24.441 93.6402 23.7646 96.7374 23.7784V26.0078V26.0147ZM101.602 21.7353C101.602 17.6836 99.8555 14.122 93.9604 14.122C88.0652 14.122 88.5316 14.9641 87.2231 15.7164L88.1836 18.9743C89.3807 18.222 91.2947 17.6008 93.0973 17.6008C96.0901 17.5939 96.5773 19.278 96.5773 20.3617V20.6171C90.0558 20.6102 85.9355 22.8466 85.9355 27.409C85.9355 31.9715 88.0374 32.8067 91.6844 32.8067C95.3315 32.8067 95.8048 31.9163 96.9253 30.4944H97.0367C97.0367 30.4944 97.7814 33.5866 101.888 32.3994C101.672 31.1156 101.602 29.742 101.602 28.0924V21.7353ZM0.0351562 8.607C0.0351562 8.607 4.29468 25.9181 4.97676 28.7274C5.7702 32.006 7.197 33.2139 11.3243 32.3994L13.983 21.6663C14.6581 19.0019 15.1105 17.0969 15.542 14.3843H15.6186C15.9248 17.1245 16.3564 19.0019 16.9132 21.6732C16.9132 21.6732 17.992 26.5462 18.5488 29.107C19.1056 31.6678 20.6507 33.276 24.6875 32.3994L31.028 8.607H25.9124L23.7479 18.8915C23.1632 21.8871 22.6412 24.227 22.2306 26.9673H22.161C21.7921 24.2546 21.3188 22.0045 20.7272 19.0917L18.4722 8.607H13.1408L10.7327 18.8225C10.0506 21.9285 9.41028 24.4341 9.0066 27.0846H8.93004C8.51244 24.5929 7.9626 21.4385 7.36404 18.436C7.36404 18.436 5.93028 11.1264 5.42916 8.607H0.0351562ZM40.7024 26.0147C40.7024 26.3461 40.6746 26.6843 40.5841 26.9811C40.2083 28.2166 38.9137 29.2658 37.299 29.2658C35.6843 29.2658 34.8839 28.5065 34.8839 26.8982C34.8839 24.441 37.6122 23.7646 40.7094 23.7784V26.0078L40.7024 26.0147ZM45.5675 21.7353C45.5675 17.6836 43.8205 14.122 37.9254 14.122C32.0303 14.122 32.4966 14.9641 31.1812 15.7164L32.1416 18.9743C33.3388 18.222 35.2528 17.6008 37.0554 17.6008C40.0482 17.5939 40.5354 19.278 40.5354 20.3617V20.6171C34.0139 20.6102 29.8936 22.8466 29.8936 27.409C29.8936 31.9715 31.9885 32.8067 35.6356 32.8067C39.2826 32.8067 39.7559 31.9163 40.8834 30.4944H40.9948C40.9948 30.4944 41.7395 33.5866 45.8459 32.3994C45.6301 31.1156 45.5605 29.742 45.5605 28.0924V21.7353M53.6898 27.3469V8.607H48.8178V32.3994H53.6898V27.3469ZM117.429 8.607V26.1597C117.429 28.5824 117.889 30.2735 118.87 31.3089C119.733 32.2131 121.146 32.7998 122.837 32.7998C124.529 32.7998 125.698 32.5237 126.366 32.2821L126.303 28.5065C125.809 28.6238 125.232 28.7274 124.452 28.7274C122.789 28.7274 122.239 27.6713 122.239 25.4971V18.7811H126.484V14.2255H122.239V8.6001H117.429M104.853 14.5223V32.3994H109.878V23.2469C109.878 22.7499 109.906 22.322 109.989 21.9285C110.358 20.0097 111.841 18.788 113.963 18.788C116.086 18.788 114.959 18.8501 115.411 18.9122V14.2324C115.035 14.1565 114.778 14.122 114.304 14.122C112.425 14.122 110.295 15.323 109.398 17.8976H109.258V14.5223H104.846M57.1002 14.5223V32.3994H62V21.9147C62 21.4247 62.0557 20.9001 62.2297 20.4514C62.6334 19.3954 63.6287 18.1599 65.2086 18.1599C66.7885 18.1599 68.1109 19.8164 68.1109 22.2046V32.3925H73.0038V21.7836C73.0038 21.3142 73.0665 20.7482 73.2057 20.3341C73.6093 19.1331 74.6742 18.153 76.1428 18.153C77.6113 18.153 79.1077 19.7819 79.1077 22.5981V32.3925H84.0076V21.8664C84.0076 16.3169 81.1679 14.1151 77.9524 14.1151C74.7368 14.1151 75.412 14.4671 74.3958 15.0814C73.5467 15.5991 72.7811 16.3376 72.1129 17.3109H72.0433C71.2708 15.3851 69.4472 14.1151 67.0739 14.1151C64.7005 14.1151 62.6543 15.6474 61.826 16.945H61.7564V14.5154H57.1072" fill="white"/>
<path d="M172.921 31.5298H172.998C173.095 31.5298 173.158 31.4884 173.158 31.4332C173.158 31.3779 173.102 31.3296 173.005 31.3296C172.907 31.3296 172.942 31.3296 172.921 31.3296V31.5298ZM172.907 32.0061H172.65V31.164C172.706 31.1502 172.845 31.1295 173.026 31.1295C173.207 31.1295 173.304 31.1571 173.367 31.1985C173.422 31.233 173.457 31.2951 173.457 31.3848C173.457 31.4746 173.374 31.5436 173.262 31.5781V31.5919C173.36 31.6195 173.408 31.6885 173.436 31.8059C173.464 31.9301 173.478 31.9784 173.492 32.0061H173.2C173.172 31.9715 173.158 31.9025 173.144 31.8266C173.13 31.7438 173.088 31.6954 172.998 31.6954H172.914V32.0061H172.907ZM173.012 30.8948C172.636 30.8948 172.358 31.1985 172.358 31.585C172.358 31.9715 172.643 32.2683 173.026 32.2683C173.408 32.2683 173.694 31.9646 173.694 31.5781C173.694 31.1916 173.408 30.8948 173.019 30.8948H173.012ZM173.033 30.667C173.555 30.667 173.972 31.0742 173.972 31.5781C173.972 32.082 173.555 32.4961 173.026 32.4961C172.497 32.4961 172.079 32.0889 172.079 31.5781C172.079 31.0673 172.504 30.667 173.026 30.667" fill="white"/>
</g>
<defs>
<clipPath id="clip0_3594_785">
<rect width="174" height="41" fill="white"/>
</clipPath>
</defs>
</svg>
