<svg width="134" height="44" viewBox="0 0 134 44" fill="none" xmlns="http://www.w3.org/2000/svg">
<path d="M102.296 7.98127L106.84 32.6929H99.6268L97.8298 18.4696L93.9022 32.6929H87.4333L83.5057 18.4696L81.7088 32.6929H74.4953L79.039 7.98127H86.6632L90.6934 22.5115L94.7237 7.98127H102.348H102.296ZM68.0007 7.98127L62.1478 24.6603L56.295 7.98127H48.8248L58.2202 32.6929H66.0754L75.4708 7.98127H68.0007ZM117.288 26.3743V7.98127H110.408V32.6929H127.505L129.918 26.3743H117.314H117.288ZM41.6884 35.1743V38.6278H38.2229L23.2827 23.7906L8.34247 38.6278H4.87695V35.1743L19.8172 20.3371L4.87695 5.49988V2.04639H8.34247L23.2827 16.8836L38.2229 2.04639H41.6884V5.49988L26.7482 20.3371L41.6884 35.1743ZM26.9279 2.04639L23.2827 5.67895L19.6375 2.04639H13.3482L23.2827 11.9208L33.2172 2.04639H26.9279ZM33.2172 38.6278L23.2827 28.7534L13.3482 38.6278H19.6375L23.2827 34.9952L26.9279 38.6278H33.2172ZM41.6884 23.9696L38.0432 20.3371L41.6884 16.7045V10.4627L31.754 20.3371L41.6884 30.2115V23.9696ZM4.87695 30.2115L14.8114 20.3371L4.87695 10.4627V16.7045L8.52216 20.3371L4.87695 23.9696V30.2115Z" fill="white"/>
</svg>
