<svg width="67" height="67" viewBox="0 0 67 67" fill="none" xmlns="http://www.w3.org/2000/svg">
<g clip-path="url(#clip0_3594_105)">
<path d="M31.2755 0.202985C17.81 1.09283 6.18317 10.0698 1.93024 22.8678C-0.228938 29.3585 -0.353254 36.3333 1.57692 42.922C4.67175 53.5085 12.9551 61.949 23.4893 65.2466C31.0988 67.6283 39.356 67.2226 46.6711 64.1147C49.6154 62.8585 52.3569 61.1769 54.961 59.0243C55.9359 58.2195 58.2979 55.8575 59.0962 54.8957C60.2935 53.4431 61.3077 52.0168 62.2433 50.453C62.8453 49.4388 64.0884 46.9067 64.5334 45.7682C68.3217 36.0977 67.445 25.1644 62.1714 16.3576C58.9849 11.0381 54.5226 6.81793 49.0069 3.90631C43.7202 1.11246 37.4128 -0.202679 31.2755 0.202985ZM35.7639 3.20621C37.4978 3.34361 39.4738 3.6773 41.0245 4.09605C41.8489 4.31851 43.2687 4.77652 43.3407 4.84195C43.3996 4.90084 33.945 26.2636 33.7749 26.4534C33.6048 26.6497 33.3561 26.5711 33.1925 26.2702C33.0879 26.0739 23.8492 5.29341 23.7052 4.93355C23.6725 4.84849 24.124 4.67183 25.1643 4.35777C27.2908 3.7231 29.1817 3.37632 31.5699 3.18658C32.2111 3.13423 34.9984 3.14732 35.7639 3.20621ZM24.5689 19.3477C28.3507 27.7685 30.1762 31.7663 30.3071 31.8971L30.4903 32.0934L33.4216 32.113C35.3714 32.1261 36.4248 32.113 36.5883 32.0607C36.7454 32.0149 36.8697 31.9233 36.9548 31.7794C37.0267 31.6681 39.5654 26.0477 42.5948 19.3019C45.6307 12.5561 48.1171 7.02076 48.1301 7.01421C48.1563 6.9815 49.0069 7.47877 49.8444 8.02838C53.1879 10.2006 56.1256 13.0534 58.5007 16.4492L59.0046 17.1689L51.2184 32.7412C46.1345 42.922 43.3799 48.3658 43.2753 48.4508L43.1182 48.5752L42.9547 48.4181C42.8565 48.3134 41.6722 45.6962 39.886 41.6331C38.283 37.9886 36.9286 34.92 36.8697 34.8153C36.6603 34.4031 36.7846 34.4162 33.3823 34.4162H30.2809L30.1108 34.5928C29.9865 34.7171 29.0247 36.9156 27.0552 41.5742C24.9942 46.4291 24.1371 48.3985 24.0324 48.4639C23.8165 48.6079 23.6725 48.4901 23.3716 47.9143C22.7042 46.6188 8.17878 17.2605 8.17878 17.2016C8.17878 17.1427 8.3947 16.8221 8.65641 16.4361C10.6978 13.4263 13.6945 10.4427 16.7501 8.36861C17.2146 8.05455 18.9223 7.00767 18.9812 7.00767C19.0008 7.00113 21.5133 12.5561 24.5689 19.3477ZM14.231 40.861C20.5254 53.5282 23.1687 58.7887 23.3192 58.9392C23.7249 59.3514 24.3203 59.3318 24.7325 58.8934C24.9157 58.6971 25.8317 56.695 29.149 49.2752C31.7989 43.3408 33.3758 39.8795 33.4477 39.8403C33.6309 39.7421 33.788 39.8207 33.9384 40.0955C34.017 40.2263 35.9079 44.4269 38.139 49.4323C40.3767 54.4311 42.2742 58.6317 42.3658 58.7691C42.5686 59.0766 42.85 59.2271 43.2295 59.2271C43.609 59.2271 43.7529 59.1159 44.0015 58.8084C44.1324 58.6317 61.4778 23.8689 61.8115 23.1034C61.9358 22.8089 61.9489 22.8286 62.3807 24.1437C64.3829 30.2025 64.3567 36.6015 62.3218 42.7585C60.8039 47.3451 58.3045 51.369 54.8367 54.8302C53.6001 56.0603 52.8738 56.695 51.5259 57.7091C45.8336 61.9882 38.6821 64.1278 31.6353 63.6632C23.9539 63.1529 16.8417 59.7636 11.5222 54.0843C4.16139 46.2131 1.53112 35.0966 4.60632 24.798C4.90075 23.8296 5.24753 22.8875 5.29987 22.9463C5.33259 22.9725 9.34997 31.0335 14.231 40.861Z" fill="white"/>
</g>
<defs>
<clipPath id="clip0_3594_105">
<rect width="67" height="67" fill="white"/>
</clipPath>
</defs>
</svg>
