<svg width="150" height="150" viewBox="0 0 150 150" fill="none" xmlns="http://www.w3.org/2000/svg">
<rect width="150" height="150" fill="#2B8D9D"/>
<path d="M117.236 65.6636V80.1255H98.6775C96.2195 80.1255 93.8825 80.8706 93.8825 83.4876C93.8825 85.7855 95.878 87.4384 96.5684 88.0765L117.236 106.865V125.172L90.4534 101.524C89.5427 100.673 87.0847 99.2264 84.0572 100.78L33.5273 126.888V110.177L78.0635 87.4384C79.0347 86.9063 80.977 86.105 80.977 83.4876C80.977 80.5511 78.6933 80.1255 76.4627 80.1255H33.5273V65.6636H117.236Z" fill="white"/>
<path d="M82.1164 52.3928C90.5557 52.3928 97.3969 45.9973 97.3969 38.108C97.3969 30.2187 90.5557 23.8232 82.1164 23.8232C73.6772 23.8232 66.8359 30.2187 66.8359 38.108C66.8359 45.9973 73.6772 52.3928 82.1164 52.3928Z" fill="white"/>
</svg>
