<?xml version="1.0" encoding="utf-8" ?>
<svg baseProfile="tiny" height="100%" version="1.2" width="100%" xmlns="http://www.w3.org/2000/svg" xmlns:ev="http://www.w3.org/2001/xml-events" xmlns:xlink="http://www.w3.org/1999/xlink"><defs /><path d="M 161,274 L 163,274 Z" fill="white" stroke="white" stroke-width="0.5" /><path d="M 145,256 L 144,257 L 144,258 L 145,259 L 145,261 L 147,261 L 146,260 L 146,257 Z" fill="white" stroke="white" stroke-width="0.5" /><path d="M 304,230 L 303,231 L 302,231 L 301,232 L 300,232 L 300,233 L 302,233 L 304,231 L 305,231 Z" fill="white" stroke="white" stroke-width="0.5" /><path d="M 288,217 L 288,219 L 289,220 L 290,220 L 291,221 L 291,222 L 287,226 L 287,228 L 286,229 L 286,230 L 285,231 L 285,232 L 283,234 L 283,236 L 282,237 L 282,238 L 283,239 L 283,240 L 284,241 L 285,241 L 291,235 L 291,234 L 293,232 L 293,231 L 295,229 L 295,228 L 299,224 L 299,218 L 296,218 L 293,221 L 292,220 L 292,218 L 291,218 L 290,217 Z" fill="white" stroke="white" stroke-width="0.5" /><path d="M 185,211 L 184,212 L 185,213 Z" fill="white" stroke="white" stroke-width="0.5" /><path d="M 309,206 L 310,207 L 310,206 Z" fill="white" stroke="white" stroke-width="0.5" /><path d="M 342,179 L 340,181 L 340,184 L 342,186 L 342,188 L 343,187 L 343,184 L 344,183 L 344,180 L 343,179 Z" fill="white" stroke="white" stroke-width="0.5" /><path d="M 339,177 L 339,178 Z" fill="white" stroke="white" stroke-width="0.5" /><path d="M 311,175 L 311,177 L 314,177 L 314,175 Z" fill="white" stroke="white" stroke-width="0.5" /><path d="M 352,174 L 351,175 L 351,180 L 350,181 L 350,189 L 349,190 L 349,193 L 347,195 L 346,194 L 344,194 L 341,197 L 341,198 L 340,199 L 340,200 L 339,201 L 338,201 L 337,202 L 336,202 L 335,201 L 334,201 L 333,200 L 330,200 L 329,199 L 329,200 L 327,202 L 326,202 L 325,203 L 324,203 L 323,204 L 322,204 L 320,206 L 320,207 L 319,208 L 320,208 L 322,210 L 323,210 L 325,208 L 326,209 L 326,210 L 327,211 L 330,211 L 331,210 L 332,210 L 333,211 L 337,207 L 343,207 L 344,206 L 345,206 L 345,205 L 347,203 L 348,203 L 350,201 L 350,199 L 351,198 L 351,194 L 352,193 L 352,188 L 353,187 L 353,183 L 354,182 L 354,178 L 356,176 L 354,174 Z" fill="white" stroke="white" stroke-width="0.5" /><path d="M 354,168 L 353,169 L 353,171 L 354,171 Z" fill="white" stroke="white" stroke-width="0.5" /><path d="M 90,168 L 90,170 L 91,170 L 91,168 Z" fill="white" stroke="white" stroke-width="0.5" /><path d="M 346,167 L 346,168 L 344,170 L 344,174 L 344,172 L 346,170 Z" fill="white" stroke="white" stroke-width="0.5" /><path d="M 160,167 L 160,169 L 162,171 L 161,172 L 162,173 L 165,173 L 165,172 L 167,170 L 166,169 L 166,168 L 164,168 L 163,167 Z" fill="white" stroke="white" stroke-width="0.5" /><path d="M 348,164 L 348,165 Z" fill="white" stroke="white" stroke-width="0.5" /><path d="M 351,158 L 350,159 L 350,162 L 351,161 L 352,161 L 352,160 L 353,159 L 352,158 Z" fill="white" stroke="white" stroke-width="0.5" /><path d="M 90,142 L 88,144 L 89,145 L 89,146 L 90,146 L 91,147 L 91,155 L 90,156 L 90,157 L 89,158 L 89,160 L 92,160 L 93,161 L 93,165 L 94,166 L 94,167 L 99,167 L 100,166 L 101,167 L 104,167 L 107,170 L 107,176 L 106,177 L 103,177 L 102,176 L 102,175 L 99,175 L 97,177 L 97,179 L 96,180 L 94,180 L 93,179 L 92,180 L 92,181 L 93,182 L 93,183 L 94,184 L 94,185 L 96,185 L 96,183 L 97,182 L 97,181 L 96,180 L 97,179 L 102,179 L 103,180 L 107,180 L 115,188 L 119,188 L 122,191 L 122,192 L 124,194 L 124,199 L 127,199 L 128,200 L 130,200 L 131,201 L 132,201 L 134,203 L 139,203 L 140,204 L 141,204 L 142,205 L 143,205 L 144,206 L 145,206 L 146,207 L 147,207 L 149,209 L 149,211 L 150,212 L 149,213 L 149,215 L 148,216 L 148,217 L 147,218 L 147,224 L 148,224 L 149,225 L 149,228 L 148,229 L 148,233 L 147,234 L 146,234 L 144,236 L 143,236 L 143,237 L 142,238 L 142,239 L 143,240 L 143,243 L 144,244 L 143,245 L 143,248 L 144,248 L 145,249 L 145,250 L 144,251 L 143,251 L 142,252 L 143,253 L 144,253 L 145,252 L 145,245 L 144,244 L 145,243 L 145,242 L 144,241 L 144,238 L 145,237 L 146,237 L 148,235 L 149,235 L 149,225 L 148,224 L 148,219 L 150,217 L 150,215 L 151,214 L 151,211 L 150,210 L 150,209 L 149,208 L 149,207 L 148,206 L 145,206 L 144,205 L 144,204 L 143,204 L 142,203 L 141,203 L 140,202 L 136,202 L 134,200 L 132,200 L 130,198 L 128,198 L 125,195 L 125,194 L 123,192 L 123,191 L 122,190 L 122,189 L 121,188 L 120,188 L 119,187 L 116,187 L 110,181 L 110,173 L 109,172 L 109,171 L 108,170 L 108,167 L 105,164 L 101,164 L 98,161 L 98,158 L 97,157 L 97,156 L 96,155 L 96,154 L 95,153 L 95,150 L 93,148 L 93,146 L 92,145 L 92,142 Z" fill="white" stroke="white" stroke-width="0.5" /><path d="M 177,136 L 176,137 L 175,137 L 175,138 L 176,139 L 177,139 L 178,138 L 178,137 Z" fill="white" stroke="white" stroke-width="0.5" /><path d="M 348,131 L 347,132 L 346,132 L 346,135 L 347,136 L 347,137 L 350,140 L 350,139 L 352,137 L 352,134 L 349,131 Z" fill="white" stroke="white" stroke-width="0.5" /><path d="M 98,126 L 97,127 L 97,129 L 96,130 L 96,132 L 95,133 L 95,134 L 94,135 L 94,137 L 93,138 L 94,138 L 94,137 L 96,135 L 97,135 L 97,131 L 98,130 L 98,127 L 99,126 Z" fill="white" stroke="white" stroke-width="0.5" /><path d="M 156,124 L 156,125 L 155,126 L 156,127 L 159,127 L 160,128 L 160,129 L 163,129 L 163,127 L 162,126 L 161,126 L 159,124 Z" fill="white" stroke="white" stroke-width="0.5" /><path d="M 151,123 L 151,125 Z" fill="white" stroke="white" stroke-width="0.5" /><path d="M 104,118 L 100,122 L 100,124 L 101,123 L 102,123 L 104,121 Z" fill="white" stroke="white" stroke-width="0.5" /><path d="M 335,111 L 335,112 L 334,113 L 334,115 L 335,116 L 335,118 L 337,120 L 340,120 L 340,117 L 338,115 L 338,113 L 336,111 Z" fill="white" stroke="white" stroke-width="0.5" /><path d="M 302,109 L 298,113 L 298,114 L 300,116 L 300,117 L 302,119 L 302,120 L 304,122 L 304,127 L 306,129 L 307,129 L 309,131 L 310,131 L 312,129 L 312,126 L 311,125 L 311,124 L 310,123 L 311,122 L 311,119 L 310,118 L 309,118 L 305,114 L 307,112 L 307,109 Z" fill="white" stroke="white" stroke-width="0.5" /><path d="M 98,107 L 96,109 L 96,117 L 95,118 L 95,121 L 97,121 L 98,120 L 98,119 L 99,118 L 100,118 L 100,115 L 99,114 L 99,108 Z" fill="white" stroke="white" stroke-width="0.5" /><path d="M 135,90 L 135,92 L 137,94 L 137,95 L 139,97 L 141,97 L 142,98 L 143,98 L 144,99 L 145,99 L 146,98 L 145,97 L 145,96 L 139,90 Z" fill="white" stroke="white" stroke-width="0.5" /><path d="M 111,87 L 111,88 L 110,89 L 109,89 L 105,93 L 106,94 L 106,95 L 103,98 L 103,101 L 104,101 L 105,100 L 105,99 L 106,98 L 106,94 L 107,93 L 108,93 L 110,91 L 110,89 L 111,88 Z" fill="white" stroke="white" stroke-width="0.5" /><path d="M 306,85 L 306,86 L 305,87 L 304,87 L 305,88 L 306,87 L 308,89 L 308,90 L 309,90 L 310,91 L 312,91 L 311,90 L 311,88 L 312,87 L 310,85 Z" fill="white" stroke="white" stroke-width="0.5" /><path d="M 200,73 L 200,76 L 203,76 L 203,74 L 202,73 Z" fill="white" stroke="white" stroke-width="0.5" /><path d="M 188,64 L 187,65 L 184,65 L 183,66 L 182,65 L 178,65 L 177,66 L 176,66 L 174,68 L 175,69 L 175,71 L 176,72 L 180,72 L 181,73 L 182,73 L 183,72 L 186,72 L 186,71 L 187,70 L 190,70 L 192,68 L 193,68 L 192,67 L 192,66 L 190,64 Z" fill="white" stroke="white" stroke-width="0.5" /><path d="M 167,62 L 167,63 L 166,64 L 165,64 L 166,64 L 167,63 L 168,63 L 169,62 Z" fill="white" stroke="white" stroke-width="0.5" /><path d="M 172,61 L 171,62 Z" fill="white" stroke="white" stroke-width="0.5" /><path d="M 268,60 L 269,60 L 270,61 L 270,60 Z" fill="white" stroke="white" stroke-width="0.5" /><path d="M 175,60 L 175,61 L 177,61 L 178,60 Z" fill="white" stroke="white" stroke-width="0.5" /><path d="M 246,54 L 244,56 L 241,56 L 240,57 L 239,57 L 238,58 L 236,58 L 234,60 L 233,60 L 233,64 L 230,67 L 230,68 L 229,69 L 228,69 L 227,70 L 226,70 L 225,71 L 224,71 L 220,75 L 220,81 L 223,84 L 225,84 L 226,85 L 226,91 L 225,92 L 222,92 L 217,97 L 216,96 L 216,95 L 214,93 L 214,92 L 210,88 L 210,84 L 209,83 L 209,81 L 210,80 L 211,80 L 212,79 L 212,77 L 209,77 L 209,78 L 207,80 L 206,80 L 205,81 L 204,81 L 203,82 L 200,82 L 198,84 L 198,86 L 199,87 L 196,90 L 195,90 L 193,92 L 192,92 L 192,98 L 193,99 L 196,99 L 197,98 L 198,98 L 199,97 L 200,97 L 201,98 L 201,99 L 200,100 L 200,102 L 201,102 L 202,103 L 202,106 L 203,107 L 204,107 L 205,108 L 206,108 L 207,109 L 207,110 L 208,111 L 208,113 L 206,115 L 201,115 L 200,114 L 196,114 L 195,115 L 193,115 L 193,116 L 192,117 L 192,118 L 193,119 L 193,120 L 192,121 L 192,129 L 193,130 L 196,130 L 197,131 L 197,132 L 194,135 L 193,135 L 192,136 L 192,137 L 190,139 L 190,142 L 187,145 L 185,145 L 184,144 L 182,144 L 181,145 L 173,145 L 173,148 L 179,148 L 181,150 L 180,151 L 180,152 L 179,153 L 179,154 L 177,156 L 177,157 L 175,159 L 176,160 L 176,163 L 177,164 L 177,169 L 176,170 L 176,171 L 175,172 L 175,173 L 176,174 L 176,177 L 177,178 L 177,179 L 178,180 L 179,180 L 183,184 L 183,185 L 185,187 L 186,187 L 187,188 L 188,188 L 190,190 L 191,190 L 193,192 L 199,192 L 200,191 L 205,191 L 206,192 L 207,192 L 208,191 L 209,191 L 210,190 L 213,190 L 214,189 L 219,189 L 222,192 L 225,192 L 228,195 L 227,196 L 225,196 L 224,197 L 224,198 L 223,199 L 224,199 L 225,200 L 226,199 L 226,198 L 227,197 L 228,198 L 228,202 L 230,204 L 230,205 L 231,205 L 234,208 L 234,210 L 236,212 L 236,219 L 234,221 L 234,223 L 233,224 L 233,225 L 232,226 L 232,229 L 234,231 L 234,232 L 236,234 L 236,239 L 237,240 L 237,244 L 239,246 L 239,247 L 240,248 L 240,252 L 241,253 L 241,254 L 252,254 L 254,252 L 256,252 L 258,250 L 259,250 L 261,248 L 262,248 L 265,245 L 265,244 L 267,242 L 267,241 L 268,240 L 269,240 L 270,239 L 271,239 L 272,238 L 272,235 L 273,234 L 273,232 L 275,230 L 276,230 L 277,229 L 278,229 L 280,227 L 281,227 L 284,224 L 284,223 L 285,222 L 285,220 L 286,219 L 286,215 L 285,214 L 285,213 L 286,212 L 286,207 L 288,205 L 288,204 L 289,203 L 290,203 L 290,202 L 293,199 L 294,199 L 294,198 L 295,197 L 296,197 L 298,195 L 299,195 L 305,189 L 305,187 L 307,185 L 307,184 L 308,183 L 308,182 L 309,181 L 309,177 L 308,176 L 307,177 L 303,177 L 302,176 L 303,175 L 305,175 L 307,173 L 308,173 L 309,172 L 310,172 L 311,171 L 312,171 L 314,169 L 315,169 L 317,167 L 318,167 L 320,165 L 320,164 L 322,162 L 322,160 L 323,159 L 323,157 L 322,156 L 322,155 L 323,154 L 330,154 L 333,157 L 333,158 L 334,159 L 334,160 L 338,164 L 338,173 L 339,174 L 339,175 L 339,166 L 338,165 L 338,160 L 337,160 L 335,158 L 335,157 L 332,154 L 332,153 L 331,152 L 330,152 L 329,151 L 328,152 L 322,152 L 321,151 L 320,151 L 318,149 L 313,149 L 308,144 L 308,143 L 307,143 L 306,142 L 304,144 L 304,146 L 307,149 L 307,151 L 311,155 L 314,155 L 316,153 L 317,153 L 321,157 L 321,160 L 319,162 L 319,163 L 314,168 L 312,168 L 308,172 L 305,172 L 304,173 L 303,173 L 302,174 L 301,174 L 300,175 L 297,175 L 296,174 L 296,173 L 295,172 L 295,170 L 296,169 L 294,167 L 294,166 L 293,165 L 293,164 L 290,161 L 290,160 L 289,159 L 289,158 L 290,157 L 286,153 L 286,151 L 285,151 L 284,150 L 284,149 L 281,146 L 280,146 L 279,145 L 278,145 L 277,146 L 279,148 L 279,151 L 281,153 L 281,154 L 283,156 L 283,157 L 285,159 L 285,163 L 286,164 L 286,165 L 289,168 L 289,171 L 290,171 L 295,176 L 295,178 L 297,180 L 301,180 L 302,179 L 305,179 L 306,178 L 308,180 L 307,181 L 307,182 L 306,183 L 306,184 L 305,185 L 304,185 L 304,187 L 302,189 L 302,190 L 298,194 L 297,194 L 293,198 L 292,198 L 285,205 L 285,206 L 283,208 L 283,214 L 284,215 L 284,216 L 285,217 L 285,218 L 284,219 L 284,220 L 283,221 L 283,224 L 282,225 L 281,225 L 279,227 L 278,227 L 277,228 L 276,228 L 273,231 L 272,231 L 272,235 L 271,236 L 271,237 L 270,238 L 270,239 L 269,240 L 267,240 L 266,241 L 266,242 L 264,244 L 264,245 L 263,246 L 262,246 L 258,250 L 257,250 L 256,251 L 255,251 L 254,252 L 253,252 L 252,253 L 243,253 L 242,252 L 242,249 L 241,248 L 241,247 L 240,246 L 240,245 L 239,244 L 239,243 L 238,242 L 238,235 L 236,233 L 236,232 L 235,231 L 235,230 L 234,229 L 234,226 L 235,225 L 235,223 L 236,222 L 236,221 L 238,219 L 238,217 L 237,216 L 237,210 L 236,209 L 236,208 L 235,207 L 235,206 L 234,206 L 233,205 L 233,204 L 232,204 L 231,203 L 231,202 L 230,201 L 230,200 L 231,199 L 231,193 L 229,191 L 228,191 L 227,190 L 226,190 L 225,191 L 223,191 L 222,190 L 222,189 L 220,187 L 214,187 L 213,188 L 212,188 L 211,189 L 208,189 L 207,190 L 205,190 L 204,189 L 201,189 L 200,190 L 198,190 L 197,191 L 195,191 L 194,190 L 193,190 L 191,188 L 190,188 L 189,187 L 188,187 L 184,183 L 184,182 L 178,176 L 178,169 L 180,167 L 180,166 L 179,165 L 179,163 L 178,162 L 178,158 L 179,157 L 179,156 L 181,154 L 181,153 L 182,152 L 182,151 L 187,146 L 189,146 L 189,145 L 190,144 L 191,144 L 191,140 L 196,135 L 197,135 L 200,132 L 204,132 L 205,133 L 208,133 L 210,131 L 212,131 L 213,130 L 214,130 L 215,129 L 231,129 L 233,131 L 233,132 L 232,133 L 232,135 L 233,135 L 235,137 L 240,137 L 242,139 L 243,139 L 244,140 L 245,140 L 246,141 L 248,141 L 249,142 L 252,142 L 252,141 L 254,139 L 254,138 L 255,137 L 256,137 L 258,139 L 261,139 L 262,140 L 264,140 L 265,141 L 269,141 L 270,142 L 271,141 L 280,141 L 280,140 L 281,139 L 281,138 L 282,137 L 282,130 L 281,130 L 280,129 L 279,130 L 275,130 L 274,129 L 273,129 L 272,130 L 269,130 L 267,128 L 266,128 L 265,127 L 265,124 L 264,123 L 265,122 L 268,122 L 269,121 L 271,121 L 272,120 L 275,120 L 276,119 L 279,119 L 280,120 L 283,120 L 284,121 L 289,121 L 291,119 L 291,117 L 290,117 L 286,113 L 285,113 L 283,111 L 283,110 L 284,109 L 284,107 L 280,107 L 276,111 L 274,109 L 273,109 L 272,108 L 271,108 L 267,112 L 267,113 L 266,114 L 266,115 L 265,116 L 265,118 L 266,119 L 264,121 L 263,120 L 260,120 L 259,121 L 258,121 L 257,122 L 256,122 L 256,124 L 255,125 L 254,125 L 250,121 L 250,119 L 248,117 L 247,117 L 245,115 L 244,115 L 243,114 L 242,114 L 241,113 L 241,112 L 240,111 L 239,111 L 238,110 L 236,110 L 235,111 L 235,113 L 240,118 L 242,118 L 243,119 L 243,120 L 244,120 L 245,121 L 245,122 L 244,123 L 243,122 L 242,122 L 241,121 L 241,120 L 239,120 L 238,119 L 237,119 L 231,113 L 227,113 L 225,115 L 218,115 L 218,116 L 214,120 L 213,120 L 211,122 L 211,123 L 210,124 L 210,125 L 209,126 L 209,127 L 208,128 L 207,128 L 206,129 L 202,129 L 201,130 L 199,130 L 197,128 L 195,128 L 193,126 L 193,124 L 194,123 L 194,122 L 195,121 L 195,117 L 196,116 L 208,116 L 209,115 L 209,114 L 210,113 L 210,110 L 208,108 L 208,107 L 207,107 L 206,106 L 207,105 L 208,105 L 210,103 L 212,103 L 213,102 L 214,102 L 217,99 L 219,99 L 220,98 L 220,97 L 222,95 L 223,95 L 224,94 L 226,94 L 227,93 L 229,93 L 230,92 L 232,92 L 233,93 L 234,93 L 235,92 L 237,92 L 238,93 L 240,93 L 241,92 L 242,92 L 243,91 L 246,91 L 247,92 L 248,92 L 249,91 L 250,91 L 251,90 L 251,88 L 250,87 L 251,86 L 255,86 L 256,85 L 256,84 L 255,83 L 255,82 L 257,80 L 258,81 L 260,81 L 261,80 L 262,80 L 263,79 L 262,78 L 255,78 L 254,79 L 253,79 L 250,76 L 250,71 L 251,70 L 252,70 L 254,68 L 254,67 L 253,66 L 249,66 L 247,68 L 247,69 L 242,74 L 242,77 L 244,79 L 244,80 L 243,81 L 243,82 L 242,83 L 242,85 L 239,88 L 236,88 L 235,87 L 235,85 L 233,83 L 233,82 L 231,80 L 230,80 L 228,82 L 227,82 L 226,83 L 225,83 L 223,81 L 223,80 L 222,79 L 222,75 L 223,74 L 224,74 L 225,73 L 226,73 L 228,71 L 229,71 L 230,70 L 231,70 L 232,69 L 232,68 L 235,65 L 235,64 L 239,60 L 240,60 L 241,59 L 241,58 L 242,57 L 247,57 L 248,56 L 252,56 L 253,55 L 255,55 L 256,56 L 256,57 L 257,57 L 258,58 L 260,58 L 261,59 L 266,59 L 265,59 L 264,58 L 262,58 L 260,56 L 257,56 L 256,55 L 255,55 L 254,54 Z" fill="white" stroke="white" stroke-width="0.5" /><path d="M 202,54 L 201,55 L 203,55 L 203,54 Z" fill="white" stroke="white" stroke-width="0.5" /><path d="M 139,51 L 138,52 L 137,52 L 134,55 L 134,56 L 135,57 L 135,59 L 133,61 L 133,62 L 132,63 L 131,62 L 131,61 L 130,60 L 128,60 L 126,62 L 126,63 L 123,66 L 125,68 L 124,69 L 123,69 L 122,70 L 120,70 L 118,72 L 118,73 L 116,75 L 115,75 L 115,77 L 114,78 L 115,79 L 115,81 L 115,80 L 117,78 L 118,78 L 119,79 L 119,82 L 118,83 L 118,85 L 119,86 L 120,85 L 121,85 L 122,86 L 122,87 L 120,89 L 120,91 L 122,93 L 121,94 L 123,96 L 122,97 L 122,98 L 121,99 L 119,99 L 117,101 L 112,101 L 110,103 L 109,103 L 109,104 L 107,106 L 107,107 L 106,108 L 106,109 L 107,108 L 108,108 L 109,107 L 110,108 L 110,111 L 108,113 L 107,113 L 105,115 L 105,116 L 106,116 L 107,117 L 108,117 L 109,116 L 110,116 L 110,115 L 111,114 L 113,116 L 114,115 L 113,114 L 115,112 L 115,111 L 117,109 L 118,110 L 119,110 L 120,111 L 122,111 L 124,109 L 124,108 L 125,107 L 125,104 L 123,102 L 123,101 L 124,100 L 124,99 L 125,98 L 125,93 L 123,91 L 123,81 L 125,79 L 125,78 L 127,76 L 127,75 L 135,67 L 135,62 L 136,61 L 136,60 L 137,59 L 137,55 L 139,53 Z" fill="white" stroke="white" stroke-width="0.5" /><path d="M 151,50 L 151,52 L 150,53 L 149,53 L 149,54 L 147,56 L 147,58 L 145,60 L 145,61 L 144,62 L 144,63 L 141,66 L 141,67 L 139,69 L 139,78 L 141,80 L 142,80 L 143,81 L 146,81 L 148,79 L 148,78 L 157,69 L 159,69 L 161,67 L 162,67 L 163,66 L 158,66 L 157,67 L 155,67 L 152,70 L 152,71 L 148,75 L 148,76 L 145,79 L 144,79 L 143,78 L 142,78 L 140,76 L 140,73 L 142,71 L 142,66 L 143,65 L 144,65 L 144,64 L 145,63 L 146,63 L 149,60 L 149,59 L 150,58 L 150,53 L 151,52 Z" fill="white" stroke="white" stroke-width="0.5" /><path d="M 240,47 L 240,48 Z" fill="white" stroke="white" stroke-width="0.5" /><path d="M 143,47 L 143,48 L 144,47 Z" fill="white" stroke="white" stroke-width="0.5" /><path d="M 282,45 L 280,47 L 280,49 L 281,50 L 281,54 L 282,55 L 283,55 L 285,57 L 287,57 L 288,58 L 288,59 L 287,60 L 284,60 L 283,59 L 281,59 L 280,60 L 276,60 L 276,61 L 275,62 L 273,62 L 274,63 L 274,64 L 272,66 L 270,66 L 269,65 L 267,65 L 266,64 L 264,64 L 266,66 L 266,67 L 267,67 L 268,68 L 268,69 L 270,71 L 271,71 L 272,72 L 274,70 L 275,70 L 276,69 L 276,68 L 277,67 L 279,67 L 281,65 L 284,65 L 284,64 L 285,63 L 286,63 L 287,62 L 288,62 L 289,63 L 291,63 L 292,62 L 294,62 L 295,63 L 296,62 L 296,61 L 297,60 L 298,61 L 299,61 L 300,62 L 301,62 L 302,63 L 303,63 L 304,62 L 305,62 L 306,63 L 307,63 L 308,64 L 308,65 L 307,66 L 308,67 L 310,67 L 311,66 L 311,63 L 309,61 L 308,61 L 307,60 L 307,59 L 308,58 L 309,59 L 310,59 L 310,58 L 309,58 L 306,55 L 306,54 L 305,53 L 305,52 L 302,49 L 301,49 L 301,51 L 300,52 L 296,52 L 295,53 L 297,55 L 297,56 L 295,58 L 292,58 L 290,56 L 287,56 L 285,54 L 286,53 L 285,52 L 285,51 L 286,50 L 286,49 L 288,47 L 288,46 L 287,45 Z" fill="white" stroke="white" stroke-width="0.5" /><path d="M 151,43 L 148,46 L 149,47 L 150,47 L 151,46 L 152,47 L 152,48 L 153,49 L 153,47 L 152,46 L 152,44 L 153,43 Z" fill="white" stroke="white" stroke-width="0.5" /><path d="M 262,35 L 261,36 L 262,37 L 263,37 L 264,38 L 274,38 L 274,36 L 273,35 Z" fill="white" stroke="white" stroke-width="0.5" /><path d="M 236,35 L 235,36 L 231,36 L 230,37 L 228,37 L 227,38 L 228,39 L 228,40 L 230,40 L 232,42 L 235,42 L 236,43 L 238,41 L 240,41 L 241,42 L 244,42 L 244,41 L 245,40 L 247,40 L 248,39 L 248,38 L 250,36 L 249,36 L 249,37 L 248,38 L 246,38 L 245,37 L 243,37 L 242,38 L 241,37 L 241,36 L 238,36 L 237,35 Z" fill="white" stroke="white" stroke-width="0.5" /><path d="M 203,34 L 205,34 Z" fill="white" stroke="white" stroke-width="0.5" /><path d="M 173,34 L 178,34 Z" fill="white" stroke="white" stroke-width="0.5" /><path d="M 169,34 L 171,34 Z" fill="white" stroke="white" stroke-width="0.5" /><path d="M 194,31 L 194,33 L 197,36 L 194,39 L 193,39 L 192,40 L 192,42 L 191,43 L 190,43 L 190,46 L 186,50 L 184,50 L 183,51 L 181,51 L 183,53 L 183,54 L 182,55 L 181,55 L 180,54 L 179,54 L 177,56 L 176,56 L 176,57 L 178,57 L 180,59 L 181,59 L 183,57 L 184,57 L 184,56 L 185,55 L 185,54 L 186,53 L 186,52 L 188,50 L 189,50 L 191,48 L 192,48 L 193,47 L 193,46 L 194,45 L 194,44 L 196,42 L 196,39 L 197,38 L 197,36 L 198,35 L 201,35 L 201,34 L 199,32 L 198,32 L 197,31 Z" fill="white" stroke="white" stroke-width="0.5" /></svg>