<svg width="121" height="23" viewBox="0 0 121 23" fill="none" xmlns="http://www.w3.org/2000/svg">
<mask id="mask0_3341_61" style="mask-type:luminance" maskUnits="userSpaceOnUse" x="0" y="0" width="121" height="24">
<path d="M120.125 0.986816H0V23.0068H120.125V0.986816Z" fill="white"/>
</mask>
<g mask="url(#mask0_3341_61)">
<path d="M18.4156 9.92578V13.0156H14.3329C13.7922 13.0156 13.278 13.1748 13.278 13.7339C13.278 14.2249 13.717 14.578 13.8689 14.7144L18.4156 18.7286V22.6398L12.5236 17.5875C12.3233 17.4057 11.7825 17.0966 11.1165 17.4284L0 23.0066V19.4363L9.79788 14.578C10.0115 14.4643 10.4388 14.2931 10.4388 13.7339C10.4388 13.1065 9.93642 13.0156 9.44569 13.0156H0V9.92578H18.4156Z" fill="#131313"/>
<path d="M10.6898 7.09077C12.5464 7.09077 14.0515 5.72436 14.0515 4.0388C14.0515 2.35323 12.5464 0.986816 10.6898 0.986816C8.8332 0.986816 7.32812 2.35323 7.32812 4.0388C7.32812 5.72436 8.8332 7.09077 10.6898 7.09077Z" fill="#131313"/>
<path d="M40.4481 9.55027V14.7435C40.4481 19.3715 36.5808 22.7947 31.2912 22.7947H23.5898V1.52783H31.2912C36.5808 1.52783 40.4481 4.90865 40.4481 9.55027ZM29.582 19.473H30.637C33.8016 19.473 36.1334 17.3545 36.1334 14.4828V9.84121C36.1334 6.95442 33.8 4.85107 30.637 4.85107H29.582C28.639 4.85107 27.9196 5.38751 27.9196 6.15732V18.1682C27.9196 18.9366 28.639 19.4745 29.582 19.4745V19.473Z" fill="#131313"/>
<path d="M47.1287 1.52783H54.0641L60.2799 22.7962H55.6931L55.2291 21.1853C55.1974 21.0399 54.8135 19.7928 53.1995 19.7928H47.7664C46.1356 19.7928 45.7852 21.0399 45.7367 21.1853L45.2893 22.7962H40.8945L47.1287 1.52783ZM49.2536 16.471H51.7307C53.6635 16.471 53.3763 14.9481 53.313 14.6571L50.9161 5.18445C50.8844 4.99654 50.7559 4.79348 50.4854 4.79348C50.1983 4.79348 50.1015 4.99654 50.0699 5.18445L47.6729 14.6571C47.6095 14.9465 47.3207 16.471 49.2552 16.471H49.2536Z" fill="#131313"/>
<path d="M62.2465 4.84955H58.2188V1.52783H74.5814V4.84955H70.3952C69.357 4.84955 68.5575 5.56027 68.5575 6.51799V22.7947H64.2427V6.66346C64.2427 5.61936 63.3965 4.84955 62.2448 4.84955H62.2465Z" fill="#131313"/>
<path d="M78.7498 1.52783H85.6851L91.901 22.7962H87.3142L86.8502 21.1853C86.8185 21.0399 86.4346 19.7928 84.8205 19.7928H79.3875C77.7567 19.7928 77.4061 21.0399 77.3578 21.1853L76.9104 22.7962H72.5156L78.7498 1.52783ZM80.8746 16.471H83.3517C85.2845 16.471 84.9974 14.9481 84.934 14.6571L82.5371 5.18445C82.5054 4.99654 82.3769 4.79348 82.1065 4.79348C81.8194 4.79348 81.7226 4.99654 81.6909 5.18445L79.294 14.6571C79.2305 14.9465 78.9418 16.471 80.8763 16.471H80.8746Z" fill="#131313"/>
<path d="M94.8555 1.52783H99.1852V6.24219C99.1852 6.86652 99.4088 7.46056 100.192 7.46056C100.879 7.46056 101.374 6.9529 101.565 6.77863L107.19 1.52783H112.672L105.593 8.3319C105.338 8.56375 104.906 9.18809 105.369 9.95639L113.183 22.7947H108.181L101.375 11.4794C101.215 11.2323 100.976 10.7399 100.193 10.7399C99.3137 10.7399 99.1869 11.3202 99.1869 11.8855V22.7947H94.8571V1.52783H94.8555Z" fill="#131313"/>
<path d="M120.123 1.52783V22.7962H115.793V1.52783H120.123Z" fill="#131313"/>
</g>
</svg>
